<svg width="139" height="200" viewBox="0 0 139 200" fill="none" xmlns="http://www.w3.org/2000/svg">
<path d="M117.001 0C119.336 0 121.251 0.70357 122.746 2.11133C124.241 3.5192 124.988 5.2175 124.988 7.20508V23.8506C124.988 25.8382 124.241 27.5365 122.746 28.9443C121.251 30.3522 119.336 31.0557 117.001 31.0557H61.0928C55.4879 31.0557 51.097 31.8425 47.9209 33.416C44.8385 34.9066 42.5502 36.9358 41.0557 39.5029C39.5611 41.9873 38.6266 44.8445 38.2529 48.0742C37.9727 51.2212 37.833 54.4099 37.833 57.6396V73.54C41.1023 72.6292 44.6518 71.9668 48.4814 71.5527C52.4048 71.0558 56.6089 70.8076 61.0928 70.8076H61.8828L69.8301 77.6709L78.0469 70.8076C90.0345 70.8204 99.9365 72.4766 107.753 75.7764C115.6 79.089 121.811 83.4373 126.389 88.8203C131.059 94.2033 134.329 100.373 136.197 107.329C138.066 114.203 139 121.242 139 128.447V142.36C139 149.565 138.066 156.646 136.197 163.603C134.329 170.476 131.059 176.604 126.389 181.987C121.811 187.37 115.6 191.719 107.753 195.031C99.9062 198.344 89.9576 200 77.9072 200H61.0928C49.0424 200 39.0938 198.344 31.2471 195.031C23.4003 191.719 17.1414 187.37 12.4707 181.987C7.89353 176.604 4.67099 170.476 2.80273 163.603C0.934462 156.646 7.17106e-06 149.565 0 142.36V57.6396C9.44603e-06 50.4347 0.934464 43.3952 2.80273 36.5215C4.67101 29.5652 7.89357 23.3956 12.4707 18.0127C17.1414 12.6297 23.4003 8.28138 31.2471 4.96875C39.0938 1.65616 49.0424 0 61.0928 0H117.001ZM62.4941 101.863C56.8893 101.863 52.4983 102.65 49.3223 104.224C46.2398 105.714 43.9516 107.743 42.457 110.311C40.9624 112.795 40.028 115.652 39.6543 118.882C39.3741 122.029 39.2334 125.217 39.2334 128.447V142.36C39.2334 145.59 39.3741 148.82 39.6543 152.05C40.028 155.197 40.9624 158.054 42.457 160.621C43.9516 163.105 46.2398 165.135 49.3223 166.708C52.4983 168.199 56.8893 168.944 62.4941 168.944H76.5059C82.1106 168.944 86.4545 168.199 89.5371 166.708C92.7131 165.135 95.0483 163.105 96.543 160.621C98.0376 158.054 98.9258 155.197 99.2061 152.05C99.5797 148.82 99.7666 145.59 99.7666 142.36V128.447C99.7666 125.217 99.5797 122.029 99.2061 118.882C98.9258 115.652 98.0376 112.795 96.543 110.311C95.0483 107.743 92.7131 105.714 89.5371 104.224C86.4545 102.65 82.1106 101.863 76.5059 101.863H62.4941Z" fill="#FF691E"/>
<path d="M50.0838 130C49.5838 124.167 51.0838 112.4 61.0838 112" stroke="#FF691E" stroke-width="6"/>
</svg>
