<svg width="89" height="89" viewBox="0 0 89 89" fill="none" xmlns="http://www.w3.org/2000/svg">
<rect x="38.9375" y="22.25" width="5.5625" height="5.5625" fill="#FF691E"/>
<rect x="38.9375" y="16.6875" width="5.5625" height="5.5625" fill="#FF691E"/>
<rect x="38.9375" y="11.125" width="5.5625" height="5.5625" fill="#FF691E"/>
<rect x="38.9375" y="27.8125" width="5.5625" height="5.5625" fill="#FF691E"/>
<rect x="38.9375" y="33.375" width="5.5625" height="5.5625" fill="#FF691E"/>
<rect x="38.9375" y="38.9375" width="5.5625" height="5.5625" fill="#FF691E"/>
<rect x="38.9375" y="44.5" width="5.5625" height="5.5625" fill="#FF691E"/>
<rect x="38.9375" y="50.0625" width="5.5625" height="5.5625" fill="#FF691E"/>
<rect x="16.6875" y="55.625" width="5.5625" height="5.5625" fill="#FF691E"/>
<rect x="38.9375" y="55.625" width="5.5625" height="5.5625" fill="#FF691E"/>
<rect x="61.1875" y="55.625" width="5.5625" height="5.5625" fill="#FF691E"/>
<rect x="22.25" y="61.1875" width="5.5625" height="5.5625" fill="#FF691E"/>
<rect x="38.9375" y="61.1875" width="5.5625" height="5.5625" fill="#FF691E"/>
<rect x="55.625" y="61.1875" width="5.5625" height="5.5625" fill="#FF691E"/>
<rect x="27.8125" y="66.75" width="5.5625" height="5.5625" fill="#FF691E"/>
<rect x="38.9375" y="66.75" width="5.5625" height="5.5625" fill="#FF691E"/>
<rect x="50.0625" y="66.75" width="5.5625" height="5.5625" fill="#FF691E"/>
<rect x="33.375" y="72.3125" width="5.5625" height="5.5625" fill="#FF691E"/>
<rect x="38.9375" y="72.3125" width="5.5625" height="5.5625" fill="#FF691E"/>
<rect x="44.5" y="72.3125" width="5.5625" height="5.5625" fill="#FF691E"/>
<rect x="38.9375" y="77.875" width="5.5625" height="5.5625" fill="#FF691E"/>
</svg>
