<svg width="712" height="712" viewBox="0 0 712 712" fill="none" xmlns="http://www.w3.org/2000/svg">
<path d="M367.868 0C558.648 6.43156 711.333 163.115 711.333 355.46C711.333 551.889 552.096 711.127 355.667 711.127C159.238 711.127 0 551.889 0 355.46C0.000223383 163.91 151.426 7.72785 341.102 0.0878906L354.444 14.46L367.868 0ZM466.364 626.303L479.8 657.448L495.093 650.852L481.658 619.705L466.364 626.303ZM195.555 645.029L210.41 652.561L225.749 622.307L210.894 614.775L195.555 645.029ZM355.667 338.555C344.192 338.555 334.889 347.857 334.889 359.332C334.889 370.807 344.192 380.11 355.667 380.11C367.142 380.11 376.444 370.807 376.444 359.332C376.444 347.857 367.142 338.555 355.667 338.555ZM22 350.776V367.433H55.9199V350.776H22ZM633.111 367.433H667.031V350.776H633.111V367.433ZM464.899 90.1416L479.755 97.6729L495.093 67.4189L480.237 59.8877L464.899 90.1416ZM195.556 61.5967L208.99 92.7432L224.283 86.1465L210.849 55L195.556 61.5967Z" fill="#0F100F"/>
</svg>
