<svg width="19" height="24" viewBox="0 0 19 24" fill="none" xmlns="http://www.w3.org/2000/svg">
<path d="M10.2736 18.3379H9.47656V19.1349H10.2736V18.3379Z" fill="#FF691E"/>
<path d="M9.47283 19.1357H8.67578V19.9328H9.47283V19.1357Z" fill="#FF691E"/>
<path d="M8.67595 18.3379H7.87891V19.1349H8.67595V18.3379Z" fill="#FF691E"/>
<path d="M7.87713 17.542H7.08008V18.339H7.87713V17.542Z" fill="#FF691E"/>
<path d="M7.08025 16.7432H6.2832V17.5402H7.08025V16.7432Z" fill="#FF691E"/>
<path d="M6.28338 15.9463H5.48633V16.7433H6.28338V15.9463Z" fill="#FF691E"/>
<path d="M5.48455 15.1475H4.6875V15.9445H5.48455V15.1475Z" fill="#FF691E"/>
<path d="M4.68767 13.5537H3.89062V14.3508H4.68767V13.5537Z" fill="#FF691E"/>
<path d="M3.88884 12.7559H3.0918V13.5529H3.88884V12.7559Z" fill="#FF691E"/>
<path d="M3.88884 11.957H3.0918V12.7541H3.88884V11.957Z" fill="#FF691E"/>
<path d="M3.09197 10.3613H2.29492V11.1584H3.09197V10.3613Z" fill="#FF691E"/>
<path d="M3.09197 11.1602H2.29492V11.9572H3.09197V11.1602Z" fill="#FF691E"/>
<path d="M3.09197 9.56543H2.29492V10.3625H3.09197V9.56543Z" fill="#FF691E"/>
<path d="M3.09197 8.7666H2.29492V9.56365H3.09197V8.7666Z" fill="#FF691E"/>
<path d="M3.88884 7.96973H3.0918V8.76677H3.88884V7.96973Z" fill="#FF691E"/>
<path d="M3.88884 7.1709H3.0918V7.96795H3.88884V7.1709Z" fill="#FF691E"/>
<path d="M4.68767 6.37402H3.89062V7.17107H4.68767V6.37402Z" fill="#FF691E"/>
<path d="M5.48455 5.57715H4.6875V6.3742H5.48455V5.57715Z" fill="#FF691E"/>
<path d="M6.28338 4.77832H5.48633V5.57537H6.28338V4.77832Z" fill="#FF691E"/>
<path d="M7.08025 4.77832H6.2832V5.57537H7.08025V4.77832Z" fill="#FF691E"/>
<path d="M7.87713 3.98047H7.08008V4.77752H7.87713V3.98047Z" fill="#FF691E"/>
<path d="M8.67595 3.98047H7.87891V4.77752H8.67595V3.98047Z" fill="#FF691E"/>
<path d="M9.47283 3.98047H8.67578V4.77752H9.47283V3.98047Z" fill="#FF691E"/>
<path d="M4.68767 14.3496H3.89062V15.1467H4.68767V14.3496Z" fill="#FF691E"/>
<path d="M9.47283 7.96973H8.67578V8.76677H9.47283V7.96973Z" fill="#FF691E"/>
<path d="M9.47283 12.7559H8.67578V13.5529H9.47283V12.7559Z" fill="#FF691E"/>
<path d="M11.0684 10.3631L11.0684 11.1602L11.8654 11.1602L11.8654 10.3631L11.0684 10.3631Z" fill="#FF691E"/>
<path d="M6.2832 10.3631L6.2832 11.1602L7.08025 11.1602L7.08025 10.3631L6.2832 10.3631Z" fill="#FF691E"/>
<path d="M8.67595 7.96973H7.87891V8.76677H8.67595V7.96973Z" fill="#FF691E"/>
<path d="M8.67595 12.7559H7.87891V13.5529H8.67595V12.7559Z" fill="#FF691E"/>
<path d="M11.0684 11.16L11.0684 11.957L11.8654 11.957L11.8654 11.16L11.0684 11.16Z" fill="#FF691E"/>
<path d="M6.2832 11.16L6.2832 11.957L7.08025 11.957L7.08025 11.16L6.2832 11.16Z" fill="#FF691E"/>
<path d="M10.2736 7.96973H9.47656V8.76677H10.2736V7.96973Z" fill="#FF691E"/>
<path d="M10.2736 12.7559H9.47656V13.5529H10.2736V12.7559Z" fill="#FF691E"/>
<path d="M11.0684 9.56428L11.0684 10.3613L11.8654 10.3613L11.8654 9.56428L11.0684 9.56428Z" fill="#FF691E"/>
<path d="M6.2832 9.56428L6.2832 10.3613L7.08025 10.3613L7.08025 9.56428L6.2832 9.56428Z" fill="#FF691E"/>
<path d="M7.08008 11.9588L7.08008 12.7559L7.87713 12.7559L7.87713 11.9588L7.08008 11.9588Z" fill="#FF691E"/>
<path d="M10.2715 11.9588L10.2715 12.7559L11.0685 12.7559L11.0685 11.9588L10.2715 11.9588Z" fill="#FF691E"/>
<path d="M10.2715 8.76838L10.2715 9.56543L11.0685 9.56543L11.0685 8.76838L10.2715 8.76838Z" fill="#FF691E"/>
<path d="M7.08008 8.76838L7.08008 9.56543L7.87713 9.56543L7.87713 8.76838L7.08008 8.76838Z" fill="#FF691E"/>
<path d="M8.57405 19.1357H9.37109V19.9328H8.57405V19.1357Z" fill="#FF691E"/>
<path d="M9.37092 18.3379H10.168V19.1349H9.37092V18.3379Z" fill="#FF691E"/>
<path d="M10.1717 17.542H10.9688V18.339H10.1717V17.542Z" fill="#FF691E"/>
<path d="M10.9686 16.7432H11.7656V17.5402H10.9686V16.7432Z" fill="#FF691E"/>
<path d="M11.7635 15.9463H12.5605V16.7433H11.7635V15.9463Z" fill="#FF691E"/>
<path d="M12.5623 15.1475H13.3594V15.9445H12.5623V15.1475Z" fill="#FF691E"/>
<path d="M13.3592 13.5537H14.1562V14.3508H13.3592V13.5537Z" fill="#FF691E"/>
<path d="M14.158 12.7559H14.9551V13.5529H14.158V12.7559Z" fill="#FF691E"/>
<path d="M14.158 11.957H14.9551V12.7541H14.158V11.957Z" fill="#FF691E"/>
<path d="M14.9549 10.3613H15.752V11.1584H14.9549V10.3613Z" fill="#FF691E"/>
<path d="M14.9549 11.1602H15.752V11.9572H14.9549V11.1602Z" fill="#FF691E"/>
<path d="M14.9549 9.56543H15.752V10.3625H14.9549V9.56543Z" fill="#FF691E"/>
<path d="M14.9549 8.7666H15.752V9.56365H14.9549V8.7666Z" fill="#FF691E"/>
<path d="M14.158 7.96973H14.9551V8.76677H14.158V7.96973Z" fill="#FF691E"/>
<path d="M14.158 7.1709H14.9551V7.96795H14.158V7.1709Z" fill="#FF691E"/>
<path d="M13.3592 6.37402H14.1562V7.17107H13.3592V6.37402Z" fill="#FF691E"/>
<path d="M12.5623 5.57715H13.3594V6.3742H12.5623V5.57715Z" fill="#FF691E"/>
<path d="M11.7635 4.77832H12.5605V5.57537H11.7635V4.77832Z" fill="#FF691E"/>
<path d="M10.9686 4.77832H11.7656V5.57537H10.9686V4.77832Z" fill="#FF691E"/>
<path d="M10.1717 3.98047H10.9688V4.77752H10.1717V3.98047Z" fill="#FF691E"/>
<path d="M9.37092 3.98047H10.168V4.77752H9.37092V3.98047Z" fill="#FF691E"/>
<path d="M8.57405 3.98047H9.37109V4.77752H8.57405V3.98047Z" fill="#FF691E"/>
<path d="M13.3592 14.3496H14.1562V15.1467H13.3592V14.3496Z" fill="#FF691E"/>
<path d="M0.873047 10.4783L0.873047 11.3506L0.000721216 11.3506L0.000721178 10.4783L0.873047 10.4783Z" fill="#FF691E"/>
<path d="M0.873047 11.0593L0.873047 11.9316L0.000721216 11.9316L0.000721178 11.0593L0.873047 11.0593Z" fill="#FF691E"/>
<path d="M0.873047 9.60521L0.873047 10.4775L0.000721216 10.4775L0.000721178 9.60521L0.873047 9.60521Z" fill="#FF691E"/>
<path d="M0.873047 8.73119L0.873047 9.60352L0.000721216 9.60352L0.000721178 8.73119L0.873047 8.73119Z" fill="#FF691E"/>
<path d="M0.873047 6.98607L0.873047 7.8584L0.000721216 7.8584L0.000721178 6.98607L0.873047 6.98607Z" fill="#FF691E"/>
<path d="M0.873047 8.73119L0.873047 9.60352L0.000721216 9.60352L0.000721178 8.73119L0.873047 8.73119Z" fill="#FF691E"/>
<path d="M0.873047 7.85912L0.873047 8.73145L0.000721216 8.73145L0.000721178 7.85912L0.873047 7.85912Z" fill="#FF691E"/>
<path d="M0.873047 5.23998L0.873047 6.1123L0.000721216 6.1123L0.000721178 5.23998L0.873047 5.23998Z" fill="#FF691E"/>
<path d="M0.873047 6.11303L0.873047 6.98535L0.000721216 6.98535L0.000721178 6.11303L0.873047 6.11303Z" fill="#FF691E"/>
<path d="M0.873047 3.49389L0.873047 4.36621L0.000721216 4.36621L0.000721178 3.49389L0.873047 3.49389Z" fill="#FF691E"/>
<path d="M0.873047 4.36693L0.873047 5.23926L0.000721216 5.23926L0.000721178 4.36693L0.873047 4.36693Z" fill="#FF691E"/>
<path d="M0.873047 1.74681L0.873047 2.61914L0.000721216 2.61914L0.000721178 1.74682L0.873047 1.74681Z" fill="#FF691E"/>
<path d="M1.59961 0.874745L1.59961 1.74707L0.727284 1.74707L0.727284 0.874745L1.59961 0.874745Z" fill="#FF691E"/>
<path d="M2.47266 0.000721216L2.47266 0.873047L1.60033 0.873047L1.60033 0.000721254L2.47266 0.000721216Z" fill="#FF691E"/>
<path d="M3.3457 0.000721216L3.3457 0.873047L2.47338 0.873047L2.47338 0.000721254L3.3457 0.000721216Z" fill="#FF691E"/>
<path d="M4.21875 0.000721216L4.21875 0.873047L3.34642 0.873047L3.34642 0.000721254L4.21875 0.000721216Z" fill="#FF691E"/>
<path d="M4.80078 0.000721216L4.80078 0.873047L3.92846 0.873047L3.92846 0.000721254L4.80078 0.000721216Z" fill="#FF691E"/>
<path d="M5.96484 0.000248671L5.96484 0.873047L4.80111 0.873047L4.80111 0.000248721L5.96484 0.000248671Z" fill="#FF691E"/>
<path d="M0.873047 2.62084L0.873047 3.49316L0.000721216 3.49316L0.000721178 2.62084L0.873047 2.62084Z" fill="#FF691E"/>
<path d="M17.168 10.4783L17.168 11.3506L18.0403 11.3506L18.0403 10.4783L17.168 10.4783Z" fill="#FF691E"/>
<path d="M17.168 11.0593L17.168 11.9316L18.0403 11.9316L18.0403 11.0593L17.168 11.0593Z" fill="#FF691E"/>
<path d="M17.168 9.60521L17.168 10.4775L18.0403 10.4775L18.0403 9.60521L17.168 9.60521Z" fill="#FF691E"/>
<path d="M17.168 8.73119L17.168 9.60352L18.0403 9.60352L18.0403 8.73119L17.168 8.73119Z" fill="#FF691E"/>
<path d="M17.168 6.98607L17.168 7.8584L18.0403 7.8584L18.0403 6.98607L17.168 6.98607Z" fill="#FF691E"/>
<path d="M17.168 8.73119L17.168 9.60352L18.0403 9.60352L18.0403 8.73119L17.168 8.73119Z" fill="#FF691E"/>
<path d="M17.168 7.85912L17.168 8.73145L18.0403 8.73145L18.0403 7.85912L17.168 7.85912Z" fill="#FF691E"/>
<path d="M17.168 5.23998L17.168 6.1123L18.0403 6.1123L18.0403 5.23998L17.168 5.23998Z" fill="#FF691E"/>
<path d="M17.168 6.11303L17.168 6.98535L18.0403 6.98535L18.0403 6.11303L17.168 6.11303Z" fill="#FF691E"/>
<path d="M17.168 3.49389L17.168 4.36621L18.0403 4.36621L18.0403 3.49389L17.168 3.49389Z" fill="#FF691E"/>
<path d="M17.168 4.36693L17.168 5.23926L18.0403 5.23926L18.0403 4.36693L17.168 4.36693Z" fill="#FF691E"/>
<path d="M17.168 1.74681L17.168 2.61914L18.0403 2.61914L18.0403 1.74681L17.168 1.74681Z" fill="#FF691E"/>
<path d="M16.2949 0.874745L16.2949 1.74707L17.1672 1.74707L17.1672 0.874745L16.2949 0.874745Z" fill="#FF691E"/>
<path d="M17.168 2.62084L17.168 3.49316L18.0403 3.49316L18.0403 2.62084L17.168 2.62084Z" fill="#FF691E"/>
<path d="M6.83717 0.873047H5.96484V0.000721216H6.83717V0.873047Z" fill="#FF691E"/>
<path d="M7.56373 0.873047H6.69141V0.000721216H7.56373V0.873047Z" fill="#FF691E"/>
<path d="M8.43873 0.873047H7.56641V0.000721216H8.43873V0.873047Z" fill="#FF691E"/>
<path d="M9.31178 0.873047H8.43945V0.000721216H9.31178V0.873047Z" fill="#FF691E"/>
<path d="M11.0579 0.873047H10.1855V0.000721216H11.0579V0.873047Z" fill="#FF691E"/>
<path d="M9.31178 0.873047H8.43945V0.000721216H9.31178V0.873047Z" fill="#FF691E"/>
<path d="M10.1848 0.873047H9.3125V0.000721216H10.1848V0.873047Z" fill="#FF691E"/>
<path d="M12.802 0.873047H11.9297V0.000721216H12.802V0.873047Z" fill="#FF691E"/>
<path d="M11.929 0.873047H11.0566V0.000721216H11.929V0.873047Z" fill="#FF691E"/>
<path d="M14.5501 0.873047H13.6777V0.000721216H14.5501V0.873047Z" fill="#FF691E"/>
<path d="M13.6751 0.873047H12.8027V0.000721216H13.6751V0.873047Z" fill="#FF691E"/>
<path d="M16.2942 0.873047H15.4219V0.000721216H16.2942V0.873047Z" fill="#FF691E"/>
<path d="M15.4231 0.873047H14.5508V0.000721216H15.4231V0.873047Z" fill="#FF691E"/>
<path d="M17.168 13.2786L17.168 12.4062L18.0403 12.4063L18.0403 13.2786L17.168 13.2786Z" fill="#FF691E"/>
<path d="M17.168 12.6965L17.168 11.8242L18.0403 11.8242L18.0403 12.6965L17.168 12.6965Z" fill="#FF691E"/>
<path d="M17.168 14.1506L17.168 13.2783L18.0403 13.2783L18.0403 14.1506L17.168 14.1506Z" fill="#FF691E"/>
<path d="M17.168 15.0247L17.168 14.1523L18.0403 14.1523L18.0403 15.0247L17.168 15.0247Z" fill="#FF691E"/>
<path d="M17.168 16.7698L17.168 15.8975L18.0403 15.8975L18.0403 16.7698L17.168 16.7698Z" fill="#FF691E"/>
<path d="M17.168 15.0247L17.168 14.1523L18.0403 14.1523L18.0403 15.0247L17.168 15.0247Z" fill="#FF691E"/>
<path d="M17.168 15.8967L17.168 15.0244L18.0403 15.0244L18.0403 15.8967L17.168 15.8967Z" fill="#FF691E"/>
<path d="M17.168 18.5159L17.168 17.6436L18.0403 17.6436L18.0403 18.5159L17.168 18.5159Z" fill="#FF691E"/>
<path d="M17.168 17.6428L17.168 16.7705L18.0403 16.7705L18.0403 17.6428L17.168 17.6428Z" fill="#FF691E"/>
<path d="M17.168 20.262L17.168 19.3896L18.0403 19.3896L18.0403 20.262L17.168 20.262Z" fill="#FF691E"/>
<path d="M17.168 19.3889L17.168 18.5166L18.0403 18.5166L18.0403 19.3889L17.168 19.3889Z" fill="#FF691E"/>
<path d="M17.168 22.0081L17.168 21.1357L18.0403 21.1357L18.0403 22.0081L17.168 22.0081Z" fill="#FF691E"/>
<path d="M16.4414 22.8811L16.4414 22.0088L17.3137 22.0088L17.3137 22.8811L16.4414 22.8811Z" fill="#FF691E"/>
<path d="M15.5684 23.7542L15.5684 22.8818L16.4407 22.8818L16.4407 23.7542L15.5684 23.7542Z" fill="#FF691E"/>
<path d="M14.6953 23.7542L14.6953 22.8818L15.5676 22.8818L15.5676 23.7542L14.6953 23.7542Z" fill="#FF691E"/>
<path d="M13.8223 23.7542L13.8223 22.8818L14.6946 22.8818L14.6946 23.7542L13.8223 23.7542Z" fill="#FF691E"/>
<path d="M13.2402 23.7542L13.2402 22.8818L14.1126 22.8818L14.1126 23.7542L13.2402 23.7542Z" fill="#FF691E"/>
<path d="M12.0781 23.7546L12.0781 22.8818L13.2419 22.8818L13.2419 23.7546L12.0781 23.7546Z" fill="#FF691E"/>
<path d="M17.168 21.135L17.168 20.2627L18.0403 20.2627L18.0403 21.135L17.168 21.135Z" fill="#FF691E"/>
<path d="M0.873047 13.2786L0.873047 12.4062L0.000721216 12.4062L0.000721178 13.2786L0.873047 13.2786Z" fill="#FF691E"/>
<path d="M0.873047 12.6965L0.873047 11.8242L0.000721216 11.8242L0.000721178 12.6965L0.873047 12.6965Z" fill="#FF691E"/>
<path d="M0.873047 14.1506L0.873047 13.2783L0.000721216 13.2783L0.000721178 14.1506L0.873047 14.1506Z" fill="#FF691E"/>
<path d="M0.873047 15.0247L0.873047 14.1523L0.000721216 14.1523L0.000721178 15.0247L0.873047 15.0247Z" fill="#FF691E"/>
<path d="M0.873047 16.7698L0.873047 15.8975L0.000721216 15.8975L0.000721178 16.7698L0.873047 16.7698Z" fill="#FF691E"/>
<path d="M0.873047 15.0247L0.873047 14.1523L0.000721216 14.1523L0.000721178 15.0247L0.873047 15.0247Z" fill="#FF691E"/>
<path d="M0.873047 15.8967L0.873047 15.0244L0.000721216 15.0244L0.000721178 15.8967L0.873047 15.8967Z" fill="#FF691E"/>
<path d="M0.873047 18.5159L0.873047 17.6436L0.000721216 17.6436L0.000721178 18.5159L0.873047 18.5159Z" fill="#FF691E"/>
<path d="M0.873047 17.6428L0.873047 16.7705L0.000721216 16.7705L0.000721178 17.6428L0.873047 17.6428Z" fill="#FF691E"/>
<path d="M0.873047 20.262L0.873047 19.3896L0.000721216 19.3896L0.000721178 20.262L0.873047 20.262Z" fill="#FF691E"/>
<path d="M0.873047 19.3889L0.873047 18.5166L0.000721216 18.5166L0.000721178 19.3889L0.873047 19.3889Z" fill="#FF691E"/>
<path d="M0.873047 22.0081L0.873047 21.1357L0.000721216 21.1357L0.000721178 22.0081L0.873047 22.0081Z" fill="#FF691E"/>
<path d="M1.74609 22.8811L1.74609 22.0088L0.873768 22.0088L0.873768 22.8811L1.74609 22.8811Z" fill="#FF691E"/>
<path d="M0.873047 21.135L0.873047 20.2627L0.000721216 20.2627L0.000721178 21.135L0.873047 21.135Z" fill="#FF691E"/>
<path d="M11.2058 22.8818L12.0781 22.8818L12.0781 23.7542L11.2058 23.7542L11.2058 22.8818Z" fill="#FF691E"/>
<path d="M10.4773 22.8818L11.3496 22.8818L11.3496 23.7542L10.4773 23.7542L10.4773 22.8818Z" fill="#FF691E"/>
<path d="M9.60424 22.8818L10.4766 22.8818L10.4766 23.7542L9.60424 23.7542L9.60424 22.8818Z" fill="#FF691E"/>
<path d="M8.73119 22.8818L9.60352 22.8818L9.60352 23.7542L8.73119 23.7542L8.73119 22.8818Z" fill="#FF691E"/>
<path d="M6.9851 22.8818L7.85742 22.8818L7.85742 23.7542L6.9851 23.7542L6.9851 22.8818Z" fill="#FF691E"/>
<path d="M8.73119 22.8818L9.60352 22.8818L9.60352 23.7542L8.73119 23.7542L8.73119 22.8818Z" fill="#FF691E"/>
<path d="M7.85814 22.8818L8.73047 22.8818L8.73047 23.7542L7.85814 23.7542L7.85814 22.8818Z" fill="#FF691E"/>
<path d="M5.239 22.8818L6.11133 22.8818L6.11133 23.7542L5.239 23.7542L5.239 22.8818Z" fill="#FF691E"/>
<path d="M6.11205 22.8818L6.98438 22.8818L6.98437 23.7542L6.11205 23.7542L6.11205 22.8818Z" fill="#FF691E"/>
<path d="M3.49291 22.8818L4.36523 22.8818L4.36523 23.7542L3.49291 23.7542L3.49291 22.8818Z" fill="#FF691E"/>
<path d="M4.36596 22.8818L5.23828 22.8818L5.23828 23.7542L4.36596 23.7542L4.36596 22.8818Z" fill="#FF691E"/>
<path d="M1.74681 22.8818L2.61914 22.8818L2.61914 23.7542L1.74681 23.7542L1.74681 22.8818Z" fill="#FF691E"/>
<path d="M2.61986 22.8818L3.49219 22.8818L3.49219 23.7542L2.61986 23.7542L2.61986 22.8818Z" fill="#FF691E"/>
</svg>
