<svg width="47" height="47" viewBox="0 0 47 47" fill="none" xmlns="http://www.w3.org/2000/svg">
<rect width="47" height="47" rx="23.5" transform="matrix(-1 0 0 1 47 0)" fill="#00B569"/>
<path fill-rule="evenodd" clip-rule="evenodd" d="M23.6955 17.168C23.3268 16.7992 22.7289 16.7992 22.3602 17.168L16.695 22.8331C16.3263 23.2019 16.3263 23.7997 16.695 24.1684L22.3602 29.8336C22.7289 30.2024 23.3268 30.2024 23.6955 29.8336C24.0642 29.4649 24.0642 28.8671 23.6955 28.4983L18.698 23.5008L23.6955 18.5033C24.0642 18.1345 24.0642 17.5367 23.6955 17.168Z" fill="#EEF9F4"/>
<path fill-rule="evenodd" clip-rule="evenodd" d="M30.5814 23.4997C30.5814 22.9782 30.1587 22.5555 29.6372 22.5555H18.1495C17.628 22.5555 17.2053 22.9782 17.2053 23.4997C17.2053 24.0211 17.628 24.4439 18.1495 24.4439H29.6372C30.1587 24.4439 30.5814 24.0211 30.5814 23.4997Z" fill="#EEF9F4"/>
</svg>
