<svg width="27" height="27" viewBox="0 0 27 27" fill="none" xmlns="http://www.w3.org/2000/svg">
<path d="M3.23194 1.18384C3.86371 0.701928 5.4673 0.160007 6.25089 0.0621993C6.87818 -0.0160791 8.08378 0.0023545 8.74674 0.000936529L13.3157 0.00444902L17.7734 0.00937968C18.3327 0.0116678 19.5916 -0.0176262 20.0838 0.0572361C21.9172 0.336221 23.7689 1.18794 24.9146 2.70152C25.7096 3.75185 26.3433 5.45119 26.5521 6.77142C26.5742 6.91089 26.5276 7.25414 26.509 7.40151C26.3977 7.85648 26.5682 8.19757 26.5184 8.51175C26.3828 9.36717 26.4448 10.1856 26.4418 11.0463L26.4699 16.0665C26.4772 16.5005 26.478 16.9346 26.4722 17.3687C26.4669 17.6369 26.4384 18.1548 26.4758 18.4053C26.5075 18.8466 26.4488 20.0901 26.387 20.5085C26.1823 21.8927 25.4069 23.3274 24.4392 24.3365C23.2975 25.5271 21.3177 26.4054 19.6765 26.5463C18.7631 26.593 17.6511 26.583 16.737 26.5856L11.6233 26.5772L8.46405 26.5898C7.60992 26.5889 6.57138 26.604 5.74632 26.4184C4.41085 26.1045 3.17689 25.4568 2.16008 24.5359C1.82944 24.2366 1.68613 23.9675 1.42313 23.6407C0.824291 22.8911 0.292424 21.7184 0.21508 20.7489C0.132032 19.7086 0.0708663 18.5903 0.0179503 17.5383C-0.0370282 15.8565 0.0555911 14.1876 0.0158557 12.5025C0.118014 11.435 0.0281985 10.2552 0.115339 9.17642C0.140863 8.86028 0.0527874 8.43882 0.0806634 8.11723C0.171027 7.0738 0.0770862 5.94316 0.386429 4.93863C0.465996 4.81578 0.653362 4.37453 0.709758 4.22587C0.760257 4.15078 0.816202 4.02342 0.856775 3.93815C1.18458 3.73777 1.22326 3.4834 1.46102 3.18624C1.56386 3.05769 1.73092 2.94429 1.87594 2.806C1.95106 2.73874 2.38792 2.28893 2.37223 2.19959C2.33327 1.978 2.5119 1.91597 2.52295 1.71449C2.60065 1.61993 3.10294 1.27308 3.23194 1.18384ZM0.523263 21.8715C0.571087 21.752 0.605409 21.6528 0.644628 21.5301C0.661483 21.5825 0.661902 21.5786 0.651138 21.6324L0.703442 21.7974C0.758775 21.7028 0.674244 21.1296 0.598609 21.0435L0.544146 21.0244C0.529289 21.3065 0.522328 21.589 0.523263 21.8715Z" fill="black"/>
<path d="M8.80611 7.8184C9.51461 7.79664 10.5491 7.72313 11.1998 7.989C12.599 8.5607 13.132 10.3821 12.5818 11.7184C12.3534 12.2734 11.9075 12.9048 11.3357 13.1371C12.2615 13.5087 13.1146 14.2796 13.2316 15.3132C13.4553 17.2903 12.2296 18.463 10.3374 18.69C8.46409 18.7525 6.43511 18.7099 4.53728 18.7248C4.56168 17.9847 4.53161 17.0594 4.53071 16.3037L4.52716 11.0938C4.5271 10.0324 4.5105 8.89799 4.54789 7.8415C5.84343 7.87708 7.49877 7.83873 8.80611 7.8184Z" fill="white"/>
<path d="M6.61542 14.0251C7.89449 14.1217 10.8057 13.5365 11.1281 15.1537C11.2303 15.6665 11.066 16.115 10.7584 16.5225C10.7344 16.5479 10.7095 16.5726 10.6839 16.5964C10.0664 17.1653 7.50284 16.9943 6.61133 16.9549C6.62664 15.9934 6.61049 14.9922 6.61542 14.0251Z" fill="black"/>
<path d="M6.60028 9.58499C7.8168 9.72698 10.7392 9.03634 10.7881 10.8786C10.7996 11.31 10.6772 11.6187 10.3839 11.9329C9.94778 12.3592 9.3612 12.3854 8.79075 12.3825C8.06089 12.3788 7.33089 12.3783 6.60102 12.3749C6.59419 11.4449 6.59393 10.515 6.60028 9.58499Z" fill="black"/>
<path d="M17.6224 10.6174C17.6766 10.6116 17.7309 10.6075 17.7854 10.6052C18.8396 10.557 19.8692 10.9332 20.6441 11.6495C21.2245 12.1867 21.7087 13.0607 21.849 13.8407C21.9235 14.2547 21.9322 14.8643 21.9488 15.2952C20.0087 15.3996 17.8361 15.2619 15.8809 15.2821C16.1194 16.7444 17.2064 17.6955 18.7652 17.1133C19.2464 16.9335 19.654 16.5644 19.85 16.0783L20.4564 16.2964C20.8365 16.4346 21.2067 16.5988 21.5643 16.788C20.6714 17.8337 19.9915 18.5004 18.5422 18.6973C17.3302 18.862 16.3107 18.591 15.3284 17.8579C14.6097 17.2863 13.9279 16.2005 13.8315 15.2856C13.5552 12.6625 15.0487 10.9356 17.6224 10.6174Z" fill="white"/>
<path d="M17.5652 12.0961C18.9663 12.0264 19.7435 12.7155 19.9746 14.0826C19.4399 14.0624 18.9048 14.0539 18.3698 14.0573C17.5469 14.0503 16.7239 14.0596 15.9014 14.0854C16.0921 13.0912 16.4231 12.2559 17.5652 12.0961Z" fill="black"/>
<path d="M15.2674 8.28027C16.0895 8.34608 16.9095 8.33097 17.7337 8.32726L20.5117 8.32275C20.4916 8.55104 20.5094 9.40263 20.4544 9.55999L20.3764 9.58851C19.769 9.65831 18.9843 9.64426 18.3708 9.652C17.3212 9.66518 16.2378 9.67191 15.1934 9.56847C15.2626 9.12013 15.272 8.72887 15.2674 8.28027Z" fill="white"/>
<path d="M0.544403 21.0244L0.598866 21.0435C0.674502 21.1297 0.759032 21.7028 0.703699 21.7974L0.651396 21.6324C0.662159 21.5786 0.66174 21.5825 0.644886 21.5301C0.605666 21.6528 0.571345 21.752 0.52352 21.8715C0.522586 21.589 0.529547 21.3065 0.544403 21.0244Z" fill="black"/>
<path d="M26.4758 18.4056C26.4384 18.1551 26.4669 17.6372 26.4721 17.369C26.478 16.935 26.4772 16.5009 26.4699 16.0668L26.4418 11.0467C26.4448 10.186 26.3828 9.36751 26.5184 8.51209C26.5682 8.19792 26.3977 7.85683 26.509 7.40186C26.506 7.75374 26.6 8.00088 26.611 8.29911C26.6703 9.90122 26.6476 11.6372 26.6466 13.2326C26.6479 14.1745 26.6395 15.1163 26.6212 16.0581C26.615 16.4948 26.6328 16.9214 26.6063 17.3587C26.5843 17.7217 26.5145 18.0506 26.4758 18.4056Z" fill="black"/>
<path d="M1.81161 2.39354C2.03456 2.22128 2.17419 1.95551 2.52311 1.71484C2.51206 1.91632 2.33343 1.97836 2.37239 2.19995C2.38808 2.28928 1.95122 2.7391 1.8761 2.80636C1.73108 2.94464 1.56402 3.05805 1.46118 3.1866C1.22341 3.48376 1.18474 3.73812 0.856934 3.93851C0.930185 3.79452 1.06786 3.64866 1.14207 3.51212C1.37691 3.08009 1.49305 2.77471 1.81161 2.39354Z" fill="black"/>
</svg>
