<svg width="24" height="27" viewBox="0 0 24 27" fill="none" xmlns="http://www.w3.org/2000/svg">
<path d="M8.40154 25.2012H9.60156V26.4012H8.40154V25.2012Z" fill="#FF691E"/>
<path d="M8.40154 6H9.60156V7.20002H8.40154V6Z" fill="#FF691E"/>
<path d="M15.6008 25.2012H16.8008V26.4012H15.6008V25.2012Z" fill="#FF691E"/>
<path d="M15.6008 6H16.8008V7.20002H15.6008V6Z" fill="#FF691E"/>
<path d="M20.4015 6H21.6016V7.20002H20.4015V6Z" fill="#FF691E"/>
<path d="M4.80389 25.2012H6.00391V26.4012H4.80389V25.2012Z" fill="#FF691E"/>
<path d="M4.80389 6H6.00391V7.20002H4.80389V6Z" fill="#FF691E"/>
<path d="M1.20232 6H2.40234V7.20002H1.20232V6Z" fill="#FF691E"/>
<path d="M12.0012 25.2012H13.2012V26.4012H12.0012V25.2012Z" fill="#FF691E"/>
<path d="M12.0012 6H13.2012V7.20002H12.0012V6Z" fill="#FF691E"/>
<path d="M19.2023 25.2012H20.4023V26.4012H19.2023V25.2012Z" fill="#FF691E"/>
<path d="M19.2023 6H20.4023V7.20002H19.2023V6Z" fill="#FF691E"/>
<path d="M9.60076 25.2012H10.8008V26.4012H9.60076V25.2012Z" fill="#FF691E"/>
<path d="M9.60076 6H10.8008V7.20002H9.60076V6Z" fill="#FF691E"/>
<path d="M16.8039 25.2012H18.0039V26.4012H16.8039V25.2012Z" fill="#FF691E"/>
<path d="M16.8039 6H18.0039V7.20002H16.8039V6Z" fill="#FF691E"/>
<path d="M21.6008 6H22.8008V7.20002H21.6008V6Z" fill="#FF691E"/>
<path d="M6.00115 25.2012H7.20117V26.4012H6.00115V25.2012Z" fill="#FF691E"/>
<path d="M6.00115 6H7.20117V7.20002H6.00115V6Z" fill="#FF691E"/>
<path d="M2.40154 6H3.60156V7.20002H2.40154V6Z" fill="#FF691E"/>
<path d="M13.2023 25.2012H14.4023V26.4012H13.2023V25.2012Z" fill="#FF691E"/>
<path d="M13.2023 6H14.4023V7.20002H13.2023V6Z" fill="#FF691E"/>
<path d="M3.60076 25.2012H4.80078V26.4012H3.60076V25.2012Z" fill="#FF691E"/>
<path d="M3.60076 6H4.80078V7.20002H3.60076V6Z" fill="#FF691E"/>
<path d="M4.80389 4.80078H6.00391V6.0008H4.80389V4.80078Z" fill="#FF691E"/>
<path d="M18.0031 4.80078H19.2031V6.0008H18.0031V4.80078Z" fill="#FF691E"/>
<path d="M6.00115 3.60156H7.20117V4.80158H6.00115V3.60156Z" fill="#FF691E"/>
<path d="M16.8039 3.60156H18.0039V4.80158H16.8039V3.60156Z" fill="#FF691E"/>
<path d="M6.00115 2.40039H7.20117V3.60041H6.00115V2.40039Z" fill="#FF691E"/>
<path d="M16.8039 2.40039H18.0039V3.60041H16.8039V2.40039Z" fill="#FF691E"/>
<path d="M7.20232 1.20117H8.40234V2.40119H7.20232V1.20117Z" fill="#FF691E"/>
<path d="M7.20232 1.20117H8.40234V2.40119H7.20232V1.20117Z" fill="#FF691E"/>
<path d="M15.6008 1.20117H16.8008V2.40119H15.6008V1.20117Z" fill="#FF691E"/>
<path d="M8.40154 0H9.60156V1.20002H8.40154V0Z" fill="#FF691E"/>
<path d="M9.60076 0H10.8008V1.20002H9.60076V0Z" fill="#FF691E"/>
<path d="M10.8019 0H12.002V1.20002H10.8019V0Z" fill="#FF691E"/>
<path d="M12.0012 0H13.2012V1.20002H12.0012V0Z" fill="#FF691E"/>
<path d="M14.4015 0H15.6016V1.20002H14.4015V0Z" fill="#FF691E"/>
<path d="M13.2023 0H14.4023V1.20002H13.2023V0Z" fill="#FF691E"/>
<path d="M14.4015 0H15.6016V1.20002H14.4015V0Z" fill="#FF691E"/>
<path d="M0.00115156 6H1.20117V7.20002H0.00115156V6Z" fill="#FF691E"/>
<path d="M2.40154 18.001H3.60156V19.201H2.40154V18.001Z" fill="#FF691E"/>
<path d="M20.4015 18.001H21.6016V19.201H20.4015V18.001Z" fill="#FF691E"/>
<path d="M14.4015 17.6006H15.6016V18.8006H14.4015V17.6006Z" fill="#FF691E"/>
<path d="M8.79998 17.6006H10V18.8006H8.79998V17.6006Z" fill="#FF691E"/>
<path d="M2.40154 21.6016H3.60156V22.8016H2.40154V21.6016Z" fill="#FF691E"/>
<path d="M20.4015 21.6016H21.6016V22.8016H20.4015V21.6016Z" fill="#FF691E"/>
<path d="M2.40154 14.4014H3.60156V15.6014H2.40154V14.4014Z" fill="#FF691E"/>
<path d="M2.40154 9.60059H3.60156V10.8006H2.40154V9.60059Z" fill="#FF691E"/>
<path d="M20.4015 14.4014H21.6016V15.6014H20.4015V14.4014Z" fill="#FF691E"/>
<path d="M14.4015 14.001H15.6016V15.201H14.4015V14.001Z" fill="#FF691E"/>
<path d="M8.79998 14.001H10V15.201H8.79998V14.001Z" fill="#FF691E"/>
<path d="M20.4015 9.60059H21.6016V10.8006H20.4015V9.60059Z" fill="#FF691E"/>
<path d="M2.40154 24.001H3.60156V25.201H2.40154V24.001Z" fill="#FF691E"/>
<path d="M20.4015 24.001H21.6016V25.201H20.4015V24.001Z" fill="#FF691E"/>
<path d="M2.40154 16.8018H3.60156V18.0018H2.40154V16.8018Z" fill="#FF691E"/>
<path d="M20.4015 16.8018H21.6016V18.0018H20.4015V16.8018Z" fill="#FF691E"/>
<path d="M14.4015 16.4014H15.6016V17.6014H14.4015V16.4014Z" fill="#FF691E"/>
<path d="M8.79998 16.4014H10V17.6014H8.79998V16.4014Z" fill="#FF691E"/>
<path d="M2.40154 20.4014H3.60156V21.6014H2.40154V20.4014Z" fill="#FF691E"/>
<path d="M20.4015 20.4014H21.6016V21.6014H20.4015V20.4014Z" fill="#FF691E"/>
<path d="M14.4015 20.001H15.6016V21.201H14.4015V20.001Z" fill="#FF691E"/>
<path d="M8.79998 20.001H10V21.201H8.79998V20.001Z" fill="#FF691E"/>
<path d="M2.40154 13.2012H3.60156V14.4012H2.40154V13.2012Z" fill="#FF691E"/>
<path d="M2.40154 8.40137H3.60156V9.60139H2.40154V8.40137Z" fill="#FF691E"/>
<path d="M20.4015 13.2012H21.6016V14.4012H20.4015V13.2012Z" fill="#FF691E"/>
<path d="M14.4015 12.8008H15.6016V14.0008H14.4015V12.8008Z" fill="#FF691E"/>
<path d="M8.79998 12.8008H10V14.0008H8.79998V12.8008Z" fill="#FF691E"/>
<path d="M20.4015 8.40137H21.6016V9.60139H20.4015V8.40137Z" fill="#FF691E"/>
<path d="M2.40154 22.8008H3.60156V24.0008H2.40154V22.8008Z" fill="#FF691E"/>
<path d="M20.4015 22.8008H21.6016V24.0008H20.4015V22.8008Z" fill="#FF691E"/>
<path d="M2.40154 15.6006H3.60156V16.8006H2.40154V15.6006Z" fill="#FF691E"/>
<path d="M2.40154 10.8008H3.60156V12.0008H2.40154V10.8008Z" fill="#FF691E"/>
<path d="M20.4015 15.6006H21.6016V16.8006H20.4015V15.6006Z" fill="#FF691E"/>
<path d="M14.4015 15.2012H15.6016V16.4012H14.4015V15.2012Z" fill="#FF691E"/>
<path d="M8.79998 15.2012H10V16.4012H8.79998V15.2012Z" fill="#FF691E"/>
<path d="M20.4015 10.8008H21.6016V12.0008H20.4015V10.8008Z" fill="#FF691E"/>
<path d="M2.40154 19.2012H3.60156V20.4012H2.40154V19.2012Z" fill="#FF691E"/>
<path d="M20.4015 19.2012H21.6016V20.4012H20.4015V19.2012Z" fill="#FF691E"/>
<path d="M14.4015 18.8008H15.6016V20.0008H14.4015V18.8008Z" fill="#FF691E"/>
<path d="M8.79998 18.8008H10V20.0008H8.79998V18.8008Z" fill="#FF691E"/>
<path d="M2.40154 12.001H3.60156V13.201H2.40154V12.001Z" fill="#FF691E"/>
<path d="M2.40154 7.20117H3.60156V8.40119H2.40154V7.20117Z" fill="#FF691E"/>
<path d="M20.4015 12.001H21.6016V13.201H20.4015V12.001Z" fill="#FF691E"/>
<path d="M14.4015 11.6006H15.6016V12.8006H14.4015V11.6006Z" fill="#FF691E"/>
<path d="M8.79998 11.6006H10V12.8006H8.79998V11.6006Z" fill="#FF691E"/>
<path d="M20.4015 7.20117H21.6016V8.40119H20.4015V7.20117Z" fill="#FF691E"/>
<path d="M10.8019 25.2012H12.002V26.4012H10.8019V25.2012Z" fill="#FF691E"/>
<path d="M10.8019 6H12.002V7.20002H10.8019V6Z" fill="#FF691E"/>
<path d="M18.0031 25.2012H19.2031V26.4012H18.0031V25.2012Z" fill="#FF691E"/>
<path d="M18.0031 6H19.2031V7.20002H18.0031V6Z" fill="#FF691E"/>
<path d="M22.8019 6H24.002V7.20002H22.8019V6Z" fill="#FF691E"/>
<path d="M7.20232 25.2012H8.40234V26.4012H7.20232V25.2012Z" fill="#FF691E"/>
<path d="M7.20232 6H8.40234V7.20002H7.20232V6Z" fill="#FF691E"/>
<path d="M14.4015 25.2012H15.6016V26.4012H14.4015V25.2012Z" fill="#FF691E"/>
<path d="M14.4015 6H15.6016V7.20002H14.4015V6Z" fill="#FF691E"/>
</svg>
