<svg width="19" height="19" viewBox="0 0 19 19" fill="none" xmlns="http://www.w3.org/2000/svg">
<path d="M2.91504 17.814L2.91504 18.7856L3.88671 18.7856L3.88671 17.814L2.91504 17.814Z" fill="#79837F"/>
<path d="M1.94342 16.8423L1.94342 17.814L2.91509 17.814L2.91509 16.8423L1.94342 16.8423Z" fill="#79837F"/>
<path d="M0.971741 16.8423L0.971741 17.814L1.94341 17.814L1.94341 16.8423L0.971741 16.8423Z" fill="#79837F"/>
<path d="M-4.24732e-08 15.8711L0 16.8428L0.971673 16.8428L0.971673 15.8711L-4.24732e-08 15.8711Z" fill="#79837F"/>
<path d="M-4.24732e-08 14.8989L0 15.8706L0.971673 15.8706L0.971673 14.8989L-4.24732e-08 14.8989Z" fill="#79837F"/>
<path d="M-4.24732e-08 13.9277L0 14.8994L0.971673 14.8994L0.971673 13.9277L-4.24732e-08 13.9277Z" fill="#79837F"/>
<path d="M-4.24732e-08 13.2793L0 14.251L0.971673 14.251L0.971673 13.2793L-4.24732e-08 13.2793Z" fill="#79837F"/>
<path d="M-4.24732e-08 12.3076L0 13.2793L0.971673 13.2793L0.971673 12.3076L-4.24732e-08 12.3076Z" fill="#79837F"/>
<path d="M-4.24732e-08 11.3364L0 12.3081L0.971673 12.3081L0.971673 11.3364L-4.24732e-08 11.3364Z" fill="#79837F"/>
<path d="M-4.24732e-08 10.3643L0 11.3359L0.971673 11.3359L0.971673 10.3643L-4.24732e-08 10.3643Z" fill="#79837F"/>
<path d="M-4.24732e-08 9.39307L0 10.3647L0.971673 10.3647L0.971673 9.39307L-4.24732e-08 9.39307Z" fill="#79837F"/>
<path d="M-4.24732e-08 8.42139L0 9.39307L0.971673 9.39307L0.971673 8.42139L-4.24732e-08 8.42139Z" fill="#79837F"/>
<path d="M-4.24732e-08 7.44971L0 8.42139L0.971673 8.42139L0.971673 7.44971L-4.24732e-08 7.44971Z" fill="#79837F"/>
<path d="M-4.24732e-08 6.47803L0 7.44971L0.971673 7.44971L0.971673 6.47803L-4.24732e-08 6.47803Z" fill="#79837F"/>
<path d="M-4.24732e-08 5.50587L0 6.47754L0.971673 6.47754L0.971673 5.50587L-4.24732e-08 5.50587Z" fill="#79837F"/>
<path d="M-4.24732e-08 4.8584L0 5.83008L0.971673 5.83008L0.971673 4.8584L-4.24732e-08 4.8584Z" fill="#79837F"/>
<path d="M-4.24732e-08 3.88673L0 4.8584L0.971673 4.8584L0.971673 3.88673L-4.24732e-08 3.88673Z" fill="#79837F"/>
<path d="M4.85827 1.94287L3.8866 1.94287L3.8866 2.91454L4.85827 2.91454L4.85827 1.94287Z" fill="#79837F"/>
<path d="M5.83001 1.94287L4.85834 1.94287L4.85834 2.91454L5.83001 2.91454L5.83001 1.94287Z" fill="#79837F"/>
<path d="M6.80169 1.94287L5.83002 1.94287L5.83002 2.91454L6.80169 2.91454L6.80169 1.94287Z" fill="#79837F"/>
<path d="M7.77343 1.94287L6.80176 1.94287L6.80176 2.91454L7.77343 2.91454L7.77343 1.94287Z" fill="#79837F"/>
<path d="M8.74511 1.94287L7.77344 1.94287L7.77344 2.91454L8.74511 2.91454L8.74511 1.94287Z" fill="#79837F"/>
<path d="M9.71673 1.94287L8.74506 1.94287L8.74506 2.91454L9.71673 2.91454L9.71673 1.94287Z" fill="#79837F"/>
<path d="M10.3645 1.94287L9.39282 1.94287L9.39282 2.91454L10.3645 2.91454L10.3645 1.94287Z" fill="#79837F"/>
<path d="M11.3362 1.94287L10.3645 1.94287L10.3645 2.91454L11.3362 2.91454L11.3362 1.94287Z" fill="#79837F"/>
<path d="M12.3079 1.94287L11.3362 1.94287L11.3362 2.91454L12.3079 2.91454L12.3079 1.94287Z" fill="#79837F"/>
<path d="M13.2795 1.94287L12.3079 1.94287L12.3079 2.91454L13.2795 2.91454L13.2795 1.94287Z" fill="#79837F"/>
<path d="M14.2512 1.94287L13.2795 1.94287L13.2795 2.91454L14.2512 2.91454L14.2512 1.94287Z" fill="#79837F"/>
<path d="M11.3362 17.814H10.3645L10.3645 18.7856H11.3362L11.3362 17.814Z" fill="#79837F"/>
<path d="M12.3079 17.814H11.3362L11.3362 18.7856H12.3079L12.3079 17.814Z" fill="#79837F"/>
<path d="M13.2795 17.814H12.3079L12.3079 18.7856H13.2795L13.2795 17.814Z" fill="#79837F"/>
<path d="M14.2512 17.814H13.2795L13.2795 18.7856H14.2512L14.2512 17.814Z" fill="#79837F"/>
<path d="M0.971741 2.91505L0.971741 3.88672L1.94341 3.88672L1.94341 2.91505L0.971741 2.91505Z" fill="#79837F"/>
<path d="M1.94342 2.91505L1.94342 3.88672L2.91509 3.88672L2.91509 2.91505L1.94342 2.91505Z" fill="#79837F"/>
<path d="M2.91504 1.94337L2.91504 2.91504L3.88671 2.91504L3.88671 1.94337L2.91504 1.94337Z" fill="#79837F"/>
<path d="M15.2228 17.814L15.2228 18.7856L14.2512 18.7856L14.2512 17.814L15.2228 17.814Z" fill="#79837F"/>
<path d="M16.1946 16.8423L16.1946 17.814L15.2229 17.814L15.2229 16.8423L16.1946 16.8423Z" fill="#79837F"/>
<path d="M17.1661 16.8423L17.1661 17.814L16.1945 17.814L16.1945 16.8423L17.1661 16.8423Z" fill="#79837F"/>
<path d="M18.1379 15.8711L18.1379 16.8428L17.1662 16.8428L17.1662 15.8711L18.1379 15.8711Z" fill="#79837F"/>
<path d="M18.1379 14.8989L18.1379 15.8706L17.1662 15.8706L17.1662 14.8989L18.1379 14.8989Z" fill="#79837F"/>
<path d="M18.1379 13.9277L18.1379 14.8994L17.1662 14.8994L17.1662 13.9277L18.1379 13.9277Z" fill="#79837F"/>
<path d="M18.1379 13.2793L18.1379 14.251L17.1662 14.251L17.1662 13.2793L18.1379 13.2793Z" fill="#79837F"/>
<path d="M18.1379 12.3076L18.1379 13.2793L17.1662 13.2793L17.1662 12.3076L18.1379 12.3076Z" fill="#79837F"/>
<path d="M18.1379 11.3364L18.1379 12.3081L17.1662 12.3081L17.1662 11.3364L18.1379 11.3364Z" fill="#79837F"/>
<path d="M18.1379 10.3643L18.1379 11.3359L17.1662 11.3359L17.1662 10.3643L18.1379 10.3643Z" fill="#79837F"/>
<path d="M18.1379 9.39307L18.1379 10.3647L17.1662 10.3647L17.1662 9.39307L18.1379 9.39307Z" fill="#79837F"/>
<path d="M18.1379 8.42139L18.1379 9.39307L17.1662 9.39307L17.1662 8.42139L18.1379 8.42139Z" fill="#79837F"/>
<path d="M18.1379 7.44971L18.1379 8.42139L17.1662 8.42139L17.1662 7.44971L18.1379 7.44971Z" fill="#79837F"/>
<path d="M18.1379 6.47803L18.1379 7.44971L17.1662 7.44971L17.1662 6.47803L18.1379 6.47803Z" fill="#79837F"/>
<path d="M18.1379 5.50587L18.1379 6.47754L17.1662 6.47754L17.1662 5.50587L18.1379 5.50587Z" fill="#79837F"/>
<path d="M18.1379 4.8584L18.1379 5.83008L17.1662 5.83008L17.1662 4.8584L18.1379 4.8584Z" fill="#79837F"/>
<path d="M18.1379 3.88673L18.1379 4.8584L17.1662 4.8584L17.1662 3.88673L18.1379 3.88673Z" fill="#79837F"/>
<path d="M17.1661 2.91505L17.1661 3.88672L16.1945 3.88672L16.1945 2.91505L17.1661 2.91505Z" fill="#79837F"/>
<path d="M16.1946 2.91505L16.1946 3.88672L15.2229 3.88672L15.2229 2.91505L16.1946 2.91505Z" fill="#79837F"/>
<path d="M15.2228 1.94337L15.2228 2.91504L14.2512 2.91504L14.2512 1.94337L15.2228 1.94337Z" fill="#79837F"/>
<path d="M2.91509 6.15381L1.94342 6.15381L1.94342 7.12548L2.91509 7.12548L2.91509 6.15381Z" fill="#79837F"/>
<path d="M3.88671 6.15381L2.91504 6.15381L2.91504 7.12548L3.88671 7.12548L3.88671 6.15381Z" fill="#79837F"/>
<path d="M4.85827 6.15381L3.8866 6.15381L3.8866 7.12548L4.85827 7.12548L4.85827 6.15381Z" fill="#79837F"/>
<path d="M5.83001 6.15381L4.85834 6.15381L4.85834 7.12548L5.83001 7.12548L5.83001 6.15381Z" fill="#79837F"/>
<path d="M6.80169 6.15381L5.83002 6.15381L5.83002 7.12548L6.80169 7.12548L6.80169 6.15381Z" fill="#79837F"/>
<path d="M7.77343 6.15381L6.80176 6.15381L6.80176 7.12548L7.77343 7.12548L7.77343 6.15381Z" fill="#79837F"/>
<path d="M8.4212 6.15381L7.44952 6.15381L7.44952 7.12548L8.4212 7.12548L8.4212 6.15381Z" fill="#79837F"/>
<path d="M9.39275 6.15381L8.42108 6.15381L8.42108 7.12548L9.39275 7.12548L9.39275 6.15381Z" fill="#79837F"/>
<path d="M10.3645 6.15381L9.39282 6.15381L9.39282 7.12548L10.3645 7.12548L10.3645 6.15381Z" fill="#79837F"/>
<path d="M11.3362 6.15381L10.3645 6.15381L10.3645 7.12548L11.3362 7.12548L11.3362 6.15381Z" fill="#79837F"/>
<path d="M12.3079 6.15381L11.3362 6.15381L11.3362 7.12548L12.3079 7.12548L12.3079 6.15381Z" fill="#79837F"/>
<path d="M0.971741 6.15382L0.971741 7.12549L1.94341 7.12549L1.94341 6.15382L0.971741 6.15382Z" fill="#79837F"/>
<path d="M13.2795 6.15382L13.2795 7.12549L12.3079 7.12549L12.3079 6.15382L13.2795 6.15382Z" fill="#79837F"/>
<path d="M13.6034 6.15381L12.6318 6.15381L12.6318 7.12548L13.6034 7.12548L13.6034 6.15381Z" fill="#79837F"/>
<path d="M14.5751 6.15381L13.6034 6.15381L13.6034 7.12548L14.5751 7.12548L14.5751 6.15381Z" fill="#79837F"/>
<path d="M15.5467 6.15381L14.5751 6.15381L14.5751 7.12548L15.5467 7.12548L15.5467 6.15381Z" fill="#79837F"/>
<path d="M16.5185 6.15381L15.5468 6.15381L15.5468 7.12548L16.5185 7.12548V6.15381Z" fill="#79837F"/>
<path d="M17.4901 6.15382L17.4901 7.12549L16.5184 7.12549L16.5184 6.15382L17.4901 6.15382Z" fill="#79837F"/>
<path d="M3.8866 17.814L3.8866 18.7856L4.85827 18.7856L4.85827 17.814L3.8866 17.814Z" fill="#79837F"/>
<path d="M3.8866 10.6885L3.8866 11.6602L4.85827 11.6602L4.85827 10.6885L3.8866 10.6885Z" fill="#79837F"/>
<path d="M3.8866 11.6607L3.8866 12.6323L4.85827 12.6323L4.85827 11.6607L3.8866 11.6607Z" fill="#79837F"/>
<path d="M4.53448 6.49691e-06L4.53448 0.97168L5.50616 0.97168L5.50616 6.45443e-06L4.53448 6.49691e-06Z" fill="#79837F"/>
<path d="M4.53448 0.971198L4.53448 1.94287L5.50616 1.94287L5.50616 0.971198L4.53448 0.971198Z" fill="#79837F"/>
<path d="M12.6318 6.49691e-06L12.6318 0.97168L13.6034 0.97168L13.6034 6.45443e-06L12.6318 6.49691e-06Z" fill="#79837F"/>
<path d="M12.6318 0.971198L12.6318 1.94287L13.6034 1.94287L13.6034 0.971198L12.6318 0.971198Z" fill="#79837F"/>
<path d="M4.85834 10.6885L4.85834 11.6602L5.83001 11.6602L5.83001 10.6885L4.85834 10.6885Z" fill="#79837F"/>
<path d="M7.77344 10.6885L7.77344 11.6602L8.74511 11.6602L8.74511 10.6885L7.77344 10.6885Z" fill="#79837F"/>
<path d="M7.77344 11.6607L7.77344 12.6323L8.74511 12.6323L8.74511 11.6607L7.77344 11.6607Z" fill="#79837F"/>
<path d="M8.74506 10.6885L8.74506 11.6602L9.71673 11.6602L9.71673 10.6885L8.74506 10.6885Z" fill="#79837F"/>
<path d="M11.6601 10.6885L11.6601 11.6602L12.6318 11.6602L12.6318 10.6885L11.6601 10.6885Z" fill="#79837F"/>
<path d="M11.6601 11.6607L11.6601 12.6323L12.6318 12.6323L12.6318 11.6607L11.6601 11.6607Z" fill="#79837F"/>
<path d="M12.6318 10.6885L12.6318 11.6602L13.6034 11.6602L13.6034 10.6885L12.6318 10.6885Z" fill="#79837F"/>
<path d="M4.85834 17.814L4.85834 18.7856L5.83001 18.7856L5.83001 17.814L4.85834 17.814Z" fill="#79837F"/>
<path d="M5.83002 17.814L5.83002 18.7856L6.80169 18.7856L6.80169 17.814L5.83002 17.814Z" fill="#79837F"/>
<path d="M6.80176 17.814L6.80176 18.7856L7.77343 18.7856L7.77343 17.814L6.80176 17.814Z" fill="#79837F"/>
<path d="M7.77344 17.814L7.77344 18.7856L8.74511 18.7856L8.74511 17.814L7.77344 17.814Z" fill="#79837F"/>
<path d="M8.42108 17.814L8.42108 18.7856L9.39275 18.7856L9.39275 17.814L8.42108 17.814Z" fill="#79837F"/>
<path d="M9.39282 17.814L9.39282 18.7856L10.3645 18.7856L10.3645 17.814L9.39282 17.814Z" fill="#79837F"/>
<path d="M10.3645 17.814L10.3645 18.7856L11.3362 18.7856L11.3362 17.814L10.3645 17.814Z" fill="#79837F"/>
</svg>
