<svg width="54" height="54" viewBox="0 0 54 54" fill="none" xmlns="http://www.w3.org/2000/svg">
<path d="M37.6815 10.791C37.5989 10.8421 37.5433 10.9295 37.5382 11.0291L37.4482 12.8165C37.4374 13.0304 37.6477 13.1864 37.8493 13.114L39.5336 12.5082C39.6187 12.4775 39.6843 12.4114 39.7143 12.3292C40.3922 12.9154 41.0208 13.5408 41.5993 14.1998L40.926 15.8452C40.8449 16.0434 40.9917 16.261 41.2059 16.2595L42.9956 16.2466C43.0477 16.2462 43.0961 16.2295 43.1396 16.2049C45.4479 19.6594 46.5698 23.7587 46.3913 27.8588C46.3041 27.8117 46.1983 27.808 46.1085 27.8557L44.5283 28.6973C44.3396 28.798 44.3138 29.0584 44.4793 29.194L45.8642 30.3283C45.9353 30.3864 46.0276 30.4065 46.1146 30.3886C45.9779 31.1619 45.7934 31.9303 45.5603 32.6897C45.5012 32.6552 45.4319 32.6393 45.3616 32.6508L43.5957 32.9402C43.3844 32.9748 43.2756 33.2139 43.3889 33.3956L44.3377 34.9134C44.4018 35.016 44.5212 35.07 44.6407 35.0504L44.6651 35.0459C44.1958 36.0727 43.6299 37.0723 42.9656 38.0333C42.0703 39.3284 41.0445 40.4796 39.92 41.484C39.8821 41.4174 39.8213 41.3648 39.7447 41.3427L38.0256 40.8464C37.8199 40.787 37.62 40.9566 37.6445 41.1694L37.8488 42.9466C37.8538 42.9899 37.8713 43.029 37.8929 43.0649C37.0562 43.6319 36.1815 44.1292 35.277 44.5546C35.2779 44.4575 35.2352 44.3643 35.1539 44.3068L33.6919 43.2736C33.5171 43.1503 33.2723 43.2446 33.2257 43.4535L32.8362 45.2001C32.8132 45.3033 32.8491 45.4072 32.9236 45.479C27.3849 47.25 21.1148 46.5246 15.9616 42.9623C15.1909 42.4294 14.4717 41.8497 13.8031 41.2315L13.8656 41.2165C13.9831 41.1872 14.0721 41.0902 14.0903 40.9706L14.3599 39.2016C14.3921 38.9898 14.1982 38.8136 13.9903 38.8654L12.2534 39.2983C12.1813 39.3164 12.1226 39.362 12.0821 39.4208C11.4309 38.6399 10.848 37.8154 10.3349 36.9558C10.4278 36.9418 10.5108 36.8866 10.5559 36.8011L11.3909 35.2188C11.4908 35.0293 11.3654 34.7986 11.1521 34.7794L9.37014 34.6196C9.2977 34.6131 9.22818 34.6354 9.17118 34.6756C6.67547 28.8666 7.07025 21.9659 10.786 16.3255C10.814 16.3312 10.8431 16.3334 10.8726 16.3308L12.6547 16.169C12.8679 16.1497 12.993 15.9202 12.8935 15.731L12.2052 14.4288C12.7307 13.8087 13.2887 13.2288 13.875 12.69C13.8951 12.7001 13.9154 12.7103 13.9379 12.7157L15.6786 13.1343C15.8867 13.1839 16.0781 13.0058 16.0441 12.7946L15.779 11.1499C22.1349 6.65026 30.8381 6.27577 37.6815 10.791Z" fill="#FFFCFA"/>
<ellipse cx="26.9567" cy="26.9937" rx="16.7113" ry="16.4542" fill="#00B569"/>
</svg>
