<svg width="26" height="21" viewBox="0 0 26 21" fill="none" xmlns="http://www.w3.org/2000/svg">
<path d="M0.000195265 6H1.2002V7.2H0.000195265V6Z" fill="#FBFBFB"/>
<path d="M0.000195265 4.80029H1.2002V6.00029H0.000195265V4.80029Z" fill="#FBFBFB"/>
<path d="M1.1999 3.6001H2.3999V4.8001H1.1999V3.6001Z" fill="#FBFBFB"/>
<path d="M2.4001 3.6001H3.6001V4.8001H2.4001V3.6001Z" fill="#FBFBFB"/>
<path d="M3.5998 3.6001H4.7998V4.8001H3.5998V3.6001Z" fill="#FBFBFB"/>
<path d="M4.8 3.6001H6V4.8001H4.8V3.6001Z" fill="#FBFBFB"/>
<path d="M6.0002 3.6001H7.2002V4.8001H6.0002V3.6001Z" fill="#FBFBFB"/>
<path d="M6.0002 2.3999H7.2002V3.5999H6.0002V2.3999Z" fill="#FBFBFB"/>
<path d="M7.1999 1.2002H8.3999V2.4002H7.1999V1.2002Z" fill="#FBFBFB"/>
<path d="M8.4001 0H9.6001V1.2H8.4001V0Z" fill="#FBFBFB"/>
<path d="M9.5998 0H10.7998V1.2H9.5998V0Z" fill="#FBFBFB"/>
<path d="M10.8 0H12V1.2H10.8V0Z" fill="#FBFBFB"/>
<path d="M12.0002 0H13.2002V1.2H12.0002V0Z" fill="#FBFBFB"/>
<path d="M13.1999 0H14.3999V1.2H13.1999V0Z" fill="#FBFBFB"/>
<path d="M14.4001 0H15.6001V1.2H14.4001V0Z" fill="#FBFBFB"/>
<path d="M15.5998 1.2002H16.7998V2.4002H15.5998V1.2002Z" fill="#FBFBFB"/>
<path d="M16.8 2.3999H18V3.5999H16.8V2.3999Z" fill="#FBFBFB"/>
<path d="M18.0002 3.6001H19.2002V4.8001H18.0002V3.6001Z" fill="#FBFBFB"/>
<path d="M19.1999 3.6001H20.3999V4.8001H19.1999V3.6001Z" fill="#FBFBFB"/>
<path d="M20.4001 3.6001H21.6001V4.8001H20.4001V3.6001Z" fill="#FBFBFB"/>
<path d="M21.5998 3.6001H22.7998V4.8001H21.5998V3.6001Z" fill="#FBFBFB"/>
<path d="M24.0002 4.80029H25.2002V6.00029H24.0002V4.80029Z" fill="#FBFBFB"/>
<path d="M22.8 3.6001H24V4.8001H22.8V3.6001Z" fill="#FBFBFB"/>
<path d="M24.0002 6H25.2002V7.2H24.0002V6Z" fill="#FBFBFB"/>
<path d="M0.000195265 7.2002H1.2002V8.4002H0.000195265V7.2002Z" fill="#FBFBFB"/>
<path d="M24.0002 7.2002H25.2002V8.4002H24.0002V7.2002Z" fill="#FBFBFB"/>
<path d="M0.000195265 8.3999H1.2002V9.5999H0.000195265V8.3999Z" fill="#FBFBFB"/>
<path d="M24.0002 8.3999H25.2002V9.5999H24.0002V8.3999Z" fill="#FBFBFB"/>
<path d="M0.000195265 9.6001H1.2002V10.8001H0.000195265V9.6001Z" fill="#FBFBFB"/>
<path d="M24.0002 9.6001H25.2002V10.8001H24.0002V9.6001Z" fill="#FBFBFB"/>
<path d="M0.000195265 10.8003H1.2002V12.0003H0.000195265V10.8003Z" fill="#FBFBFB"/>
<path d="M24.0002 10.8003H25.2002V12.0003H24.0002V10.8003Z" fill="#FBFBFB"/>
<path d="M0.000195265 12H1.2002V13.2H0.000195265V12Z" fill="#FBFBFB"/>
<path d="M24.0002 12H25.2002V13.2H24.0002V12Z" fill="#FBFBFB"/>
<path d="M0.000195265 13.2002H1.2002V14.4002H0.000195265V13.2002Z" fill="#FBFBFB"/>
<path d="M24.0002 13.2002H25.2002V14.4002H24.0002V13.2002Z" fill="#FBFBFB"/>
<path d="M0.000195265 14.3999H1.2002V15.5999H0.000195265V14.3999Z" fill="#FBFBFB"/>
<path d="M24.0002 14.3999H25.2002V15.5999H24.0002V14.3999Z" fill="#FBFBFB"/>
<path d="M0.000195265 15.6001H1.2002V16.8001H0.000195265V15.6001Z" fill="#FBFBFB"/>
<path d="M24.0002 15.6001H25.2002V16.8001H24.0002V15.6001Z" fill="#FBFBFB"/>
<path d="M0.000195265 16.8003H1.2002V18.0003H0.000195265V16.8003Z" fill="#FBFBFB"/>
<path d="M24.0002 16.8003H25.2002V18.0003H24.0002V16.8003Z" fill="#FBFBFB"/>
<path d="M1.1999 18H2.3999V19.2H1.1999V18Z" fill="#FBFBFB"/>
<path d="M22.8 18H24V19.2H22.8V18Z" fill="#FBFBFB"/>
<path d="M2.4001 19.2002H3.6001V20.4002H2.4001V19.2002Z" fill="#FBFBFB"/>
<path d="M4.8 19.2002H6V20.4002H4.8V19.2002Z" fill="#FBFBFB"/>
<path d="M7.1999 19.2002H8.3999V20.4002H7.1999V19.2002Z" fill="#FBFBFB"/>
<path d="M9.5998 19.2002H10.7998V20.4002H9.5998V19.2002Z" fill="#FBFBFB"/>
<path d="M12.0002 19.2002H13.2002V20.4002H12.0002V19.2002Z" fill="#FBFBFB"/>
<path d="M14.4001 19.2002H15.6001V20.4002H14.4001V19.2002Z" fill="#FBFBFB"/>
<path d="M16.8 19.2002H18V20.4002H16.8V19.2002Z" fill="#FBFBFB"/>
<path d="M19.1999 19.2002H20.3999V20.4002H19.1999V19.2002Z" fill="#FBFBFB"/>
<path d="M3.5998 19.2002H4.7998V20.4002H3.5998V19.2002Z" fill="#FBFBFB"/>
<path d="M6.0002 19.2002H7.2002V20.4002H6.0002V19.2002Z" fill="#FBFBFB"/>
<path d="M8.4001 19.2002H9.6001V20.4002H8.4001V19.2002Z" fill="#FBFBFB"/>
<path d="M10.8 19.2002H12V20.4002H10.8V19.2002Z" fill="#FBFBFB"/>
<path d="M13.1999 19.2002H14.3999V20.4002H13.1999V19.2002Z" fill="#FBFBFB"/>
<path d="M15.5998 19.2002H16.7998V20.4002H15.5998V19.2002Z" fill="#FBFBFB"/>
<path d="M18.0002 19.2002H19.2002V20.4002H18.0002V19.2002Z" fill="#FBFBFB"/>
<path d="M20.4001 19.2002H21.6001V20.4002H20.4001V19.2002Z" fill="#FBFBFB"/>
<path d="M21.5998 19.2002H22.7998V20.4002H21.5998V19.2002Z" fill="#FBFBFB"/>
<path d="M12.8001 6.7998H11.6001V7.9998H12.8001V6.7998Z" fill="#FBFBFB"/>
<path d="M12.8001 14H11.6001V15.2H12.8001V14Z" fill="#FBFBFB"/>
<path d="M15.2002 10.3996L15.2002 11.5996L16.4002 11.5996L16.4002 10.3996L15.2002 10.3996Z" fill="#FBFBFB"/>
<path d="M8 10.3996L8 11.5996L9.2 11.5996L9.2 10.3996L8 10.3996Z" fill="#FBFBFB"/>
<path d="M11.5999 6.7998H10.3999V7.9998H11.5999V6.7998Z" fill="#FBFBFB"/>
<path d="M11.5999 14H10.3999V15.2H11.5999V14Z" fill="#FBFBFB"/>
<path d="M15.2002 11.5998L15.2002 12.7998L16.4002 12.7998L16.4002 11.5998L15.2002 11.5998Z" fill="#FBFBFB"/>
<path d="M8 11.5998L8 12.7998L9.2 12.7998L9.2 11.5998L8 11.5998Z" fill="#FBFBFB"/>
<path d="M13.9998 6.7998H12.7998V7.9998H13.9998V6.7998Z" fill="#FBFBFB"/>
<path d="M13.9998 14H12.7998V15.2H13.9998V14Z" fill="#FBFBFB"/>
<path d="M15.2002 9.1999L15.2002 10.3999L16.4002 10.3999L16.4002 9.1999L15.2002 9.1999Z" fill="#FBFBFB"/>
<path d="M8 9.1999L8 10.3999L9.2 10.3999L9.2 9.1999L8 9.1999Z" fill="#FBFBFB"/>
<path d="M9.2002 12.8L9.2002 14L10.4002 14L10.4002 12.8L9.2002 12.8Z" fill="#FBFBFB"/>
<path d="M14 12.8L14 14L15.2 14L15.2 12.8L14 12.8Z" fill="#FBFBFB"/>
<path d="M14 7.99971L14 9.19971L15.2 9.19971L15.2 7.99971L14 7.99971Z" fill="#FBFBFB"/>
<path d="M9.2002 7.99971L9.2002 9.19971L10.4002 9.19971L10.4002 7.99971L9.2002 7.99971Z" fill="#FBFBFB"/>
</svg>
