<svg width="106" height="106" viewBox="0 0 106 106" fill="none" xmlns="http://www.w3.org/2000/svg">
<g filter="url(#filter0_d_4756_12714)">
<path d="M73.2135 20.993C73.0996 21.034 73.0214 21.14 73.0153 21.2609L72.8077 25.3497C72.7969 25.5634 73.0072 25.7193 73.2087 25.6471L77.0616 24.2623C77.1743 24.2217 77.2517 24.1181 77.2592 23.9988C78.5687 25.1331 79.7831 26.343 80.9015 27.6172L79.4321 31.2077C79.3512 31.4058 79.4984 31.6227 79.7125 31.6212L83.8064 31.5913C83.8492 31.591 83.8891 31.5787 83.9266 31.5617C88.3916 38.2652 90.5649 46.2115 90.2227 54.1613L90.1685 54.1179C90.0749 54.0412 89.9443 54.0281 89.8375 54.0849L86.2239 56.008C86.0348 56.1086 86.0086 56.3699 86.1743 56.5056L89.3417 59.0988C89.4352 59.1754 89.566 59.1884 89.6727 59.1318L89.6777 59.1281C89.4155 60.6038 89.0633 62.0702 88.6206 63.52C88.5581 63.4772 88.482 63.4562 88.4042 63.469L84.3641 64.132C84.1527 64.1666 84.0444 64.4049 84.1579 64.5866L86.3268 68.0591C86.3909 68.1617 86.5104 68.2157 86.6298 68.1961L86.8634 68.157C85.9507 70.1538 84.8507 72.0989 83.5587 73.9679C81.8275 76.4722 79.8463 78.7006 77.674 80.6463C77.6423 80.556 77.5705 80.4844 77.4759 80.4571L73.5426 79.3206C73.3368 79.2612 73.1369 79.4308 73.1614 79.6435L73.6295 83.7115C73.6325 83.737 73.6401 83.7611 73.6491 83.7844C72.0415 84.8702 70.3616 85.8232 68.6258 86.6408L68.6389 86.5857C68.6653 86.4677 68.6186 86.3453 68.5198 86.2754L65.1768 83.9122C65.0019 83.7886 64.7572 83.883 64.7105 84.0921L63.8183 88.0875C63.792 88.2056 63.8394 88.3285 63.9382 88.3984L64.0148 88.4525C53.2468 91.8906 41.0597 90.4782 31.0425 83.5534C29.5428 82.5167 28.1431 81.3886 26.8423 80.1856L27.1486 80.1101C27.266 80.0808 27.355 79.9837 27.3732 79.8641L27.9892 75.8166C28.0213 75.6049 27.8275 75.4286 27.6197 75.4804L23.648 76.4721C23.5652 76.4927 23.4976 76.5476 23.4581 76.6198C22.2125 75.1211 21.0951 73.5404 20.1105 71.8932L20.1484 71.8968C20.2688 71.9076 20.3844 71.8452 20.4409 71.7381L22.3497 68.1166C22.4495 67.9272 22.3249 67.697 22.1116 67.6778L18.0339 67.3116C17.952 67.3043 17.8735 67.3321 17.8133 67.3835C12.9889 56.1065 13.7596 42.7234 20.958 31.7762L25.0349 31.4069C25.2482 31.3876 25.3729 31.1577 25.2728 30.9683L23.7369 28.0604C24.754 26.8602 25.8349 25.7387 26.9692 24.695L30.9039 25.6425C31.1121 25.6924 31.3047 25.5139 31.2707 25.3025L30.6883 21.685C43.0438 12.9385 59.9595 12.2055 73.2655 20.9744L73.2135 20.993Z" fill="#FFFCFA"/>
<ellipse cx="52.4258" cy="52.5" rx="32.5" ry="32" fill="#FF691E"/>
</g>
<defs>
<filter id="filter0_d_4756_12714" x="9.15684" y="11.1505" width="86.701" height="86.7015" filterUnits="userSpaceOnUse" color-interpolation-filters="sRGB">
<feFlood flood-opacity="0" result="BackgroundImageFix"/>
<feColorMatrix in="SourceAlpha" type="matrix" values="0 0 0 0 0 0 0 0 0 0 0 0 0 0 0 0 0 0 127 0" result="hardAlpha"/>
<feOffset dy="2"/>
<feGaussianBlur stdDeviation="2.8"/>
<feComposite in2="hardAlpha" operator="out"/>
<feColorMatrix type="matrix" values="0 0 0 0 0 0 0 0 0 0 0 0 0 0 0 0 0 0 0.25 0"/>
<feBlend mode="normal" in2="BackgroundImageFix" result="effect1_dropShadow_4756_12714"/>
<feBlend mode="normal" in="SourceGraphic" in2="effect1_dropShadow_4756_12714" result="shape"/>
</filter>
</defs>
</svg>
