<svg width="26" height="21" viewBox="0 0 26 21" fill="none" xmlns="http://www.w3.org/2000/svg">
<path d="M1.21593e-05 6.00012H1.20001V7.20012H1.21593e-05V6.00012Z" fill="white"/>
<path d="M1.21593e-05 4.80005H1.20001V6.00005H1.21593e-05V4.80005Z" fill="white"/>
<path d="M1.20002 3.6001H2.40002V4.8001H1.20002V3.6001Z" fill="white"/>
<path d="M2.39998 3.6001H3.59998V4.8001H2.39998V3.6001Z" fill="white"/>
<path d="M3.59999 3.6001H4.79999V4.8001H3.59999V3.6001Z" fill="white"/>
<path d="M4.8 3.6001H6V4.8001H4.8V3.6001Z" fill="white"/>
<path d="M5.99998 3.6001H7.19998V4.8001H5.99998V3.6001Z" fill="white"/>
<path d="M5.99998 2.40015H7.19998V3.60015H5.99998V2.40015Z" fill="white"/>
<path d="M7.19999 1.20007H8.39999V2.40007H7.19999V1.20007Z" fill="white"/>
<path d="M8.40001 0.00012207H9.60001V1.20012H8.40001V0.00012207Z" fill="white"/>
<path d="M9.59999 0.00012207H10.8V1.20012H9.59999V0.00012207Z" fill="white"/>
<path d="M10.8 0.00012207H12V1.20012H10.8V0.00012207Z" fill="white"/>
<path d="M12 0.00012207H13.2V1.20012H12V0.00012207Z" fill="white"/>
<path d="M13.2 0.00012207H14.4V1.20012H13.2V0.00012207Z" fill="white"/>
<path d="M14.4 0.00012207H15.6V1.20012H14.4V0.00012207Z" fill="white"/>
<path d="M15.6 1.20007H16.8V2.40007H15.6V1.20007Z" fill="white"/>
<path d="M16.8 2.40015H18V3.60015H16.8V2.40015Z" fill="white"/>
<path d="M18 3.6001H19.2V4.8001H18V3.6001Z" fill="white"/>
<path d="M19.2 3.6001H20.4V4.8001H19.2V3.6001Z" fill="white"/>
<path d="M20.4 3.6001H21.6V4.8001H20.4V3.6001Z" fill="white"/>
<path d="M21.6 3.6001H22.8V4.8001H21.6V3.6001Z" fill="white"/>
<path d="M24 4.80005H25.2V6.00005H24V4.80005Z" fill="white"/>
<path d="M22.8 3.6001H24V4.8001H22.8V3.6001Z" fill="white"/>
<path d="M24 6.00012H25.2V7.20012H24V6.00012Z" fill="white"/>
<path d="M1.21593e-05 7.20007H1.20001V8.40007H1.21593e-05V7.20007Z" fill="white"/>
<path d="M24 7.20007H25.2V8.40007H24V7.20007Z" fill="white"/>
<path d="M1.21593e-05 8.40015H1.20001V9.60015H1.21593e-05V8.40015Z" fill="white"/>
<path d="M24 8.40015H25.2V9.60015H24V8.40015Z" fill="white"/>
<path d="M1.21593e-05 9.6001H1.20001V10.8001H1.21593e-05V9.6001Z" fill="white"/>
<path d="M24 9.6001H25.2V10.8001H24V9.6001Z" fill="white"/>
<path d="M1.21593e-05 10.8H1.20001V12H1.21593e-05V10.8Z" fill="white"/>
<path d="M24 10.8H25.2V12H24V10.8Z" fill="white"/>
<path d="M1.21593e-05 12.0001H1.20001V13.2001H1.21593e-05V12.0001Z" fill="white"/>
<path d="M24 12.0001H25.2V13.2001H24V12.0001Z" fill="white"/>
<path d="M1.21593e-05 13.2001H1.20001V14.4001H1.21593e-05V13.2001Z" fill="white"/>
<path d="M24 13.2001H25.2V14.4001H24V13.2001Z" fill="white"/>
<path d="M1.21593e-05 14.4001H1.20001V15.6001H1.21593e-05V14.4001Z" fill="white"/>
<path d="M24 14.4001H25.2V15.6001H24V14.4001Z" fill="white"/>
<path d="M1.21593e-05 15.6001H1.20001V16.8001H1.21593e-05V15.6001Z" fill="white"/>
<path d="M24 15.6001H25.2V16.8001H24V15.6001Z" fill="white"/>
<path d="M1.21593e-05 16.8H1.20001V18H1.21593e-05V16.8Z" fill="white"/>
<path d="M24 16.8H25.2V18H24V16.8Z" fill="white"/>
<path d="M1.20002 18.0001H2.40002V19.2001H1.20002V18.0001Z" fill="white"/>
<path d="M22.8 18.0001H24V19.2001H22.8V18.0001Z" fill="white"/>
<path d="M2.39998 19.2001H3.59998V20.4001H2.39998V19.2001Z" fill="white"/>
<path d="M4.8 19.2001H6V20.4001H4.8V19.2001Z" fill="white"/>
<path d="M7.19999 19.2001H8.39999V20.4001H7.19999V19.2001Z" fill="white"/>
<path d="M9.59999 19.2001H10.8V20.4001H9.59999V19.2001Z" fill="white"/>
<path d="M12 19.2001H13.2V20.4001H12V19.2001Z" fill="white"/>
<path d="M14.4 19.2001H15.6V20.4001H14.4V19.2001Z" fill="white"/>
<path d="M16.8 19.2001H18V20.4001H16.8V19.2001Z" fill="white"/>
<path d="M19.2 19.2001H20.4V20.4001H19.2V19.2001Z" fill="white"/>
<path d="M3.59999 19.2001H4.79999V20.4001H3.59999V19.2001Z" fill="white"/>
<path d="M5.99998 19.2001H7.19998V20.4001H5.99998V19.2001Z" fill="white"/>
<path d="M8.40001 19.2001H9.60001V20.4001H8.40001V19.2001Z" fill="white"/>
<path d="M10.8 19.2001H12V20.4001H10.8V19.2001Z" fill="white"/>
<path d="M13.2 19.2001H14.4V20.4001H13.2V19.2001Z" fill="white"/>
<path d="M15.6 19.2001H16.8V20.4001H15.6V19.2001Z" fill="white"/>
<path d="M18 19.2001H19.2V20.4001H18V19.2001Z" fill="white"/>
<path d="M20.4 19.2001H21.6V20.4001H20.4V19.2001Z" fill="white"/>
<path d="M21.6 19.2001H22.8V20.4001H21.6V19.2001Z" fill="white"/>
<path d="M12.8 6.7998H11.6V7.9998H12.8V6.7998Z" fill="white"/>
<path d="M12.8 13.9999H11.6V15.1999H12.8V13.9999Z" fill="white"/>
<path d="M15.2 10.3999L15.2 11.5999L16.4 11.5999L16.4 10.3999L15.2 10.3999Z" fill="white"/>
<path d="M8 10.3999L8 11.5999L9.2 11.5999L9.2 10.3999L8 10.3999Z" fill="white"/>
<path d="M11.6 6.7998H10.4V7.9998H11.6V6.7998Z" fill="white"/>
<path d="M11.6 13.9999H10.4V15.1999H11.6V13.9999Z" fill="white"/>
<path d="M15.2 11.5998L15.2 12.7998L16.4 12.7998L16.4 11.5998L15.2 11.5998Z" fill="white"/>
<path d="M8 11.5998L8 12.7998L9.2 12.7998L9.2 11.5998L8 11.5998Z" fill="white"/>
<path d="M14 6.7998H12.8V7.9998H14V6.7998Z" fill="white"/>
<path d="M14 13.9999H12.8V15.1999H14V13.9999Z" fill="white"/>
<path d="M15.2 9.1999L15.2 10.3999L16.4 10.3999L16.4 9.1999L15.2 9.1999Z" fill="white"/>
<path d="M8 9.1999L8 10.3999L9.2 10.3999L9.2 9.1999L8 9.1999Z" fill="white"/>
<path d="M9.20001 12.7999L9.20001 13.9999L10.4 13.9999L10.4 12.7999L9.20001 12.7999Z" fill="white"/>
<path d="M14 12.7999L14 13.9999L15.2 13.9999L15.2 12.7999L14 12.7999Z" fill="white"/>
<path d="M14 7.99983L14 9.19983L15.2 9.19983L15.2 7.99983L14 7.99983Z" fill="white"/>
<path d="M9.20001 7.99983L9.20001 9.19983L10.4 9.19983L10.4 7.99983L9.20001 7.99983Z" fill="white"/>
</svg>
