<svg width="45" height="45" viewBox="0 0 45 45" fill="none" xmlns="http://www.w3.org/2000/svg">
<rect width="45" height="45" rx="22.5" fill="#FAF3EF"/>
<path d="M25.9091 13.1816H27V14.2725H25.9091V13.1816Z" fill="#FF691E"/>
<path d="M24.8188 16.4546H25.9097V17.5455H24.8188V16.4546Z" fill="#FF691E"/>
<path d="M24.8188 17.5454H25.9097V18.6363H24.8188V17.5454Z" fill="#FF691E"/>
<path d="M23.727 19.7271H24.8179V20.818H23.727V19.7271Z" fill="#FF691E"/>
<path d="M23.727 20.8179H24.8179V21.9088H23.727V20.8179Z" fill="#FF691E"/>
<path d="M24.8188 20.8179H25.9097V21.9088H24.8188V20.8179Z" fill="#FF691E"/>
<path d="M14.9999 24.0908H16.0908V25.1817H14.9999V24.0908Z" fill="#FF691E"/>
<path d="M14.9999 23H16.0908V24.0909H14.9999V23Z" fill="#FF691E"/>
<path d="M16.0912 20.8179H17.1821V21.9088H16.0912V20.8179Z" fill="#FF691E"/>
<path d="M17.1816 19.7271H18.2725V20.818H17.1816V19.7271Z" fill="#FF691E"/>
<path d="M18.2724 18.6362H19.3633V19.7271H18.2724V18.6362Z" fill="#FF691E"/>
<path d="M23.727 13.1816H24.8179V14.2725H23.727V13.1816Z" fill="#FF691E"/>
<path d="M24.8188 12.0908H25.9097V13.1817H24.8188V12.0908Z" fill="#FF691E"/>
<path d="M22.6366 14.2729H23.7275V15.3639H22.6366V14.2729Z" fill="#FF691E"/>
<path d="M21.5458 15.3633H22.6367V16.4542H21.5458V15.3633Z" fill="#FF691E"/>
<path d="M20.455 16.4546H21.5459V17.5455H20.455V16.4546Z" fill="#FF691E"/>
<path d="M19.3637 17.5454H20.4546V18.6363H19.3637V17.5454Z" fill="#FF691E"/>
<path d="M25.9091 20.8179H27V21.9088H25.9091V20.8179Z" fill="#FF691E"/>
<path d="M26.9994 20.8179H28.0903V21.9088H26.9994V20.8179Z" fill="#FF691E"/>
<path d="M28.0907 20.8179H29.1816V21.9088H28.0907V20.8179Z" fill="#FF691E"/>
<path d="M29.1816 20.8179H30.2725V21.9088H29.1816V20.8179Z" fill="#FF691E"/>
<path d="M29.1816 21.9092H30.2725V23.0001H29.1816V21.9092Z" fill="#FF691E"/>
<path d="M29.1816 23H30.2725V24.0909H29.1816V23Z" fill="#FF691E"/>
<path d="M28.0907 25.1816H29.1816V26.2725H28.0907V25.1816Z" fill="#FF691E"/>
<path d="M29.1816 24.0908H30.2725V25.1817H29.1816V24.0908Z" fill="#FF691E"/>
<path d="M26.9994 26.2729H28.0903V27.3639H26.9994V26.2729Z" fill="#FF691E"/>
<path d="M25.9091 27.3638H27V28.4547H25.9091V27.3638Z" fill="#FF691E"/>
<path d="M24.8188 28.4546H25.9097V29.5455H24.8188V28.4546Z" fill="#FF691E"/>
<path d="M23.727 29.5454H24.8179V30.6363H23.727V29.5454Z" fill="#FF691E"/>
<path d="M22.6366 30.6362H23.7275V31.7271H22.6366V30.6362Z" fill="#FF691E"/>
<path d="M21.5458 31.7271H22.6367V32.818H21.5458V31.7271Z" fill="#FF691E"/>
<path d="M20.455 32.8184H21.5459V33.9093H20.455V32.8184Z" fill="#FF691E"/>
<path d="M19.3637 33.9087H20.4546V34.9996H19.3637V33.9087Z" fill="#FF691E"/>
<path d="M18.2724 33.9087H19.3633V34.9996H18.2724V33.9087Z" fill="#FF691E"/>
<path d="M18.2724 32.8184H19.3633V33.9093H18.2724V32.8184Z" fill="#FF691E"/>
<path d="M19.3637 31.7271H20.4546V32.818H19.3637V31.7271Z" fill="#FF691E"/>
<path d="M19.3637 30.6362H20.4546V31.7271H19.3637V30.6362Z" fill="#FF691E"/>
<path d="M20.455 29.5454H21.5459V30.6363H20.455V29.5454Z" fill="#FF691E"/>
<path d="M20.455 28.4546H21.5459V29.5455H20.455V28.4546Z" fill="#FF691E"/>
<path d="M20.455 27.3638H21.5459V28.4547H20.455V27.3638Z" fill="#FF691E"/>
<path d="M21.5458 26.2729H22.6367V27.3639H21.5458V26.2729Z" fill="#FF691E"/>
<path d="M21.5458 25.1816H22.6367V26.2725H21.5458V25.1816Z" fill="#FF691E"/>
<path d="M26.9999 12.0908H28.0908V13.1817H26.9999V12.0908Z" fill="#FF691E"/>
<path d="M26.9999 11H28.0908V12.0909H26.9999V11Z" fill="#FF691E"/>
<path d="M25.9096 11H27.0005V12.0909H25.9096V11Z" fill="#FF691E"/>
<path d="M25.9096 14.2729H27.0005V15.3639H25.9096V14.2729Z" fill="#FF691E"/>
<path d="M24.8188 15.3633H25.9097V16.4542H24.8188V15.3633Z" fill="#FF691E"/>
<path d="M24.8188 17.5454H25.9097V18.6363H24.8188V17.5454Z" fill="#FF691E"/>
<path d="M23.7275 18.6362H24.8184V19.7271H23.7275V18.6362Z" fill="#FF691E"/>
<path d="M23.7275 19.7271H24.8184V20.818H23.7275V19.7271Z" fill="#FF691E"/>
<path d="M23.7275 20.8179H24.8184V21.9088H23.7275V20.8179Z" fill="#FF691E"/>
<path d="M24.8188 20.8179H25.9097V21.9088H24.8188V20.8179Z" fill="#FF691E"/>
<path d="M16.0912 24.0908H17.1821V25.1817H16.0912V24.0908Z" fill="#FF691E"/>
<path d="M14.9999 24.0908H16.0908V25.1817H14.9999V24.0908Z" fill="#FF691E"/>
<path d="M14.9999 23H16.0908V24.0909H14.9999V23Z" fill="#FF691E"/>
<path d="M16.0912 20.8179H17.1821V21.9088H16.0912V20.8179Z" fill="#FF691E"/>
<path d="M14.9999 21.9092H16.0908V23.0001H14.9999V21.9092Z" fill="#FF691E"/>
<path d="M17.1816 19.7271H18.2725V20.818H17.1816V19.7271Z" fill="#FF691E"/>
<path d="M18.2724 18.6362H19.3633V19.7271H18.2724V18.6362Z" fill="#FF691E"/>
<path d="M23.7275 13.1816H24.8184V14.2725H23.7275V13.1816Z" fill="#FF691E"/>
<path d="M24.8188 12.0908H25.9097V13.1817H24.8188V12.0908Z" fill="#FF691E"/>
<path d="M22.6366 14.2729H23.7275V15.3639H22.6366V14.2729Z" fill="#FF691E"/>
<path d="M21.5458 15.3633H22.6367V16.4542H21.5458V15.3633Z" fill="#FF691E"/>
<path d="M20.455 16.4546H21.5459V17.5455H20.455V16.4546Z" fill="#FF691E"/>
<path d="M19.3642 17.5454H20.4551V18.6363H19.3642V17.5454Z" fill="#FF691E"/>
<path d="M25.9096 20.8179H27.0005V21.9088H25.9096V20.8179Z" fill="#FF691E"/>
<path d="M17.1816 24.0908H18.2725V25.1817H17.1816V24.0908Z" fill="#FF691E"/>
<path d="M26.9999 20.8179H28.0908V21.9088H26.9999V20.8179Z" fill="#FF691E"/>
<path d="M18.2724 24.0908H19.3633V25.1817H18.2724V24.0908Z" fill="#FF691E"/>
<path d="M28.0907 20.8179H29.1816V21.9088H28.0907V20.8179Z" fill="#FF691E"/>
<path d="M19.3642 24.0908H20.4551V25.1817H19.3642V24.0908Z" fill="#FF691E"/>
<path d="M29.1816 20.8179H30.2725V21.9088H29.1816V20.8179Z" fill="#FF691E"/>
<path d="M20.455 24.0908H21.5459V25.1817H20.455V24.0908Z" fill="#FF691E"/>
<path d="M21.5458 24.0908H22.6367V25.1817H21.5458V24.0908Z" fill="#FF691E"/>
<path d="M29.1816 21.9092H30.2725V23.0001H29.1816V21.9092Z" fill="#FF691E"/>
<path d="M29.1816 23H30.2725V24.0909H29.1816V23Z" fill="#FF691E"/>
<path d="M28.0907 25.1816H29.1816V26.2725H28.0907V25.1816Z" fill="#FF691E"/>
<path d="M29.1816 24.0908H30.2725V25.1817H29.1816V24.0908Z" fill="#FF691E"/>
<path d="M26.9999 26.2729H28.0908V27.3639H26.9999V26.2729Z" fill="#FF691E"/>
<path d="M25.9096 27.3633H27.0005V28.4542H25.9096V27.3633Z" fill="#FF691E"/>
<path d="M24.8188 28.4546H25.9097V29.5455H24.8188V28.4546Z" fill="#FF691E"/>
<path d="M23.7275 29.5454H24.8184V30.6363H23.7275V29.5454Z" fill="#FF691E"/>
<path d="M22.6366 30.6362H23.7275V31.7271H22.6366V30.6362Z" fill="#FF691E"/>
<path d="M21.5458 31.7271H22.6367V32.818H21.5458V31.7271Z" fill="#FF691E"/>
<path d="M20.455 32.8184H21.5459V33.9093H20.455V32.8184Z" fill="#FF691E"/>
<path d="M19.3642 33.9087H20.4551V34.9996H19.3642V33.9087Z" fill="#FF691E"/>
<path d="M18.2724 33.9087H19.3633V34.9996H18.2724V33.9087Z" fill="#FF691E"/>
<path d="M18.2724 32.8184H19.3633V33.9093H18.2724V32.8184Z" fill="#FF691E"/>
<path d="M19.3642 31.7271H20.4551V32.818H19.3642V31.7271Z" fill="#FF691E"/>
<path d="M19.3642 30.6362H20.4551V31.7271H19.3642V30.6362Z" fill="#FF691E"/>
<path d="M20.455 29.5454H21.5459V30.6363H20.455V29.5454Z" fill="#FF691E"/>
<path d="M20.455 28.4546H21.5459V29.5455H20.455V28.4546Z" fill="#FF691E"/>
<path d="M20.455 27.3633H21.5459V28.4542H20.455V27.3633Z" fill="#FF691E"/>
<path d="M21.5458 26.2729H22.6367V27.3639H21.5458V26.2729Z" fill="#FF691E"/>
<path d="M21.5458 25.1816H22.6367V26.2725H21.5458V25.1816Z" fill="#FF691E"/>
</svg>
