<svg width="31" height="31" viewBox="0 0 31 31" fill="none" xmlns="http://www.w3.org/2000/svg">
<rect width="31" height="31" rx="15.5" fill="white"/>
<path d="M17.8485 9.08069H18.6V9.8322H17.8485V9.08069Z" fill="#00B569"/>
<path d="M17.0974 11.3353H17.8489V12.0868H17.0974V11.3353Z" fill="#00B569"/>
<path d="M17.0974 12.0868H17.8489V12.8383H17.0974V12.0868Z" fill="#00B569"/>
<path d="M16.3452 13.5898H17.0967V14.3414H16.3452V13.5898Z" fill="#00B569"/>
<path d="M16.3452 14.3411H17.0967V15.0926H16.3452V14.3411Z" fill="#00B569"/>
<path d="M17.0974 14.3411H17.8489V15.0926H17.0974V14.3411Z" fill="#00B569"/>
<path d="M10.3333 16.5957H11.0848V17.3472H10.3333V16.5957Z" fill="#00B569"/>
<path d="M10.3333 15.8445H11.0848V16.596H10.3333V15.8445Z" fill="#00B569"/>
<path d="M11.0852 14.3411H11.8367V15.0926H11.0852V14.3411Z" fill="#00B569"/>
<path d="M11.8363 13.5898H12.5878V14.3414H11.8363V13.5898Z" fill="#00B569"/>
<path d="M12.5878 12.8383H13.3393V13.5898H12.5878V12.8383Z" fill="#00B569"/>
<path d="M16.3452 9.08069H17.0967V9.8322H16.3452V9.08069Z" fill="#00B569"/>
<path d="M17.0974 8.3291H17.8489V9.08061H17.0974V8.3291Z" fill="#00B569"/>
<path d="M15.5941 9.83228H16.3456V10.5838H15.5941V9.83228Z" fill="#00B569"/>
<path d="M14.8426 10.5836H15.5941V11.3351H14.8426V10.5836Z" fill="#00B569"/>
<path d="M14.0911 11.3353H14.8426V12.0868H14.0911V11.3353Z" fill="#00B569"/>
<path d="M13.3396 12.0868H14.0911V12.8383H13.3396V12.0868Z" fill="#00B569"/>
<path d="M17.8485 14.3411H18.6V15.0926H17.8485V14.3411Z" fill="#00B569"/>
<path d="M18.5996 14.3411H19.3511V15.0926H18.5996V14.3411Z" fill="#00B569"/>
<path d="M19.3515 14.3411H20.103V15.0926H19.3515V14.3411Z" fill="#00B569"/>
<path d="M20.103 14.3411H20.8545V15.0926H20.103V14.3411Z" fill="#00B569"/>
<path d="M20.103 15.0928H20.8545V15.8443H20.103V15.0928Z" fill="#00B569"/>
<path d="M20.103 15.8445H20.8545V16.596H20.103V15.8445Z" fill="#00B569"/>
<path d="M19.3515 17.3473H20.103V18.0988H19.3515V17.3473Z" fill="#00B569"/>
<path d="M20.103 16.5957H20.8545V17.3472H20.103V16.5957Z" fill="#00B569"/>
<path d="M18.5996 18.099H19.3511V18.8505H18.5996V18.099Z" fill="#00B569"/>
<path d="M17.8485 18.8503H18.6V19.6019H17.8485V18.8503Z" fill="#00B569"/>
<path d="M17.0974 19.6018H17.8489V20.3533H17.0974V19.6018Z" fill="#00B569"/>
<path d="M16.3452 20.3534H17.0967V21.1049H16.3452V20.3534Z" fill="#00B569"/>
<path d="M15.5941 21.1049H16.3456V21.8564H15.5941V21.1049Z" fill="#00B569"/>
<path d="M14.8426 21.8564H15.5941V22.608H14.8426V21.8564Z" fill="#00B569"/>
<path d="M14.0911 22.6082H14.8426V23.3597H14.0911V22.6082Z" fill="#00B569"/>
<path d="M13.3396 23.3594H14.0911V24.1109H13.3396V23.3594Z" fill="#00B569"/>
<path d="M12.5878 23.3594H13.3393V24.1109H12.5878V23.3594Z" fill="#00B569"/>
<path d="M12.5878 22.6082H13.3393V23.3597H12.5878V22.6082Z" fill="#00B569"/>
<path d="M13.3396 21.8564H14.0911V22.608H13.3396V21.8564Z" fill="#00B569"/>
<path d="M13.3396 21.1049H14.0911V21.8564H13.3396V21.1049Z" fill="#00B569"/>
<path d="M14.0911 20.3534H14.8426V21.1049H14.0911V20.3534Z" fill="#00B569"/>
<path d="M14.0911 19.6018H14.8426V20.3533H14.0911V19.6018Z" fill="#00B569"/>
<path d="M14.0911 18.8503H14.8426V19.6019H14.0911V18.8503Z" fill="#00B569"/>
<path d="M14.8426 18.099H15.5941V18.8505H14.8426V18.099Z" fill="#00B569"/>
<path d="M14.8426 17.3473H15.5941V18.0988H14.8426V17.3473Z" fill="#00B569"/>
<path d="M18.6 8.32922H19.3515V9.08074H18.6V8.32922Z" fill="#00B569"/>
<path d="M18.6 7.57776H19.3515V8.32927H18.6V7.57776Z" fill="#00B569"/>
<path d="M17.8488 7.57776H18.6003V8.32927H17.8488V7.57776Z" fill="#00B569"/>
<path d="M17.8488 9.8324H18.6003V10.5839H17.8488V9.8324Z" fill="#00B569"/>
<path d="M17.0974 10.5837H17.8489V11.3353H17.0974V10.5837Z" fill="#00B569"/>
<path d="M17.0974 12.0869H17.8489V12.8384H17.0974V12.0869Z" fill="#00B569"/>
<path d="M16.3455 12.8383H17.097V13.5898H16.3455V12.8383Z" fill="#00B569"/>
<path d="M16.3455 13.5898H17.097V14.3414H16.3455V13.5898Z" fill="#00B569"/>
<path d="M16.3455 14.3412H17.097V15.0927H16.3455V14.3412Z" fill="#00B569"/>
<path d="M17.0974 14.3412H17.8489V15.0927H17.0974V14.3412Z" fill="#00B569"/>
<path d="M11.0852 16.5957H11.8367V17.3472H11.0852V16.5957Z" fill="#00B569"/>
<path d="M10.3333 16.5957H11.0848V17.3472H10.3333V16.5957Z" fill="#00B569"/>
<path d="M10.3333 15.8445H11.0848V16.596H10.3333V15.8445Z" fill="#00B569"/>
<path d="M11.0852 14.3412H11.8367V15.0927H11.0852V14.3412Z" fill="#00B569"/>
<path d="M10.3333 15.0929H11.0848V15.8444H10.3333V15.0929Z" fill="#00B569"/>
<path d="M11.8363 13.5898H12.5878V14.3414H11.8363V13.5898Z" fill="#00B569"/>
<path d="M12.5878 12.8383H13.3393V13.5898H12.5878V12.8383Z" fill="#00B569"/>
<path d="M16.3455 9.08081H17.097V9.83232H16.3455V9.08081Z" fill="#00B569"/>
<path d="M17.0974 8.32922H17.8489V9.08074H17.0974V8.32922Z" fill="#00B569"/>
<path d="M15.594 9.8324H16.3455V10.5839H15.594V9.8324Z" fill="#00B569"/>
<path d="M14.8425 10.5837H15.5941V11.3353H14.8425V10.5837Z" fill="#00B569"/>
<path d="M14.0911 11.3353H14.8426V12.0868H14.0911V11.3353Z" fill="#00B569"/>
<path d="M13.3396 12.0869H14.0911V12.8384H13.3396V12.0869Z" fill="#00B569"/>
<path d="M17.8488 14.3412H18.6003V15.0927H17.8488V14.3412Z" fill="#00B569"/>
<path d="M11.8363 16.5957H12.5878V17.3472H11.8363V16.5957Z" fill="#00B569"/>
<path d="M18.6 14.3412H19.3515V15.0927H18.6V14.3412Z" fill="#00B569"/>
<path d="M12.5878 16.5957H13.3393V17.3472H12.5878V16.5957Z" fill="#00B569"/>
<path d="M19.3515 14.3412H20.103V15.0927H19.3515V14.3412Z" fill="#00B569"/>
<path d="M13.3396 16.5957H14.0911V17.3472H13.3396V16.5957Z" fill="#00B569"/>
<path d="M20.1029 14.3412H20.8544V15.0927H20.1029V14.3412Z" fill="#00B569"/>
<path d="M14.0911 16.5957H14.8426V17.3472H14.0911V16.5957Z" fill="#00B569"/>
<path d="M14.8425 16.5957H15.5941V17.3472H14.8425V16.5957Z" fill="#00B569"/>
<path d="M20.1029 15.0929H20.8544V15.8444H20.1029V15.0929Z" fill="#00B569"/>
<path d="M20.1029 15.8445H20.8544V16.596H20.1029V15.8445Z" fill="#00B569"/>
<path d="M19.3515 17.3474H20.103V18.0989H19.3515V17.3474Z" fill="#00B569"/>
<path d="M20.1029 16.5957H20.8544V17.3472H20.1029V16.5957Z" fill="#00B569"/>
<path d="M18.6 18.0991H19.3515V18.8506H18.6V18.0991Z" fill="#00B569"/>
<path d="M17.8488 18.8503H18.6003V19.6019H17.8488V18.8503Z" fill="#00B569"/>
<path d="M17.0974 19.6019H17.8489V20.3534H17.0974V19.6019Z" fill="#00B569"/>
<path d="M16.3455 20.3535H17.097V21.105H16.3455V20.3535Z" fill="#00B569"/>
<path d="M15.594 21.105H16.3455V21.8565H15.594V21.105Z" fill="#00B569"/>
<path d="M14.8425 21.8566H15.5941V22.6081H14.8425V21.8566Z" fill="#00B569"/>
<path d="M14.0911 22.6082H14.8426V23.3597H14.0911V22.6082Z" fill="#00B569"/>
<path d="M13.3396 23.3595H14.0911V24.111H13.3396V23.3595Z" fill="#00B569"/>
<path d="M12.5878 23.3595H13.3393V24.111H12.5878V23.3595Z" fill="#00B569"/>
<path d="M12.5878 22.6082H13.3393V23.3597H12.5878V22.6082Z" fill="#00B569"/>
<path d="M13.3396 21.8566H14.0911V22.6081H13.3396V21.8566Z" fill="#00B569"/>
<path d="M13.3396 21.105H14.0911V21.8565H13.3396V21.105Z" fill="#00B569"/>
<path d="M14.0911 20.3535H14.8426V21.105H14.0911V20.3535Z" fill="#00B569"/>
<path d="M14.0911 19.6019H14.8426V20.3534H14.0911V19.6019Z" fill="#00B569"/>
<path d="M14.0911 18.8503H14.8426V19.6019H14.0911V18.8503Z" fill="#00B569"/>
<path d="M14.8425 18.0991H15.5941V18.8506H14.8425V18.0991Z" fill="#00B569"/>
<path d="M14.8425 17.3474H15.5941V18.0989H14.8425V17.3474Z" fill="#00B569"/>
</svg>
