<svg width="31" height="31" viewBox="0 0 31 31" fill="none" xmlns="http://www.w3.org/2000/svg">
<rect width="31" height="31" rx="15.5" fill="white"/>
<path d="M7.99998 12.9998H8.83331V13.8331H7.99998V12.9998Z" fill="#00B569"/>
<path d="M7.99998 12.1671H8.83331V13.0004H7.99998V12.1671Z" fill="#00B569"/>
<path d="M8.83329 11.3329H9.66663V12.1662H8.83329V11.3329Z" fill="#00B569"/>
<path d="M9.66685 10.5002H10.5002V11.3336H9.66685V10.5002Z" fill="#00B569"/>
<path d="M10.5002 9.66602H11.3336V10.4993H10.5002V9.66602Z" fill="#00B569"/>
<path d="M11.3331 8.83337H12.1664V9.66671H11.3331V8.83337Z" fill="#00B569"/>
<path d="M12.1665 8.83337H12.9998V9.66671H12.1665V8.83337Z" fill="#00B569"/>
<path d="M13 8H13.8334V8.83333H13V8Z" fill="#00B569"/>
<path d="M13.8334 8H14.6667V8.83333H13.8334V8Z" fill="#00B569"/>
<path d="M14.6667 8H15.5V8.83333H14.6667V8Z" fill="#00B569"/>
<path d="M15.5 8H16.3333V8.83333H15.5V8Z" fill="#00B569"/>
<path d="M16.3333 8H17.1666V8.83333H16.3333V8Z" fill="#00B569"/>
<path d="M17.1668 8.83337H18.0002V9.66671H17.1668V8.83337Z" fill="#00B569"/>
<path d="M18.0002 8.83337H18.8336V9.66671H18.0002V8.83337Z" fill="#00B569"/>
<path d="M18.8331 9.66602H19.6664V10.4993H18.8331V9.66602Z" fill="#00B569"/>
<path d="M19.6665 10.5002H20.4998V11.3336H19.6665V10.5002Z" fill="#00B569"/>
<path d="M20.5 11.3329H21.3334V12.1662H20.5V11.3329Z" fill="#00B569"/>
<path d="M21.3334 12.9998H22.1667V13.8331H21.3334V12.9998Z" fill="#00B569"/>
<path d="M22.1667 12.9998H23V13.8331H22.1667V12.9998Z" fill="#00B569"/>
<path d="M22.1667 12.1671H23V13.0004H22.1667V12.1671Z" fill="#00B569"/>
<path d="M20.5 12.9998H21.3334V13.8331H20.5V12.9998Z" fill="#00B569"/>
<path d="M22.1667 11.3329H23V12.1662H22.1667V11.3329Z" fill="#00B569"/>
<path d="M22.1667 10.5002H23V11.3336H22.1667V10.5002Z" fill="#00B569"/>
<path d="M22.1667 9.66602H23V10.4993H22.1667V9.66602Z" fill="#00B569"/>
<path d="M19.6665 12.9998H20.4998V13.8331H19.6665V12.9998Z" fill="#00B569"/>
<path d="M18.8331 12.9998H19.6664V13.8331H18.8331V12.9998Z" fill="#00B569"/>
<path d="M21.3334 12.1671H22.1667V13.0004H21.3334V12.1671Z" fill="#00B569"/>
<path d="M23 18.0002L22.1667 18.0002L22.1667 17.1669L23 17.1669L23 18.0002Z" fill="#00B569"/>
<path d="M23 18.8329L22.1667 18.8329L22.1667 17.9996L23 17.9996L23 18.8329Z" fill="#00B569"/>
<path d="M22.1667 19.6671L21.3334 19.6671L21.3334 18.8338L22.1667 18.8338L22.1667 19.6671Z" fill="#00B569"/>
<path d="M21.3332 20.4998L20.4998 20.4998L20.4998 19.6664L21.3332 19.6664L21.3332 20.4998Z" fill="#00B569"/>
<path d="M20.4998 21.334L19.6664 21.334L19.6664 20.5007L20.4998 20.5007L20.4998 21.334Z" fill="#00B569"/>
<path d="M19.6669 22.1666L18.8336 22.1666L18.8336 21.3333L19.6669 21.3333L19.6669 22.1666Z" fill="#00B569"/>
<path d="M18.8335 22.1666L18.0002 22.1666L18.0002 21.3333L18.8335 21.3333L18.8335 22.1666Z" fill="#00B569"/>
<path d="M18 23L17.1666 23L17.1666 22.1667L18 22.1667L18 23Z" fill="#00B569"/>
<path d="M17.1666 23L16.3333 23L16.3333 22.1667L17.1666 22.1667L17.1666 23Z" fill="#00B569"/>
<path d="M16.3333 23L15.5 23L15.5 22.1667L16.3333 22.1667L16.3333 23Z" fill="#00B569"/>
<path d="M15.5 23L14.6667 23L14.6667 22.1667L15.5 22.1667L15.5 23Z" fill="#00B569"/>
<path d="M14.6667 23L13.8334 23L13.8334 22.1667L14.6667 22.1667L14.6667 23Z" fill="#00B569"/>
<path d="M13.8332 22.1666L12.9998 22.1666L12.9998 21.3333L13.8332 21.3333L13.8332 22.1666Z" fill="#00B569"/>
<path d="M12.9998 22.1666L12.1664 22.1666L12.1664 21.3333L12.9998 21.3333L12.9998 22.1666Z" fill="#00B569"/>
<path d="M12.1669 21.334L11.3336 21.334L11.3336 20.5007L12.1669 20.5007L12.1669 21.334Z" fill="#00B569"/>
<path d="M11.3335 20.4998L10.5002 20.4998L10.5002 19.6664L11.3335 19.6664L11.3335 20.4998Z" fill="#00B569"/>
<path d="M10.5 19.6671L9.66663 19.6671L9.66663 18.8338L10.5 18.8338L10.5 19.6671Z" fill="#00B569"/>
<path d="M9.66665 18.0002L8.83331 18.0002L8.83331 17.1669L9.66665 17.1669L9.66665 18.0002Z" fill="#00B569"/>
<path d="M8.83333 18.0002L8 18.0002L8 17.1669L8.83333 17.1669L8.83333 18.0002Z" fill="#00B569"/>
<path d="M8.83333 18.8329L8 18.8329L8 17.9996L8.83333 17.9996L8.83333 18.8329Z" fill="#00B569"/>
<path d="M10.5 18.0002L9.66663 18.0002L9.66663 17.1669L10.5 17.1669L10.5 18.0002Z" fill="#00B569"/>
<path d="M8.83333 19.6671L8 19.6671L8 18.8338L8.83333 18.8338L8.83333 19.6671Z" fill="#00B569"/>
<path d="M8.83333 20.4998L8 20.4998L8 19.6664L8.83333 19.6664L8.83333 20.4998Z" fill="#00B569"/>
<path d="M8.83333 21.334L8 21.334L8 20.5007L8.83333 20.5007L8.83333 21.334Z" fill="#00B569"/>
<path d="M11.3335 18.0002L10.5002 18.0002L10.5002 17.1669L11.3335 17.1669L11.3335 18.0002Z" fill="#00B569"/>
<path d="M12.1669 18.0002L11.3336 18.0002L11.3336 17.1669L12.1669 17.1669L12.1669 18.0002Z" fill="#00B569"/>
<path d="M9.66665 18.8329L8.83331 18.8329L8.83331 17.9996L9.66665 17.9996L9.66665 18.8329Z" fill="#00B569"/>
</svg>
