<svg width="45" height="45" viewBox="0 0 45 45" fill="none" xmlns="http://www.w3.org/2000/svg">
<rect width="45" height="45" rx="22.5" fill="#FAF3EF"/>
<path d="M11.9998 19H13.1665V20.1667H11.9998V19Z" fill="#FF691E"/>
<path d="M11.9998 17.8335H13.1665V19.0002H11.9998V17.8335Z" fill="#FF691E"/>
<path d="M13.1663 16.6665H14.333V17.8332H13.1663V16.6665Z" fill="#FF691E"/>
<path d="M14.3338 15.5H15.5005V16.6667H14.3338V15.5Z" fill="#FF691E"/>
<path d="M15.5003 14.333H16.667V15.4997H15.5003V14.333Z" fill="#FF691E"/>
<path d="M16.6663 13.167H17.833V14.3337H16.6663V13.167Z" fill="#FF691E"/>
<path d="M17.8328 13.167H18.9995V14.3337H17.8328V13.167Z" fill="#FF691E"/>
<path d="M19.0003 12H20.167V13.1667H19.0003V12Z" fill="#FF691E"/>
<path d="M20.1668 12H21.3335V13.1667H20.1668V12Z" fill="#FF691E"/>
<path d="M21.3333 12H22.5V13.1667H21.3333V12Z" fill="#FF691E"/>
<path d="M22.4998 12H23.6665V13.1667H22.4998V12Z" fill="#FF691E"/>
<path d="M23.6663 12H24.833V13.1667H23.6663V12Z" fill="#FF691E"/>
<path d="M24.8338 13.167H26.0005V14.3337H24.8338V13.167Z" fill="#FF691E"/>
<path d="M26.0003 13.167H27.167V14.3337H26.0003V13.167Z" fill="#FF691E"/>
<path d="M27.1663 14.333H28.333V15.4997H27.1663V14.333Z" fill="#FF691E"/>
<path d="M28.3328 15.5H29.4995V16.6667H28.3328V15.5Z" fill="#FF691E"/>
<path d="M29.5003 16.6665H30.667V17.8332H29.5003V16.6665Z" fill="#FF691E"/>
<path d="M30.6668 19H31.8335V20.1667H30.6668V19Z" fill="#FF691E"/>
<path d="M31.8333 19H33V20.1667H31.8333V19Z" fill="#FF691E"/>
<path d="M31.8333 17.8335H33V19.0002H31.8333V17.8335Z" fill="#FF691E"/>
<path d="M29.5003 19H30.667V20.1667H29.5003V19Z" fill="#FF691E"/>
<path d="M31.8333 16.6665H33V17.8332H31.8333V16.6665Z" fill="#FF691E"/>
<path d="M31.8333 15.5H33V16.6667H31.8333V15.5Z" fill="#FF691E"/>
<path d="M31.8333 14.333H33V15.4997H31.8333V14.333Z" fill="#FF691E"/>
<path d="M28.3328 19H29.4995V20.1667H28.3328V19Z" fill="#FF691E"/>
<path d="M27.1663 19H28.333V20.1667H27.1663V19Z" fill="#FF691E"/>
<path d="M30.6668 17.8335H31.8335V19.0002H30.6668V17.8335Z" fill="#FF691E"/>
<path d="M33.0002 26L31.8335 26L31.8335 24.8333L33.0002 24.8333L33.0002 26Z" fill="#FF691E"/>
<path d="M33.0002 27.1665L31.8335 27.1665L31.8335 25.9998L33.0002 25.9998L33.0002 27.1665Z" fill="#FF691E"/>
<path d="M31.8337 28.3335L30.667 28.3335L30.667 27.1668L31.8337 27.1668L31.8337 28.3335Z" fill="#FF691E"/>
<path d="M30.6662 29.5L29.4995 29.5L29.4995 28.3333L30.6662 28.3333L30.6662 29.5Z" fill="#FF691E"/>
<path d="M29.4997 30.667L28.333 30.667L28.333 29.5003L29.4997 29.5003L29.4997 30.667Z" fill="#FF691E"/>
<path d="M28.3337 31.833L27.167 31.833L27.167 30.6663L28.3337 30.6663L28.3337 31.833Z" fill="#FF691E"/>
<path d="M27.1672 31.833L26.0005 31.833L26.0005 30.6663L27.1672 30.6663L27.1672 31.833Z" fill="#FF691E"/>
<path d="M25.9997 33L24.833 33L24.833 31.8333L25.9997 31.8333L25.9997 33Z" fill="#FF691E"/>
<path d="M24.8332 33L23.6665 33L23.6665 31.8333L24.8332 31.8333L24.8332 33Z" fill="#FF691E"/>
<path d="M23.6667 33L22.5 33L22.5 31.8333L23.6667 31.8333L23.6667 33Z" fill="#FF691E"/>
<path d="M22.5002 33L21.3335 33L21.3335 31.8333L22.5002 31.8333L22.5002 33Z" fill="#FF691E"/>
<path d="M21.3337 33L20.167 33L20.167 31.8333L21.3337 31.8333L21.3337 33Z" fill="#FF691E"/>
<path d="M20.1662 31.833L18.9995 31.833L18.9995 30.6663L20.1662 30.6663L20.1662 31.833Z" fill="#FF691E"/>
<path d="M18.9997 31.833L17.833 31.833L17.833 30.6663L18.9997 30.6663L18.9997 31.833Z" fill="#FF691E"/>
<path d="M17.8337 30.667L16.667 30.667L16.667 29.5003L17.8337 29.5003L17.8337 30.667Z" fill="#FF691E"/>
<path d="M16.6672 29.5L15.5005 29.5L15.5005 28.3333L16.6672 28.3333L16.6672 29.5Z" fill="#FF691E"/>
<path d="M15.4997 28.3335L14.333 28.3335L14.333 27.1668L15.4997 27.1668L15.4997 28.3335Z" fill="#FF691E"/>
<path d="M14.3332 26L13.1665 26L13.1665 24.8333L14.3332 24.8333L14.3332 26Z" fill="#FF691E"/>
<path d="M13.1667 26L12 26L12 24.8333L13.1667 24.8333L13.1667 26Z" fill="#FF691E"/>
<path d="M13.1667 27.1665L12 27.1665L12 25.9998L13.1667 25.9998L13.1667 27.1665Z" fill="#FF691E"/>
<path d="M15.4997 26L14.333 26L14.333 24.8333L15.4997 24.8333L15.4997 26Z" fill="#FF691E"/>
<path d="M13.1667 28.3335L12 28.3335L12 27.1668L13.1667 27.1668L13.1667 28.3335Z" fill="#FF691E"/>
<path d="M13.1667 29.5L12 29.5L12 28.3333L13.1667 28.3333L13.1667 29.5Z" fill="#FF691E"/>
<path d="M13.1667 30.667L12 30.667L12 29.5003L13.1667 29.5003L13.1667 30.667Z" fill="#FF691E"/>
<path d="M16.6672 26L15.5005 26L15.5005 24.8333L16.6672 24.8333L16.6672 26Z" fill="#FF691E"/>
<path d="M17.8337 26L16.667 26L16.667 24.8333L17.8337 24.8333L17.8337 26Z" fill="#FF691E"/>
<path d="M14.3332 27.1665L13.1665 27.1665L13.1665 25.9998L14.3332 25.9998L14.3332 27.1665Z" fill="#FF691E"/>
</svg>
