<svg width="43" height="202" viewBox="0 0 43 202" fill="none" xmlns="http://www.w3.org/2000/svg">
<g clip-path="url(#clip0_5297_9404)">
<path d="M2.86534 9.9953C2.87983 4.97144 6.96445 0.925371 11.9882 0.958584L156.198 1.91885C161.21 1.95223 165.251 6.03253 165.237 11.0449L164.713 192.842C164.698 197.881 160.591 201.949 155.552 201.916L11.4107 200.956C6.38728 200.922 2.32715 196.823 2.34147 191.799L2.50986 133.197C2.51514 131.36 3.03462 129.523 4.32201 128.212C7.07626 125.406 10.955 123.158 14.6861 121.43C17.0754 120.324 19.3824 119.442 21.2537 118.768C22.0379 118.486 22.7553 118.237 23.3712 118.024C23.8942 117.842 24.4336 117.712 24.9771 117.607C34.9172 115.683 42.2461 107.427 41.9162 97.7997C41.5813 88.0335 33.4794 80.2141 23.2228 79.1495C22.5907 79.0839 21.9611 78.9854 21.3494 78.8129C21.3012 78.7992 21.2527 78.7855 21.2039 78.7717C19.3041 78.2341 16.9641 77.5352 14.549 76.6127C10.9686 75.2449 7.28502 73.4052 4.61878 70.9091C3.23575 69.6144 2.6983 67.7101 2.70378 65.8156L2.86534 9.9953Z" fill="#EEF9F4"/>
</g>
<defs>
<clipPath id="clip0_5297_9404">
<rect width="42.4668" height="201.733" fill="white" transform="translate(0.0950775) rotate(0.0270027)"/>
</clipPath>
</defs>
</svg>
