<svg width="25" height="23" viewBox="0 0 25 23" fill="none" xmlns="http://www.w3.org/2000/svg">
<path d="M0.000406742 7.26294H1.21094V8.47347H0.000406742V7.26294Z" fill="#009255"/>
<path d="M14.5258 7.26294H15.7363V8.47347H14.5258V7.26294Z" fill="#009255"/>
<path d="M23.0004 4.84229H24.2109V6.05282H23.0004V4.84229Z" fill="#009255"/>
<path d="M8.47404 4.84229H9.68457V6.05282H8.47404V4.84229Z" fill="#009255"/>
<path d="M14.5258 18.158H15.7363V19.3685H14.5258V18.158Z" fill="#009255"/>
<path d="M0.000406742 18.158H1.21094V19.3685H0.000406742V18.158Z" fill="#009255"/>
<path d="M14.5258 10.895H15.7363V12.1056H14.5258V10.895Z" fill="#009255"/>
<path d="M23.0004 15.7368H24.2109V16.9473H23.0004V15.7368Z" fill="#009255"/>
<path d="M8.47404 15.7368H9.68457V16.9473H8.47404V15.7368Z" fill="#009255"/>
<path d="M0.000406742 10.895H1.21094V12.1056H0.000406742V10.895Z" fill="#009255"/>
<path d="M14.5258 3.63159H15.7363V4.84212H14.5258V3.63159Z" fill="#009255"/>
<path d="M23.0004 8.47388H24.2109V9.68441H23.0004V8.47388Z" fill="#009255"/>
<path d="M8.47404 8.47388H9.68457V9.68441H8.47404V8.47388Z" fill="#009255"/>
<path d="M14.5258 21.7894H15.7363V23H14.5258V21.7894Z" fill="#009255"/>
<path d="M0.000406742 3.63159H1.21094V4.84212H0.000406742V3.63159Z" fill="#009255"/>
<path d="M14.5258 14.5264H15.7363V15.7369H14.5258V14.5264Z" fill="#009255"/>
<path d="M23.0004 1.21045H24.2109V2.42098H23.0004V1.21045Z" fill="#009255"/>
<path d="M8.47404 1.21045H9.68457V2.42098H8.47404V1.21045Z" fill="#009255"/>
<path d="M14.5258 6.05261H15.7363V7.26314H14.5258V6.05261Z" fill="#009255"/>
<path d="M0.000406742 21.7894H1.21094V23H0.000406742V21.7894Z" fill="#009255"/>
<path d="M1.21037 21.7894H2.4209V23H1.21037V21.7894Z" fill="#009255"/>
<path d="M15.7367 21.7894H16.9473V23H15.7367V21.7894Z" fill="#009255"/>
<path d="M1.21037 2.42114H2.4209V3.63167H1.21037V2.42114Z" fill="#009255"/>
<path d="M15.7367 2.42114H16.9473V3.63167H15.7367V2.42114Z" fill="#009255"/>
<path d="M2.42033 21.7894H3.63086V23H2.42033V21.7894Z" fill="#009255"/>
<path d="M16.9486 21.7894H18.1592V23H16.9486V21.7894Z" fill="#009255"/>
<path d="M2.42033 2.42114H3.63086V3.63167H2.42033V2.42114Z" fill="#009255"/>
<path d="M16.9486 2.42114H18.1592V3.63167H16.9486V2.42114Z" fill="#009255"/>
<path d="M3.63127 20.579H4.8418V21.7895H3.63127V20.579Z" fill="#009255"/>
<path d="M18.1586 20.579H19.3691V21.7895H18.1586V20.579Z" fill="#009255"/>
<path d="M3.63127 1.21045H4.8418V2.42098H3.63127V1.21045Z" fill="#009255"/>
<path d="M18.1586 1.21045H19.3691V2.42098H18.1586V1.21045Z" fill="#009255"/>
<path d="M4.84318 20.579H6.05371V21.7895H4.84318V20.579Z" fill="#009255"/>
<path d="M19.3686 20.579H20.5791V21.7895H19.3686V20.579Z" fill="#009255"/>
<path d="M4.84318 1.21045H6.05371V2.42098H4.84318V1.21045Z" fill="#009255"/>
<path d="M19.3686 1.21045H20.5791V2.42098H19.3686V1.21045Z" fill="#009255"/>
<path d="M6.05314 20.579H7.26367V21.7895H6.05314V20.579Z" fill="#009255"/>
<path d="M20.5785 20.579H21.7891V21.7895H20.5785V20.579Z" fill="#009255"/>
<path d="M6.05314 1.21045H7.26367V2.42098H6.05314V1.21045Z" fill="#009255"/>
<path d="M20.5785 1.21045H21.7891V2.42098H20.5785V1.21045Z" fill="#009255"/>
<path d="M7.2631 19.3684H8.47363V20.5789H7.2631V19.3684Z" fill="#009255"/>
<path d="M21.7895 19.3684H23V20.5789H21.7895V19.3684Z" fill="#009255"/>
<path d="M9.684 19.3684H10.8945V20.5789H9.684V19.3684Z" fill="#009255"/>
<path d="M10.8949 20.579H12.1055V21.7895H10.8949V20.579Z" fill="#009255"/>
<path d="M12.1049 20.579H13.3154V21.7895H12.1049V20.579Z" fill="#009255"/>
<path d="M13.3158 21.7894H14.5264V23H13.3158V21.7894Z" fill="#009255"/>
<path d="M7.2631 0H8.47363V1.21053H7.2631V0Z" fill="#009255"/>
<path d="M21.7895 0H23V1.21053H21.7895V0Z" fill="#009255"/>
<path d="M9.684 0H10.8945V1.21053H9.684V0Z" fill="#009255"/>
<path d="M10.8949 1.21045H12.1055V2.42098H10.8949V1.21045Z" fill="#009255"/>
<path d="M12.1049 1.21045H13.3154V2.42098H12.1049V1.21045Z" fill="#009255"/>
<path d="M13.3158 2.42114H14.5264V3.63167H13.3158V2.42114Z" fill="#009255"/>
<path d="M23.0004 19.3684H24.2109V20.5789H23.0004V19.3684Z" fill="#009255"/>
<path d="M8.47404 19.3684H9.68457V20.5789H8.47404V19.3684Z" fill="#009255"/>
<path d="M14.5258 9.68408H15.7363V10.8946H14.5258V9.68408Z" fill="#009255"/>
<path d="M0.000406742 14.5264H1.21094V15.7369H0.000406742V14.5264Z" fill="#009255"/>
<path d="M14.5258 2.42114H15.7363V3.63167H14.5258V2.42114Z" fill="#009255"/>
<path d="M23.0004 12.1053H24.2109V13.3159H23.0004V12.1053Z" fill="#009255"/>
<path d="M8.47404 12.1053H9.68457V13.3159H8.47404V12.1053Z" fill="#009255"/>
<path d="M0.000406742 6.05261H1.21094V7.26314H0.000406742V6.05261Z" fill="#009255"/>
<path d="M14.5258 12.1053H15.7363V13.3159H14.5258V12.1053Z" fill="#009255"/>
<path d="M23.0004 3.63159H24.2109V4.84212H23.0004V3.63159Z" fill="#009255"/>
<path d="M8.47404 3.63159H9.68457V4.84212H8.47404V3.63159Z" fill="#009255"/>
<path d="M14.5258 16.9475H15.7363V18.158H14.5258V16.9475Z" fill="#009255"/>
<path d="M14.5258 4.84229H15.7363V6.05282H14.5258V4.84229Z" fill="#009255"/>
<path d="M0.000406742 9.68408H1.21094V10.8946H0.000406742V9.68408Z" fill="#009255"/>
<path d="M23.0004 7.26294H24.2109V8.47347H23.0004V7.26294Z" fill="#009255"/>
<path d="M8.47404 7.26294H9.68457V8.47347H8.47404V7.26294Z" fill="#009255"/>
<path d="M14.5258 8.47388H15.7363V9.68441H14.5258V8.47388Z" fill="#009255"/>
<path d="M14.5258 20.579H15.7363V21.7895H14.5258V20.579Z" fill="#009255"/>
<path d="M0.000406742 2.42114H1.21094V3.63167H0.000406742V2.42114Z" fill="#009255"/>
<path d="M23.0004 0H24.2109V1.21053H23.0004V0Z" fill="#009255"/>
<path d="M8.47404 0H9.68457V1.21053H8.47404V0Z" fill="#009255"/>
<path d="M14.5258 13.3157H15.7363V14.5262H14.5258V13.3157Z" fill="#009255"/>
<path d="M0.000406742 12.1053H1.21094V13.3159H0.000406742V12.1053Z" fill="#009255"/>
<path d="M23.0004 9.68408H24.2109V10.8946H23.0004V9.68408Z" fill="#009255"/>
<path d="M8.47404 9.68408H9.68457V10.8946H8.47404V9.68408Z" fill="#009255"/>
<path d="M14.5258 15.7368H15.7363V16.9473H14.5258V15.7368Z" fill="#009255"/>
<path d="M0.000406742 16.9475H1.21094V18.158H0.000406742V16.9475Z" fill="#009255"/>
<path d="M23.0004 14.5264H24.2109V15.7369H23.0004V14.5264Z" fill="#009255"/>
<path d="M8.47404 14.5264H9.68457V15.7369H8.47404V14.5264Z" fill="#009255"/>
<path d="M14.5258 19.3684H15.7363V20.5789H14.5258V19.3684Z" fill="#009255"/>
<path d="M0.000406742 4.84229H1.21094V6.05282H0.000406742V4.84229Z" fill="#009255"/>
<path d="M23.0004 2.42114H24.2109V3.63167H23.0004V2.42114Z" fill="#009255"/>
<path d="M8.47404 2.42114H9.68457V3.63167H8.47404V2.42114Z" fill="#009255"/>
<path d="M0.000406742 8.47388H1.21094V9.68441H0.000406742V8.47388Z" fill="#009255"/>
<path d="M23.0004 6.05261H24.2109V7.26314H23.0004V6.05261Z" fill="#009255"/>
<path d="M8.47404 6.05261H9.68457V7.26314H8.47404V6.05261Z" fill="#009255"/>
<path d="M0.000406742 20.579H1.21094V21.7895H0.000406742V20.579Z" fill="#009255"/>
<path d="M23.0004 18.158H24.2109V19.3685H23.0004V18.158Z" fill="#009255"/>
<path d="M8.47404 18.158H9.68457V19.3685H8.47404V18.158Z" fill="#009255"/>
<path d="M0.000406742 13.3157H1.21094V14.5262H0.000406742V13.3157Z" fill="#009255"/>
<path d="M23.0004 10.895H24.2109V12.1056H23.0004V10.895Z" fill="#009255"/>
<path d="M8.47404 10.895H9.68457V12.1056H8.47404V10.895Z" fill="#009255"/>
<path d="M0.000406742 15.7368H1.21094V16.9473H0.000406742V15.7368Z" fill="#009255"/>
<path d="M23.0004 13.3157H24.2109V14.5262H23.0004V13.3157Z" fill="#009255"/>
<path d="M8.47404 13.3157H9.68457V14.5262H8.47404V13.3157Z" fill="#009255"/>
<path d="M0.000406742 19.3684H1.21094V20.5789H0.000406742V19.3684Z" fill="#009255"/>
<path d="M23.0004 16.9475H24.2109V18.158H23.0004V16.9475Z" fill="#009255"/>
<path d="M8.47404 16.9475H9.68457V18.158H8.47404V16.9475Z" fill="#009255"/>
</svg>
