<svg width="47" height="47" viewBox="0 0 47 47" fill="none" xmlns="http://www.w3.org/2000/svg">
<rect width="47" height="47" rx="23.5" transform="matrix(1 1.74846e-07 1.74846e-07 -1 0 47)" fill="#FF691E"/>
<path fill-rule="evenodd" clip-rule="evenodd" d="M23.3044 29.832C23.6731 30.2007 24.2709 30.2007 24.6397 29.832L30.3049 24.1668C30.6736 23.7981 30.6736 23.2002 30.3049 22.8315L24.6397 17.1663C24.2709 16.7976 23.6731 16.7976 23.3044 17.1663C22.9357 17.5351 22.9357 18.1329 23.3044 18.5016L28.3019 23.4991L23.3044 28.4967C22.9356 28.8654 22.9356 29.4632 23.3044 29.832Z" fill="white"/>
<path fill-rule="evenodd" clip-rule="evenodd" d="M16.4185 23.5003C16.4185 24.0217 16.8412 24.4445 17.3627 24.4445L28.8504 24.4445C29.3718 24.4445 29.7946 24.0217 29.7946 23.5003C29.7946 22.9788 29.3718 22.5561 28.8504 22.5561L17.3627 22.5561C16.8412 22.5561 16.4185 22.9788 16.4185 23.5003Z" fill="white"/>
</svg>
