<svg width="394" height="69" viewBox="0 0 394 69" fill="none" xmlns="http://www.w3.org/2000/svg">
<g filter="url(#filter0_i_4223_9400)">
<path d="M137.325 0.5L8.5 0.5C4.08172 0.5 0.5 4.08172 0.5 8.5L0.5 68.5L393.5 68.5V8.5C393.5 4.08172 389.918 0.5 385.5 0.5L261.213 0.5C257.891 0.5 254.908 2.55182 253.553 5.58442C248.557 16.7612 235.194 42.9258 217.416 48.5941C205.061 52.533 196.673 52.2747 184.24 48.5941C165.482 43.0408 150.326 16.1949 144.805 5.20512C143.378 2.36457 140.504 0.5 137.325 0.5Z" fill="#FF691E"/>
</g>
<path d="M137.325 0.5L8.5 0.5C4.08172 0.5 0.5 4.08172 0.5 8.5L0.5 68.5L393.5 68.5V8.5C393.5 4.08172 389.918 0.5 385.5 0.5L261.213 0.5C257.891 0.5 254.908 2.55182 253.553 5.58442C248.557 16.7612 235.194 42.9258 217.416 48.5941C205.061 52.533 196.673 52.2747 184.24 48.5941C165.482 43.0408 150.326 16.1949 144.805 5.20512C143.378 2.36457 140.504 0.5 137.325 0.5Z" stroke="#FF691E"/>
<defs>
<filter id="filter0_i_4223_9400" x="0" y="0" width="394" height="72" filterUnits="userSpaceOnUse" color-interpolation-filters="sRGB">
<feFlood flood-opacity="0" result="BackgroundImageFix"/>
<feBlend mode="normal" in="SourceGraphic" in2="BackgroundImageFix" result="shape"/>
<feColorMatrix in="SourceAlpha" type="matrix" values="0 0 0 0 0 0 0 0 0 0 0 0 0 0 0 0 0 0 127 0" result="hardAlpha"/>
<feOffset dy="3"/>
<feGaussianBlur stdDeviation="2"/>
<feComposite in2="hardAlpha" operator="arithmetic" k2="-1" k3="1"/>
<feColorMatrix type="matrix" values="0 0 0 0 0 0 0 0 0 0 0 0 0 0 0 0 0 0 0.14 0"/>
<feBlend mode="normal" in2="shape" result="effect1_innerShadow_4223_9400"/>
</filter>
</defs>
</svg>
