<svg width="24" height="24" viewBox="0 0 24 24" fill="none" xmlns="http://www.w3.org/2000/svg">
<path d="M6.37601 10.068C6.16326 10.6899 6.05513 11.3427 6.05601 12C6.05601 12.734 6.18801 13.437 6.43201 14.086C6.73612 14.8972 7.21381 15.6321 7.83165 16.2393C8.44949 16.8466 9.19256 17.3115 10.0089 17.6015C10.8252 17.8916 11.695 17.9998 12.5575 17.9185C13.42 17.8372 14.2543 17.5684 15.002 17.131H15.003C16.1811 16.4404 17.0862 15.3661 17.567 14.088H12.22V10.132H21.825C22.0734 11.4405 22.0585 12.7854 21.781 14.088C21.3002 16.3399 20.0569 18.3568 18.261 19.798C16.4872 21.2264 14.2774 22.0035 12 22C10.283 22.001 8.59464 21.5597 7.09765 20.7187C5.60065 19.8778 4.34547 18.6655 3.45302 17.1986C2.56058 15.7317 2.06095 14.0597 2.00227 12.3437C1.94359 10.6276 2.32785 8.92541 3.11801 7.401C3.96098 5.77291 5.2354 4.40796 6.80189 3.4554C8.36838 2.50284 10.1666 1.99936 12 2C14.426 2 16.651 2.864 18.383 4.302L15.143 6.954C14.384 6.48164 13.5283 6.18643 12.6395 6.09034C11.7507 5.99424 10.8517 6.09972 10.0093 6.39894C9.16691 6.69816 8.40279 7.18342 7.77376 7.81864C7.14472 8.45386 6.66697 9.2227 6.37601 10.068V10.068Z" fill="#EEF9F4"/>
</svg>
