<svg width="23" height="23" viewBox="0 0 23 23" fill="none" xmlns="http://www.w3.org/2000/svg">
<path d="M4.25933 17.4636H5.53711V18.7414H4.25933V17.4636Z" fill="#0F100F"/>
<path d="M2.9815 18.7418H4.25928V20.0196H2.9815V18.7418Z" fill="#0F100F"/>
<path d="M5.53667 16.1849H6.81445V17.4627H5.53667V16.1849Z" fill="#0F100F"/>
<path d="M13.2037 8.52014H14.4814V9.79792H13.2037V8.52014Z" fill="#0F100F"/>
<path d="M11.9258 9.79626H13.2036V11.074H11.9258V9.79626Z" fill="#0F100F"/>
<path d="M10.648 11.0746H11.9258V12.3524H10.648V11.0746Z" fill="#0F100F"/>
<path d="M18.3145 3.40723H19.5923V4.685H18.3145V3.40723Z" fill="#0F100F"/>
<path d="M9.37017 12.3528H10.6479V13.6306H9.37017V12.3528Z" fill="#0F100F"/>
<path d="M17.0367 4.68542H18.3145V5.9632H17.0367V4.68542Z" fill="#0F100F"/>
<path d="M8.09234 13.631H9.37012V14.9088H8.09234V13.631Z" fill="#0F100F"/>
<path d="M15.7593 5.96362H17.0371V7.2414H15.7593V5.96362Z" fill="#0F100F"/>
<path d="M6.81451 14.9066H8.09229V16.1844H6.81451V14.9066Z" fill="#0F100F"/>
<path d="M14.4815 7.24133H15.7593V8.51911H14.4815V7.24133Z" fill="#0F100F"/>
<path d="M18.3149 17.4634H17.0371V18.7412H18.3149V17.4634Z" fill="#0F100F"/>
<path d="M19.5927 18.7416H18.3149V20.0194H19.5927V18.7416Z" fill="#0F100F"/>
<path d="M17.0371 16.1847H15.7593V17.4625H17.0371V16.1847Z" fill="#0F100F"/>
<path d="M9.37055 8.5199H8.09277V9.79768H9.37055V8.5199Z" fill="#0F100F"/>
<path d="M10.6479 9.79602H9.37012V11.0738H10.6479V9.79602Z" fill="#0F100F"/>
<path d="M11.9257 11.0743H10.6479V12.3521H11.9257V11.0743Z" fill="#0F100F"/>
<path d="M4.25922 3.40698H2.98145V4.68476H4.25922V3.40698Z" fill="#0F100F"/>
<path d="M10.6479 2.55701H9.37012V3.83479H10.6479V2.55701Z" fill="#0F100F"/>
<path d="M10.6479 18.7416H9.37012V20.0194H10.6479V18.7416Z" fill="#0F100F"/>
<path d="M9.37055 1.27881H8.09277V2.55659H9.37055V1.27881Z" fill="#0F100F"/>
<path d="M13.2036 2.55701H11.9258V3.83479H13.2036V2.55701Z" fill="#0F100F"/>
<path d="M20.4443 9.79602H19.1665V11.0738H20.4443V9.79602Z" fill="#0F100F"/>
<path d="M3.83344 9.79602H2.55566V11.0738H3.83344V9.79602Z" fill="#0F100F"/>
<path d="M21.7221 8.5199H20.4443V9.79768H21.7221V8.5199Z" fill="#0F100F"/>
<path d="M2.55561 8.5199H1.27783V9.79768H2.55561V8.5199Z" fill="#0F100F"/>
<path d="M21.7221 13.6307H20.4443V14.9085H21.7221V13.6307Z" fill="#0F100F"/>
<path d="M2.55561 13.6307H1.27783V14.9085H2.55561V13.6307Z" fill="#0F100F"/>
<path d="M22.9999 14.9064H21.7222V16.1842H22.9999V14.9064Z" fill="#0F100F"/>
<path d="M1.27778 14.9064H0V16.1842H1.27778V14.9064Z" fill="#0F100F"/>
<path d="M22.9999 7.24109H21.7222V8.51887H22.9999V7.24109Z" fill="#0F100F"/>
<path d="M1.27778 7.24109H0V8.51887H1.27778V7.24109Z" fill="#0F100F"/>
<path d="M20.4443 12.3525H19.1665V13.6303H20.4443V12.3525Z" fill="#0F100F"/>
<path d="M3.83344 12.3525H2.55566V13.6303H3.83344V12.3525Z" fill="#0F100F"/>
<path d="M13.2036 18.7416H11.9258V20.0194H13.2036V18.7416Z" fill="#0F100F"/>
<path d="M14.4814 1.27881H13.2036V2.55659H14.4814V1.27881Z" fill="#0F100F"/>
<path d="M14.4814 20.0199H13.2036V21.2977H14.4814V20.0199Z" fill="#0F100F"/>
<path d="M9.37055 20.0199H8.09277V21.2977H9.37055V20.0199Z" fill="#0F100F"/>
<path d="M15.7592 0H14.4814V1.27778H15.7592V0Z" fill="#0F100F"/>
<path d="M15.7592 21.296H14.4814V22.5738H15.7592V21.296Z" fill="#0F100F"/>
<path d="M8.09272 0H6.81494V1.27778H8.09272V0Z" fill="#0F100F"/>
<path d="M8.09272 21.296H6.81494V22.5738H8.09272V21.296Z" fill="#0F100F"/>
<path d="M13.2036 12.3525H11.9258V13.6303H13.2036V12.3525Z" fill="#0F100F"/>
<path d="M5.53706 4.68518H4.25928V5.96296H5.53706V4.68518Z" fill="#0F100F"/>
<path d="M14.4814 13.6307H13.2036V14.9085H14.4814V13.6307Z" fill="#0F100F"/>
<path d="M6.81489 5.96338H5.53711V7.24116H6.81489V5.96338Z" fill="#0F100F"/>
<path d="M15.7592 14.9064H14.4814V16.1842H15.7592V14.9064Z" fill="#0F100F"/>
<path d="M8.09272 7.24109H6.81494V8.51887H8.09272V7.24109Z" fill="#0F100F"/>
<path d="M5.36442e-05 11.0745H1.27783V12.3522H5.36442e-05V11.0745Z" fill="#0F100F"/>
<path d="M7.66656 11.0745H8.94434V12.3522H7.66656V11.0745Z" fill="#0F100F"/>
<path d="M15.3335 11.0745H16.6113V12.3522H15.3335V11.0745Z" fill="#0F100F"/>
<path d="M3.83355 11.0745H5.11133V12.3522H3.83355V11.0745Z" fill="#0F100F"/>
<path d="M11.5001 11.0745H12.7778V12.3522H11.5001V11.0745Z" fill="#0F100F"/>
<path d="M19.1666 11.0745H20.4443V12.3522H19.1666V11.0745Z" fill="#0F100F"/>
<path d="M1.27789 11.0745H2.55566V12.3522H1.27789V11.0745Z" fill="#0F100F"/>
<path d="M8.94439 11.0745H10.2222V12.3522H8.94439V11.0745Z" fill="#0F100F"/>
<path d="M16.6109 11.0745H17.8887V12.3522H16.6109V11.0745Z" fill="#0F100F"/>
<path d="M5.11089 11.0745H6.38867V12.3522H5.11089V11.0745Z" fill="#0F100F"/>
<path d="M12.7779 11.0745H14.0557V12.3522H12.7779V11.0745Z" fill="#0F100F"/>
<path d="M20.4444 11.0745H21.7222V12.3522H20.4444V11.0745Z" fill="#0F100F"/>
<path d="M2.55572 11.0745H3.8335V12.3522H2.55572V11.0745Z" fill="#0F100F"/>
<path d="M10.2222 11.0745H11.5V12.3522H10.2222V11.0745Z" fill="#0F100F"/>
<path d="M17.8887 11.0745H19.1665V12.3522H17.8887V11.0745Z" fill="#0F100F"/>
<path d="M6.38873 11.0745H7.6665V12.3522H6.38873V11.0745Z" fill="#0F100F"/>
<path d="M14.0557 11.0745H15.3335V12.3522H14.0557V11.0745Z" fill="#0F100F"/>
<path d="M21.7222 11.0745H23V12.3522H21.7222V11.0745Z" fill="#0F100F"/>
<path d="M10.6479 22.9996L10.6479 21.7218L11.9257 21.7218L11.9257 22.9996L10.6479 22.9996Z" fill="#0F100F"/>
<path d="M10.6479 15.3338L10.6479 14.056L11.9257 14.056L11.9257 15.3338L10.6479 15.3338Z" fill="#0F100F"/>
<path d="M10.6479 7.66694L10.6479 6.38916L11.9257 6.38916L11.9257 7.66694L10.6479 7.66694Z" fill="#0F100F"/>
<path d="M10.6479 19.1669L10.6479 17.8892L11.9257 17.8892L11.9257 19.1669L10.6479 19.1669Z" fill="#0F100F"/>
<path d="M10.6479 11.5001L10.6479 10.2223L11.9257 10.2223L11.9257 11.5001L10.6479 11.5001Z" fill="#0F100F"/>
<path d="M10.6479 3.8343L10.6479 2.55652L11.9257 2.55652L11.9257 3.8343L10.6479 3.8343Z" fill="#0F100F"/>
<path d="M10.6479 21.7214L10.6479 20.4436L11.9257 20.4436L11.9257 21.7214L10.6479 21.7214Z" fill="#0F100F"/>
<path d="M10.6479 14.0555L10.6479 12.7777L11.9257 12.7777L11.9257 14.0555L10.6479 14.0555Z" fill="#0F100F"/>
<path d="M10.6479 6.38874L10.6479 5.11096L11.9257 5.11096L11.9257 6.38874L10.6479 6.38874Z" fill="#0F100F"/>
<path d="M10.6479 17.8887L10.6479 16.611L11.9257 16.611L11.9257 17.8887L10.6479 17.8887Z" fill="#0F100F"/>
<path d="M10.6479 10.2214L10.6479 8.9436L11.9257 8.9436L11.9257 10.2214L10.6479 10.2214Z" fill="#0F100F"/>
<path d="M10.6479 2.55659L10.6479 1.27881L11.9257 1.27881L11.9257 2.55659L10.6479 2.55659Z" fill="#0F100F"/>
<path d="M10.6479 20.4446L10.6479 19.1669L11.9257 19.1669L11.9257 20.4446L10.6479 20.4446Z" fill="#0F100F"/>
<path d="M10.6479 12.7783L10.6479 11.5005L11.9257 11.5005L11.9257 12.7783L10.6479 12.7783Z" fill="#0F100F"/>
<path d="M10.6479 5.11042L10.6479 3.83264L11.9257 3.83264L11.9257 5.11042L10.6479 5.11042Z" fill="#0F100F"/>
<path d="M10.6479 16.6109L10.6479 15.3331L11.9257 15.3331L11.9257 16.6109L10.6479 16.6109Z" fill="#0F100F"/>
<path d="M10.6479 8.94465L10.6479 7.66687L11.9257 7.66687L11.9257 8.94465L10.6479 8.94465Z" fill="#0F100F"/>
<path d="M10.6479 1.27778L10.6479 0L11.9257 -5.58535e-08L11.9257 1.27778L10.6479 1.27778Z" fill="#0F100F"/>
</svg>
