<svg width="18" height="18" viewBox="0 0 18 18" fill="none" xmlns="http://www.w3.org/2000/svg">
<path fill-rule="evenodd" clip-rule="evenodd" d="M8.95628 3.26273C8.63462 2.94107 8.11311 2.94107 7.79145 3.26273L2.84949 8.20469C2.52783 8.52635 2.52783 9.04787 2.84949 9.36953L7.79145 14.3115C8.11311 14.6331 8.63462 14.6331 8.95628 14.3115C9.27794 13.9898 9.27794 13.4683 8.95628 13.1467L4.59673 8.78711L8.95628 4.42756C9.27794 4.1059 9.27794 3.58439 8.95628 3.26273Z" fill="#0F100F"/>
<path fill-rule="evenodd" clip-rule="evenodd" d="M14.9632 8.78619C14.9632 8.33129 14.5944 7.96252 14.1395 7.96252H4.11829C3.66339 7.96252 3.29463 8.33129 3.29463 8.78619C3.29463 9.24108 3.66339 9.60985 4.11829 9.60985H14.1395C14.5944 9.60985 14.9632 9.24108 14.9632 8.78619Z" fill="#0F100F"/>
</svg>
