<svg width="27" height="27" viewBox="0 0 27 27" fill="none" xmlns="http://www.w3.org/2000/svg">
<path d="M9.22469 0.0312917C12.9031 -0.0235257 16.8348 -0.0132458 20.5189 0.117981C21.6311 0.157587 23.9232 1.20891 24.6734 2.02273C25.4386 2.85292 26.3166 4.35255 26.5946 5.49334C26.8445 6.79091 26.7875 8.69353 26.7901 10.0403L26.7745 16.9211L26.7472 19.1511C26.7386 19.7195 26.7518 20.7856 26.6045 21.3189C26.0772 23.1056 25.1136 24.6718 23.5072 25.6565C21.4139 26.9396 19.9027 26.9205 17.5433 26.8968C15.7058 26.883 13.8682 26.8932 12.0309 26.9273C11.0475 26.9389 10.0627 26.9179 9.07477 26.8967C8.25026 26.8508 7.31788 26.9878 6.50619 26.8695C4.96434 26.6447 3.29394 25.8729 2.19605 24.7741C0.499959 23.0767 0.061327 21.5359 0.0366608 19.2097L0.0144502 12.2726L0.00481463 9.34129C0.000973224 7.84327 -0.0588329 6.46958 0.377628 5.00978C0.690203 3.96435 1.42419 2.94161 2.15966 2.14394C3.04786 1.18068 4.93882 0.312661 6.24419 0.120333C6.95114 0.0161769 8.47214 0.0384137 9.22469 0.0312917ZM17.425 22.4419C19.0784 22.4348 19.8159 22.1074 21.02 20.9503C22.8058 19.2342 22.5294 17.0884 22.5218 14.8613L22.5202 10.2517C22.5048 8.55979 22.2868 7.0338 20.9923 5.81038C20.0394 4.90985 18.6248 4.285 17.3096 4.27588C14.8929 4.25913 12.4679 4.2734 10.0502 4.26399C9.87541 4.26328 9.65895 4.26767 9.48592 4.28249C5.43823 4.54208 3.99036 7.66402 4.26996 11.2155C4.30057 11.7101 4.24053 12.2329 4.27215 12.7244C4.46154 15.6671 3.48463 18.9956 6.06224 21.1621C8.11455 22.8871 10.0296 22.4858 12.5284 22.4527C14.1606 22.4365 15.7928 22.4329 17.425 22.4419Z" fill="black"/>
<path d="M15.3377 6.02544C16.9272 6.01832 18.3426 5.90324 19.619 7.12579C20.7434 8.20277 20.6577 9.64555 20.6538 11.0945L20.661 13.2411L20.6424 15.6124C20.6375 17.2024 20.7764 18.5309 19.5523 19.7455C18.7789 20.5129 18.3363 20.562 17.2542 20.5826C16.5954 20.5951 15.9232 20.5965 15.2654 20.6019C14.0034 20.6141 12.7413 20.6174 11.4791 20.612C10.6738 20.6135 8.72112 20.7343 8.06019 20.4103C6.66352 19.7256 6.11776 18.3943 6.17165 16.9451C6.2741 14.1889 6.01445 11.5721 6.28299 8.83454C6.39462 7.69668 7.53306 6.65476 8.56953 6.27307C9.63255 5.99103 11.3604 6.03473 12.4702 6.03456L15.3377 6.02544ZM13.8199 18.2149C16.4379 17.9959 18.3817 15.6945 18.1596 13.0767C17.9376 10.459 15.634 8.51788 13.0165 8.74285C10.4032 8.9675 8.46586 11.2666 8.68754 13.8802C8.9092 16.4937 11.2061 18.4337 13.8199 18.2149ZM18.3359 9.91619C20.2622 9.41742 19.4384 7.2845 18.0317 7.30213C17.5815 7.4613 17.2587 7.60519 17.016 8.06313C16.5529 8.93711 17.4692 9.89511 18.3359 9.91619Z" fill="black"/>
<path d="M13.0889 10.5532C14.6772 10.3645 16.1171 11.5009 16.3027 13.0896C16.4883 14.6782 15.3491 16.1159 13.7601 16.2984C12.1754 16.4805 10.7425 15.3451 10.5574 13.7608C10.3723 12.1764 11.5049 10.7413 13.0889 10.5532Z" fill="black"/>
</svg>
