<svg width="29" height="23" viewBox="0 0 29 23" fill="none" xmlns="http://www.w3.org/2000/svg">
<path d="M-0.000423431 23.001H1.27734V21.7232H-0.000423431V23.001Z" fill="#FF691E"/>
<path d="M-0.000423431 21.7236H1.27734V20.4459H-0.000423431V21.7236Z" fill="#FF691E"/>
<path d="M-0.000423431 20.4463H1.27734V19.1685H-0.000423431V20.4463Z" fill="#FF691E"/>
<path d="M-0.000423431 19.168H1.27734V17.8902H-0.000423431V19.168Z" fill="#FF691E"/>
<path d="M-0.000423431 17.8906H1.27734V16.6129H-0.000423431V17.8906Z" fill="#FF691E"/>
<path d="M-0.000423431 16.6123H1.27734V15.3345H-0.000423431V16.6123Z" fill="#FF691E"/>
<path d="M-0.000423431 15.335H1.27734V14.0572H-0.000423431V15.335Z" fill="#FF691E"/>
<path d="M-0.000423431 14.0566H1.27734V12.7789H-0.000423431V14.0566Z" fill="#FF691E"/>
<path d="M-0.000423431 12.7793H1.27734V11.5015H-0.000423431V12.7793Z" fill="#FF691E"/>
<path d="M-0.000423431 11.501H1.27734V10.2232H-0.000423431V11.501Z" fill="#FF691E"/>
<path d="M-0.000423431 10.2236H1.27734V8.94587H-0.000423431V10.2236Z" fill="#FF691E"/>
<path d="M-0.000423431 8.94629H1.27734V7.66852H-0.000423431V8.94629Z" fill="#FF691E"/>
<path d="M-0.000423431 7.66797H1.27734V6.3902H-0.000423431V7.66797Z" fill="#FF691E"/>
<path d="M-0.000423431 6.39062H1.27734V5.11286H-0.000423431V6.39062Z" fill="#FF691E"/>
<path d="M-0.000423431 5.1123H1.27734V3.83454H-0.000423431V5.1123Z" fill="#FF691E"/>
<path d="M1.27887 2.55664H2.55664V1.27887H1.27887V2.55664Z" fill="#FF691E"/>
<path d="M-0.000423431 3.83496H1.27734V2.55719H-0.000423431V3.83496Z" fill="#FF691E"/>
<path d="M3.62109 0.00152969L3.62109 1.2793L4.89886 1.2793L4.89886 0.00152975L3.62109 0.00152969Z" fill="#FF691E"/>
<path d="M4.89844 0.00152969L4.89844 1.2793L6.1762 1.2793L6.1762 0.00152975L4.89844 0.00152969Z" fill="#FF691E"/>
<path d="M6.17578 0.00152969L6.17578 1.2793L7.45355 1.2793L7.45355 0.00152975L6.17578 0.00152969Z" fill="#FF691E"/>
<path d="M7.45313 0.00152969L7.45312 1.2793L8.73089 1.2793L8.73089 0.00152975L7.45313 0.00152969Z" fill="#FF691E"/>
<path d="M8.73242 0.00152969L8.73242 1.2793L10.0102 1.2793L10.0102 0.00152975L8.73242 0.00152969Z" fill="#FF691E"/>
<path d="M10.0098 0.00152969L10.0098 1.2793L11.2875 1.2793L11.2875 0.00152975L10.0098 0.00152969Z" fill="#FF691E"/>
<path d="M11.2871 0.00152969L11.2871 1.2793L12.5649 1.2793L12.5649 0.00152975L11.2871 0.00152969Z" fill="#FF691E"/>
<path d="M12.5645 0.00152969L12.5645 1.2793L13.8422 1.2793L13.8422 0.00152975L12.5645 0.00152969Z" fill="#FF691E"/>
<path d="M13.8438 0.00152969L13.8438 1.2793L15.1215 1.2793L15.1215 0.00152975L13.8438 0.00152969Z" fill="#FF691E"/>
<path d="M15.1211 0.00152969L15.1211 1.2793L16.3989 1.2793L16.3989 0.00152975L15.1211 0.00152969Z" fill="#FF691E"/>
<path d="M16.3984 0.00152969L16.3984 1.2793L17.6762 1.2793L17.6762 0.00152975L16.3984 0.00152969Z" fill="#FF691E"/>
<path d="M17.6758 0.00152969L17.6758 1.2793L18.9535 1.2793L18.9535 0.00152975L17.6758 0.00152969Z" fill="#FF691E"/>
<path d="M18.9531 0.00152969L18.9531 1.2793L20.2309 1.2793L20.2309 0.00152975L18.9531 0.00152969Z" fill="#FF691E"/>
<path d="M2.55622 1.2793H3.83398V0.00152969H2.55622V1.2793Z" fill="#FF691E"/>
<path d="M28.5532 15.335H27.2754V14.0572H28.5532V15.335Z" fill="#FF691E"/>
<path d="M27.2758 16.6123H25.998V15.3345H27.2758V16.6123Z" fill="#FF691E"/>
<path d="M20.6567 17.8906H19.3789V16.6129H20.6567V17.8906Z" fill="#FF691E"/>
<path d="M21.2758 17.8906H19.998V16.6129H21.2758V17.8906Z" fill="#FF691E"/>
<path d="M22.2758 17.8906H20.998V16.6129H22.2758V17.8906Z" fill="#FF691E"/>
<path d="M23.2758 17.8906H21.998V16.6129H23.2758V17.8906Z" fill="#FF691E"/>
<path d="M24.2758 17.8906H22.998V16.6129H24.2758V17.8906Z" fill="#FF691E"/>
<path d="M25.2758 17.8906H23.998V16.6129H25.2758V17.8906Z" fill="#FF691E"/>
<path d="M26.0258 17.8906H24.748V16.6129H26.0258V17.8906Z" fill="#FF691E"/>
<path d="M28.5532 14.0566H27.2754V12.7789H28.5532V14.0566Z" fill="#FF691E"/>
<path d="M28.5532 12.7793H27.2754V11.5015H28.5532V12.7793Z" fill="#FF691E"/>
<path d="M28.5532 11.501H27.2754V10.2232H28.5532V11.501Z" fill="#FF691E"/>
<path d="M28.5532 10.2236H27.2754V8.94587H28.5532V10.2236Z" fill="#FF691E"/>
<path d="M28.5532 8.94629H27.2754V7.66852H28.5532V8.94629Z" fill="#FF691E"/>
<path d="M28.5532 7.66797H27.2754V6.3902H28.5532V7.66797Z" fill="#FF691E"/>
<path d="M28.5532 6.39062H27.2754V5.11286H28.5532V6.39062Z" fill="#FF691E"/>
<path d="M28.5532 5.1123H27.2754V3.83454H28.5532V5.1123Z" fill="#FF691E"/>
<path d="M27.2758 2.55664H25.998V1.27887H27.2758V2.55664Z" fill="#FF691E"/>
<path d="M28.5532 3.83496H27.2754V2.55719H28.5532V3.83496Z" fill="#FF691E"/>
<path d="M6.60156 17.8901L6.60156 16.6123L7.87933 16.6123L7.87933 17.8901L6.60156 17.8901Z" fill="#FF691E"/>
<path d="M5.32422 19.1684L5.32422 17.8906L6.60199 17.8906L6.60199 19.1684L5.32422 19.1684Z" fill="#FF691E"/>
<path d="M4.04687 20.4457L4.04688 19.168L5.32464 19.168L5.32464 20.4457L4.04687 20.4457Z" fill="#FF691E"/>
<path d="M2.76953 21.7241L2.76953 20.4463L4.0473 20.4463L4.0473 21.7241L2.76953 21.7241Z" fill="#FF691E"/>
<path d="M1.06445 23.0014L1.06445 21.7236L2.76814 21.7236L2.76814 23.0014L1.06445 23.0014Z" fill="#FF691E"/>
<path d="M7.88086 17.8901L7.88086 16.6123L9.15863 16.6123L9.15863 17.8901L7.88086 17.8901Z" fill="#FF691E"/>
<path d="M9.1582 17.8901L9.1582 16.6123L10.436 16.6123L10.436 17.8901L9.1582 17.8901Z" fill="#FF691E"/>
<path d="M10.4355 17.8901L10.4355 16.6123L11.7133 16.6123L11.7133 17.8901L10.4355 17.8901Z" fill="#FF691E"/>
<path d="M11.7129 17.8901L11.7129 16.6123L12.9907 16.6123L12.9907 17.8901L11.7129 17.8901Z" fill="#FF691E"/>
<path d="M12.9902 17.8901L12.9902 16.6123L14.268 16.6123L14.268 17.8901L12.9902 17.8901Z" fill="#FF691E"/>
<path d="M14.2695 17.8901L14.2695 16.6123L15.5473 16.6123L15.5473 17.8901L14.2695 17.8901Z" fill="#FF691E"/>
<path d="M15.5469 17.8901L15.5469 16.6123L16.8246 16.6123L16.8246 17.8901L15.5469 17.8901Z" fill="#FF691E"/>
<path d="M16.8242 17.8901L16.8242 16.6123L18.102 16.6123L18.102 17.8901L16.8242 17.8901Z" fill="#FF691E"/>
<path d="M18.1016 17.8901L18.1016 16.6123L19.3793 16.6123L19.3793 17.8901L18.1016 17.8901Z" fill="#FF691E"/>
<path d="M20.6567 1.2793H19.3789V0.00152969H20.6567V1.2793Z" fill="#FF691E"/>
<path d="M21.2758 1.2793H19.998V0.00152969H21.2758V1.2793Z" fill="#FF691E"/>
<path d="M22.2758 1.2793H20.998V0.00152969H22.2758V1.2793Z" fill="#FF691E"/>
<path d="M23.2758 1.2793H21.998V0.00152969H23.2758V1.2793Z" fill="#FF691E"/>
<path d="M24.2758 1.2793H22.998V0.00152969H24.2758V1.2793Z" fill="#FF691E"/>
<path d="M25.2758 1.2793H23.998V0.00152969H25.2758V1.2793Z" fill="#FF691E"/>
<path d="M26.0258 1.27832H24.748V0.000553131H26.0258V1.27832Z" fill="#FF691E"/>
<path d="M4.03333 12.7596L6.52745 4.9835C6.61733 4.69871 6.78585 4.5625 7.05549 4.5625H7.77451C8.04415 4.5625 8.2239 4.69871 8.30255 4.9835L10.7967 12.7596C10.909 13.1187 10.763 13.354 10.4147 13.354H9.89789C9.62825 13.354 9.4485 13.2178 9.36985 12.933L8.80811 11.1004H6.01065L5.46015 12.9206C5.3815 13.2178 5.20175 13.354 4.93211 13.354H4.41531C4.06703 13.354 3.92098 13.1187 4.03333 12.7596ZM6.37016 9.80024H8.4486L7.74081 7.44759C7.60599 6.95229 7.42623 6.08553 7.42623 6.08553H7.40376C7.40376 6.08553 7.22401 6.95229 7.08919 7.44759L6.37016 9.80024Z" fill="#FF691E"/>
<path d="M18.9297 12.14C18.9297 11.8153 19.1929 11.5522 19.5176 11.5522H21.255C21.5796 11.5522 21.8428 11.8153 21.8428 12.14C21.8428 12.4646 21.5796 12.7278 21.255 12.7278H19.5176C19.1929 12.7278 18.9297 12.4646 18.9297 12.14ZM18.2535 5.79045C18.2535 5.39864 18.5711 5.08101 18.9629 5.08101H21.7992C22.191 5.08101 22.5086 5.39864 22.5086 5.79045V12.7226C22.5086 13.0645 22.2315 13.3416 21.8896 13.3416C21.5477 13.3416 21.2706 13.0645 21.2706 12.7226V6.97648C21.2706 6.58467 20.953 6.26704 20.5611 6.26704H20.1386C19.7467 6.26704 19.4291 6.58467 19.4291 6.97648V12.9202C19.4291 13.2449 19.1659 13.5081 18.8413 13.5081C18.5167 13.5081 18.2535 13.2449 18.2535 12.9202V5.79045ZM13.1973 6.67279C13.1973 6.34528 13.4628 6.07978 13.7903 6.07978H16.3392C16.6667 6.07978 16.9322 6.34528 16.9322 6.67279C16.9322 7.0003 16.6667 7.2658 16.3392 7.2658H13.7903C13.4628 7.2658 13.1973 7.0003 13.1973 6.67279ZM14.665 4.55886C14.7193 4.24607 15.0063 4.02687 15.3218 4.06223C15.6676 4.10098 15.9061 4.42744 15.8361 4.76825C15.7617 5.13073 15.6832 5.50549 15.6005 5.89251C15.4688 6.50286 15.33 7.11668 15.1844 7.73397C15.0457 8.34433 14.9035 8.93041 14.7578 9.49221C14.6813 9.80203 14.6059 10.0981 14.5315 10.3806C14.4405 10.7259 14.0564 10.8989 13.7351 10.743C13.4844 10.6214 13.358 10.3372 13.4308 10.0682C13.5097 9.77703 13.5913 9.46019 13.6758 9.11767C13.8146 8.58361 13.9498 8.02181 14.0816 7.43226C14.2134 6.84272 14.3382 6.25664 14.4561 5.67403C14.5331 5.28899 14.6027 4.91727 14.665 4.55886ZM14.2462 10.5156C13.9729 10.3347 13.8972 9.9636 14.086 9.69571C14.2548 9.45618 14.5781 9.38279 14.8286 9.53481C15.0065 9.64282 15.1876 9.75693 15.3717 9.87715C15.7184 10.0922 16.0548 10.321 16.3808 10.5638C16.7137 10.8066 17.0154 11.0458 17.2859 11.2817C17.4224 11.3977 17.5472 11.5112 17.6602 11.6222C17.8539 11.8125 17.8677 12.113 17.7155 12.3379C17.4864 12.6766 16.9887 12.7013 16.6887 12.4234C16.6562 12.3933 16.6229 12.363 16.5889 12.3324C16.3253 12.0827 16.0306 11.8296 15.7046 11.573C15.3855 11.3163 15.0561 11.0701 14.7162 10.8343C14.5565 10.7235 14.3998 10.6172 14.2462 10.5156ZM16.5577 6.28309C16.5577 6.1708 16.6487 6.07978 16.761 6.07978C16.7711 6.07978 16.7812 6.07902 16.7912 6.07753L16.87 6.0657C16.9457 6.05435 17.0227 6.05531 17.098 6.06855L17.1281 6.07383C17.4844 6.13643 17.7379 6.45729 17.705 6.81756C17.6016 7.94909 17.4237 8.93428 17.1715 9.77311C16.8802 10.758 16.471 11.5764 15.9439 12.2284C15.5513 12.7152 15.0837 13.1308 14.5411 13.4754C14.2464 13.6625 13.8598 13.5307 13.655 13.248C13.4839 12.9998 13.5568 12.6237 13.8139 12.4663C14.2465 12.2014 14.627 11.8655 14.9555 11.4585C15.4202 10.8828 15.7843 10.1685 16.0479 9.31535C16.3115 8.4553 16.4814 7.45307 16.5577 6.30866V6.28309Z" fill="#FF691E"/>
</svg>
