<svg width="24" height="23" viewBox="0 0 24 23" fill="none" xmlns="http://www.w3.org/2000/svg">
<path d="M1.10472 7.73389H0V8.83861H1.10472V7.73389Z" fill="#0F100F"/>
<path d="M1.10472 6.62891H0V7.73363H1.10472V6.62891Z" fill="#0F100F"/>
<path d="M1.10472 5.52344H0V6.62816H1.10472V5.52344Z" fill="#0F100F"/>
<path d="M2.20921 4.41895H1.10449V5.52367H2.20921V4.41895Z" fill="#0F100F"/>
<path d="M2.20921 3.31445H1.10449V4.41917H2.20921V3.31445Z" fill="#0F100F"/>
<path d="M3.31419 2.20947H2.20947V3.31419H3.31419V2.20947Z" fill="#0F100F"/>
<path d="M4.41869 1.10498H3.31396V2.2097H4.41869V1.10498Z" fill="#0F100F"/>
<path d="M16.5706 7.73389H17.6753V8.83861H16.5706V7.73389Z" fill="#0F100F"/>
<path d="M16.5706 6.62891H17.6753V7.73363H16.5706V6.62891Z" fill="#0F100F"/>
<path d="M16.5706 5.52344H17.6753V6.62816H16.5706V5.52344Z" fill="#0F100F"/>
<path d="M15.4661 4.41895H16.5708V5.52367H15.4661V4.41895Z" fill="#0F100F"/>
<path d="M15.4661 3.31445H16.5708V4.41917H15.4661V3.31445Z" fill="#0F100F"/>
<path d="M14.3611 2.20947H15.4658V3.31419H14.3611V2.20947Z" fill="#0F100F"/>
<path d="M13.2566 1.10498H14.3613V2.2097H13.2566V1.10498Z" fill="#0F100F"/>
<path d="M5.52367 1.10449H4.41895V2.20921H5.52367V1.10449Z" fill="#0F100F"/>
<path d="M7.73314 0H6.62842V1.10472H7.73314V0Z" fill="#0F100F"/>
<path d="M9.94261 0H8.83789V1.10472H9.94261V0Z" fill="#0F100F"/>
<path d="M6.62816 0H5.52344V1.10472H6.62816V0Z" fill="#0F100F"/>
<path d="M8.83763 0H7.73291V1.10472H8.83763V0Z" fill="#0F100F"/>
<path d="M11.0471 0H9.94238V1.10472H11.0471V0Z" fill="#0F100F"/>
<path d="M12.1521 0H11.0474V1.10472H12.1521V0Z" fill="#0F100F"/>
<path d="M13.2566 1.10449H12.1519V2.20921H13.2566V1.10449Z" fill="#0F100F"/>
<path d="M16.5706 9.94238L17.6753 9.94238L17.6753 8.83766L16.5706 8.83766L16.5706 9.94238Z" fill="#0F100F"/>
<path d="M16.5706 11.0469L17.6753 11.0469L17.6753 9.94215L16.5706 9.94215L16.5706 11.0469Z" fill="#0F100F"/>
<path d="M16.5706 12.1519L17.6753 12.1519L17.6753 11.0471L16.5706 11.0471L16.5706 12.1519Z" fill="#0F100F"/>
<path d="M15.4661 13.2568L16.5708 13.2568L16.5708 12.1521L15.4661 12.1521L15.4661 13.2568Z" fill="#0F100F"/>
<path d="M15.4661 14.3613L16.5708 14.3613L16.5708 13.2566L15.4661 13.2566L15.4661 14.3613Z" fill="#0F100F"/>
<path d="M14.3611 15.4658L15.4658 15.4658L15.4658 14.3611L14.3611 14.3611L14.3611 15.4658Z" fill="#0F100F"/>
<path d="M13.2566 16.5703L14.3613 16.5703L14.3613 15.4656L13.2566 15.4656L13.2566 16.5703Z" fill="#0F100F"/>
<path d="M1.10472 9.94238L0 9.94238L9.65777e-08 8.83766L1.10472 8.83766L1.10472 9.94238Z" fill="#0F100F"/>
<path d="M1.10472 11.0469L0 11.0469L9.65777e-08 9.94215L1.10472 9.94215L1.10472 11.0469Z" fill="#0F100F"/>
<path d="M1.10472 12.1519L0 12.1519L9.65777e-08 11.0471L1.10472 11.0471L1.10472 12.1519Z" fill="#0F100F"/>
<path d="M2.20921 13.2568L1.10449 13.2568L1.10449 12.1521L2.20921 12.1521L2.20921 13.2568Z" fill="#0F100F"/>
<path d="M2.20921 14.3613L1.10449 14.3613L1.10449 13.2566L2.20921 13.2566L2.20921 14.3613Z" fill="#0F100F"/>
<path d="M3.31419 15.4658L2.20947 15.4658L2.20947 14.3611L3.31419 14.3611L3.31419 15.4658Z" fill="#0F100F"/>
<path d="M4.41869 16.5703L3.31396 16.5703L3.31396 15.4656L4.41869 15.4656L4.41869 16.5703Z" fill="#0F100F"/>
<path d="M12.1521 16.5703L13.2568 16.5703L13.2568 15.4656L12.1521 15.4656L12.1521 16.5703Z" fill="#0F100F"/>
<path d="M9.94264 17.6763L11.0474 17.6763L11.0474 16.5715L9.94264 16.5715L9.94264 17.6763Z" fill="#0F100F"/>
<path d="M7.73317 17.6763L8.83789 17.6763L8.83789 16.5715L7.73317 16.5715L7.73317 17.6763Z" fill="#0F100F"/>
<path d="M11.0471 17.6763L12.1519 17.6763L12.1519 16.5715L11.0471 16.5715L11.0471 17.6763Z" fill="#0F100F"/>
<path d="M8.83766 17.6763L9.94238 17.6763L9.94238 16.5715L8.83766 16.5715L8.83766 17.6763Z" fill="#0F100F"/>
<path d="M6.62819 17.6763L7.73291 17.6763L7.73291 16.5715L6.62819 16.5715L6.62819 17.6763Z" fill="#0F100F"/>
<path d="M5.5237 17.6763L6.62842 17.6763L6.62842 16.5715L5.5237 16.5715L5.5237 17.6763Z" fill="#0F100F"/>
<path d="M4.41872 16.5703L5.52344 16.5703L5.52344 15.4656L4.41872 15.4656L4.41872 16.5703Z" fill="#0F100F"/>
<path d="M4.41869 9.94238L3.31396 9.94238L3.31396 8.83766L4.41869 8.83766L4.41869 9.94238Z" fill="#0F100F"/>
<path d="M4.41869 7.7334L3.31396 7.7334L3.31396 6.62868L4.41869 6.62868L4.41869 7.7334Z" fill="#0F100F"/>
<path d="M4.41869 11.0469L3.31396 11.0469L3.31396 9.94215L4.41869 9.94215L4.41869 11.0469Z" fill="#0F100F"/>
<path d="M4.41869 12.1519L3.31396 12.1519L3.31396 11.0471L4.41869 11.0471L4.41869 12.1519Z" fill="#0F100F"/>
<path d="M5.52367 13.2568L4.41895 13.2568L4.41895 12.1521L5.52367 12.1521L5.52367 13.2568Z" fill="#0F100F"/>
<path d="M6.62816 14.3613L5.52344 14.3613L5.52344 13.2566L6.62816 13.2566L6.62816 14.3613Z" fill="#0F100F"/>
<path d="M7.73317 14.3613L8.83789 14.3613L8.83789 13.2566L7.73317 13.2566L7.73317 14.3613Z" fill="#0F100F"/>
<path d="M6.62819 14.3613L7.73291 14.3613L7.73291 13.2566L6.62819 13.2566L6.62819 14.3613Z" fill="#0F100F"/>
<path d="M20.9895 19.5166H19.8848V20.6213H20.9895V19.5166Z" fill="#0F100F"/>
<path d="M22.0945 20.6216H20.9897V21.7263H22.0945V20.6216Z" fill="#0F100F"/>
<path d="M23.199 21.7266H22.0942V22.8313H23.199V21.7266Z" fill="#0F100F"/>
<path d="M19.885 18.4126H18.7803V19.5173H19.885V18.4126Z" fill="#0F100F"/>
<path d="M16.5705 15.0972H15.4658V16.2019H16.5705V15.0972Z" fill="#0F100F"/>
<path d="M17.6755 16.2026H16.5708V17.3074H17.6755V16.2026Z" fill="#0F100F"/>
<path d="M18.78 17.3076H17.6753V18.4123H18.78V17.3076Z" fill="#0F100F"/>
</svg>
