<svg width="17" height="22" viewBox="0 0 17 22" fill="none" xmlns="http://www.w3.org/2000/svg">
<path d="M8.83619 13.8971L9.40039 12.9199L10.3776 13.4841L9.81341 14.4613L8.83619 13.8971Z" fill="#FF691E"/>
<path d="M9.40064 12.9206L9.96484 11.9434L10.9421 12.5076L10.3779 13.4848L9.40064 12.9206Z" fill="#FF691E"/>
<path d="M9.96314 11.943L10.5273 10.9658L11.5046 11.53L10.9404 12.5072L9.96314 11.943Z" fill="#FF691E"/>
<path d="M9.55103 10.4011L10.1152 9.42383L11.0925 9.98803L10.5283 10.9653L9.55103 10.4011Z" fill="#FF691E"/>
<path d="M8.57447 9.8366L9.13867 8.85938L10.1159 9.42358L9.5517 10.4008L8.57447 9.8366Z" fill="#FF691E"/>
<path d="M8.27174 14.8747L8.83594 13.8975L9.81316 14.4617L9.24896 15.4389L8.27174 14.8747Z" fill="#FF691E"/>
<path d="M7.70728 15.8522L8.27148 14.875L9.24871 15.4392L8.68451 16.4164L7.70728 15.8522Z" fill="#FF691E"/>
<path d="M7.14283 16.8288L7.70703 15.8516L8.68425 16.4158L8.12005 17.393L7.14283 16.8288Z" fill="#FF691E"/>
<path d="M6.57838 17.8053L7.14258 16.8281L8.1198 17.3923L7.5556 18.3695L6.57838 17.8053Z" fill="#FF691E"/>
<path d="M6.01392 18.7829L6.57812 17.8057L7.55535 18.3699L6.99115 19.3471L6.01392 18.7829Z" fill="#FF691E"/>
<path d="M4.47291 19.197L5.03711 18.2197L6.01433 18.7839L5.45013 19.7612L4.47291 19.197Z" fill="#FF691E"/>
<path d="M2.93189 19.6091L3.49609 18.6318L4.47332 19.196L3.90912 20.1733L2.93189 19.6091Z" fill="#FF691E"/>
<path d="M1.95533 19.0456L2.51953 18.0684L3.49675 18.6326L2.93255 19.6098L1.95533 19.0456Z" fill="#FF691E"/>
<path d="M1.54127 17.5026L2.10547 16.5254L3.08269 17.0896L2.51849 18.0668L1.54127 17.5026Z" fill="#FF691E"/>
<path d="M1.12916 15.9626L1.69336 14.9854L2.67058 15.5496L2.10638 16.5268L1.12916 15.9626Z" fill="#FF691E"/>
<path d="M1.69361 14.986L2.25781 14.0088L3.23504 14.573L2.67084 15.5502L1.69361 14.986Z" fill="#FF691E"/>
<path d="M2.25807 14.0085L2.82227 13.0312L3.79949 13.5955L3.23529 14.5727L2.25807 14.0085Z" fill="#FF691E"/>
<path d="M2.82057 13.0309L3.38477 12.0537L4.36199 12.6179L3.79779 13.5951L2.82057 13.0309Z" fill="#FF691E"/>
<path d="M7.37279 7.40657L6.80859 8.38379L5.83137 7.81959L6.39557 6.84237L7.37279 7.40657Z" fill="#FF691E"/>
<path d="M6.80834 8.38313L6.24414 9.36035L5.26692 8.79615L5.83112 7.81893L6.80834 8.38313Z" fill="#FF691E"/>
<path d="M6.24389 9.35969L5.67969 10.3369L4.70246 9.77271L5.26666 8.79549L6.24389 9.35969Z" fill="#FF691E"/>
<path d="M6.65795 10.9027L6.09375 11.8799L5.11653 11.3157L5.68073 10.3385L6.65795 10.9027Z" fill="#FF691E"/>
<path d="M7.63451 11.4661L7.07031 12.4434L6.09309 11.8792L6.65729 10.9019L7.63451 11.4661Z" fill="#FF691E"/>
<path d="M7.63451 11.4661L7.07031 12.4434L6.09309 11.8792L6.65729 10.9019L7.63451 11.4661Z" fill="#FF691E"/>
<path d="M7.93725 6.42903L7.37305 7.40625L6.39582 6.84205L6.96002 5.86483L7.93725 6.42903Z" fill="#FF691E"/>
<path d="M8.49975 5.45246L7.93555 6.42969L6.95832 5.86549L7.52252 4.88826L8.49975 5.45246Z" fill="#FF691E"/>
<path d="M9.0642 4.47492L8.5 5.45215L7.52278 4.88795L8.08698 3.91072L9.0642 4.47492Z" fill="#FF691E"/>
<path d="M9.62865 3.49739L9.06445 4.47461L8.08723 3.91041L8.65143 2.93319L9.62865 3.49739Z" fill="#FF691E"/>
<path d="M10.1931 2.51985L9.62891 3.49707L8.65168 2.93287L9.21588 1.95565L10.1931 2.51985Z" fill="#FF691E"/>
<path d="M11.7341 2.10676L11.1699 3.08398L10.1927 2.51978L10.7569 1.54256L11.7341 2.10676Z" fill="#FF691E"/>
<path d="M13.2751 1.69367L12.7109 2.6709L11.7337 2.1067L12.2979 1.12947L13.2751 1.69367Z" fill="#FF691E"/>
<path d="M14.2537 2.25813L13.6895 3.23535L12.7122 2.67115L13.2764 1.69393L14.2537 2.25813Z" fill="#FF691E"/>
<path d="M14.6658 3.80012L14.1016 4.77734L13.1243 4.21314L13.6885 3.23592L14.6658 3.80012Z" fill="#FF691E"/>
<path d="M15.0798 5.34016L14.5156 6.31738L13.5384 5.75318L14.1026 4.77596L15.0798 5.34016Z" fill="#FF691E"/>
<path d="M14.5154 6.3177L13.9512 7.29492L12.9739 6.73072L13.5381 5.7535L14.5154 6.3177Z" fill="#FF691E"/>
<path d="M13.9509 7.29426L13.3867 8.27148L12.4095 7.70728L12.9737 6.73006L13.9509 7.29426Z" fill="#FF691E"/>
<path d="M13.3865 8.2718L12.8223 9.24902L11.845 8.68482L12.4092 7.7076L13.3865 8.2718Z" fill="#FF691E"/>
</svg>
