<svg width="24" height="23" viewBox="0 0 24 23" fill="none" xmlns="http://www.w3.org/2000/svg">
<path d="M17.7477 9.44559L11.1254 2.82332C10.8276 2.5057 10.665 2.08467 10.672 1.6493C10.6791 1.21394 10.8553 0.798405 11.1633 0.490624C11.4713 0.182844 11.8869 0.00696393 12.3223 0.000202392C12.7577 -0.00655915 13.1786 0.156327 13.496 0.454394L22.9801 9.93681C23.1363 10.0921 23.2603 10.2768 23.3449 10.4802C23.4295 10.6837 23.4731 10.9018 23.4731 11.1221C23.4731 11.3424 23.4295 11.5606 23.3449 11.764C23.2603 11.9674 23.1363 12.1521 22.9801 12.3074L13.496 21.7915C13.3414 21.9516 13.1564 22.0793 12.9518 22.1672C12.7473 22.2551 12.5273 22.3013 12.3047 22.3033C12.0821 22.3052 11.8613 22.2628 11.6553 22.1785C11.4492 22.0942 11.262 21.9697 11.1046 21.8123C10.9472 21.6549 10.8227 21.4677 10.7384 21.2616C10.6541 21.0556 10.6117 20.8348 10.6136 20.6122C10.6156 20.3896 10.6618 20.1696 10.7497 19.9651C10.8376 19.7605 10.9653 19.5755 11.1254 19.4209L17.7477 12.7986H1.67652C1.23188 12.7986 0.805451 12.622 0.491042 12.3076C0.176633 11.9932 0 11.5667 0 11.1221C0 10.6775 0.176633 10.251 0.491042 9.93663C0.805451 9.62222 1.23188 9.44559 1.67652 9.44559H17.7477Z" fill="#FF691E"/>
</svg>
