<svg width="21" height="24" viewBox="0 0 21 24" fill="none" xmlns="http://www.w3.org/2000/svg">
<path d="M11.9998 21.6H10.7998V22.8H11.9998V21.6Z" fill="#009255"/>
<path d="M10.7996 22.8003H9.59961V24.0003H10.7996V22.8003Z" fill="#009255"/>
<path d="M9.60039 21.6002H8.40039V22.8002H9.60039V21.6002Z" fill="#009255"/>
<path d="M8.4002 20.4003H7.2002V21.6003H8.4002V20.4003Z" fill="#009255"/>
<path d="M7.2 19.2002H6V20.4002H7.2V19.2002Z" fill="#009255"/>
<path d="M5.9998 18.0002H4.7998V19.2002H5.9998V18.0002Z" fill="#009255"/>
<path d="M4.79961 16.8003H3.59961V18.0003H4.79961V16.8003Z" fill="#009255"/>
<path d="M3.60039 14.4003H2.40039V15.6003H3.60039V14.4003Z" fill="#009255"/>
<path d="M2.4002 13.2002H1.2002V14.4002H2.4002V13.2002Z" fill="#009255"/>
<path d="M2.4002 12.0002H1.2002V13.2002H2.4002V12.0002Z" fill="#009255"/>
<path d="M1.2 9.60022H0V10.8002H1.2V9.60022Z" fill="#009255"/>
<path d="M1.2 10.8003H0V12.0003H1.2V10.8003Z" fill="#009255"/>
<path d="M1.2 8.40027H0V9.60027H1.2V8.40027Z" fill="#009255"/>
<path d="M1.2 7.2002H0V8.4002H1.2V7.2002Z" fill="#009255"/>
<path d="M2.4002 6.00024H1.2002V7.20024H2.4002V6.00024Z" fill="#009255"/>
<path d="M2.4002 4.80029H1.2002V6.00029H2.4002V4.80029Z" fill="#009255"/>
<path d="M3.60039 3.60022H2.40039V4.80022H3.60039V3.60022Z" fill="#009255"/>
<path d="M4.79961 2.40027H3.59961V3.60027H4.79961V2.40027Z" fill="#009255"/>
<path d="M5.9998 1.2002H4.7998V2.4002H5.9998V1.2002Z" fill="#009255"/>
<path d="M7.2 1.2002H6V2.4002H7.2V1.2002Z" fill="#009255"/>
<path d="M8.4002 0.000244141H7.2002V1.20024H8.4002V0.000244141Z" fill="#009255"/>
<path d="M9.60039 0.000244141H8.40039V1.20024H9.60039V0.000244141Z" fill="#009255"/>
<path d="M10.7996 0.000244141H9.59961V1.20024H10.7996V0.000244141Z" fill="#009255"/>
<path d="M3.60039 15.6002H2.40039V16.8002H3.60039V15.6002Z" fill="#009255"/>
<path d="M10.7996 6H9.59961V7.2H10.7996V6Z" fill="#009255"/>
<path d="M10.7996 13.2H9.59961V14.4H10.7996V13.2Z" fill="#009255"/>
<path d="M13.2002 9.60005L13.2002 10.8L14.4002 10.8L14.4002 9.60005L13.2002 9.60005Z" fill="#009255"/>
<path d="M6 9.60005L6 10.8L7.2 10.8L7.2 9.60005L6 9.60005Z" fill="#009255"/>
<path d="M9.60039 6H8.40039V7.2H9.60039V6Z" fill="#009255"/>
<path d="M9.60039 13.2H8.40039V14.4H9.60039V13.2Z" fill="#009255"/>
<path d="M13.2002 10.8L13.2002 12L14.4002 12L14.4002 10.8L13.2002 10.8Z" fill="#009255"/>
<path d="M6 10.8L6 12L7.2 12L7.2 10.8L6 10.8Z" fill="#009255"/>
<path d="M11.9998 6H10.7998V7.2H11.9998V6Z" fill="#009255"/>
<path d="M11.9998 13.2H10.7998V14.4H11.9998V13.2Z" fill="#009255"/>
<path d="M13.2002 8.39998L13.2002 9.59998L14.4002 9.59998L14.4002 8.39998L13.2002 8.39998Z" fill="#009255"/>
<path d="M6 8.39998L6 9.59998L7.2 9.59998L7.2 8.39998L6 8.39998Z" fill="#009255"/>
<path d="M7.2002 12L7.2002 13.2L8.4002 13.2L8.4002 12L7.2002 12Z" fill="#009255"/>
<path d="M12 12L12 13.2L13.2 13.2L13.2 12L12 12Z" fill="#009255"/>
<path d="M12 7.20002L12 8.40002L13.2 8.40002L13.2 7.20002L12 7.20002Z" fill="#009255"/>
<path d="M7.2002 7.20002L7.2002 8.40002L8.4002 8.40002L8.4002 7.20002L7.2002 7.20002Z" fill="#009255"/>
<path d="M9.44648 22.8H10.6465V24H9.44648V22.8Z" fill="#009255"/>
<path d="M10.6457 21.6H11.8457V22.8H10.6457V21.6Z" fill="#009255"/>
<path d="M11.8459 20.4H13.0459V21.6H11.8459V20.4Z" fill="#009255"/>
<path d="M13.0461 19.2H14.2461V20.4H13.0461V19.2Z" fill="#009255"/>
<path d="M14.2463 18H15.4463V19.2H14.2463V18Z" fill="#009255"/>
<path d="M15.4465 16.8H16.6465V18H15.4465V16.8Z" fill="#009255"/>
<path d="M16.6457 14.4H17.8457V15.6H16.6457V14.4Z" fill="#009255"/>
<path d="M17.8459 13.2H19.0459V14.4H17.8459V13.2Z" fill="#009255"/>
<path d="M17.8459 12H19.0459V13.2H17.8459V12Z" fill="#009255"/>
<path d="M19.0461 9.59998H20.2461V10.8H19.0461V9.59998Z" fill="#009255"/>
<path d="M19.0461 10.8H20.2461V12H19.0461V10.8Z" fill="#009255"/>
<path d="M19.0461 8.40002H20.2461V9.60002H19.0461V8.40002Z" fill="#009255"/>
<path d="M19.0461 7.19995H20.2461V8.39995H19.0461V7.19995Z" fill="#009255"/>
<path d="M17.8459 6H19.0459V7.2H17.8459V6Z" fill="#009255"/>
<path d="M17.8459 4.80005H19.0459V6.00005H17.8459V4.80005Z" fill="#009255"/>
<path d="M16.6457 3.59998H17.8457V4.79998H16.6457V3.59998Z" fill="#009255"/>
<path d="M15.4465 2.40002H16.6465V3.60002H15.4465V2.40002Z" fill="#009255"/>
<path d="M14.2463 1.19995H15.4463V2.39995H14.2463V1.19995Z" fill="#009255"/>
<path d="M13.0461 1.19995H14.2461V2.39995H13.0461V1.19995Z" fill="#009255"/>
<path d="M11.8459 0H13.0459V1.2H11.8459V0Z" fill="#009255"/>
<path d="M10.6457 0H11.8457V1.2H10.6457V0Z" fill="#009255"/>
<path d="M9.44648 0H10.6465V1.2H9.44648V0Z" fill="#009255"/>
<path d="M16.6457 15.6H17.8457V16.8H16.6457V15.6Z" fill="#009255"/>
</svg>
