<svg width="23" height="30" viewBox="0 0 23 30" fill="none" xmlns="http://www.w3.org/2000/svg">
<path d="M21.8867 16.1499L21.8867 15.037L22.9996 15.037L22.9996 16.1499L21.8867 16.1499Z" fill="#FBFBFB"/>
<path d="M21.8867 15.4082L21.8867 14.2953L22.9996 14.2953L22.9996 15.4082L21.8867 15.4082Z" fill="#FBFBFB"/>
<path d="M21.8867 14.5129L21.8867 13.4L22.9996 13.4L22.9996 14.5129L21.8867 14.5129Z" fill="#FBFBFB"/>
<path d="M21.8867 17.2632L21.8867 16.1503L22.9996 16.1503L22.9996 17.2632L21.8867 17.2632Z" fill="#FBFBFB"/>
<path d="M21.8867 18.376L21.8867 17.2631L22.9996 17.2631L22.9996 18.376L21.8867 18.376Z" fill="#FBFBFB"/>
<path d="M21.8867 20.6016L21.8867 19.4886L22.9996 19.4886L22.9996 20.6016L21.8867 20.6016Z" fill="#FBFBFB"/>
<path d="M21.8867 18.376L21.8867 17.2631L22.9996 17.2631L22.9996 18.376L21.8867 18.376Z" fill="#FBFBFB"/>
<path d="M21.8867 19.4888L21.8867 18.3759L22.9996 18.3759L22.9996 19.4888L21.8867 19.4888Z" fill="#FBFBFB"/>
<path d="M21.8867 22.8276L21.8867 21.7147L22.9996 21.7147L22.9996 22.8276L21.8867 22.8276Z" fill="#FBFBFB"/>
<path d="M21.8867 21.7148L21.8867 20.6019L22.9996 20.6019L22.9996 21.7148L21.8867 21.7148Z" fill="#FBFBFB"/>
<path d="M21.8867 25.0532L21.8867 23.9403L22.9996 23.9403L22.9996 25.0532L21.8867 25.0532Z" fill="#FBFBFB"/>
<path d="M21.8867 23.9404L21.8867 22.8275L22.9996 22.8275L22.9996 23.9404L21.8867 23.9404Z" fill="#FBFBFB"/>
<path d="M21.8867 27.2793L21.8867 26.1664L22.9996 26.1664L22.9996 27.2793L21.8867 27.2793Z" fill="#FBFBFB"/>
<path d="M20.96 28.3921L20.96 27.2792L22.0729 27.2792L22.0729 28.3921L20.96 28.3921Z" fill="#FBFBFB"/>
<path d="M19.8472 29.5049L19.8472 28.392L20.9601 28.392L20.9601 29.5049L19.8472 29.5049Z" fill="#FBFBFB"/>
<path d="M18.7339 29.5049L18.7339 28.392L19.8468 28.392L19.8468 29.5049L18.7339 29.5049Z" fill="#FBFBFB"/>
<path d="M17.6211 29.5049L17.6211 28.392L18.734 28.392L18.734 29.5049L17.6211 29.5049Z" fill="#FBFBFB"/>
<path d="M16.8789 29.5049L16.8789 28.392L17.9918 28.392L17.9918 29.5049L16.8789 29.5049Z" fill="#FBFBFB"/>
<path d="M15.3955 29.5049L15.3955 28.392L16.8794 28.392L16.8794 29.5049L15.3955 29.5049Z" fill="#FBFBFB"/>
<path d="M21.8867 26.1665L21.8867 25.0536L22.9996 25.0536L22.9996 26.1665L21.8867 26.1665Z" fill="#FBFBFB"/>
<path d="M1.11279 16.1499L1.11279 15.037L-0.000118971 15.037L-0.00011902 16.1499L1.11279 16.1499Z" fill="#FBFBFB"/>
<path d="M1.11279 15.4082L1.11279 14.2953L-0.000118971 14.2953L-0.00011902 15.4082L1.11279 15.4082Z" fill="#FBFBFB"/>
<path d="M1.11279 14.5129L1.11279 13.4L-0.000118971 13.4L-0.00011902 14.5129L1.11279 14.5129Z" fill="#FBFBFB"/>
<path d="M1.11279 17.2632L1.11279 16.1503L-0.000118971 16.1503L-0.00011902 17.2632L1.11279 17.2632Z" fill="#FBFBFB"/>
<path d="M1.11279 18.376L1.11279 17.2631L-0.000118971 17.2631L-0.00011902 18.376L1.11279 18.376Z" fill="#FBFBFB"/>
<path d="M1.11279 20.6016L1.11279 19.4886L-0.000118971 19.4886L-0.00011902 20.6016L1.11279 20.6016Z" fill="#FBFBFB"/>
<path d="M1.11279 18.376L1.11279 17.2631L-0.000118971 17.2631L-0.00011902 18.376L1.11279 18.376Z" fill="#FBFBFB"/>
<path d="M1.11279 19.4888L1.11279 18.3759L-0.000118971 18.3759L-0.00011902 19.4888L1.11279 19.4888Z" fill="#FBFBFB"/>
<path d="M1.11279 22.8276L1.11279 21.7147L-0.000118971 21.7147L-0.00011902 22.8276L1.11279 22.8276Z" fill="#FBFBFB"/>
<path d="M1.11279 21.7148L1.11279 20.6019L-0.000118971 20.6019L-0.00011902 21.7148L1.11279 21.7148Z" fill="#FBFBFB"/>
<path d="M1.11279 25.0532L1.11279 23.9403L-0.000118971 23.9403L-0.00011902 25.0532L1.11279 25.0532Z" fill="#FBFBFB"/>
<path d="M1.11279 23.9404L1.11279 22.8275L-0.000118971 22.8275L-0.00011902 23.9404L1.11279 23.9404Z" fill="#FBFBFB"/>
<path d="M1.11279 27.2793L1.11279 26.1664L-0.000118971 26.1664L-0.00011902 27.2793L1.11279 27.2793Z" fill="#FBFBFB"/>
<path d="M2.22559 28.3921L2.22559 27.2792L1.11267 27.2792L1.11267 28.3921L2.22559 28.3921Z" fill="#FBFBFB"/>
<path d="M1.11279 26.1665L1.11279 25.0536L-0.000118971 25.0536L-0.00011902 26.1665L1.11279 26.1665Z" fill="#FBFBFB"/>
<path d="M14.2826 28.392L15.3955 28.392L15.3955 29.5049L14.2826 29.5049L14.2826 28.392Z" fill="#FBFBFB"/>
<path d="M13.3549 28.392L14.4678 28.392L14.4678 29.5049L13.3549 29.5049L13.3549 28.392Z" fill="#FBFBFB"/>
<path d="M12.2421 28.392L13.355 28.392L13.355 29.5049L12.2421 29.5049L12.2421 28.392Z" fill="#FBFBFB"/>
<path d="M11.1288 28.392L12.2417 28.392L12.2417 29.5049L11.1288 29.5049L11.1288 28.392Z" fill="#FBFBFB"/>
<path d="M8.9032 28.392L10.0161 28.392L10.0161 29.5049L8.9032 29.5049L8.9032 28.392Z" fill="#FBFBFB"/>
<path d="M11.1288 28.392L12.2417 28.392L12.2417 29.5049L11.1288 29.5049L11.1288 28.392Z" fill="#FBFBFB"/>
<path d="M10.016 28.392L11.1289 28.392L11.1289 29.5049L10.016 29.5049L10.016 28.392Z" fill="#FBFBFB"/>
<path d="M6.67713 28.392L7.79004 28.392L7.79004 29.5049L6.67713 29.5049L6.67713 28.392Z" fill="#FBFBFB"/>
<path d="M7.79041 28.392L8.90332 28.392L8.90332 29.5049L7.79041 29.5049L7.79041 28.392Z" fill="#FBFBFB"/>
<path d="M4.45154 28.392L5.56445 28.392L5.56445 29.5049L4.45154 29.5049L4.45154 28.392Z" fill="#FBFBFB"/>
<path d="M5.56433 28.392L6.67725 28.392L6.67725 29.5049L5.56433 29.5049L5.56433 28.392Z" fill="#FBFBFB"/>
<path d="M2.22547 28.392L3.33838 28.392L3.33838 29.5049L2.22547 29.5049L2.22547 28.392Z" fill="#FBFBFB"/>
<path d="M3.33875 28.392L4.45166 28.392L4.45166 29.5049L3.33875 29.5049L3.33875 28.392Z" fill="#FBFBFB"/>
<path d="M1.11279 12.6256L1.11279 13.7385L-0.000118971 13.7385L-0.000118825 12.6256L1.11279 12.6256Z" fill="#FBFBFB"/>
<path d="M1.11279 11.625L1.11279 12.7379L-0.000118971 12.7379L-0.000118825 11.625L1.11279 11.625Z" fill="#FBFBFB"/>
<path d="M23.0024 11.6L23.0024 12.7129L21.8895 12.7129L21.8895 11.6L23.0024 11.6Z" fill="#FBFBFB"/>
<path d="M2.03955 10.5128L2.03955 11.6257L0.926639 11.6257L0.926639 10.5128L2.03955 10.5128Z" fill="#FBFBFB"/>
<path d="M3.15234 9.40003L3.15234 10.5129L2.03943 10.5129L2.03943 9.40003L3.15234 9.40003Z" fill="#FBFBFB"/>
<path d="M4.26563 9.40003L4.26562 10.5129L3.15271 10.5129L3.15271 9.40003L4.26563 9.40003Z" fill="#FBFBFB"/>
<path d="M4.57227 8.40003L4.57227 9.51294L3.45935 9.51294L3.45935 8.40003L4.57227 8.40003Z" fill="#FBFBFB"/>
<path d="M4.57227 7.40003L4.57227 8.51294L3.45935 8.51294L3.45935 7.40003L4.57227 7.40003Z" fill="#FBFBFB"/>
<path d="M4.57227 6.40003L4.57227 7.51294L3.45935 7.51294L3.45935 6.40003L4.57227 6.40003Z" fill="#FBFBFB"/>
<path d="M4.57227 5.40003L4.57227 6.51294L3.45935 6.51294L3.45935 5.40003L4.57227 5.40003Z" fill="#FBFBFB"/>
<path d="M4.57227 4.40003L4.57227 5.51294L3.45935 5.51294L3.45935 4.40003L4.57227 4.40003Z" fill="#FBFBFB"/>
<path d="M5.67236 3.30005L5.67236 4.41296L4.55945 4.41296L4.55945 3.30005L5.67236 3.30005Z" fill="#FBFBFB"/>
<path d="M6.77246 2.20008L6.77246 3.31299L5.65955 3.31299L5.65955 2.20008L6.77246 2.20008Z" fill="#FBFBFB"/>
<path d="M18.4595 8.39991L18.4595 9.51282L19.5724 9.51282L19.5724 8.39991L18.4595 8.39991Z" fill="#FBFBFB"/>
<path d="M18.4595 7.39991L18.4595 8.51282L19.5724 8.51282L19.5724 7.39991L18.4595 7.39991Z" fill="#FBFBFB"/>
<path d="M18.4595 5.39991L18.4595 6.51282L19.5724 6.51282L19.5724 5.39991L18.4595 5.39991Z" fill="#FBFBFB"/>
<path d="M18.4595 6.39991L18.4595 7.51282L19.5724 7.51282L19.5724 6.39991L18.4595 6.39991Z" fill="#FBFBFB"/>
<path d="M18.4595 4.39991L18.4595 5.51282L19.5724 5.51282L19.5724 4.39991L18.4595 4.39991Z" fill="#FBFBFB"/>
<path d="M17.3594 3.29993L17.3594 4.41284L18.4723 4.41284L18.4723 3.29993L17.3594 3.29993Z" fill="#FBFBFB"/>
<path d="M16.2593 2.19995L16.2593 3.31287L17.3722 3.31287L17.3722 2.19995L16.2593 2.19995Z" fill="#FBFBFB"/>
<path d="M15.1597 1.09986L15.1597 2.21277L16.2726 2.21277L16.2726 1.09986L15.1597 1.09986Z" fill="#FBFBFB"/>
<path d="M6.75928 1.09986L6.75928 2.21277L7.87219 2.21277L7.87219 1.09986L6.75928 1.09986Z" fill="#FBFBFB"/>
<path d="M14.0596 3.09944e-06L14.0596 1.11292L15.1725 1.11291L15.1725 2.9535e-06L14.0596 3.09944e-06Z" fill="#FBFBFB"/>
<path d="M12.9595 3.09944e-06L12.9595 1.11292L14.0724 1.11291L14.0724 2.9535e-06L12.9595 3.09944e-06Z" fill="#FBFBFB"/>
<path d="M11.9595 3.09944e-06L11.9595 1.11292L13.0724 1.11291L13.0724 2.9535e-06L11.9595 3.09944e-06Z" fill="#FBFBFB"/>
<path d="M10.9595 3.09944e-06L10.9595 1.11292L12.0724 1.11291L12.0724 2.9535e-06L10.9595 3.09944e-06Z" fill="#FBFBFB"/>
<path d="M9.95947 3.09944e-06L9.95947 1.11292L11.0724 1.11291L11.0724 2.9535e-06L9.95947 3.09944e-06Z" fill="#FBFBFB"/>
<path d="M8.95947 3.09944e-06L8.95947 1.11292L10.0724 1.11291L10.0724 2.9535e-06L8.95947 3.09944e-06Z" fill="#FBFBFB"/>
<path d="M7.85937 3.09944e-06L7.85938 1.11292L8.97229 1.11291L8.97229 2.9535e-06L7.85937 3.09944e-06Z" fill="#FBFBFB"/>
<path d="M5.37842 9.40003L5.37842 10.5129L4.26551 10.5129L4.26551 9.40003L5.37842 9.40003Z" fill="#FBFBFB"/>
<path d="M6.12061 9.40003L6.12061 10.5129L5.00769 10.5129L5.00769 9.40003L6.12061 9.40003Z" fill="#FBFBFB"/>
<path d="M7.604 9.40003L7.604 10.5129L6.12012 10.5129L6.12012 9.40003L7.604 9.40003Z" fill="#FBFBFB"/>
<path d="M21.8867 12.6256L21.8867 13.7385L22.9996 13.7385L22.9996 12.6256L21.8867 12.6256Z" fill="#FBFBFB"/>
<path d="M20.7739 10.5128L20.7739 11.6257L21.8868 11.6257L21.8868 10.5128L20.7739 10.5128Z" fill="#FBFBFB"/>
<path d="M8.71692 10.5129L7.604 10.5129L7.604 9.40003L8.71692 9.40003L8.71692 10.5129Z" fill="#FBFBFB"/>
<path d="M9.64465 10.5129L8.53174 10.5129L8.53174 9.40003L9.64465 9.40003L9.64465 10.5129Z" fill="#FBFBFB"/>
<path d="M10.7574 10.5129L9.64453 10.5129L9.64453 9.40003L10.7574 9.40003L10.7574 10.5129Z" fill="#FBFBFB"/>
<path d="M14.0963 10.5129L12.9834 10.5129L12.9834 9.40003L14.0963 9.40003L14.0963 10.5129Z" fill="#FBFBFB"/>
<path d="M11.8707 10.5129L10.7578 10.5129L10.7578 9.40003L11.8707 9.40003L11.8707 10.5129Z" fill="#FBFBFB"/>
<path d="M12.9835 10.5129L11.8706 10.5129L11.8706 9.40003L12.9835 9.40003L12.9835 10.5129Z" fill="#FBFBFB"/>
<path d="M16.3224 10.5129L15.2095 10.5129L15.2095 9.40003L16.3224 9.40003L16.3224 10.5129Z" fill="#FBFBFB"/>
<path d="M15.2091 10.5129L14.0962 10.5129L14.0962 9.40003L15.2091 9.40003L15.2091 10.5129Z" fill="#FBFBFB"/>
<path d="M18.548 10.5129L17.4351 10.5129L17.4351 9.40003L18.548 9.40003L18.548 10.5129Z" fill="#FBFBFB"/>
<path d="M17.4352 10.5129L16.3223 10.5129L16.3223 9.40003L17.4352 9.40003L17.4352 10.5129Z" fill="#FBFBFB"/>
<path d="M20.774 10.5129L19.6611 10.5129L19.6611 9.40003L20.774 9.40003L20.774 10.5129Z" fill="#FBFBFB"/>
<path d="M19.6608 10.5129L18.5479 10.5129L18.5479 9.40003L19.6608 9.40003L19.6608 10.5129Z" fill="#FBFBFB"/>
<path d="M11 18.6129L11 17.5L12.1129 17.5L12.1129 18.6129L11 18.6129Z" fill="#FBFBFB"/>
<path d="M11 19.6129L11 18.5L12.1129 18.5L12.1129 19.6129L11 19.6129Z" fill="#FBFBFB"/>
<path d="M11 20.6129L11 19.5L12.1129 19.5L12.1129 20.6129L11 20.6129Z" fill="#FBFBFB"/>
<path d="M11 21.6129L11 20.5L12.1129 20.5L12.1129 21.6129L11 21.6129Z" fill="#FBFBFB"/>
</svg>
