<svg width="29" height="37" viewBox="0 0 29 37" fill="none" xmlns="http://www.w3.org/2000/svg">
<path d="M14.1707 21.5819C13.792 21.5819 13.4288 21.7443 13.1609 22.0335C12.8931 22.3226 12.7427 22.7147 12.7427 23.1236V26.207C12.7427 26.6159 12.8931 27.008 13.1609 27.2972C13.4288 27.5863 13.792 27.7487 14.1707 27.7487C14.5495 27.7487 14.9127 27.5863 15.1805 27.2972C15.4483 27.008 15.5988 26.6159 15.5988 26.207V23.1236C15.5988 22.7147 15.4483 22.3226 15.1805 22.0335C14.9127 21.7443 14.5495 21.5819 14.1707 21.5819Z" fill="white"/>
<path d="M24.2768 12.9873V10.792C24.2768 7.92975 23.2236 5.18477 21.349 3.16089C19.4743 1.13701 16.9317 0 14.2805 0C11.6293 0 9.08668 1.13701 7.212 3.16089C5.33733 5.18477 4.28414 7.92975 4.28414 10.792V12.9873C3.01227 13.5866 1.92971 14.573 1.16886 15.826C0.408001 17.0789 0.00182558 18.544 0 20.0422V29.2924C0.00226754 31.3361 0.755269 33.2954 2.09383 34.7405C3.4324 36.1856 5.24723 36.9985 7.14024 37.001H21.4207C23.3137 36.9985 25.1286 36.1856 26.4671 34.7405C27.8057 33.2954 28.5587 31.3361 28.561 29.2924V20.0422C28.5591 18.544 28.153 17.0789 27.3921 15.826C26.6312 14.573 25.5487 13.5866 24.2768 12.9873ZM7.14024 10.792C7.14024 8.74752 7.89251 6.78682 9.23157 5.34119C10.5706 3.89556 12.3868 3.08341 14.2805 3.08341C16.1742 3.08341 17.9903 3.89556 19.3294 5.34119C20.6684 6.78682 21.4207 8.74752 21.4207 10.792V12.3337H7.14024V10.792ZM25.7049 29.2924C25.7049 30.5191 25.2535 31.6955 24.4501 32.5629C23.6466 33.4303 22.5569 33.9176 21.4207 33.9176H7.14024C6.00401 33.9176 4.91433 33.4303 4.11089 32.5629C3.30746 31.6955 2.8561 30.5191 2.8561 29.2924V20.0422C2.8561 18.8155 3.30746 17.6391 4.11089 16.7717C4.91433 15.9044 6.00401 15.4171 7.14024 15.4171H21.4207C22.5569 15.4171 23.6466 15.9044 24.4501 16.7717C25.2535 17.6391 25.7049 18.8155 25.7049 20.0422V29.2924Z" fill="white"/>
</svg>
