<svg width="23" height="24" viewBox="0 0 23 24" fill="none" xmlns="http://www.w3.org/2000/svg">
<path d="M8.13004 1.16113H6.96875V-0.000154614H8.13004V1.16113Z" fill="#FF691E"/>
<path d="M7.35465 1.16113H6.19336V-0.000154614H7.35465V1.16113Z" fill="#FF691E"/>
<path d="M9.29019 1.16113H8.12891V-0.000154614H9.29019V1.16113Z" fill="#FF691E"/>
<path d="M10.4503 1.16113H9.28906V-0.000154614H10.4503V1.16113Z" fill="#FF691E"/>
<path d="M12.7746 1.16113H11.6133V-0.000154614H12.7746V1.16113Z" fill="#FF691E"/>
<path d="M10.4503 1.16113H9.28906V-0.000154614H10.4503V1.16113Z" fill="#FF691E"/>
<path d="M11.6125 1.16113H10.4512V-0.000154614H11.6125V1.16113Z" fill="#FF691E"/>
<path d="M15.0968 1.16113H13.9355V-0.000154614H15.0968V1.16113Z" fill="#FF691E"/>
<path d="M13.9347 1.16113H12.7734V-0.000154614H13.9347V1.16113Z" fill="#FF691E"/>
<path d="M17.4191 1.16113H16.2578V-0.000154614H17.4191V1.16113Z" fill="#FF691E"/>
<path d="M16.2589 1.16113H15.0977V-0.000154614H16.2589V1.16113Z" fill="#FF691E"/>
<path d="M19.7414 1.16113H18.5801V-0.000154614H19.7414V1.16113Z" fill="#FF691E"/>
<path d="M20.9035 2.12793H19.7422V0.966642H20.9035V2.12793Z" fill="#FF691E"/>
<path d="M22.0656 3.29004H20.9043V2.12875H22.0656V3.29004Z" fill="#FF691E"/>
<path d="M22.0656 4.4502H20.9043V3.28891H22.0656V4.4502Z" fill="#FF691E"/>
<path d="M22.0656 5.6123H20.9043V4.45102H22.0656V5.6123Z" fill="#FF691E"/>
<path d="M22.0656 6.38672H20.9043V5.22543H22.0656V6.38672Z" fill="#FF691E"/>
<path d="M22.0656 7.93457H20.9043V6.38619H22.0656V7.93457Z" fill="#FF691E"/>
<path d="M18.5812 1.16113H17.4199V-0.000154614H18.5812V1.16113Z" fill="#FF691E"/>
<path d="M8.13004 22.8369H6.96875V23.9982H8.13004V22.8369Z" fill="#FF691E"/>
<path d="M7.35465 22.8369H6.19336V23.9982H7.35465V22.8369Z" fill="#FF691E"/>
<path d="M1.16129 11.418H0V12.5793H1.16129V11.418Z" fill="#FF691E"/>
<path d="M2.3234 11.418H1.16211V12.5793H2.3234V11.418Z" fill="#FF691E"/>
<path d="M3.48551 11.418H2.32422V12.5793H3.48551V11.418Z" fill="#FF691E"/>
<path d="M4.64371 11.418H3.48242V12.5793H4.64371V11.418Z" fill="#FF691E"/>
<path d="M5.80582 11.418H4.64453V12.5793H5.80582V11.418Z" fill="#FF691E"/>
<path d="M6.96793 11.418H5.80664V12.5793H6.96793V11.418Z" fill="#FF691E"/>
<path d="M8.13004 11.418H6.96875V12.5793H8.13004V11.418Z" fill="#FF691E"/>
<path d="M9.29019 11.418H8.12891V12.5793H9.29019V11.418Z" fill="#FF691E"/>
<path d="M10.4503 11.418H9.28906V12.5793H10.4503V11.418Z" fill="#FF691E"/>
<path d="M11.6125 11.418H10.4512V12.5793H11.6125V11.418Z" fill="#FF691E"/>
<path d="M12.7746 11.418H11.6133V12.5793H12.7746V11.418Z" fill="#FF691E"/>
<path d="M13.9347 11.418H12.7734V12.5793H13.9347V11.418Z" fill="#FF691E"/>
<path d="M15.0968 11.418H13.9355V12.5793H15.0968V11.418Z" fill="#FF691E"/>
<path d="M13.9347 10.2568H12.7734V11.4181H13.9347V10.2568Z" fill="#FF691E"/>
<path d="M12.7746 9.0957H11.6133V10.257H12.7746V9.0957Z" fill="#FF691E"/>
<path d="M11.6125 7.93457H10.4512V9.09586H11.6125V7.93457Z" fill="#FF691E"/>
<path d="M10.4503 6.77344H9.28906V7.93472H10.4503V6.77344Z" fill="#FF691E"/>
<path d="M9.28988 16.0625H10.4512V17.2238H9.28988V16.0625Z" fill="#FF691E"/>
<path d="M10.452 14.9023H11.6133V16.0636H10.452V14.9023Z" fill="#FF691E"/>
<path d="M11.6122 13.7402H12.7734V14.9015H11.6122V13.7402Z" fill="#FF691E"/>
<path d="M12.7743 12.5801H13.9355V13.7414H12.7743V12.5801Z" fill="#FF691E"/>
<path d="M9.29019 22.8369H8.12891V23.9982H9.29019V22.8369Z" fill="#FF691E"/>
<path d="M10.4503 22.8369H9.28906V23.9982H10.4503V22.8369Z" fill="#FF691E"/>
<path d="M12.7746 22.8369H11.6133V23.9982H12.7746V22.8369Z" fill="#FF691E"/>
<path d="M10.4503 22.8369H9.28906V23.9982H10.4503V22.8369Z" fill="#FF691E"/>
<path d="M11.6125 22.8369H10.4512V23.9982H11.6125V22.8369Z" fill="#FF691E"/>
<path d="M15.0968 22.8369H13.9355V23.9982H15.0968V22.8369Z" fill="#FF691E"/>
<path d="M13.9347 22.8369H12.7734V23.9982H13.9347V22.8369Z" fill="#FF691E"/>
<path d="M17.4191 22.8369H16.2578V23.9982H17.4191V22.8369Z" fill="#FF691E"/>
<path d="M16.2589 22.8369H15.0977V23.9982H16.2589V22.8369Z" fill="#FF691E"/>
<path d="M19.7414 22.8369H18.5801V23.9982H19.7414V22.8369Z" fill="#FF691E"/>
<path d="M20.9035 21.6768H19.7422V22.838H20.9035V21.6768Z" fill="#FF691E"/>
<path d="M18.5812 22.8369H17.4199V23.9982H18.5812V22.8369Z" fill="#FF691E"/>
<path d="M20.9043 9.09586L20.9043 7.93457L22.0656 7.93457L22.0656 9.09586L20.9043 9.09586Z" fill="#FF691E"/>
<path d="M20.9043 10.0636L20.9043 8.90234L22.0656 8.90234L22.0656 10.0636L20.9043 10.0636Z" fill="#FF691E"/>
<path d="M20.9043 11.2248L20.9043 10.0635L22.0656 10.0635L22.0656 11.2248L20.9043 11.2248Z" fill="#FF691E"/>
<path d="M20.9043 12.3859L20.9043 11.2246L22.0656 11.2246L22.0656 12.3859L20.9043 12.3859Z" fill="#FF691E"/>
<path d="M20.9043 14.7082L20.9043 13.5469L22.0656 13.5469L22.0656 14.7082L20.9043 14.7082Z" fill="#FF691E"/>
<path d="M20.9043 12.3859L20.9043 11.2246L22.0656 11.2246L22.0656 12.3859L20.9043 12.3859Z" fill="#FF691E"/>
<path d="M20.9043 13.548L20.9043 12.3867L22.0656 12.3867L22.0656 13.548L20.9043 13.548Z" fill="#FF691E"/>
<path d="M20.9043 17.0314L20.9043 15.8701L22.0656 15.8701L22.0656 17.0314L20.9043 17.0314Z" fill="#FF691E"/>
<path d="M20.9043 15.8703L20.9043 14.709L22.0656 14.709L22.0656 15.8703L20.9043 15.8703Z" fill="#FF691E"/>
<path d="M20.9043 19.3537L20.9043 18.1924L22.0656 18.1924L22.0656 19.3537L20.9043 19.3537Z" fill="#FF691E"/>
<path d="M20.9043 18.1925L20.9043 17.0312L22.0656 17.0313L22.0656 18.1925L20.9043 18.1925Z" fill="#FF691E"/>
<path d="M20.9043 21.6759L20.9043 20.5146L22.0656 20.5146L22.0656 21.6759L20.9043 21.6759Z" fill="#FF691E"/>
<path d="M20.9043 20.5158L20.9043 19.3545L22.0656 19.3545L22.0656 20.5158L20.9043 20.5158Z" fill="#FF691E"/>
</svg>
