<svg width="21" height="24" viewBox="0 0 21 24" fill="none" xmlns="http://www.w3.org/2000/svg">
<path d="M11.9998 21.6001H10.7998V22.8001H11.9998V21.6001Z" fill="#0F100F"/>
<path d="M10.8001 22.7998H9.6001V23.9998H10.8001V22.7998Z" fill="#0F100F"/>
<path d="M9.5999 21.6001H8.3999V22.8001H9.5999V21.6001Z" fill="#0F100F"/>
<path d="M8.4002 20.3999H7.2002V21.5999H8.4002V20.3999Z" fill="#0F100F"/>
<path d="M7.2 19.2002H6V20.4002H7.2V19.2002Z" fill="#0F100F"/>
<path d="M5.9998 18H4.7998V19.2H5.9998V18Z" fill="#0F100F"/>
<path d="M4.8001 16.7998H3.6001V17.9998H4.8001V16.7998Z" fill="#0F100F"/>
<path d="M3.5999 14.3999H2.3999V15.5999H3.5999V14.3999Z" fill="#0F100F"/>
<path d="M2.4002 13.2002H1.2002V14.4002H2.4002V13.2002Z" fill="#0F100F"/>
<path d="M2.4002 12H1.2002V13.2H2.4002V12Z" fill="#0F100F"/>
<path d="M1.2 9.6001H0V10.8001H1.2V9.6001Z" fill="#0F100F"/>
<path d="M1.2 10.7998H0V11.9998H1.2V10.7998Z" fill="#0F100F"/>
<path d="M1.2 8.3999H0V9.5999H1.2V8.3999Z" fill="#0F100F"/>
<path d="M1.2 7.2002H0V8.4002H1.2V7.2002Z" fill="#0F100F"/>
<path d="M2.4002 6H1.2002V7.2H2.4002V6Z" fill="#0F100F"/>
<path d="M2.4002 4.7998H1.2002V5.9998H2.4002V4.7998Z" fill="#0F100F"/>
<path d="M3.5999 3.6001H2.3999V4.8001H3.5999V3.6001Z" fill="#0F100F"/>
<path d="M4.8001 2.3999H3.6001V3.5999H4.8001V2.3999Z" fill="#0F100F"/>
<path d="M5.9998 1.2002H4.7998V2.4002H5.9998V1.2002Z" fill="#0F100F"/>
<path d="M7.2 1.2002H6V2.4002H7.2V1.2002Z" fill="#0F100F"/>
<path d="M8.4002 0H7.2002V1.2H8.4002V0Z" fill="#0F100F"/>
<path d="M9.5999 0H8.3999V1.2H9.5999V0Z" fill="#0F100F"/>
<path d="M10.8001 0H9.6001V1.2H10.8001V0Z" fill="#0F100F"/>
<path d="M3.5999 15.6001H2.3999V16.8001H3.5999V15.6001Z" fill="#0F100F"/>
<path d="M10.8001 6H9.6001V7.2H10.8001V6Z" fill="#0F100F"/>
<path d="M10.8001 13.2002H9.6001V14.4002H10.8001V13.2002Z" fill="#0F100F"/>
<path d="M13.2002 9.5998L13.2002 10.7998L14.4002 10.7998L14.4002 9.5998L13.2002 9.5998Z" fill="#0F100F"/>
<path d="M6 9.5998L6 10.7998L7.2 10.7998L7.2 9.5998L6 9.5998Z" fill="#0F100F"/>
<path d="M9.5999 6H8.3999V7.2H9.5999V6Z" fill="#0F100F"/>
<path d="M9.5999 13.2002H8.3999V14.4002H9.5999V13.2002Z" fill="#0F100F"/>
<path d="M13.2002 10.8L13.2002 12L14.4002 12L14.4002 10.8L13.2002 10.8Z" fill="#0F100F"/>
<path d="M6 10.8L6 12L7.2 12L7.2 10.8L6 10.8Z" fill="#0F100F"/>
<path d="M11.9998 6H10.7998V7.2H11.9998V6Z" fill="#0F100F"/>
<path d="M11.9998 13.2002H10.7998V14.4002H11.9998V13.2002Z" fill="#0F100F"/>
<path d="M13.2002 8.4001L13.2002 9.6001L14.4002 9.6001L14.4002 8.4001L13.2002 8.4001Z" fill="#0F100F"/>
<path d="M6 8.4001L6 9.6001L7.2 9.6001L7.2 8.4001L6 8.4001Z" fill="#0F100F"/>
<path d="M7.2002 12.0002L7.2002 13.2002L8.4002 13.2002L8.4002 12.0002L7.2002 12.0002Z" fill="#0F100F"/>
<path d="M12 12.0002L12 13.2002L13.2 13.2002L13.2 12.0002L12 12.0002Z" fill="#0F100F"/>
<path d="M12 7.1999L12 8.3999L13.2 8.3999L13.2 7.1999L12 7.1999Z" fill="#0F100F"/>
<path d="M7.2002 7.1999L7.2002 8.3999L8.4002 8.3999L8.4002 7.1999L7.2002 7.1999Z" fill="#0F100F"/>
<path d="M9.446 22.7998H10.646V23.9998H9.446V22.7998Z" fill="#0F100F"/>
<path d="M10.6462 21.6001H11.8462V22.8001H10.6462V21.6001Z" fill="#0F100F"/>
<path d="M11.8459 20.3999H13.0459V21.5999H11.8459V20.3999Z" fill="#0F100F"/>
<path d="M13.0461 19.2002H14.2461V20.4002H13.0461V19.2002Z" fill="#0F100F"/>
<path d="M14.2463 18H15.4463V19.2H14.2463V18Z" fill="#0F100F"/>
<path d="M15.446 16.7998H16.646V17.9998H15.446V16.7998Z" fill="#0F100F"/>
<path d="M16.6462 14.3999H17.8462V15.5999H16.6462V14.3999Z" fill="#0F100F"/>
<path d="M17.8459 13.2002H19.0459V14.4002H17.8459V13.2002Z" fill="#0F100F"/>
<path d="M17.8459 12H19.0459V13.2H17.8459V12Z" fill="#0F100F"/>
<path d="M19.0461 9.6001H20.2461V10.8001H19.0461V9.6001Z" fill="#0F100F"/>
<path d="M19.0461 10.7998H20.2461V11.9998H19.0461V10.7998Z" fill="#0F100F"/>
<path d="M19.0461 8.3999H20.2461V9.5999H19.0461V8.3999Z" fill="#0F100F"/>
<path d="M19.0461 7.2002H20.2461V8.4002H19.0461V7.2002Z" fill="#0F100F"/>
<path d="M17.8459 6H19.0459V7.2H17.8459V6Z" fill="#0F100F"/>
<path d="M17.8459 4.7998H19.0459V5.9998H17.8459V4.7998Z" fill="#0F100F"/>
<path d="M16.6462 3.6001H17.8462V4.8001H16.6462V3.6001Z" fill="#0F100F"/>
<path d="M15.446 2.3999H16.646V3.5999H15.446V2.3999Z" fill="#0F100F"/>
<path d="M14.2463 1.2002H15.4463V2.4002H14.2463V1.2002Z" fill="#0F100F"/>
<path d="M13.0461 1.2002H14.2461V2.4002H13.0461V1.2002Z" fill="#0F100F"/>
<path d="M11.8459 0H13.0459V1.2H11.8459V0Z" fill="#0F100F"/>
<path d="M10.6462 0H11.8462V1.2H10.6462V0Z" fill="#0F100F"/>
<path d="M9.446 0H10.646V1.2H9.446V0Z" fill="#0F100F"/>
<path d="M16.6462 15.6001H17.8462V16.8001H16.6462V15.6001Z" fill="#0F100F"/>
</svg>
