<svg width="21" height="24" viewBox="0 0 21 24" fill="none" xmlns="http://www.w3.org/2000/svg">
<path d="M12.0008 21.5996H10.8008V22.7996H12.0008V21.5996Z" fill="#FF691E"/>
<path d="M10.7996 22.7998H9.59961V23.9998H10.7996V22.7998Z" fill="#FF691E"/>
<path d="M9.60039 21.5996H8.40039V22.7996H9.60039V21.5996Z" fill="#FF691E"/>
<path d="M8.39922 20.4004H7.19922V21.6004H8.39922V20.4004Z" fill="#FF691E"/>
<path d="M7.2 19.2002H6V20.4002H7.2V19.2002Z" fill="#FF691E"/>
<path d="M6.00078 18H4.80078V19.2H6.00078V18Z" fill="#FF691E"/>
<path d="M4.79961 16.7998H3.59961V17.9998H4.79961V16.7998Z" fill="#FF691E"/>
<path d="M3.60039 14.4004H2.40039V15.6004H3.60039V14.4004Z" fill="#FF691E"/>
<path d="M2.39922 13.2002H1.19922V14.4002H2.39922V13.2002Z" fill="#FF691E"/>
<path d="M2.39922 12H1.19922V13.2H2.39922V12Z" fill="#FF691E"/>
<path d="M1.2 9.59961H0V10.7996H1.2V9.59961Z" fill="#FF691E"/>
<path d="M1.2 10.7998H0V11.9998H1.2V10.7998Z" fill="#FF691E"/>
<path d="M1.2 8.40039H0V9.60039H1.2V8.40039Z" fill="#FF691E"/>
<path d="M1.2 7.2002H0V8.4002H1.2V7.2002Z" fill="#FF691E"/>
<path d="M2.39922 6H1.19922V7.2H2.39922V6Z" fill="#FF691E"/>
<path d="M2.39922 4.7998H1.19922V5.9998H2.39922V4.7998Z" fill="#FF691E"/>
<path d="M3.60039 3.59961H2.40039V4.79961H3.60039V3.59961Z" fill="#FF691E"/>
<path d="M4.79961 2.40039H3.59961V3.60039H4.79961V2.40039Z" fill="#FF691E"/>
<path d="M6.00078 1.2002H4.80078V2.4002H6.00078V1.2002Z" fill="#FF691E"/>
<path d="M7.2 1.2002H6V2.4002H7.2V1.2002Z" fill="#FF691E"/>
<path d="M8.39922 0H7.19922V1.2H8.39922V0Z" fill="#FF691E"/>
<path d="M9.60039 0H8.40039V1.2H9.60039V0Z" fill="#FF691E"/>
<path d="M10.7996 0H9.59961V1.2H10.7996V0Z" fill="#FF691E"/>
<path d="M3.60039 15.5996H2.40039V16.7996H3.60039V15.5996Z" fill="#FF691E"/>
<path d="M10.7996 6H9.59961V7.2H10.7996V6Z" fill="#FF691E"/>
<path d="M10.7996 13.2002H9.59961V14.4002H10.7996V13.2002Z" fill="#FF691E"/>
<path d="M13.1992 9.5998L13.1992 10.7998L14.3992 10.7998L14.3992 9.5998L13.1992 9.5998Z" fill="#FF691E"/>
<path d="M6 9.5998L6 10.7998L7.2 10.7998L7.2 9.5998L6 9.5998Z" fill="#FF691E"/>
<path d="M9.60039 6H8.40039V7.2H9.60039V6Z" fill="#FF691E"/>
<path d="M9.60039 13.2002H8.40039V14.4002H9.60039V13.2002Z" fill="#FF691E"/>
<path d="M13.1992 10.8L13.1992 12L14.3992 12L14.3992 10.8L13.1992 10.8Z" fill="#FF691E"/>
<path d="M6 10.8L6 12L7.2 12L7.2 10.8L6 10.8Z" fill="#FF691E"/>
<path d="M12.0008 6H10.8008V7.2H12.0008V6Z" fill="#FF691E"/>
<path d="M12.0008 13.2002H10.8008V14.4002H12.0008V13.2002Z" fill="#FF691E"/>
<path d="M13.1992 8.39961L13.1992 9.59961L14.3992 9.59961L14.3992 8.39961L13.1992 8.39961Z" fill="#FF691E"/>
<path d="M6 8.39961L6 9.59961L7.2 9.59961L7.2 8.39961L6 8.39961Z" fill="#FF691E"/>
<path d="M7.19922 12.0002L7.19922 13.2002L8.39922 13.2002L8.39922 12.0002L7.19922 12.0002Z" fill="#FF691E"/>
<path d="M12 12.0002L12 13.2002L13.2 13.2002L13.2 12.0002L12 12.0002Z" fill="#FF691E"/>
<path d="M12 7.20039L12 8.40039L13.2 8.40039L13.2 7.20039L12 7.20039Z" fill="#FF691E"/>
<path d="M7.19922 7.20039L7.19922 8.40039L8.39922 8.40039L8.39922 7.20039L7.19922 7.20039Z" fill="#FF691E"/>
<path d="M9.44648 22.7998H10.6465V23.9998H9.44648V22.7998Z" fill="#FF691E"/>
<path d="M10.6457 21.5996H11.8457V22.7996H10.6457V21.5996Z" fill="#FF691E"/>
<path d="M11.8469 20.4004H13.0469V21.6004H11.8469V20.4004Z" fill="#FF691E"/>
<path d="M13.0461 19.2002H14.2461V20.4002H13.0461V19.2002Z" fill="#FF691E"/>
<path d="M14.2453 18H15.4453V19.2H14.2453V18Z" fill="#FF691E"/>
<path d="M15.4465 16.7998H16.6465V17.9998H15.4465V16.7998Z" fill="#FF691E"/>
<path d="M16.6457 14.4004H17.8457V15.6004H16.6457V14.4004Z" fill="#FF691E"/>
<path d="M17.8469 13.2002H19.0469V14.4002H17.8469V13.2002Z" fill="#FF691E"/>
<path d="M17.8469 12H19.0469V13.2H17.8469V12Z" fill="#FF691E"/>
<path d="M19.0461 9.59961H20.2461V10.7996H19.0461V9.59961Z" fill="#FF691E"/>
<path d="M19.0461 10.7998H20.2461V11.9998H19.0461V10.7998Z" fill="#FF691E"/>
<path d="M19.0461 8.40039H20.2461V9.60039H19.0461V8.40039Z" fill="#FF691E"/>
<path d="M19.0461 7.2002H20.2461V8.4002H19.0461V7.2002Z" fill="#FF691E"/>
<path d="M17.8469 6H19.0469V7.2H17.8469V6Z" fill="#FF691E"/>
<path d="M17.8469 4.7998H19.0469V5.9998H17.8469V4.7998Z" fill="#FF691E"/>
<path d="M16.6457 3.59961H17.8457V4.79961H16.6457V3.59961Z" fill="#FF691E"/>
<path d="M15.4465 2.40039H16.6465V3.60039H15.4465V2.40039Z" fill="#FF691E"/>
<path d="M14.2453 1.2002H15.4453V2.4002H14.2453V1.2002Z" fill="#FF691E"/>
<path d="M13.0461 1.2002H14.2461V2.4002H13.0461V1.2002Z" fill="#FF691E"/>
<path d="M11.8469 0H13.0469V1.2H11.8469V0Z" fill="#FF691E"/>
<path d="M10.6457 0H11.8457V1.2H10.6457V0Z" fill="#FF691E"/>
<path d="M9.44648 0H10.6465V1.2H9.44648V0Z" fill="#FF691E"/>
<path d="M16.6457 15.5996H17.8457V16.7996H16.6457V15.5996Z" fill="#FF691E"/>
</svg>
