<svg width="23" height="22" viewBox="0 0 23 22" fill="none" xmlns="http://www.w3.org/2000/svg">
<path d="M21.8887 7.78967L21.8887 6.67676L23.0016 6.67676L23.0016 7.78967L21.8887 7.78967Z" fill="white"/>
<path d="M21.8887 7.04748L21.8887 5.93457L23.0016 5.93457L23.0016 7.04748L21.8887 7.04748Z" fill="white"/>
<path d="M21.8887 8.90295L21.8887 7.79004L23.0016 7.79004L23.0016 8.90295L21.8887 8.90295Z" fill="white"/>
<path d="M21.8887 10.0153L21.8887 8.90234L23.0016 8.90234L23.0016 10.0153L21.8887 10.0153Z" fill="white"/>
<path d="M21.8887 12.2408L21.8887 11.1279L23.0016 11.1279L23.0016 12.2408L21.8887 12.2408Z" fill="white"/>
<path d="M21.8887 10.0153L21.8887 8.90234L23.0016 8.90234L23.0016 10.0153L21.8887 10.0153Z" fill="white"/>
<path d="M21.8887 11.1285L21.8887 10.0156L23.0016 10.0156L23.0016 11.1285L21.8887 11.1285Z" fill="white"/>
<path d="M21.8887 14.4674L21.8887 13.3545L23.0016 13.3545L23.0016 14.4674L21.8887 14.4674Z" fill="white"/>
<path d="M21.8887 13.3541L21.8887 12.2412L23.0016 12.2412L23.0016 13.3541L21.8887 13.3541Z" fill="white"/>
<path d="M21.8887 16.693L21.8887 15.5801L23.0016 15.5801L23.0016 16.693L21.8887 16.693Z" fill="white"/>
<path d="M21.8887 15.5797L21.8887 14.4668L23.0016 14.4668L23.0016 15.5797L21.8887 15.5797Z" fill="white"/>
<path d="M21.8887 18.9186L21.8887 17.8057L23.0016 17.8057L23.0016 18.9186L21.8887 18.9186Z" fill="white"/>
<path d="M20.9609 20.0319L20.9609 18.9189L22.0738 18.9189L22.0738 20.0319L20.9609 20.0319Z" fill="white"/>
<path d="M19.8477 21.1442L19.8477 20.0312L20.9606 20.0313L20.9606 21.1442L19.8477 21.1442Z" fill="white"/>
<path d="M18.7344 21.1442L18.7344 20.0312L19.8473 20.0313L19.8473 21.1442L18.7344 21.1442Z" fill="white"/>
<path d="M17.623 21.1442L17.623 20.0312L18.736 20.0313L18.736 21.1442L17.623 21.1442Z" fill="white"/>
<path d="M16.8809 21.1442L16.8809 20.0312L17.9938 20.0313L17.9938 21.1442L16.8809 21.1442Z" fill="white"/>
<path d="M15.3965 21.1442L15.3965 20.0312L16.8804 20.0313L16.8804 21.1442L15.3965 21.1442Z" fill="white"/>
<path d="M21.8887 17.8063L21.8887 16.6934L23.0016 16.6934L23.0016 17.8063L21.8887 17.8063Z" fill="white"/>
<path d="M1.11328 7.78967L1.11328 6.67676L0.00036931 6.67676L0.000369262 7.78967L1.11328 7.78967Z" fill="white"/>
<path d="M1.11328 7.04748L1.11328 5.93457L0.00036931 5.93457L0.000369262 7.04748L1.11328 7.04748Z" fill="white"/>
<path d="M10.9453 12.2416L10.9453 13.3545L12.0582 13.3545L12.0582 12.2416L10.9453 12.2416Z" fill="white"/>
<path d="M12.0566 1.11291L12.0566 0L10.9437 -4.86469e-08L10.9437 1.11291L12.0566 1.11291Z" fill="white"/>
<path d="M12.0566 3.3385L12.0566 2.22559L10.9437 2.22559L10.9437 3.3385L12.0566 3.3385Z" fill="white"/>
<path d="M12.0566 4.45178L12.0566 3.33887L10.9437 3.33887L10.9437 4.45178L12.0566 4.45178Z" fill="white"/>
<path d="M12.0566 5.56408L12.0566 4.45117L10.9437 4.45117L10.9437 5.56408L12.0566 5.56408Z" fill="white"/>
<path d="M12.0566 6.67737L12.0566 5.56445L10.9437 5.56445L10.9437 6.67737L12.0566 6.67737Z" fill="white"/>
<path d="M12.0566 7.78967L12.0566 6.67676L10.9437 6.67676L10.9437 7.78967L12.0566 7.78967Z" fill="white"/>
<path d="M12.0566 8.90295L12.0566 7.79004L10.9437 7.79004L10.9437 8.90295L12.0566 8.90295Z" fill="white"/>
<path d="M12.0566 10.0162L12.0566 8.90332L10.9437 8.90332L10.9437 10.0162L12.0566 10.0162Z" fill="white"/>
<path d="M12.0566 11.1285L12.0566 10.0156L10.9437 10.0156L10.9437 11.1285L12.0566 11.1285Z" fill="white"/>
<path d="M12.0566 12.2418L12.0566 11.1289L10.9437 11.1289L10.9437 12.2418L12.0566 12.2418Z" fill="white"/>
<path d="M10.9434 1.11267L10.9434 2.22559L12.0563 2.22559L12.0563 1.11267L10.9434 1.11267Z" fill="white"/>
<path d="M12.0566 14.4674L12.0566 13.3545L10.9437 13.3545L10.9437 14.4674L12.0566 14.4674Z" fill="white"/>
<path d="M12.0566 13.358L12.0566 12.2451L10.9437 12.2451L10.9437 13.358L12.0566 13.358Z" fill="white"/>
<path d="M13.1699 13.3551L13.1699 12.2422L12.057 12.2422L12.057 13.3551L13.1699 13.3551Z" fill="white"/>
<path d="M14.2812 12.2418L14.2812 11.1289L13.1683 11.1289L13.1683 12.2418L14.2812 12.2418Z" fill="white"/>
<path d="M15.3945 11.1285L15.3945 10.0156L14.2816 10.0156L14.2816 11.1285L15.3945 11.1285Z" fill="white"/>
<path d="M16.5078 10.0162L16.5078 8.90332L15.3949 8.90332L15.3949 10.0162L16.5078 10.0162Z" fill="white"/>
<path d="M7.60547 8.90271L7.60547 10.0156L6.49256 10.0156L6.49256 8.90271L7.60547 8.90271Z" fill="white"/>
<path d="M8.7168 10.016L8.7168 11.1289L7.60388 11.1289L7.60388 10.016L8.7168 10.016Z" fill="white"/>
<path d="M9.83008 11.1293L9.83008 12.2422L8.71717 12.2422L8.71717 11.1293L9.83008 11.1293Z" fill="white"/>
<path d="M10.9434 12.2416L10.9434 13.3545L9.83045 13.3545L9.83045 12.2416L10.9434 12.2416Z" fill="white"/>
<path d="M1.11328 8.90295L1.11328 7.79004L0.00036931 7.79004L0.000369262 8.90295L1.11328 8.90295Z" fill="white"/>
<path d="M1.11328 10.0153L1.11328 8.90234L0.00036931 8.90234L0.000369262 10.0153L1.11328 10.0153Z" fill="white"/>
<path d="M1.11328 12.2408L1.11328 11.1279L0.00036931 11.1279L0.000369262 12.2408L1.11328 12.2408Z" fill="white"/>
<path d="M1.11328 10.0153L1.11328 8.90234L0.00036931 8.90234L0.000369262 10.0153L1.11328 10.0153Z" fill="white"/>
<path d="M1.11328 11.1285L1.11328 10.0156L0.00036931 10.0156L0.000369262 11.1285L1.11328 11.1285Z" fill="white"/>
<path d="M1.11328 14.4674L1.11328 13.3545L0.00036931 13.3545L0.000369262 14.4674L1.11328 14.4674Z" fill="white"/>
<path d="M1.11328 13.3541L1.11328 12.2412L0.00036931 12.2412L0.000369262 13.3541L1.11328 13.3541Z" fill="white"/>
<path d="M1.11328 16.693L1.11328 15.5801L0.00036931 15.5801L0.000369262 16.693L1.11328 16.693Z" fill="white"/>
<path d="M1.11328 15.5797L1.11328 14.4668L0.00036931 14.4668L0.000369262 15.5797L1.11328 15.5797Z" fill="white"/>
<path d="M1.11328 18.9186L1.11328 17.8057L0.00036931 17.8057L0.000369262 18.9186L1.11328 18.9186Z" fill="white"/>
<path d="M2.22656 20.0319L2.22656 18.9189L1.11365 18.9189L1.11365 20.0319L2.22656 20.0319Z" fill="white"/>
<path d="M1.11328 17.8063L1.11328 16.6934L0.00036931 16.6934L0.000369262 17.8063L1.11328 17.8063Z" fill="white"/>
<path d="M14.2836 20.0312L15.3965 20.0312L15.3965 21.1442L14.2836 21.1442L14.2836 20.0312Z" fill="white"/>
<path d="M13.3558 20.0312L14.4688 20.0312L14.4687 21.1442L13.3558 21.1442L13.3558 20.0312Z" fill="white"/>
<path d="M12.2426 20.0312L13.3555 20.0312L13.3555 21.1442L12.2426 21.1442L12.2426 20.0312Z" fill="white"/>
<path d="M11.1293 20.0312L12.2422 20.0312L12.2422 21.1442L11.1293 21.1442L11.1293 20.0312Z" fill="white"/>
<path d="M8.90467 20.0312L10.0176 20.0312L10.0176 21.1442L8.90467 21.1442L8.90467 20.0312Z" fill="white"/>
<path d="M11.1293 20.0312L12.2422 20.0312L12.2422 21.1442L11.1293 21.1442L11.1293 20.0312Z" fill="white"/>
<path d="M10.0179 20.0312L11.1309 20.0312L11.1309 21.1442L10.0179 21.1442L10.0179 20.0312Z" fill="white"/>
<path d="M6.6781 20.0312L7.79102 20.0312L7.79102 21.1442L6.6781 21.1442L6.6781 20.0312Z" fill="white"/>
<path d="M7.79138 20.0312L8.9043 20.0312L8.9043 21.1442L7.79138 21.1442L7.79138 20.0312Z" fill="white"/>
<path d="M4.45349 20.0312L5.56641 20.0312L5.56641 21.1442L4.45349 21.1442L4.45349 20.0312Z" fill="white"/>
<path d="M5.56482 20.0312L6.67773 20.0312L6.67773 21.1442L5.56482 21.1442L5.56482 20.0312Z" fill="white"/>
<path d="M2.22693 20.0312L3.33984 20.0312L3.33984 21.1442L2.22693 21.1442L2.22693 20.0312Z" fill="white"/>
<path d="M3.34021 20.0312L4.45312 20.0312L4.45312 21.1442L3.34021 21.1442L3.34021 20.0312Z" fill="white"/>
</svg>
