<svg width="24" height="29" viewBox="0 0 24 29" fill="none" xmlns="http://www.w3.org/2000/svg">
<path d="M0.00123882 24.7979H1.20117V25.9978H0.00123882V24.7979Z" fill="#FF691E"/>
<path d="M7.20046 24.7979H8.40039V25.9978H7.20046V24.7979Z" fill="#FF691E"/>
<path d="M14.3997 24.7979H15.5996V25.9978H14.3997V24.7979Z" fill="#FF691E"/>
<path d="M14.3997 27.5977H15.5996V28.7976H14.3997V27.5977Z" fill="#FF691E"/>
<path d="M3.60085 24.7979H4.80078V25.9978H3.60085V24.7979Z" fill="#FF691E"/>
<path d="M10.8001 24.7979H12V25.9978H10.8001V24.7979Z" fill="#FF691E"/>
<path d="M10.8001 27.5977H12V28.7976H10.8001V27.5977Z" fill="#FF691E"/>
<path d="M17.9993 24.7979H19.1992V25.9978H17.9993V24.7979Z" fill="#FF691E"/>
<path d="M1.20046 24.7979H2.40039V25.9978H1.20046V24.7979Z" fill="#FF691E"/>
<path d="M8.39968 24.7979H9.59961V25.9978H8.39968V24.7979Z" fill="#FF691E"/>
<path d="M8.39968 27.5977H9.59961V28.7976H8.39968V27.5977Z" fill="#FF691E"/>
<path d="M15.5989 24.7979H16.7988V25.9978H15.5989V24.7979Z" fill="#FF691E"/>
<path d="M4.80007 24.7979H6V25.9978H4.80007V24.7979Z" fill="#FF691E"/>
<path d="M11.9993 24.7979H13.1992V25.9978H11.9993V24.7979Z" fill="#FF691E"/>
<path d="M11.9993 27.5977H13.1992V28.7976H11.9993V27.5977Z" fill="#FF691E"/>
<path d="M19.1985 24.7979H20.3984V25.9978H19.1985V24.7979Z" fill="#FF691E"/>
<path d="M2.39968 24.7979H3.59961V25.9978H2.39968V24.7979Z" fill="#FF691E"/>
<path d="M2.39968 17.5986H3.59961V18.7986H2.39968V17.5986Z" fill="#FF691E"/>
<path d="M20.3977 17.5986H21.5977V18.7986H20.3977V17.5986Z" fill="#FF691E"/>
<path d="M2.39968 21.1982H3.59961V22.3982H2.39968V21.1982Z" fill="#FF691E"/>
<path d="M20.3977 21.1982H21.5977V22.3982H20.3977V21.1982Z" fill="#FF691E"/>
<path d="M2.39968 13.998H3.59961V15.198H2.39968V13.998Z" fill="#FF691E"/>
<path d="M20.3977 13.998H21.5977V15.198H20.3977V13.998Z" fill="#FF691E"/>
<path d="M2.39968 23.5986H3.59961V24.7986H2.39968V23.5986Z" fill="#FF691E"/>
<path d="M20.3977 23.5986H21.5977V24.7986H20.3977V23.5986Z" fill="#FF691E"/>
<path d="M2.39968 16.3994H3.59961V17.5993H2.39968V16.3994Z" fill="#FF691E"/>
<path d="M20.3977 16.3994H21.5977V17.5993H20.3977V16.3994Z" fill="#FF691E"/>
<path d="M2.39968 19.999H3.59961V21.199H2.39968V19.999Z" fill="#FF691E"/>
<path d="M20.3977 19.999H21.5977V21.199H20.3977V19.999Z" fill="#FF691E"/>
<path d="M2.39968 12.7988H3.59961V13.9988H2.39968V12.7988Z" fill="#FF691E"/>
<path d="M20.3977 12.7988H21.5977V13.9988H20.3977V12.7988Z" fill="#FF691E"/>
<path d="M2.39968 22.3984H3.59961V23.5984H2.39968V22.3984Z" fill="#FF691E"/>
<path d="M20.3977 22.3984H21.5977V23.5984H20.3977V22.3984Z" fill="#FF691E"/>
<path d="M2.39968 15.1982H3.59961V16.3982H2.39968V15.1982Z" fill="#FF691E"/>
<path d="M20.3977 15.1982H21.5977V16.3982H20.3977V15.1982Z" fill="#FF691E"/>
<path d="M2.39968 18.7988H3.59961V19.9988H2.39968V18.7988Z" fill="#FF691E"/>
<path d="M20.3977 18.7988H21.5977V19.9988H20.3977V18.7988Z" fill="#FF691E"/>
<path d="M2.39968 11.5986H3.59961V12.7986H2.39968V11.5986Z" fill="#FF691E"/>
<path d="M3.60085 10.3984H4.80078V11.5984H3.60085V10.3984Z" fill="#FF691E"/>
<path d="M19.1985 10.3984H20.3984V11.5984H19.1985V10.3984Z" fill="#FF691E"/>
<path d="M3.60085 9.19922H4.80078V10.3992H3.60085V9.19922Z" fill="#FF691E"/>
<path d="M19.1985 9.19922H20.3984V10.3992H19.1985V9.19922Z" fill="#FF691E"/>
<path d="M4.80007 7.99902H6V9.19896H4.80007V7.99902Z" fill="#FF691E"/>
<path d="M17.9993 7.99902H19.1992V9.19896H17.9993V7.99902Z" fill="#FF691E"/>
<path d="M5.99929 6.79883H7.19922V7.99876H5.99929V6.79883Z" fill="#FF691E"/>
<path d="M16.7981 6.79883H17.998V7.99876H16.7981V6.79883Z" fill="#FF691E"/>
<path d="M7.20046 5.59961H8.40039V6.79954H7.20046V5.59961Z" fill="#FF691E"/>
<path d="M14.3997 5.59961H15.5996V6.79954H14.3997V5.59961Z" fill="#FF691E"/>
<path d="M8.39968 5.59961H9.59961V6.79954H8.39968V5.59961Z" fill="#FF691E"/>
<path d="M15.5989 5.59961H16.7988V6.79954H15.5989V5.59961Z" fill="#FF691E"/>
<path d="M9.5989 4.39941H10.7988V5.59935H9.5989V4.39941Z" fill="#FF691E"/>
<path d="M10.8001 4.39941H12V5.59935H10.8001V4.39941Z" fill="#FF691E"/>
<path d="M11.9993 4.39941H13.1992V5.59935H11.9993V4.39941Z" fill="#FF691E"/>
<path d="M11.1985 2.39941H12.3984V3.59935H11.1985V2.39941Z" fill="#FF691E"/>
<path d="M12.3997 1.2002H13.5996V2.40013H12.3997V1.2002Z" fill="#FF691E"/>
<path d="M9.99929 1.2002H11.1992V2.40013H9.99929V1.2002Z" fill="#FF691E"/>
<path d="M11.1985 0H12.3984V1.19993H11.1985V0Z" fill="#FF691E"/>
<path d="M13.1985 4.39941H14.3984V5.59935H13.1985V4.39941Z" fill="#FF691E"/>
<path d="M20.3977 11.5986H21.5977V12.7986H20.3977V11.5986Z" fill="#FF691E"/>
<path d="M9.5989 24.7979H10.7988V25.9978H9.5989V24.7979Z" fill="#FF691E"/>
<path d="M9.5989 27.5977H10.7988V28.7976H9.5989V27.5977Z" fill="#FF691E"/>
<path d="M16.7981 24.7979H17.998V25.9978H16.7981V24.7979Z" fill="#FF691E"/>
<path d="M5.99929 24.7979H7.19922V25.9978H5.99929V24.7979Z" fill="#FF691E"/>
<path d="M13.1985 24.7979H14.3984V25.9978H13.1985V24.7979Z" fill="#FF691E"/>
<path d="M13.1985 27.5977H14.3984V28.7976H13.1985V27.5977Z" fill="#FF691E"/>
<path d="M20.3977 24.7979H21.5977V25.9978H20.3977V24.7979Z" fill="#FF691E"/>
<path d="M21.5989 24.7979H22.7988V25.9978H21.5989V24.7979Z" fill="#FF691E"/>
<path d="M22.7981 24.7979H23.998V25.9978H22.7981V24.7979Z" fill="#FF691E"/>
</svg>
