<svg width="22" height="22" viewBox="0 0 22 22" fill="none" xmlns="http://www.w3.org/2000/svg">
<path d="M4.52995e-06 16.1379H1.07587V17.2138H4.52995e-06V16.1379Z" fill="white"/>
<path d="M4.52995e-06 17.214H1.07587V18.2899H4.52995e-06V17.214Z" fill="white"/>
<path d="M4.52995e-06 18.2896H1.07587V19.3654H4.52995e-06V18.2896Z" fill="white"/>
<path d="M4.52995e-06 19.3656H1.07587V20.4415H4.52995e-06V19.3656Z" fill="white"/>
<path d="M3.2276 20.4412H4.30347V21.517H3.2276V20.4412Z" fill="white"/>
<path d="M2.15174 20.4412H3.2276V21.517H2.15174V20.4412Z" fill="white"/>
<path d="M1.07587 20.4412H2.15173V21.517H1.07587V20.4412Z" fill="white"/>
<path d="M4.52995e-06 20.4412H1.07587V21.517H4.52995e-06V20.4412Z" fill="white"/>
<path d="M4.30347 20.4412H5.37933V21.517H4.30347V20.4412Z" fill="white"/>
<path d="M12.9103 11.8346H13.9862V12.9105H12.9103V11.8346Z" fill="white"/>
<path d="M1.07587 15.0619H2.15173V16.1378H1.07587V15.0619Z" fill="white"/>
<path d="M5.37931 19.3656H6.45517V20.4415H5.37931V19.3656Z" fill="white"/>
<path d="M13.9862 10.7585H15.0621V11.8344H13.9862V10.7585Z" fill="white"/>
<path d="M2.15174 13.9862H3.2276V15.0621H2.15174V13.9862Z" fill="white"/>
<path d="M8.60691 7.53088H9.68277V8.60675H8.60691V7.53088Z" fill="white"/>
<path d="M6.45517 18.2896H7.53104V19.3654H6.45517V18.2896Z" fill="white"/>
<path d="M15.0621 9.6825H16.1379V10.7584H15.0621V9.6825Z" fill="white"/>
<path d="M7.53104 8.60693H8.6069V9.6828H7.53104V8.60693Z" fill="white"/>
<path d="M13.9862 2.15161H15.0621V3.22747H13.9862V2.15161Z" fill="white"/>
<path d="M15.0621 1.07605H16.1379V2.15191H15.0621V1.07605Z" fill="white"/>
<path d="M16.1379 0H17.2138V1.07586H16.1379V0Z" fill="white"/>
<path d="M17.2138 0H18.2897V1.07586H17.2138V0Z" fill="white"/>
<path d="M18.2897 1.07605H19.3655V2.15191H18.2897V1.07605Z" fill="white"/>
<path d="M19.3655 2.15161H20.4414V3.22747H19.3655V2.15161Z" fill="white"/>
<path d="M20.4414 3.22766H21.5172V4.30352H20.4414V3.22766Z" fill="white"/>
<path d="M11.8345 12.9103H12.9103V13.9861H11.8345V12.9103Z" fill="white"/>
<path d="M20.4414 4.30322H21.5172V5.37908H20.4414V4.30322Z" fill="white"/>
<path d="M6.45517 9.6825H7.53104V10.7584H6.45517V9.6825Z" fill="white"/>
<path d="M12.9103 3.22766H13.9862V4.30352H12.9103V3.22766Z" fill="white"/>
<path d="M15.0621 3.22766H16.1379V4.30352H15.0621V3.22766Z" fill="white"/>
<path d="M16.1379 4.30322H17.2138V5.37908H16.1379V4.30322Z" fill="white"/>
<path d="M17.2138 5.37927H18.2897V6.45513H17.2138V5.37927Z" fill="white"/>
<path d="M10.7586 13.9862H11.8345V15.0621H10.7586V13.9862Z" fill="white"/>
<path d="M19.3655 5.37927H20.4414V6.45513H19.3655V5.37927Z" fill="white"/>
<path d="M5.37931 10.7585H6.45517V11.8344H5.37931V10.7585Z" fill="white"/>
<path d="M11.8345 4.30322H12.9103V5.37908H11.8345V4.30322Z" fill="white"/>
<path d="M9.68277 15.0619H10.7586V16.1378H9.68277V15.0619Z" fill="white"/>
<path d="M18.2897 6.45532H19.3655V7.53118H18.2897V6.45532Z" fill="white"/>
<path d="M4.30347 11.8346H5.37933V12.9105H4.30347V11.8346Z" fill="white"/>
<path d="M10.7586 5.37927H11.8345V6.45513H10.7586V5.37927Z" fill="white"/>
<path d="M8.60691 16.1379H9.68277V17.2138H8.60691V16.1379Z" fill="white"/>
<path d="M17.2138 7.53088H18.2897V8.60675H17.2138V7.53088Z" fill="white"/>
<path d="M3.2276 12.9103H4.30347V13.9861H3.2276V12.9103Z" fill="white"/>
<path d="M9.68277 6.45532H10.7586V7.53118H9.68277V6.45532Z" fill="white"/>
<path d="M7.53104 17.214H8.6069V18.2899H7.53104V17.214Z" fill="white"/>
<path d="M16.1379 8.60693H17.2138V9.6828H16.1379V8.60693Z" fill="white"/>
</svg>
