<svg width="24" height="24" viewBox="0 0 24 24" fill="none" xmlns="http://www.w3.org/2000/svg">
<path d="M-0.000800371 18H1.19922V19.2H-0.000800371V18Z" fill="white"/>
<path d="M-0.000800371 19.2012H1.19922V20.4012H-0.000800371V19.2012Z" fill="white"/>
<path d="M-0.000800371 20.4004H1.19922V21.6004H-0.000800371V20.4004Z" fill="white"/>
<path d="M-0.000800371 21.5996H1.19922V22.7996H-0.000800371V21.5996Z" fill="white"/>
<path d="M3.60076 22.7998H4.80078V23.9998H3.60076V22.7998Z" fill="white"/>
<path d="M2.40154 22.7998H3.60156V23.9998H2.40154V22.7998Z" fill="white"/>
<path d="M1.20037 22.7998H2.40039V23.9998H1.20037V22.7998Z" fill="white"/>
<path d="M-0.000800371 22.7998H1.19922V23.9998H-0.000800371V22.7998Z" fill="white"/>
<path d="M4.80193 22.7998H6.00195V23.9998H4.80193V22.7998Z" fill="white"/>
<path d="M14.3996 13.2002H15.5996V14.4002H14.3996V13.2002Z" fill="white"/>
<path d="M1.20037 16.7998H2.40039V17.9998H1.20037V16.7998Z" fill="white"/>
<path d="M6.00311 21.5996H7.20312V22.7996H6.00311V21.5996Z" fill="white"/>
<path d="M15.5988 12H16.7988V13.2H15.5988V12Z" fill="white"/>
<path d="M2.40154 15.6006H3.60156V16.8006H2.40154V15.6006Z" fill="white"/>
<path d="M9.59881 8.40039H10.7988V9.60041H9.59881V8.40039Z" fill="white"/>
<path d="M7.19842 20.4004H8.39844V21.6004H7.19842V20.4004Z" fill="white"/>
<path d="M16.8 10.7998H18V11.9998H16.8V10.7998Z" fill="white"/>
<path d="M8.39959 9.59961H9.59961V10.7996H8.39959V9.59961Z" fill="white"/>
<path d="M15.5988 2.39941H16.7988V3.59943H15.5988V2.39941Z" fill="white"/>
<path d="M16.8 1.2002H18V2.40021H16.8V1.2002Z" fill="white"/>
<path d="M18.0012 0H19.2012V1.20002H18.0012V0Z" fill="white"/>
<path d="M19.2004 0H20.4004V1.20002H19.2004V0Z" fill="white"/>
<path d="M20.4015 1.2002H21.6016V2.40021H20.4015V1.2002Z" fill="white"/>
<path d="M21.6008 2.39941H22.8008V3.59943H21.6008V2.39941Z" fill="white"/>
<path d="M22.8 3.60059H24V4.80061H22.8V3.60059Z" fill="white"/>
<path d="M13.2004 14.4004H14.4004V15.6004H13.2004V14.4004Z" fill="white"/>
<path d="M22.8 4.7998H24V5.99982H22.8V4.7998Z" fill="white"/>
<path d="M7.19842 10.7998H8.39844V11.9998H7.19842V10.7998Z" fill="white"/>
<path d="M14.3996 3.60059H15.5996V4.80061H14.3996V3.60059Z" fill="white"/>
<path d="M16.8 3.60059H18V4.80061H16.8V3.60059Z" fill="white"/>
<path d="M18.0012 4.7998H19.2012V5.99982H18.0012V4.7998Z" fill="white"/>
<path d="M19.2004 6H20.4004V7.20002H19.2004V6Z" fill="white"/>
<path d="M12.0012 15.6006H13.2012V16.8006H12.0012V15.6006Z" fill="white"/>
<path d="M21.6008 6H22.8008V7.20002H21.6008V6Z" fill="white"/>
<path d="M6.00311 12H7.20312V13.2H6.00311V12Z" fill="white"/>
<path d="M13.2004 4.7998H14.4004V5.99982H13.2004V4.7998Z" fill="white"/>
<path d="M10.8 16.7998H12V17.9998H10.8V16.7998Z" fill="white"/>
<path d="M20.4015 7.19922H21.6016V8.39924H20.4015V7.19922Z" fill="white"/>
<path d="M4.80193 13.2002H6.00195V14.4002H4.80193V13.2002Z" fill="white"/>
<path d="M12.0012 6H13.2012V7.20002H12.0012V6Z" fill="white"/>
<path d="M9.59881 18H10.7988V19.2H9.59881V18Z" fill="white"/>
<path d="M19.2004 8.40039H20.4004V9.60041H19.2004V8.40039Z" fill="white"/>
<path d="M3.60076 14.4004H4.80078V15.6004H3.60076V14.4004Z" fill="white"/>
<path d="M10.8 7.19922H12V8.39924H10.8V7.19922Z" fill="white"/>
<path d="M8.39959 19.2012H9.59961V20.4012H8.39959V19.2012Z" fill="white"/>
<path d="M18.0012 9.59961H19.2012V10.7996H18.0012V9.59961Z" fill="white"/>
</svg>
