<svg width="24" height="19" viewBox="0 0 24 19" fill="none" xmlns="http://www.w3.org/2000/svg">
<path d="M0.000415921 15.9648H1.22852V17.1929H0.000415921V15.9648Z" fill="#00B569"/>
<path d="M2.45549 17.1924H3.68359V18.4205H2.45549V17.1924Z" fill="#00B569"/>
<path d="M2.45549 2.45605H3.68359V3.68415H2.45549V2.45605Z" fill="#00B569"/>
<path d="M4.91253 0H6.14062V1.2281H4.91253V0Z" fill="#00B569"/>
<path d="M3.68401 1.22754H4.91211V2.45564H3.68401V1.22754Z" fill="#00B569"/>
<path d="M4.91253 17.1924H6.14062V18.4205H4.91253V17.1924Z" fill="#00B569"/>
<path d="M4.91253 2.45605H6.14062V3.68415H4.91253V2.45605Z" fill="#00B569"/>
<path d="M7.3676 0H8.5957V1.2281H7.3676V0Z" fill="#00B569"/>
<path d="M7.3676 17.1924H8.5957V18.4205H7.3676V17.1924Z" fill="#00B569"/>
<path d="M7.3676 2.45605H8.5957V3.68415H7.3676V2.45605Z" fill="#00B569"/>
<path d="M9.82268 0H11.0508V1.2281H9.82268V0Z" fill="#00B569"/>
<path d="M9.82268 17.1924H11.0508V18.4205H9.82268V17.1924Z" fill="#00B569"/>
<path d="M9.82268 2.45605H11.0508V3.68415H9.82268V2.45605Z" fill="#00B569"/>
<path d="M12.2817 0H13.5098V1.2281H12.2817V0Z" fill="#00B569"/>
<path d="M12.2817 17.1924H13.5098V18.4205H12.2817V17.1924Z" fill="#00B569"/>
<path d="M12.2817 2.45605H13.5098V3.68415H12.2817V2.45605Z" fill="#00B569"/>
<path d="M14.7387 0H15.9668V1.2281H14.7387V0Z" fill="#00B569"/>
<path d="M14.7387 17.1924H15.9668V18.4205H14.7387V17.1924Z" fill="#00B569"/>
<path d="M14.7387 2.45605H15.9668V3.68415H14.7387V2.45605Z" fill="#00B569"/>
<path d="M17.1938 0H18.4219V1.2281H17.1938V0Z" fill="#00B569"/>
<path d="M18.4203 17.1924H19.6484V18.4205H18.4203V17.1924Z" fill="#00B569"/>
<path d="M18.4203 2.45605H19.6484V3.68415H18.4203V2.45605Z" fill="#00B569"/>
<path d="M20.8774 0H22.1055V1.2281H20.8774V0Z" fill="#00B569"/>
<path d="M1.22698 17.1924H2.45508V18.4205H1.22698V17.1924Z" fill="#00B569"/>
<path d="M1.22698 2.45605H2.45508V3.68415H1.22698V2.45605Z" fill="#00B569"/>
<path d="M3.68401 17.1924H4.91211V18.4205H3.68401V17.1924Z" fill="#00B569"/>
<path d="M3.68401 2.45605H4.91211V3.68415H3.68401V2.45605Z" fill="#00B569"/>
<path d="M6.13909 0H7.36719V1.2281H6.13909V0Z" fill="#00B569"/>
<path d="M6.13909 17.1924H7.36719V18.4205H6.13909V17.1924Z" fill="#00B569"/>
<path d="M6.13909 2.45605H7.36719V3.68415H6.13909V2.45605Z" fill="#00B569"/>
<path d="M8.59612 0H9.82422V1.2281H8.59612V0Z" fill="#00B569"/>
<path d="M8.59612 17.1924H9.82422V18.4205H8.59612V17.1924Z" fill="#00B569"/>
<path d="M8.59612 2.45605H9.82422V3.68415H8.59612V2.45605Z" fill="#00B569"/>
<path d="M11.0532 0H12.2812V1.2281H11.0532V0Z" fill="#00B569"/>
<path d="M11.0532 17.1924H12.2812V18.4205H11.0532V17.1924Z" fill="#00B569"/>
<path d="M11.0532 2.45605H12.2812V3.68415H11.0532V2.45605Z" fill="#00B569"/>
<path d="M13.5102 0H14.7383V1.2281H13.5102V0Z" fill="#00B569"/>
<path d="M5.36819e-08 14.7369L0 13.5088L1.2281 13.5088L1.2281 14.7369L5.36819e-08 14.7369Z" fill="#00B569"/>
<path d="M19.6484 14.7369L19.6484 13.5088L20.8765 13.5088L20.8765 14.7369L19.6484 14.7369Z" fill="#00B569"/>
<path d="M22.1055 12.2808L22.1055 11.0527L23.3336 11.0527L23.3336 12.2808L22.1055 12.2808Z" fill="#00B569"/>
<path d="M5.36819e-08 12.2808L0 11.0527L1.2281 11.0527L1.2281 12.2808L5.36819e-08 12.2808Z" fill="#00B569"/>
<path d="M19.6484 12.2808L19.6484 11.0527L20.8765 11.0527L20.8765 12.2808L19.6484 12.2808Z" fill="#00B569"/>
<path d="M22.1055 9.82478L22.1055 8.59668L23.3336 8.59668L23.3336 9.82478L22.1055 9.82478Z" fill="#00B569"/>
<path d="M5.36819e-08 9.82478L0 8.59668L1.2281 8.59668L1.2281 9.82478L5.36819e-08 9.82478Z" fill="#00B569"/>
<path d="M19.6484 9.82478L19.6484 8.59668L20.8765 8.59668L20.8765 9.82478L19.6484 9.82478Z" fill="#00B569"/>
<path d="M22.1055 7.36872L22.1055 6.14062L23.3336 6.14062L23.3336 7.36872L22.1055 7.36872Z" fill="#00B569"/>
<path d="M5.36819e-08 7.36872L0 6.14062L1.2281 6.14062L1.2281 7.36872L5.36819e-08 7.36872Z" fill="#00B569"/>
<path d="M19.6484 7.36872L19.6484 6.14062L20.8765 6.14062L20.8765 7.36872L19.6484 7.36872Z" fill="#00B569"/>
<path d="M22.1055 4.91169L22.1055 3.68359L23.3336 3.68359L23.3336 4.91169L22.1055 4.91169Z" fill="#00B569"/>
<path d="M5.36819e-08 4.91169L0 3.68359L1.2281 3.68359L1.2281 4.91169L5.36819e-08 4.91169Z" fill="#00B569"/>
<path d="M19.6484 4.91169L19.6484 3.68359L20.8765 3.68359L20.8765 4.91169L19.6484 4.91169Z" fill="#00B569"/>
<path d="M5.36819e-08 15.9654L0 14.7373L1.2281 14.7373L1.2281 15.9654L5.36819e-08 15.9654Z" fill="#00B569"/>
<path d="M1.22852 15.9654L1.22852 14.7373L2.45662 14.7373L2.45662 15.9654L1.22852 15.9654Z" fill="#00B569"/>
<path d="M2.45508 14.7369L2.45508 13.5088L3.68318 13.5088L3.68318 14.7369L2.45508 14.7369Z" fill="#00B569"/>
<path d="M3.68359 13.5084L3.68359 12.2803L4.91169 12.2803L4.91169 13.5084L3.68359 13.5084Z" fill="#00B569"/>
<path d="M4.91211 12.2808L4.91211 11.0527L6.14021 11.0527L6.14021 12.2808L4.91211 12.2808Z" fill="#00B569"/>
<path d="M6.14063 13.5084L6.14062 12.2803L7.36872 12.2803L7.36872 13.5084L6.14063 13.5084Z" fill="#00B569"/>
<path d="M7.36719 14.7369L7.36719 13.5088L8.59529 13.5088L8.59529 14.7369L7.36719 14.7369Z" fill="#00B569"/>
<path d="M8.5957 15.9654L8.5957 14.7373L9.8238 14.7373L9.8238 15.9654L8.5957 15.9654Z" fill="#00B569"/>
<path d="M9.82422 14.7369L9.82422 13.5088L11.0523 13.5088L11.0523 14.7369L9.82422 14.7369Z" fill="#00B569"/>
<path d="M11.0508 13.5084L11.0508 12.2803L12.2789 12.2803L12.2789 13.5084L11.0508 13.5084Z" fill="#00B569"/>
<path d="M12.2813 12.2808L12.2812 11.0527L13.5093 11.0527L13.5093 12.2808L12.2813 12.2808Z" fill="#00B569"/>
<path d="M13.5098 11.0523L13.5098 9.82422L14.7379 9.82422L14.7379 11.0523L13.5098 11.0523Z" fill="#00B569"/>
<path d="M14.7383 9.82478L14.7383 8.59668L15.9664 8.59668L15.9664 9.82478L14.7383 9.82478Z" fill="#00B569"/>
<path d="M15.9668 11.0523L15.9668 9.82422L17.1949 9.82422L17.1949 11.0523L15.9668 11.0523Z" fill="#00B569"/>
<path d="M17.1934 12.2808L17.1934 11.0527L18.4215 11.0527L18.4215 12.2808L17.1934 12.2808Z" fill="#00B569"/>
<path d="M18.4219 13.5084L18.4219 12.2803L19.65 12.2803L19.65 13.5084L18.4219 13.5084Z" fill="#00B569"/>
<path d="M19.6484 15.9654L19.6484 14.7373L20.8765 14.7373L20.8765 15.9654L19.6484 15.9654Z" fill="#00B569"/>
<path d="M22.1055 13.5084L22.1055 12.2803L23.3336 12.2803L23.3336 13.5084L22.1055 13.5084Z" fill="#00B569"/>
<path d="M5.36819e-08 13.5084L0 12.2803L1.2281 12.2803L1.2281 13.5084L5.36819e-08 13.5084Z" fill="#00B569"/>
<path d="M19.6484 13.5084L19.6484 12.2803L20.8765 12.2803L20.8765 13.5084L19.6484 13.5084Z" fill="#00B569"/>
<path d="M22.1055 11.0523L22.1055 9.82422L23.3336 9.82422L23.3336 11.0523L22.1055 11.0523Z" fill="#00B569"/>
<path d="M5.36819e-08 11.0523L0 9.82422L1.2281 9.82422L1.2281 11.0523L5.36819e-08 11.0523Z" fill="#00B569"/>
<path d="M19.6484 11.0523L19.6484 9.82422L20.8765 9.82422L20.8765 11.0523L19.6484 11.0523Z" fill="#00B569"/>
<path d="M22.1055 8.59724L22.1055 7.36914L23.3336 7.36914L23.3336 8.59724L22.1055 8.59724Z" fill="#00B569"/>
<path d="M5.36819e-08 8.59724L0 7.36914L1.2281 7.36914L1.2281 8.59724L5.36819e-08 8.59724Z" fill="#00B569"/>
<path d="M19.6484 8.59724L19.6484 7.36914L20.8765 7.36914L20.8765 8.59724L19.6484 8.59724Z" fill="#00B569"/>
<path d="M22.1055 6.14021L22.1055 4.91211L23.3336 4.91211L23.3336 6.14021L22.1055 6.14021Z" fill="#00B569"/>
<path d="M5.36819e-08 6.14021L0 4.91211L1.2281 4.91211L1.2281 6.14021L5.36819e-08 6.14021Z" fill="#00B569"/>
<path d="M19.6484 6.14021L19.6484 4.91211L20.8765 4.91211L20.8765 6.14021L19.6484 6.14021Z" fill="#00B569"/>
<path d="M22.1055 3.68415L22.1055 2.45605L23.3336 2.45605L23.3336 3.68415L22.1055 3.68415Z" fill="#00B569"/>
<path d="M22.1055 2.45564L22.1055 1.22754L23.3336 1.22754L23.3336 2.45564L22.1055 2.45564Z" fill="#00B569"/>
<path d="M13.5102 17.1924H14.7383V18.4205H13.5102V17.1924Z" fill="#00B569"/>
<path d="M13.5102 2.45605H14.7383V3.68415H13.5102V2.45605Z" fill="#00B569"/>
<path d="M15.9653 0H17.1934V1.2281H15.9653V0Z" fill="#00B569"/>
<path d="M17.1938 17.1924H18.4219V18.4205H17.1938V17.1924Z" fill="#00B569"/>
<path d="M17.1938 2.45605H18.4219V3.68415H17.1938V2.45605Z" fill="#00B569"/>
<path d="M19.6508 0H20.8789V1.2281H19.6508V0Z" fill="#00B569"/>
<path d="M15.9653 17.1924H17.1934V18.4205H15.9653V17.1924Z" fill="#00B569"/>
<path d="M15.9653 2.45605H17.1934V3.68415H15.9653V2.45605Z" fill="#00B569"/>
<path d="M18.4203 0H19.6484V1.2281H18.4203V0Z" fill="#00B569"/>
<path d="M19.6508 15.9648H20.8789V17.1929H19.6508V15.9648Z" fill="#00B569"/>
<path d="M22.1059 13.5088H23.334V14.7369H22.1059V13.5088Z" fill="#00B569"/>
<path d="M20.8774 14.7373H22.1055V15.9654H20.8774V14.7373Z" fill="#00B569"/>
<path d="M6.13909 7.77832H7.36719V9.00642H6.13909V7.77832Z" fill="#00B569"/>
<path d="M7.3676 6.5498H8.5957V7.7779H7.3676V6.5498Z" fill="#00B569"/>
<path d="M4.91253 6.5498H6.14062V7.7779H4.91253V6.5498Z" fill="#00B569"/>
<path d="M6.13909 5.32129H7.36719V6.54939H6.13909V5.32129Z" fill="#00B569"/>
</svg>
