<svg width="27" height="27" viewBox="0 0 27 27" fill="none" xmlns="http://www.w3.org/2000/svg">
<path d="M7.28153 0.019767C8.07514 -0.0151988 9.05216 0.006973 9.8563 0.0064896L14.6349 0.00761716L17.7028 0.00391142C18.6009 0.00275126 19.3103 -0.018164 20.2053 0.109582C22.352 0.415992 24.1153 1.30706 25.3954 3.09199C26.1484 4.1419 26.6998 5.7889 26.7596 7.09185C26.8043 8.06558 26.781 9.08661 26.7784 10.0704L26.769 15.0451L26.7643 18.5811C26.7627 19.2657 26.7949 20.7233 26.6383 21.3107C26.3467 22.4042 25.6955 23.6486 24.9145 24.4696C24.0869 25.3751 23.2513 25.8935 22.1171 26.3291C21.0829 26.7262 20.5698 26.8151 19.4691 26.8705C16.3032 26.9318 13.1367 26.9604 9.97023 26.9563L7.62346 26.9467C6.87084 26.943 5.89782 26.9463 5.16467 26.8008C4.26542 26.6224 2.92966 26.0074 2.2246 25.4402C1.04734 24.4931 0.15095 22.6835 0.0587919 21.1716C0.0103296 20.3766 0.0163303 19.6099 0.0167235 18.8014L0.0126209 15.1304L0.00205049 10.0635C0.00216006 9.1967 -0.0113235 8.33222 0.0294624 7.46633C0.234846 3.1061 3.03027 0.406873 7.28153 0.019767ZM8.04624 16.5992C8.42951 16.2697 8.52428 16.1714 8.60347 15.6558C8.75209 14.6879 8.03222 13.966 7.84743 13.1711C7.4601 11.5048 8.18591 9.41265 9.47381 8.30899C10.8558 7.12472 12.4331 6.73411 14.2225 6.90243C15.5115 7.0108 16.6397 7.42321 17.5417 8.4066C18.4105 9.35384 18.3768 10.9962 18.3475 12.2048C18.2823 13.634 17.7201 15.3681 16.6514 16.3635C15.9977 16.9893 15.2955 17.1214 14.4425 17.099C13.8112 17.0824 12.6094 16.3397 12.7606 15.6849C13.0859 14.2754 13.6081 12.9658 13.8951 11.523C13.9493 10.4148 13.8048 9.42112 12.4166 9.31429C11.8662 9.27195 11.2511 9.53698 10.8526 9.90597C10.2725 10.4696 9.99191 11.1798 9.94425 11.9776C9.89691 12.77 10.3707 13.5338 10.2455 14.2989C9.99604 15.8236 9.44619 17.2866 9.18245 18.8141C9.11277 19.2176 8.90833 19.6715 8.82776 20.0804C8.53943 21.3063 8.34581 22.7493 8.65129 23.9856C8.69747 24.1725 8.78493 24.5494 8.88806 24.7059C9.21973 24.9266 9.76504 24.1767 9.9244 23.9309C11.0047 22.2652 11.5799 20.1923 12.0582 18.2797C12.4215 18.3966 13.1148 18.776 13.5264 18.9682C14.8629 19.5921 16.5837 19.2449 17.8489 18.6016C19.3711 17.8276 20.6033 15.8476 21.0755 14.2446C21.5796 12.5333 21.583 10.231 20.6973 8.64111C19.6678 6.79298 18.5525 5.85435 16.4981 5.25381C15.5327 4.9716 14.3528 4.73445 13.3565 4.82372C8.83534 5.05256 5.24085 7.72343 5.40704 12.5377C5.46373 14.1803 6.44947 16.0232 8.04624 16.5992Z" fill="black"/>
</svg>
