<svg width="20" height="23" viewBox="0 0 20 23" fill="none" xmlns="http://www.w3.org/2000/svg">
<path d="M9.9998 0H8.7998V1.2H9.9998V0Z" fill="#FBFBFB"/>
<path d="M9.9998 9.6001H8.7998V10.8001H9.9998V9.6001Z" fill="#FBFBFB"/>
<path d="M13.6001 4.8L13.6001 6L14.8001 6L14.8001 4.8L13.6001 4.8Z" fill="#FBFBFB"/>
<path d="M4 4.8L4 6L5.2 6L5.2 4.8L4 4.8Z" fill="#FBFBFB"/>
<path d="M8.8001 0H7.6001V1.2H8.8001V0Z" fill="#FBFBFB"/>
<path d="M8.8001 9.6001H7.6001V10.8001H8.8001V9.6001Z" fill="#FBFBFB"/>
<path d="M1.2 21.6006H0V22.8006H1.2V21.6006Z" fill="#FBFBFB"/>
<path d="M1.2 20.4004H0V21.6004H1.2V20.4004Z" fill="#FBFBFB"/>
<path d="M1.2 19.2002H0V20.4002H1.2V19.2002Z" fill="#FBFBFB"/>
<path d="M2.4002 18.0005H1.2002V19.2005H2.4002V18.0005Z" fill="#FBFBFB"/>
<path d="M2.4002 16.8003H1.2002V18.0003H2.4002V16.8003Z" fill="#FBFBFB"/>
<path d="M3.5999 15.6006H2.3999V16.8006H3.5999V15.6006Z" fill="#FBFBFB"/>
<path d="M4.8001 14.4004H3.6001V15.6004H4.8001V14.4004Z" fill="#FBFBFB"/>
<path d="M18.0002 21.6006H19.2002V22.8006H18.0002V21.6006Z" fill="#FBFBFB"/>
<path d="M18.0002 20.4004H19.2002V21.6004H18.0002V20.4004Z" fill="#FBFBFB"/>
<path d="M18.0002 19.2002H19.2002V20.4002H18.0002V19.2002Z" fill="#FBFBFB"/>
<path d="M16.8 18.0005H18V19.2005H16.8V18.0005Z" fill="#FBFBFB"/>
<path d="M16.8 16.8003H18V18.0003H16.8V16.8003Z" fill="#FBFBFB"/>
<path d="M15.6003 15.6006H16.8003V16.8006H15.6003V15.6006Z" fill="#FBFBFB"/>
<path d="M14.4001 14.4004H15.6001V15.6004H14.4001V14.4004Z" fill="#FBFBFB"/>
<path d="M5.9998 13.2002H4.7998V14.4002H5.9998V13.2002Z" fill="#FBFBFB"/>
<path d="M8.4002 13.2002H7.2002V14.4002H8.4002V13.2002Z" fill="#FBFBFB"/>
<path d="M10.8001 13.2002H9.6001V14.4002H10.8001V13.2002Z" fill="#FBFBFB"/>
<path d="M7.2 13.2002H6V14.4002H7.2V13.2002Z" fill="#FBFBFB"/>
<path d="M9.5999 13.2002H8.3999V14.4002H9.5999V13.2002Z" fill="#FBFBFB"/>
<path d="M11.9998 13.2002H10.7998V14.4002H11.9998V13.2002Z" fill="#FBFBFB"/>
<path d="M13.2 13.2002H12V14.4002H13.2V13.2002Z" fill="#FBFBFB"/>
<path d="M14.4002 13.2002H13.2002V14.4002H14.4002V13.2002Z" fill="#FBFBFB"/>
<path d="M13.6001 6.0002L13.6001 7.2002L14.8001 7.2002L14.8001 6.0002L13.6001 6.0002Z" fill="#FBFBFB"/>
<path d="M4 6.0002L4 7.2002L5.2 7.2002L5.2 6.0002L4 6.0002Z" fill="#FBFBFB"/>
<path d="M11.2 0H10V1.2H11.2V0Z" fill="#FBFBFB"/>
<path d="M11.2 9.6001H10V10.8001H11.2V9.6001Z" fill="#FBFBFB"/>
<path d="M13.6001 3.60029L13.6001 4.80029L14.8001 4.80029L14.8001 3.60029L13.6001 3.60029Z" fill="#FBFBFB"/>
<path d="M4 3.60029L4 4.80029L5.2 4.80029L5.2 3.60029L4 3.60029Z" fill="#FBFBFB"/>
<path d="M4 7.1999L4 8.3999L5.2 8.3999L5.2 7.1999L4 7.1999Z" fill="#FBFBFB"/>
<path d="M6.3999 9.60029L6.3999 10.8003L7.5999 10.8003L7.5999 9.60029L6.3999 9.60029Z" fill="#FBFBFB"/>
<path d="M5.2002 8.4001L5.2002 9.6001L6.4002 9.6001L6.4002 8.4001L5.2002 8.4001Z" fill="#FBFBFB"/>
<path d="M11.2002 9.60029L11.2002 10.8003L12.4002 10.8003L12.4002 9.60029L11.2002 9.60029Z" fill="#FBFBFB"/>
<path d="M12.3999 8.4001L12.3999 9.6001L13.5999 9.6001L13.5999 8.4001L12.3999 8.4001Z" fill="#FBFBFB"/>
<path d="M13.6001 7.1999L13.6001 8.3999L14.8001 8.3999L14.8001 7.1999L13.6001 7.1999Z" fill="#FBFBFB"/>
<path d="M11.2002 0.000195265L11.2002 1.2002L12.4002 1.2002L12.4002 0.000195212L11.2002 0.000195265Z" fill="#FBFBFB"/>
<path d="M13.6001 2.4001L13.6001 3.6001L14.8001 3.6001L14.8001 2.4001L13.6001 2.4001Z" fill="#FBFBFB"/>
<path d="M12.3999 1.1999L12.3999 2.3999L13.5999 2.3999L13.5999 1.1999L12.3999 1.1999Z" fill="#FBFBFB"/>
<path d="M6.3999 0.000195265L6.3999 1.2002L7.5999 1.2002L7.5999 0.000195212L6.3999 0.000195265Z" fill="#FBFBFB"/>
<path d="M5.2002 1.1999L5.2002 2.3999L6.4002 2.3999L6.4002 1.1999L5.2002 1.1999Z" fill="#FBFBFB"/>
<path d="M4 2.4001L4 3.6001L5.2 3.6001L5.2 2.4001L4 2.4001Z" fill="#FBFBFB"/>
</svg>
