<svg width="20" height="23" viewBox="0 0 20 23" fill="none" xmlns="http://www.w3.org/2000/svg">
<path d="M10.0008 0H8.80078V1.2H10.0008V0Z" fill="#FF691E"/>
<path d="M10.0008 9.59961H8.80078V10.7996H10.0008V9.59961Z" fill="#FF691E"/>
<path d="M13.5996 4.8L13.5996 6L14.7996 6L14.7996 4.8L13.5996 4.8Z" fill="#FF691E"/>
<path d="M4 4.8L4 6L5.2 6L5.2 4.8L4 4.8Z" fill="#FF691E"/>
<path d="M8.79961 0H7.59961V1.2H8.79961V0Z" fill="#FF691E"/>
<path d="M8.79961 9.59961H7.59961V10.7996H8.79961V9.59961Z" fill="#FF691E"/>
<path d="M1.2 21.6006H0V22.8006H1.2V21.6006Z" fill="#FF691E"/>
<path d="M1.2 20.4004H0V21.6004H1.2V20.4004Z" fill="#FF691E"/>
<path d="M1.2 19.2002H0V20.4002H1.2V19.2002Z" fill="#FF691E"/>
<path d="M2.39922 18.001H1.19922V19.201H2.39922V18.001Z" fill="#FF691E"/>
<path d="M2.39922 16.8008H1.19922V18.0008H2.39922V16.8008Z" fill="#FF691E"/>
<path d="M3.60039 15.6006H2.40039V16.8006H3.60039V15.6006Z" fill="#FF691E"/>
<path d="M4.79961 14.4004H3.59961V15.6004H4.79961V14.4004Z" fill="#FF691E"/>
<path d="M17.9992 21.6006H19.1992V22.8006H17.9992V21.6006Z" fill="#FF691E"/>
<path d="M17.9992 20.4004H19.1992V21.6004H17.9992V20.4004Z" fill="#FF691E"/>
<path d="M17.9992 19.2002H19.1992V20.4002H17.9992V19.2002Z" fill="#FF691E"/>
<path d="M16.8 18.001H18V19.201H16.8V18.001Z" fill="#FF691E"/>
<path d="M16.8 16.8008H18V18.0008H16.8V16.8008Z" fill="#FF691E"/>
<path d="M15.5988 15.6006H16.7988V16.8006H15.5988V15.6006Z" fill="#FF691E"/>
<path d="M14.3996 14.4004H15.5996V15.6004H14.3996V14.4004Z" fill="#FF691E"/>
<path d="M6.00078 13.2002H4.80078V14.4002H6.00078V13.2002Z" fill="#FF691E"/>
<path d="M8.39922 13.2002H7.19922V14.4002H8.39922V13.2002Z" fill="#FF691E"/>
<path d="M10.7996 13.2002H9.59961V14.4002H10.7996V13.2002Z" fill="#FF691E"/>
<path d="M7.2 13.2002H6V14.4002H7.2V13.2002Z" fill="#FF691E"/>
<path d="M9.60039 13.2002H8.40039V14.4002H9.60039V13.2002Z" fill="#FF691E"/>
<path d="M12.0008 13.2002H10.8008V14.4002H12.0008V13.2002Z" fill="#FF691E"/>
<path d="M13.2 13.2002H12V14.4002H13.2V13.2002Z" fill="#FF691E"/>
<path d="M14.3992 13.2002H13.1992V14.4002H14.3992V13.2002Z" fill="#FF691E"/>
<path d="M13.5996 6.0002L13.5996 7.2002L14.7996 7.2002L14.7996 6.0002L13.5996 6.0002Z" fill="#FF691E"/>
<path d="M4 6.0002L4 7.2002L5.2 7.2002L5.2 6.0002L4 6.0002Z" fill="#FF691E"/>
<path d="M11.2 0H10V1.2H11.2V0Z" fill="#FF691E"/>
<path d="M11.2 9.59961H10V10.7996H11.2V9.59961Z" fill="#FF691E"/>
<path d="M13.5996 3.5998L13.5996 4.7998L14.7996 4.7998L14.7996 3.5998L13.5996 3.5998Z" fill="#FF691E"/>
<path d="M4 3.5998L4 4.7998L5.2 4.7998L5.2 3.5998L4 3.5998Z" fill="#FF691E"/>
<path d="M4 7.20039L4 8.40039L5.2 8.40039L5.2 7.20039L4 7.20039Z" fill="#FF691E"/>
<path d="M6.40039 9.5998L6.40039 10.7998L7.60039 10.7998L7.60039 9.5998L6.40039 9.5998Z" fill="#FF691E"/>
<path d="M5.19922 8.39961L5.19922 9.59961L6.39922 9.59961L6.39922 8.39961L5.19922 8.39961Z" fill="#FF691E"/>
<path d="M11.1992 9.5998L11.1992 10.7998L12.3992 10.7998L12.3992 9.5998L11.1992 9.5998Z" fill="#FF691E"/>
<path d="M12.4004 8.39961L12.4004 9.59961L13.6004 9.59961L13.6004 8.39961L12.4004 8.39961Z" fill="#FF691E"/>
<path d="M13.5996 7.20039L13.5996 8.40039L14.7996 8.40039L14.7996 7.20039L13.5996 7.20039Z" fill="#FF691E"/>
<path d="M11.1992 0.000195265L11.1992 1.2002L12.3992 1.2002L12.3992 0.000195212L11.1992 0.000195265Z" fill="#FF691E"/>
<path d="M13.5996 2.39961L13.5996 3.59961L14.7996 3.59961L14.7996 2.39961L13.5996 2.39961Z" fill="#FF691E"/>
<path d="M12.4004 1.20039L12.4004 2.40039L13.6004 2.40039L13.6004 1.20039L12.4004 1.20039Z" fill="#FF691E"/>
<path d="M6.40039 0.000195265L6.40039 1.2002L7.60039 1.2002L7.60039 0.000195212L6.40039 0.000195265Z" fill="#FF691E"/>
<path d="M5.19922 1.20039L5.19922 2.40039L6.39922 2.40039L6.39922 1.20039L5.19922 1.20039Z" fill="#FF691E"/>
<path d="M4 2.39961L4 3.59961L5.2 3.59961L5.2 2.39961L4 2.39961Z" fill="#FF691E"/>
</svg>
