<svg width="23" height="23" viewBox="0 0 23 23" fill="none" xmlns="http://www.w3.org/2000/svg">
<path d="M0.000542521 7.66675H1.27832V8.94453H0.000542521V7.66675Z" fill="#FF691E"/>
<path d="M0.000542521 6.38916H1.27832V7.66694H0.000542521V6.38916Z" fill="#FF691E"/>
<path d="M1.27789 5.11084H2.55566V6.38862H1.27789V5.11084Z" fill="#FF691E"/>
<path d="M2.55621 3.83325H3.83398V5.11103H2.55621V3.83325Z" fill="#FF691E"/>
<path d="M3.83355 2.55542H5.11133V3.8332H3.83355V2.55542Z" fill="#FF691E"/>
<path d="M5.11187 1.27783H6.38965V2.55561H5.11187V1.27783Z" fill="#FF691E"/>
<path d="M6.38921 1.27783H7.66699V2.55561H6.38921V1.27783Z" fill="#FF691E"/>
<path d="M7.66656 0H8.94434V1.27778H7.66656V0Z" fill="#FF691E"/>
<path d="M8.94488 0H10.2227V1.27778H8.94488V0Z" fill="#FF691E"/>
<path d="M10.2222 0H11.5V1.27778H10.2222V0Z" fill="#FF691E"/>
<path d="M11.5005 0H12.7783V1.27778H11.5005V0Z" fill="#FF691E"/>
<path d="M12.7779 0H14.0557V1.27778H12.7779V0Z" fill="#FF691E"/>
<path d="M14.0562 1.27783H15.334V2.55561H14.0562V1.27783Z" fill="#FF691E"/>
<path d="M15.3336 1.27783H16.6113V2.55561H15.3336V1.27783Z" fill="#FF691E"/>
<path d="M16.6119 2.55542H17.8896V3.8332H16.6119V2.55542Z" fill="#FF691E"/>
<path d="M17.8892 3.83325H19.167V5.11103H17.8892V3.83325Z" fill="#FF691E"/>
<path d="M19.1666 5.11084H20.4443V6.38862H19.1666V5.11084Z" fill="#FF691E"/>
<path d="M20.4449 7.66675H21.7227V8.94453H20.4449V7.66675Z" fill="#FF691E"/>
<path d="M21.7222 7.66675H23V8.94453H21.7222V7.66675Z" fill="#FF691E"/>
<path d="M21.7222 6.38916H23V7.66694H21.7222V6.38916Z" fill="#FF691E"/>
<path d="M19.1666 7.66675H20.4443V8.94453H19.1666V7.66675Z" fill="#FF691E"/>
<path d="M21.7222 5.11084H23V6.38862H21.7222V5.11084Z" fill="#FF691E"/>
<path d="M21.7222 3.83325H23V5.11103H21.7222V3.83325Z" fill="#FF691E"/>
<path d="M21.7222 2.55542H23V3.8332H21.7222V2.55542Z" fill="#FF691E"/>
<path d="M17.8892 7.66675H19.167V8.94453H17.8892V7.66675Z" fill="#FF691E"/>
<path d="M16.6119 7.66675H17.8896V8.94453H16.6119V7.66675Z" fill="#FF691E"/>
<path d="M20.4449 6.38916H21.7227V7.66694H20.4449V6.38916Z" fill="#FF691E"/>
<path d="M23.0004 15.3333L21.7227 15.3333L21.7227 14.0555L23.0004 14.0555L23.0004 15.3333Z" fill="#FF691E"/>
<path d="M23.0004 16.6108L21.7227 16.6108L21.7227 15.3331L23.0004 15.3331L23.0004 16.6108Z" fill="#FF691E"/>
<path d="M21.7221 17.8892L20.4443 17.8892L20.4443 16.6114L21.7221 16.6114L21.7221 17.8892Z" fill="#FF691E"/>
<path d="M20.4448 19.1667L19.167 19.1667L19.167 17.889L20.4448 17.889L20.4448 19.1667Z" fill="#FF691E"/>
<path d="M19.1664 20.4446L17.8887 20.4446L17.8887 19.1668L19.1664 19.1668L19.1664 20.4446Z" fill="#FF691E"/>
<path d="M17.8891 21.7222L16.6113 21.7222L16.6113 20.4444L17.8891 20.4444L17.8891 21.7222Z" fill="#FF691E"/>
<path d="M16.6108 21.7222L15.333 21.7222L15.333 20.4444L16.6108 20.4444L16.6108 21.7222Z" fill="#FF691E"/>
<path d="M15.3334 23L14.0557 23L14.0557 21.7222L15.3334 21.7222L15.3334 23Z" fill="#FF691E"/>
<path d="M14.0561 23L12.7783 23L12.7783 21.7222L14.0561 21.7222L14.0561 23Z" fill="#FF691E"/>
<path d="M12.7778 23L11.5 23L11.5 21.7222L12.7778 21.7222L12.7778 23Z" fill="#FF691E"/>
<path d="M11.5004 23L10.2227 23L10.2227 21.7222L11.5004 21.7222L11.5004 23Z" fill="#FF691E"/>
<path d="M10.2221 23L8.94434 23L8.94434 21.7222L10.2221 21.7222L10.2221 23Z" fill="#FF691E"/>
<path d="M8.94477 21.7222L7.66699 21.7222L7.66699 20.4444L8.94477 20.4444L8.94477 21.7222Z" fill="#FF691E"/>
<path d="M7.66645 21.7222L6.38867 21.7222L6.38867 20.4444L7.66645 20.4444L7.66645 21.7222Z" fill="#FF691E"/>
<path d="M6.38911 20.4446L5.11133 20.4446L5.11133 19.1668L6.38911 19.1668L6.38911 20.4446Z" fill="#FF691E"/>
<path d="M5.11079 19.1667L3.83301 19.1667L3.83301 17.889L5.11079 17.889L5.11079 19.1667Z" fill="#FF691E"/>
<path d="M3.83344 17.8892L2.55566 17.8892L2.55566 16.6114L3.83344 16.6114L3.83344 17.8892Z" fill="#FF691E"/>
<path d="M2.5561 15.3333L1.27832 15.3333L1.27832 14.0555L2.5561 14.0555L2.5561 15.3333Z" fill="#FF691E"/>
<path d="M1.27778 15.3333L0 15.3333L1.11707e-07 14.0555L1.27778 14.0555L1.27778 15.3333Z" fill="#FF691E"/>
<path d="M1.27778 16.6108L0 16.6108L1.11707e-07 15.3331L1.27778 15.3331L1.27778 16.6108Z" fill="#FF691E"/>
<path d="M3.83344 15.3333L2.55566 15.3333L2.55566 14.0555L3.83344 14.0555L3.83344 15.3333Z" fill="#FF691E"/>
<path d="M1.27778 17.8892L0 17.8892L1.11707e-07 16.6114L1.27778 16.6114L1.27778 17.8892Z" fill="#FF691E"/>
<path d="M1.27778 19.1667L0 19.1667L1.11707e-07 17.889L1.27778 17.889L1.27778 19.1667Z" fill="#FF691E"/>
<path d="M1.27778 20.4446L0 20.4446L1.11707e-07 19.1668L1.27778 19.1668L1.27778 20.4446Z" fill="#FF691E"/>
<path d="M5.11079 15.3333L3.83301 15.3333L3.83301 14.0555L5.11079 14.0555L5.11079 15.3333Z" fill="#FF691E"/>
<path d="M6.38911 15.3333L5.11133 15.3333L5.11133 14.0555L6.38911 14.0555L6.38911 15.3333Z" fill="#FF691E"/>
<path d="M2.5561 16.6108L1.27832 16.6108L1.27832 15.3331L2.5561 15.3331L2.5561 16.6108Z" fill="#FF691E"/>
</svg>
