<svg width="35" height="36" viewBox="0 0 35 36" fill="none" xmlns="http://www.w3.org/2000/svg">
<path d="M2.80022 8.39966L4.2002 8.39966L4.2002 6.99969L2.80022 6.99969L2.80022 8.39966Z" fill="#FBFBFB"/>
<path d="M4.19964 7L5.59961 7L5.59961 5.60003L4.19964 5.60003L4.19964 7Z" fill="#FBFBFB"/>
<path d="M5.601 5.59961L7.00098 5.59961L7.00098 4.19964L5.601 4.19964L5.601 5.59961Z" fill="#FBFBFB"/>
<path d="M7.00139 4.19995L8.40137 4.19995L8.40137 2.79998L7.00139 2.79998L7.00139 4.19995Z" fill="#FBFBFB"/>
<path d="M8.40081 5.59961L9.80078 5.59961L9.80078 4.19964L8.40081 4.19964L8.40081 5.59961Z" fill="#FBFBFB"/>
<path d="M9.8012 7L11.2012 7L11.2012 5.60003L9.8012 5.60003L9.8012 7Z" fill="#FBFBFB"/>
<path d="M11.2006 5.59961L12.6006 5.59961L12.6006 4.19964L11.2006 4.19964L11.2006 5.59961Z" fill="#FBFBFB"/>
<path d="M12.6 4.19995L14 4.19995L14 2.79998L12.6 2.79998L12.6 4.19995Z" fill="#FBFBFB"/>
<path d="M12.6 2.7998L14 2.7998L14 1.39983L12.6 1.39983L12.6 2.7998Z" fill="#FBFBFB"/>
<path d="M14.0004 1.3999L15.4004 1.3999L15.4004 -7.03335e-05L14.0004 -7.02111e-05L14.0004 1.3999Z" fill="#FBFBFB"/>
<path d="M15.3998 1.3999L16.7998 1.3999L16.7998 -7.03335e-05L15.3998 -7.02111e-05L15.3998 1.3999Z" fill="#FBFBFB"/>
<path d="M16.8002 1.3999L18.2002 1.3999L18.2002 -7.03335e-05L16.8002 -7.02111e-05L16.8002 1.3999Z" fill="#FBFBFB"/>
<path d="M18.1996 1.3999L19.5996 1.3999L19.5996 -7.03335e-05L18.1996 -7.02111e-05L18.1996 1.3999Z" fill="#FBFBFB"/>
<path d="M19.601 2.7998L21.001 2.7998L21.001 1.39983L19.601 1.39983L19.601 2.7998Z" fill="#FBFBFB"/>
<path d="M19.601 4.19995L21.001 4.19995L21.001 2.79998L19.601 2.79998L19.601 4.19995Z" fill="#FBFBFB"/>
<path d="M21.0004 5.59961L22.4004 5.59961L22.4004 4.19964L21.0004 4.19964L21.0004 5.59961Z" fill="#FBFBFB"/>
<path d="M22.4008 7L23.8008 7L23.8008 5.60003L22.4008 5.60003L22.4008 7Z" fill="#FBFBFB"/>
<path d="M23.8002 5.59961L25.2002 5.59961L25.2002 4.19964L23.8002 4.19964L23.8002 5.59961Z" fill="#FBFBFB"/>
<path d="M25.2006 4.19995L26.6006 4.19995L26.6006 2.79998L25.2006 2.79998L25.2006 4.19995Z" fill="#FBFBFB"/>
<path d="M26.6 5.59961L28 5.59961L28 4.19964L26.6 4.19964L26.6 5.59961Z" fill="#FBFBFB"/>
<path d="M27.9994 7L29.3994 7L29.3994 5.60003L27.9994 5.60003L27.9994 7Z" fill="#FBFBFB"/>
<path d="M29.3998 8.39966L30.7998 8.39966L30.7998 6.99969L29.3998 6.99969L29.3998 8.39966Z" fill="#FBFBFB"/>
<path d="M27.9994 9.79956L29.3994 9.79956L29.3994 8.39959L27.9994 8.39959L27.9994 9.79956Z" fill="#FBFBFB"/>
<path d="M26.6 11.1997L28 11.1997L28 9.79973L26.6 9.79973L26.6 11.1997Z" fill="#FBFBFB"/>
<path d="M27.9994 12.5996L29.3994 12.5996L29.3994 11.1996L27.9994 11.1996L27.9994 12.5996Z" fill="#FBFBFB"/>
<path d="M29.3998 13.9998L30.7998 13.9998L30.7998 12.5998L29.3998 12.5998L29.3998 13.9998Z" fill="#FBFBFB"/>
<path d="M30.7992 15.3994L32.1992 15.3994L32.1992 13.9994L30.7992 13.9994L30.7992 15.3994Z" fill="#FBFBFB"/>
<path d="M32.2006 15.3994L33.6006 15.3994L33.6006 13.9994L32.2006 13.9994L32.2006 15.3994Z" fill="#FBFBFB"/>
<path d="M33.601 16.7993L35.001 16.7993L35.001 15.3993L33.601 15.3993L33.601 16.7993Z" fill="#FBFBFB"/>
<path d="M33.601 18.1995L35.001 18.1995L35.001 16.7995L33.601 16.7995L33.601 18.1995Z" fill="#FBFBFB"/>
<path d="M33.601 19.5994L35.001 19.5994L35.001 18.1994L33.601 18.1994L33.601 19.5994Z" fill="#FBFBFB"/>
<path d="M32.2006 20.9995L33.6006 20.9995L33.6006 19.5995L32.2006 19.5995L32.2006 20.9995Z" fill="#FBFBFB"/>
<path d="M30.7992 20.9995L32.1992 20.9995L32.1992 19.5995L30.7992 19.5995L30.7992 20.9995Z" fill="#FBFBFB"/>
<path d="M29.3998 22.3994L30.7998 22.3994L30.7998 20.9994L29.3998 20.9994L29.3998 22.3994Z" fill="#FBFBFB"/>
<path d="M27.9994 23.7996L29.3994 23.7996L29.3994 22.3996L27.9994 22.3996L27.9994 23.7996Z" fill="#FBFBFB"/>
<path d="M27.9994 25.1995L29.3994 25.1995L29.3994 23.7995L27.9994 23.7995L27.9994 25.1995Z" fill="#FBFBFB"/>
<path d="M29.3998 26.5991L30.7998 26.5991L30.7998 25.1991L29.3998 25.1991L29.3998 26.5991Z" fill="#FBFBFB"/>
<path d="M30.7992 27.9993L32.1992 27.9993L32.1992 26.5993L30.7992 26.5993L30.7992 27.9993Z" fill="#FBFBFB"/>
<path d="M29.3998 29.3992L30.7998 29.3992L30.7998 27.9992L29.3998 27.9992L29.3998 29.3992Z" fill="#FBFBFB"/>
<path d="M27.9994 30.7993L29.3994 30.7993L29.3994 29.3993L27.9994 29.3993L27.9994 30.7993Z" fill="#FBFBFB"/>
<path d="M26.6 32.1992L28 32.1992L28 30.7992L26.6 30.7992L26.6 32.1992Z" fill="#FBFBFB"/>
<path d="M25.2006 30.7993L26.6006 30.7993L26.6006 29.3993L25.2006 29.3993L25.2006 30.7993Z" fill="#FBFBFB"/>
<path d="M23.8002 29.3992L25.2002 29.3992L25.2002 27.9992L23.8002 27.9992L23.8002 29.3992Z" fill="#FBFBFB"/>
<path d="M22.4008 29.3992L23.8008 29.3992L23.8008 27.9992L22.4008 27.9992L22.4008 29.3992Z" fill="#FBFBFB"/>
<path d="M21.0004 30.7993L22.4004 30.7993L22.4004 29.3993L21.0004 29.3993L21.0004 30.7993Z" fill="#FBFBFB"/>
<path d="M19.601 32.1992L21.001 32.1992L21.001 30.7992L19.601 30.7992L19.601 32.1992Z" fill="#FBFBFB"/>
<path d="M19.601 33.1326L21.001 33.1326L21.001 31.7326L19.601 31.7326L19.601 33.1326Z" fill="#FBFBFB"/>
<path d="M19.601 34.0657L21.001 34.0657L21.001 32.6657L19.601 32.6657L19.601 34.0657Z" fill="#FBFBFB"/>
<path d="M18.1996 35.4656L19.5996 35.4656L19.5996 34.0656L18.1996 34.0656L18.1996 35.4656Z" fill="#FBFBFB"/>
<path d="M16.8002 35.4656L18.2002 35.4656L18.2002 34.0656L16.8002 34.0656L16.8002 35.4656Z" fill="#FBFBFB"/>
<path d="M14.0004 35.4656L15.4004 35.4656L15.4004 34.0656L14.0004 34.0656L14.0004 35.4656Z" fill="#FBFBFB"/>
<path d="M15.3998 35.4656L16.7998 35.4656L16.7998 34.0656L15.3998 34.0656L15.3998 35.4656Z" fill="#FBFBFB"/>
<path d="M12.6 34.0657L14 34.0657L14 32.6657L12.6 32.6657L12.6 34.0657Z" fill="#FBFBFB"/>
<path d="M12.6 32.666L14 32.666L14 31.266L12.6 31.266L12.6 32.666Z" fill="#FBFBFB"/>
<path d="M11.2006 31.2659L12.6006 31.2659L12.6006 29.8659L11.2006 29.8659L11.2006 31.2659Z" fill="#FBFBFB"/>
<path d="M9.8012 29.866L11.2012 29.866L11.2012 28.466L9.8012 28.466L9.8012 29.866Z" fill="#FBFBFB"/>
<path d="M8.40081 31.2659L9.80078 31.2659L9.80078 29.8659L8.40081 29.8659L8.40081 31.2659Z" fill="#FBFBFB"/>
<path d="M7.00139 32.666L8.40137 32.666L8.40137 31.266L7.00139 31.266L7.00139 32.666Z" fill="#FBFBFB"/>
<path d="M5.601 31.2659L7.00098 31.2659L7.00098 29.8659L5.601 29.8659L5.601 31.2659Z" fill="#FBFBFB"/>
<path d="M4.19964 29.866L5.59961 29.866L5.59961 28.466L4.19964 28.466L4.19964 29.866Z" fill="#FBFBFB"/>
<path d="M2.80022 28.4658L4.2002 28.4658L4.2002 27.0658L2.80022 27.0658L2.80022 28.4658Z" fill="#FBFBFB"/>
<path d="M4.19964 27.0659L5.59961 27.0659L5.59961 25.6659L4.19964 25.6659L4.19964 27.0659Z" fill="#FBFBFB"/>
<path d="M5.601 25.6658L7.00098 25.6658L7.00098 24.2658L5.601 24.2658L5.601 25.6658Z" fill="#FBFBFB"/>
<path d="M4.19964 24.2661L5.59961 24.2661L5.59961 22.8661L4.19964 22.8661L4.19964 24.2661Z" fill="#FBFBFB"/>
<path d="M4.19964 22.8662L5.59961 22.8662L5.59961 21.4662L4.19964 21.4662L4.19964 22.8662Z" fill="#FBFBFB"/>
<path d="M2.80022 21.4661L4.2002 21.4661L4.2002 20.0661L2.80022 20.0661L2.80022 21.4661Z" fill="#FBFBFB"/>
<path d="M1.40081 21.4661L2.80078 21.4661L2.80078 20.0661L1.40081 20.0661L1.40081 21.4661Z" fill="#FBFBFB"/>
<path d="M0.000417948 20.0662L1.40039 20.0662L1.40039 18.6662L0.000417825 18.6662L0.000417948 20.0662Z" fill="#FBFBFB"/>
<path d="M0.000417948 18.666L1.40039 18.666L1.40039 17.266L0.000417825 17.266L0.000417948 18.666Z" fill="#FBFBFB"/>
<path d="M0.000417948 17.2661L1.40039 17.2661L1.40039 15.8661L0.000417825 15.8661L0.000417948 17.2661Z" fill="#FBFBFB"/>
<path d="M0.000417948 15.8665L1.40039 15.8665L1.40039 14.4665L0.000417825 14.4665L0.000417948 15.8665Z" fill="#FBFBFB"/>
<path d="M1.40081 14.4663L2.80078 14.4663L2.80078 13.0663L1.40081 13.0663L1.40081 14.4663Z" fill="#FBFBFB"/>
<path d="M2.80022 14.4663L4.2002 14.4663L4.2002 13.0663L2.80022 13.0663L2.80022 14.4663Z" fill="#FBFBFB"/>
<path d="M4.19964 13.533L5.59961 13.533L5.59961 12.133L4.19964 12.133L4.19964 13.533Z" fill="#FBFBFB"/>
<path d="M5.601 12.5996L7.00098 12.5996L7.00098 11.1996L5.601 11.1996L5.601 12.5996Z" fill="#FBFBFB"/>
<path d="M15.3998 13.533L16.7998 13.533L16.7998 12.133L15.3998 12.133L15.3998 13.533Z" fill="#FBFBFB"/>
<path d="M15.3998 23.3328L16.7998 23.3328L16.7998 21.9328L15.3998 21.9328L15.3998 23.3328Z" fill="#FBFBFB"/>
<path d="M22.4004 19.1326L22.4004 17.7327L21.0004 17.7327L21.0004 19.1326L22.4004 19.1326Z" fill="#FBFBFB"/>
<path d="M12.6006 19.1326L12.6006 17.7327L11.2006 17.7327L11.2006 19.1326L12.6006 19.1326Z" fill="#FBFBFB"/>
<path d="M16.8002 13.533L18.2002 13.533L18.2002 12.133L16.8002 12.133L16.8002 13.533Z" fill="#FBFBFB"/>
<path d="M16.8002 23.3328L18.2002 23.3328L18.2002 21.9328L16.8002 21.9328L16.8002 23.3328Z" fill="#FBFBFB"/>
<path d="M22.4004 17.7327L22.4004 16.3328L21.0004 16.3328L21.0004 17.7327L22.4004 17.7327Z" fill="#FBFBFB"/>
<path d="M12.6006 17.7327L12.6006 16.3328L11.2006 16.3328L11.2006 17.7327L12.6006 17.7327Z" fill="#FBFBFB"/>
<path d="M18.1996 13.533L19.5996 13.533L19.5996 12.133L18.1996 12.133L18.1996 13.533Z" fill="#FBFBFB"/>
<path d="M18.1996 23.3328L19.5996 23.3328L19.5996 21.9328L18.1996 21.9328L18.1996 23.3328Z" fill="#FBFBFB"/>
<path d="M22.4004 16.3331L22.4004 14.9331L21.0004 14.9331L21.0004 16.3331L22.4004 16.3331Z" fill="#FBFBFB"/>
<path d="M12.6006 16.3331L12.6006 14.9331L11.2006 14.9331L11.2006 16.3331L12.6006 16.3331Z" fill="#FBFBFB"/>
<path d="M14 14.9329L14 13.533L12.6 13.533L12.6 14.9329L14 14.9329Z" fill="#FBFBFB"/>
<path d="M14 21.9327L14 20.5327L12.6 20.5327L12.6 21.9327L14 21.9327Z" fill="#FBFBFB"/>
<path d="M21.001 21.9327L21.001 20.5327L19.601 20.5327L19.601 21.9327L21.001 21.9327Z" fill="#FBFBFB"/>
<path d="M21.001 14.9329L21.001 13.533L19.601 13.533L19.601 14.9329L21.001 14.9329Z" fill="#FBFBFB"/>
<path d="M14.0004 13.533L15.4004 13.533L15.4004 12.133L14.0004 12.133L14.0004 13.533Z" fill="#FBFBFB"/>
<path d="M14.0004 23.3328L15.4004 23.3328L15.4004 21.9328L14.0004 21.9328L14.0004 23.3328Z" fill="#FBFBFB"/>
<path d="M22.4004 20.5328L22.4004 19.1328L21.0004 19.1328L21.0004 20.5328L22.4004 20.5328Z" fill="#FBFBFB"/>
<path d="M12.6006 20.5328L12.6006 19.1328L11.2006 19.1328L11.2006 20.5328L12.6006 20.5328Z" fill="#FBFBFB"/>
<path d="M4.19964 9.79956L5.59961 9.79956L5.59961 8.39959L4.19964 8.39959L4.19964 9.79956Z" fill="#FBFBFB"/>
<path d="M5.601 11.1997L7.00098 11.1997L7.00098 9.79973L5.601 9.79973L5.601 11.1997Z" fill="#FBFBFB"/>
</svg>
