<svg width="21" height="21" viewBox="0 0 21 21" fill="none" xmlns="http://www.w3.org/2000/svg">
<path d="M11 13H12V12H11V13Z" fill="#0F100F"/>
<path d="M10 13H11V12H10V13Z" fill="#0F100F"/>
<path d="M9 13H10V12H9V13Z" fill="#0F100F"/>
<path d="M7 14H8V13H7V14Z" fill="#0F100F"/>
<path d="M6 14H7V13H6V14Z" fill="#0F100F"/>
<path d="M5 15H6V14H5V15Z" fill="#0F100F"/>
<path d="M4 15H5V14H4V15Z" fill="#0F100F"/>
<path d="M3.33398 16H4.33398V15H3.33398V16Z" fill="#0F100F"/>
<path d="M2.33398 16H3.33398V15H2.33398V16Z" fill="#0F100F"/>
<path d="M2.33398 17H3.33398V16H2.33398V17Z" fill="#0F100F"/>
<path d="M1.33398 18H2.33398V17H1.33398V18Z" fill="#0F100F"/>
<path d="M1.33398 19H2.33398V18H1.33398V19Z" fill="#0F100F"/>
<path d="M1.33398 20H2.33398V19H1.33398V20Z" fill="#0F100F"/>
<path d="M8 14H9V13H8V14Z" fill="#0F100F"/>
<path d="M11 14H12V13H11V14Z" fill="#0F100F"/>
<path d="M11 15H12V14H11V15Z" fill="#0F100F"/>
<path d="M11 16H12V15H11V16Z" fill="#0F100F"/>
<path d="M11 17H12V16H11V17Z" fill="#0F100F"/>
<path d="M11 18H12V17H11V18Z" fill="#0F100F"/>
<path d="M12 18H13V17H12V18Z" fill="#0F100F"/>
<path d="M13 17H14V16H13V17Z" fill="#0F100F"/>
<path d="M14 16H15V15H14V16Z" fill="#0F100F"/>
<path d="M15 15H16V14H15V15Z" fill="#0F100F"/>
<path d="M16 14H17V13H16V14Z" fill="#0F100F"/>
<path d="M17 13H18V12H17V13Z" fill="#0F100F"/>
<path d="M18 12H19V11H18V12Z" fill="#0F100F"/>
<path d="M19 11H20V10H19V11Z" fill="#0F100F"/>
<path d="M20 10H21V9H20V10Z" fill="#0F100F"/>
<path d="M11 5H12V6H11V5Z" fill="#0F100F"/>
<path d="M10 5H11V6H10V5Z" fill="#0F100F"/>
<path d="M9 5H10V6H9V5Z" fill="#0F100F"/>
<path d="M8 6H9V7H8V6Z" fill="#0F100F"/>
<path d="M7 6H8V7H7V6Z" fill="#0F100F"/>
<path d="M6 6H7V7H6V6Z" fill="#0F100F"/>
<path d="M5 7H6V8H5V7Z" fill="#0F100F"/>
<path d="M4 7H5V8H4V7Z" fill="#0F100F"/>
<path d="M3 8H4V9H3V8Z" fill="#0F100F"/>
<path d="M2 8H3V9H2V8Z" fill="#0F100F"/>
<path d="M2 9H3V10H2V9Z" fill="#0F100F"/>
<path d="M1 10H2V11H1V10Z" fill="#0F100F"/>
<path d="M1 11H2V12H1V11Z" fill="#0F100F"/>
<path d="M0 12H1V13H0V12Z" fill="#0F100F"/>
<path d="M0 13H1V14H0V13Z" fill="#0F100F"/>
<path d="M0 14H1V15H0V14Z" fill="#0F100F"/>
<path d="M0 15H1V16H0V15Z" fill="#0F100F"/>
<path d="M0 16H1V17H0V16Z" fill="#0F100F"/>
<path d="M0 17H1V18H0V17Z" fill="#0F100F"/>
<path d="M0 18H1V19H0V18Z" fill="#0F100F"/>
<path d="M0 19H1V20H0V19Z" fill="#0F100F"/>
<path d="M0.666016 20H1.66602V21H0.666016V20Z" fill="#0F100F"/>
<path d="M11 4H12V5H11V4Z" fill="#0F100F"/>
<path d="M11 3H12V4H11V3Z" fill="#0F100F"/>
<path d="M11 2H12V3H11V2Z" fill="#0F100F"/>
<path d="M11 1H12V2H11V1Z" fill="#0F100F"/>
<path d="M11 0H12V1H11V0Z" fill="#0F100F"/>
<path d="M12 0H13V1H12V0Z" fill="#0F100F"/>
<path d="M13 1H14V2H13V1Z" fill="#0F100F"/>
<path d="M14 2H15V3H14V2Z" fill="#0F100F"/>
<path d="M15 3H16V4H15V3Z" fill="#0F100F"/>
<path d="M16 4H17V5H16V4Z" fill="#0F100F"/>
<path d="M17 5H18V6H17V5Z" fill="#0F100F"/>
<path d="M18 6H19V7H18V6Z" fill="#0F100F"/>
<path d="M19 7H20V8H19V7Z" fill="#0F100F"/>
<path d="M20 8H21V9H20V8Z" fill="#0F100F"/>
</svg>
