<svg width="21" height="23" viewBox="0 0 21 23" fill="none" xmlns="http://www.w3.org/2000/svg">
<path d="M19.9839 10.1129L19.9839 9.0968L21 9.0968L21 10.1129L19.9839 10.1129Z" fill="white"/>
<path d="M19.9839 9.43557L19.9839 8.41943L21 8.41943L21 9.43557L19.9839 9.43557Z" fill="white"/>
<path d="M19.9839 11.1291L19.9839 10.1129L21 10.1129L21 11.1291L19.9839 11.1291Z" fill="white"/>
<path d="M19.9839 12.1453L19.9839 11.1292L21 11.1292L21 12.1453L19.9839 12.1453Z" fill="white"/>
<path d="M19.9839 14.1775L19.9839 13.1614L21 13.1614L21 14.1775L19.9839 14.1775Z" fill="white"/>
<path d="M19.9839 12.1453L19.9839 11.1292L21 11.1292L21 12.1453L19.9839 12.1453Z" fill="white"/>
<path d="M19.9839 13.1614L19.9839 12.1453L21 12.1453L21 13.1614L19.9839 13.1614Z" fill="white"/>
<path d="M19.9839 16.2099L19.9839 15.1937L21 15.1937L21 16.2099L19.9839 16.2099Z" fill="white"/>
<path d="M19.9839 15.1936L19.9839 14.1775L21 14.1775L21 15.1936L19.9839 15.1936Z" fill="white"/>
<path d="M19.9839 18.2421L19.9839 17.226L21 17.226L21 18.2421L19.9839 18.2421Z" fill="white"/>
<path d="M19.9839 17.226L19.9839 16.2098L21 16.2098L21 17.226L19.9839 17.226Z" fill="white"/>
<path d="M19.9839 20.2743L19.9839 19.2582L21 19.2582L21 20.2743L19.9839 20.2743Z" fill="white"/>
<path d="M19.1374 21.2906L19.1374 20.2744L20.1536 20.2744L20.1536 21.2906L19.1374 21.2906Z" fill="white"/>
<path d="M18.1213 22.3067L18.1213 21.2905L19.1374 21.2905L19.1374 22.3067L18.1213 22.3067Z" fill="white"/>
<path d="M17.1051 22.3067L17.1051 21.2905L18.1213 21.2905L18.1213 22.3067L17.1051 22.3067Z" fill="white"/>
<path d="M16.089 22.3067L16.089 21.2905L17.1051 21.2905L17.1051 22.3067L16.089 22.3067Z" fill="white"/>
<path d="M15.4113 22.3067L15.4113 21.2905L16.4274 21.2905L16.4274 22.3067L15.4113 22.3067Z" fill="white"/>
<path d="M14.0567 22.3067L14.0567 21.2905L15.4116 21.2905L15.4116 22.3067L14.0567 22.3067Z" fill="white"/>
<path d="M19.9839 19.2582L19.9839 18.2421L21 18.2421L21 19.2582L19.9839 19.2582Z" fill="white"/>
<path d="M1.01614 10.1129L1.01614 9.0968L6.79493e-06 9.0968L6.75051e-06 10.1129L1.01614 10.1129Z" fill="white"/>
<path d="M1.01614 9.43557L1.01614 8.41943L6.79493e-06 8.41943L6.75051e-06 9.43557L1.01614 9.43557Z" fill="white"/>
<path d="M9.99219 12.1937L9.99219 13.2098L11.0083 13.2098L11.0083 12.1937L9.99219 12.1937Z" fill="white"/>
<path d="M9.99219 11.1776L9.99219 12.1937L11.0083 12.1937L11.0083 11.1776L9.99219 11.1776Z" fill="white"/>
<path d="M9.99219 10.1616L9.99219 11.1777L11.0083 11.1777L11.0083 10.1616L9.99219 10.1616Z" fill="white"/>
<path d="M9.99219 9.14512L9.99219 10.1613L11.0083 10.1613L11.0083 9.14512L9.99219 9.14512Z" fill="white"/>
<path d="M9.99219 8.12913L9.99219 9.14526L11.0083 9.14526L11.0083 8.12913L9.99219 8.12913Z" fill="white"/>
<path d="M9.99219 7.11314L9.99219 8.12927L11.0083 8.12927L11.0083 7.11314L9.99219 7.11314Z" fill="white"/>
<path d="M9.99219 6.09702L9.99219 7.11316L11.0083 7.11316L11.0083 6.09702L9.99219 6.09702Z" fill="white"/>
<path d="M9.99219 5.08054L9.99219 6.09668L11.0083 6.09668L11.0083 5.08054L9.99219 5.08054Z" fill="white"/>
<path d="M9.99219 4.06455L9.99219 5.08069L11.0083 5.08069L11.0083 4.06455L9.99219 4.06455Z" fill="white"/>
<path d="M9.99219 3.04856L9.99219 4.0647L11.0083 4.0647L11.0083 3.04856L9.99219 3.04856Z" fill="white"/>
<path d="M9.99219 2.03245L9.99219 3.04858L11.0083 3.04858L11.0083 2.03245L9.99219 2.03245Z" fill="white"/>
<path d="M11.0083 12.1936L11.0083 11.1775L9.99219 11.1775L9.99219 12.1936L11.0083 12.1936Z" fill="white"/>
<path d="M9.99219 -2.37226e-05L9.99219 1.01611L11.0083 1.01611L11.0083 -2.35894e-05L9.99219 -2.37226e-05Z" fill="white"/>
<path d="M9.99219 1.0134L9.99219 2.02954L11.0083 2.02954L11.0083 1.0134L9.99219 1.0134Z" fill="white"/>
<path d="M8.97604 1.01597L8.97604 2.0321L9.99218 2.0321L9.99218 1.01597L8.97604 1.01597Z" fill="white"/>
<path d="M7.9599 2.03245L7.9599 3.04858L8.97604 3.04858L8.97604 2.03245L7.9599 2.03245Z" fill="white"/>
<path d="M6.94376 3.04856L6.94376 4.0647L7.95989 4.0647L7.95989 3.04856L6.94376 3.04856Z" fill="white"/>
<path d="M5.92761 4.06455L5.92761 5.08069L6.94375 5.08069L6.94375 4.06455L5.92761 4.06455Z" fill="white"/>
<path d="M14.0567 5.08083L14.0567 4.0647L15.0729 4.0647L15.0729 5.08083L14.0567 5.08083Z" fill="white"/>
<path d="M13.0406 4.06472L13.0406 3.04858L14.0568 3.04858L14.0568 4.06472L13.0406 4.06472Z" fill="white"/>
<path d="M12.0245 3.04824L12.0245 2.0321L13.0406 2.0321L13.0406 3.04824L12.0245 3.04824Z" fill="white"/>
<path d="M11.0083 2.03225L11.0083 1.01611L12.0245 1.01611L12.0245 2.03225L11.0083 2.03225Z" fill="white"/>
<path d="M1.01614 11.1291L1.01614 10.1129L6.79493e-06 10.1129L6.75051e-06 11.1291L1.01614 11.1291Z" fill="white"/>
<path d="M1.01614 12.1453L1.01614 11.1292L6.79493e-06 11.1292L6.75051e-06 12.1453L1.01614 12.1453Z" fill="white"/>
<path d="M1.01614 14.1775L1.01614 13.1614L6.79493e-06 13.1614L6.75051e-06 14.1775L1.01614 14.1775Z" fill="white"/>
<path d="M1.01614 12.1453L1.01614 11.1292L6.79493e-06 11.1292L6.75051e-06 12.1453L1.01614 12.1453Z" fill="white"/>
<path d="M1.01614 13.1614L1.01614 12.1453L6.79493e-06 12.1453L6.75051e-06 13.1614L1.01614 13.1614Z" fill="white"/>
<path d="M1.01614 16.2099L1.01614 15.1937L6.79493e-06 15.1937L6.75051e-06 16.2099L1.01614 16.2099Z" fill="white"/>
<path d="M1.01614 15.1936L1.01614 14.1775L6.79493e-06 14.1775L6.75051e-06 15.1936L1.01614 15.1936Z" fill="white"/>
<path d="M1.01614 18.2421L1.01614 17.226L6.79493e-06 17.226L6.75051e-06 18.2421L1.01614 18.2421Z" fill="white"/>
<path d="M1.01614 17.226L1.01614 16.2098L6.79493e-06 16.2098L6.75051e-06 17.226L1.01614 17.226Z" fill="white"/>
<path d="M1.01614 20.2743L1.01614 19.2582L6.79493e-06 19.2582L6.75051e-06 20.2743L1.01614 20.2743Z" fill="white"/>
<path d="M2.03229 21.2906L2.03229 20.2744L1.01615 20.2744L1.01615 21.2906L2.03229 21.2906Z" fill="white"/>
<path d="M1.01614 19.2582L1.01614 18.2421L6.79493e-06 18.2421L6.75051e-06 19.2582L1.01614 19.2582Z" fill="white"/>
<path d="M13.0406 21.2905L14.0567 21.2905L14.0567 22.3067L13.0406 22.3067L13.0406 21.2905Z" fill="white"/>
<path d="M12.1937 21.2905L13.2098 21.2905L13.2098 22.3067L12.1937 22.3067L12.1937 21.2905Z" fill="white"/>
<path d="M11.1775 21.2905L12.1937 21.2905L12.1937 22.3067L11.1775 22.3067L11.1775 21.2905Z" fill="white"/>
<path d="M10.1614 21.2905L11.1775 21.2905L11.1775 22.3067L10.1614 22.3067L10.1614 21.2905Z" fill="white"/>
<path d="M8.1291 21.2905L9.14523 21.2905L9.14523 22.3067L8.1291 22.3067L8.1291 21.2905Z" fill="white"/>
<path d="M10.1614 21.2905L11.1775 21.2905L11.1775 22.3067L10.1614 22.3067L10.1614 21.2905Z" fill="white"/>
<path d="M9.14524 21.2905L10.1614 21.2905L10.1614 22.3067L9.14524 22.3067L9.14524 21.2905Z" fill="white"/>
<path d="M6.09681 21.2905L7.11295 21.2905L7.11295 22.3067L6.09681 22.3067L6.09681 21.2905Z" fill="white"/>
<path d="M7.11295 21.2905L8.12909 21.2905L8.12909 22.3067L7.11295 22.3067L7.11295 21.2905Z" fill="white"/>
<path d="M4.06455 21.2905L5.08069 21.2905L5.08069 22.3067L4.06455 22.3067L4.06455 21.2905Z" fill="white"/>
<path d="M5.0807 21.2905L6.09683 21.2905L6.09683 22.3067L5.0807 22.3067L5.0807 21.2905Z" fill="white"/>
<path d="M2.03229 21.2905L3.04843 21.2905L3.04843 22.3067L2.03229 22.3067L2.03229 21.2905Z" fill="white"/>
<path d="M3.04841 21.2905L4.06454 21.2905L4.06454 22.3067L3.04841 22.3067L3.04841 21.2905Z" fill="white"/>
</svg>
