<svg width="10" height="10" viewBox="0 0 10 10" fill="none" xmlns="http://www.w3.org/2000/svg">
<path fill-rule="evenodd" clip-rule="evenodd" d="M4.78596 0.192211C5.04224 -0.0640704 5.45776 -0.0640704 5.71404 0.192211L9.65154 4.12971C9.90782 4.38599 9.90782 4.80151 9.65154 5.05779L5.71404 8.99529C5.45776 9.25157 5.04224 9.25157 4.78596 8.99529C4.52968 8.73901 4.52968 8.32349 4.78596 8.06721L8.25942 4.59375L4.78596 1.12029C4.52968 0.864007 4.52968 0.448493 4.78596 0.192211Z" fill="#FF691E"/>
<path fill-rule="evenodd" clip-rule="evenodd" d="M0 4.59351C0 4.23107 0.293813 3.93726 0.65625 3.93726H8.64062C9.00306 3.93726 9.29688 4.23107 9.29688 4.59351C9.29688 4.95594 9.00306 5.24976 8.64062 5.24976H0.65625C0.293813 5.24976 0 4.95594 0 4.59351Z" fill="#FF691E"/>
</svg>
