<svg width="24" height="36" viewBox="0 0 24 36" fill="none" xmlns="http://www.w3.org/2000/svg">
<path d="M6.28134 3.76372C6.35021 3.83097 6.39466 3.91411 6.45074 4.01918C6.45078 4.01923 6.45083 4.01927 6.45087 4.01931C6.45888 4.03432 6.46708 4.04985 6.47567 4.06577C6.54489 4.19399 6.63854 4.35687 6.81209 4.57014C7.00384 4.8058 7.09404 5.05493 7.12139 5.2348C7.12649 5.26834 7.13867 5.29616 7.18201 5.35372C7.21043 5.39147 7.25094 5.44041 7.30938 5.51107C7.34046 5.54866 7.37667 5.59236 7.41879 5.6438C7.5582 5.81408 7.80568 6.05196 8.03382 6.27105C8.17228 6.40403 8.30363 6.53013 8.39923 6.63007C8.53904 6.77624 8.66274 6.92848 8.79714 7.09406C8.92022 7.2457 9.05227 7.40857 9.21412 7.58793C9.3383 7.72556 9.40774 7.91048 9.47249 8.10422C9.48073 8.12888 9.48896 8.15369 9.49715 8.17857C9.55365 8.35017 9.61133 8.52567 9.70368 8.68548C9.86829 8.97034 10.0725 9.12484 10.2985 9.29589C10.387 9.36279 10.4788 9.43222 10.5728 9.513C10.7216 9.64074 10.9183 9.84163 11.1149 10.0442C11.1316 10.0614 11.1484 10.0787 11.1652 10.0959C11.1653 10.096 11.1653 10.0961 11.1654 10.0961C11.3453 10.2816 11.5219 10.4637 11.6595 10.5891C11.8783 10.7885 11.9798 10.8442 12.0646 10.8906C12.0965 10.9081 12.126 10.9242 12.1584 10.9462C12.2753 11.0254 12.4197 11.1769 12.5662 11.3304C12.5668 11.3309 12.5674 11.3315 12.5679 11.3321C12.5922 11.3576 12.5481 11.4419 12.4694 11.5203C12.3907 11.5988 12.3071 11.6418 12.2828 11.6163C12.2052 11.535 12.1295 11.4557 12.0588 11.3876C11.9876 11.4515 11.9178 11.484 11.896 11.461C11.8412 11.4037 11.6185 11.2828 11.2666 11.0971C11.2727 11.1278 11.2761 11.1552 11.2783 11.1801C11.2808 11.2093 11.2814 11.233 11.282 11.2533C11.2833 11.2956 11.2842 11.3236 11.3 11.3593C11.3483 11.4301 11.4396 11.5261 11.5358 11.627C11.5601 11.6525 11.5161 11.7366 11.4374 11.8151C11.3587 11.8936 11.2751 11.9365 11.2508 11.9111C11.2503 11.9106 11.2498 11.9101 11.2493 11.9096C11.154 11.8098 11.0597 11.7108 11.0095 11.6365C10.9968 11.6176 10.9868 11.6003 10.9798 11.5868C10.9743 11.576 10.9676 11.5622 10.9666 11.5519C10.9664 11.5505 10.9662 11.5478 10.9664 11.5442C10.9664 11.5442 10.9664 11.5441 10.9664 11.544C10.9665 11.542 10.9669 11.5318 10.9733 11.515C10.9746 11.5116 10.9775 11.5041 10.9832 11.4931C10.9832 11.4917 10.9832 11.4904 10.9831 11.4891C10.9825 11.4705 10.9819 11.4515 10.9803 11.4321C10.9738 11.356 10.9522 11.2467 10.8624 11.0641C10.7798 10.8961 10.5872 10.6652 10.3233 10.4006C10.3353 10.4243 10.3474 10.4479 10.3598 10.4713C10.3911 10.5301 10.4237 10.5878 10.4569 10.645C10.4697 10.6669 10.4823 10.6885 10.4953 10.7103C10.5162 10.7454 10.5373 10.7806 10.5586 10.8155C10.5729 10.8391 10.5874 10.8627 10.6018 10.8862C10.6019 10.8863 10.6019 10.8863 10.602 10.8864C10.622 10.9191 10.6421 10.9519 10.6621 10.9851C10.669 10.9969 10.6759 11.0085 10.6828 11.0199C10.7101 11.0654 10.737 11.1101 10.761 11.1684C10.7632 11.1763 10.765 11.1854 10.766 11.1925C10.7671 11.2001 10.768 11.2076 10.7686 11.2149C10.7692 11.2213 10.7695 11.2277 10.7699 11.2337C10.77 11.2345 10.77 11.2353 10.7701 11.2361C10.7706 11.2428 10.7711 11.2491 10.7717 11.2551C10.7722 11.2611 10.7728 11.2669 10.7736 11.2723C10.7736 11.2724 10.7737 11.2724 10.7737 11.2724C10.7746 11.278 10.7753 11.2822 10.7768 11.2877C10.7786 11.2946 10.7804 11.3002 10.783 11.3067C10.7855 11.3129 10.7884 11.3191 10.7915 11.3252C10.7946 11.3312 10.798 11.3372 10.8016 11.3431C10.8052 11.349 10.809 11.3549 10.8129 11.3608C10.8168 11.3666 10.8209 11.3724 10.8251 11.3782C10.8292 11.384 10.8333 11.3899 10.8376 11.3957C10.8473 11.4092 10.8427 11.4361 10.8241 11.471C10.8055 11.506 10.7746 11.5459 10.7379 11.5825C10.7012 11.6191 10.6613 11.6497 10.6267 11.6679C10.592 11.686 10.5655 11.6901 10.5526 11.6798C10.5491 11.677 10.5455 11.6743 10.5419 11.6714C10.5398 11.6697 10.5378 11.668 10.5357 11.6663C10.53 11.6617 10.5243 11.6571 10.5187 11.6523C10.5131 11.6475 10.5075 11.6425 10.5021 11.6374C10.4966 11.6322 10.4911 11.6269 10.4859 11.6212C10.4806 11.6155 10.4755 11.6095 10.4707 11.603C10.466 11.5966 10.461 11.589 10.4571 11.5816C10.4542 11.5763 10.4512 11.5691 10.4488 11.563C10.4463 11.5567 10.4442 11.5501 10.4422 11.5437C10.4403 11.5372 10.4386 11.5307 10.437 11.5246C10.4368 11.5239 10.4367 11.5233 10.4365 11.5226C10.4351 11.5172 10.4337 11.5119 10.4323 11.5071C10.4307 11.5016 10.4291 11.4967 10.4273 11.4921C10.4255 11.4871 10.424 11.4843 10.4221 11.4811C10.3925 11.4423 10.3493 11.401 10.3082 11.3616C10.3031 11.3567 10.2979 11.3517 10.2929 11.3468C10.2658 11.3211 10.2385 11.2955 10.2113 11.27C10.1915 11.2514 10.1717 11.2329 10.1519 11.2142C10.1228 11.1868 10.0938 11.1591 10.065 11.1312C10.0472 11.1139 10.0297 11.0968 10.012 11.0793C9.96594 11.0338 9.92035 10.9874 9.876 10.9397C9.83172 10.892 9.78842 10.8428 9.74717 10.7914C9.70609 10.7403 9.66571 10.6848 9.63089 10.6271C9.60543 10.5845 9.58547 10.5347 9.56861 10.4871C9.55956 10.4615 9.551 10.4361 9.54268 10.4109C9.54267 10.4108 9.54266 10.4107 9.54265 10.4106C9.53535 10.3885 9.52818 10.3667 9.52073 10.3454C9.50484 10.2996 9.48787 10.2559 9.4688 10.2143C9.44979 10.1728 9.42884 10.1335 9.40553 10.0961C9.38238 10.059 9.35679 10.0233 9.32956 9.98985C9.3022 9.95624 9.27354 9.92504 9.24199 9.89368C9.20035 9.8526 9.15674 9.81407 9.11157 9.77492C9.06664 9.73614 9.02059 9.6978 8.97439 9.6594C8.95824 9.64598 8.94215 9.63243 8.92593 9.61899C8.92587 9.61893 8.92581 9.61887 8.92576 9.61882C8.89575 9.59395 8.86566 9.56903 8.83565 9.54398C8.78933 9.5053 8.74308 9.46632 8.69735 9.42649C8.65164 9.38666 8.60631 9.34594 8.56219 9.30355C8.51813 9.26108 8.47419 9.21617 8.43417 9.16693C8.39835 9.12313 8.36353 9.07768 8.32957 9.03317C8.3206 9.02143 8.31162 9.00968 8.30265 8.99793C8.25998 8.94227 8.21757 8.8895 8.17146 8.84147C8.1255 8.79337 8.07557 8.74931 8.02195 8.70806C7.9685 8.66694 7.91139 8.62828 7.852 8.59114C7.79235 8.55384 7.73161 8.51887 7.66867 8.48416C7.60616 8.44976 7.5424 8.41618 7.47716 8.38287C7.44093 8.36433 7.40367 8.34331 7.36923 8.32269C7.33445 8.30187 7.30066 8.28042 7.26766 8.25888C7.25427 8.25015 7.24103 8.24135 7.22784 8.23267C7.20861 8.22001 7.1896 8.20741 7.17068 8.19521C7.13874 8.17463 7.10706 8.15508 7.07504 8.13733C7.04304 8.11958 7.0106 8.10372 6.97716 8.09053C6.9425 8.07691 6.9119 8.06771 6.87282 8.0592C6.78537 8.03073 6.74041 8.00388 6.69032 7.97415C6.68045 7.9683 6.67029 7.9624 6.65968 7.95628C6.6004 7.91984 6.54408 7.88056 6.49047 7.83982C6.43638 7.79863 6.38515 7.75609 6.33512 7.71112C6.28557 7.66661 6.2376 7.61984 6.19145 7.57162C6.14537 7.52347 6.10106 7.47372 6.05835 7.42214C6.01565 7.3706 5.97385 7.31623 5.9353 7.26244C5.913 7.23137 5.89051 7.19717 5.87018 7.16484C5.85551 7.14153 5.84133 7.11826 5.82744 7.09545C5.82177 7.08613 5.81613 7.07686 5.81053 7.06771C5.7912 7.03615 5.77214 7.00575 5.75257 6.97755C5.73301 6.94933 5.71292 6.92317 5.6914 6.89945C5.66986 6.87567 5.64686 6.85432 5.62189 6.83493C5.59591 6.81492 5.57282 6.79982 5.54109 6.78272C5.52036 6.77165 5.49991 6.76094 5.4795 6.75029C5.44895 6.73433 5.41841 6.7187 5.38742 6.70318C5.35647 6.68769 5.32564 6.67265 5.29434 6.65785C5.28428 6.65309 5.27365 6.64807 5.26348 6.64337C5.23206 6.62886 5.20066 6.61487 5.16876 6.6014C5.13693 6.58796 5.10489 6.57513 5.07235 6.56301C5.03967 6.55082 5.00694 6.53945 4.97289 6.52851C4.91495 6.51 4.86922 6.48255 4.83105 6.45664C4.79257 6.43027 4.75892 6.40333 4.72621 6.37705C4.72008 6.37213 4.71395 6.36721 4.70783 6.36228C4.68152 6.34101 4.65574 6.31999 4.62982 6.29982C4.59788 6.27494 4.56578 6.25127 4.53277 6.22831C4.50007 6.20554 4.46624 6.18336 4.43181 6.16261C4.39705 6.14169 4.36294 6.12255 4.32506 6.10305C4.28766 6.08369 4.24707 6.06664 4.20268 6.04786C4.15867 6.02927 4.11275 6.00949 4.06807 5.98765C4.02338 5.96588 3.97971 5.94202 3.93841 5.91629C3.897 5.89054 3.85738 5.86277 3.82 5.8337C3.78241 5.80448 3.74675 5.77373 3.71258 5.74183C3.67848 5.71001 3.64463 5.67576 3.61413 5.64254C3.56473 5.58874 3.51647 5.53426 3.46845 5.47936C3.42072 5.42474 3.37324 5.36954 3.32609 5.31424C3.27903 5.25903 3.23209 5.20358 3.18542 5.14803C3.13873 5.09246 3.09216 5.03677 3.04571 4.98112C3.03544 4.96881 3.02517 4.9565 3.01489 4.94419C2.97873 4.90085 2.94257 4.8575 2.90649 4.81441C2.90626 4.81409 2.90604 4.81377 2.90581 4.81346C2.85932 4.75805 2.81363 4.70368 2.7668 4.64946C2.74957 4.62958 2.733 4.61052 2.71593 4.59137C2.69883 4.5722 2.68188 4.55357 2.66455 4.53499C2.64719 4.51639 2.62966 4.49817 2.61207 4.48057C2.59426 4.46279 2.5766 4.44577 2.55818 4.42918C2.54134 4.41394 2.52397 4.39946 2.50506 4.38356C2.50334 4.38211 2.50161 4.38066 2.49988 4.37921C2.47919 4.36182 2.45648 4.34121 2.4371 4.32032C2.38602 4.26475 2.33511 4.21172 2.28209 4.15892C2.22905 4.10608 2.17501 4.05449 2.12002 4.00295C2.09855 3.98282 2.07684 3.96274 2.0552 3.94258C2.02154 3.91121 1.98775 3.87973 1.95412 3.84789C1.89878 3.79552 1.84413 3.74222 1.79072 3.68698C1.73752 3.63196 1.68562 3.57493 1.63583 3.51627C1.58608 3.45768 1.53769 3.39677 1.49168 3.33492C1.44046 3.26596 1.3905 3.19643 1.34071 3.1262C1.29103 3.05606 1.24179 2.9854 1.1931 2.91473C1.14419 2.84383 1.09574 2.77279 1.04755 2.70145C0.99933 2.63007 0.951419 2.55846 0.903717 2.48655C0.875173 2.4435 0.846772 2.40034 0.818415 2.3571C0.792795 2.34484 0.768091 2.33323 0.744415 2.32197C0.56947 2.23877 0.443058 2.17854 0.297151 2.0782C0.281909 2.06986 0.267399 2.06518 0.249796 2.05944C0.246437 2.05834 0.242943 2.05711 0.239328 2.05591C0.216435 2.0483 0.190926 2.03877 0.161502 2.01945C0.102805 1.98092 0.0304804 1.90421 0.000654757 1.74145C-0.00687879 1.70033 0.0534351 1.60906 0.135443 1.53754C0.192973 1.48738 0.245903 1.46029 0.274975 1.46275C0.25498 1.42449 0.235486 1.38588 0.216001 1.34742C0.208238 1.33205 0.215045 1.30353 0.235418 1.26773C0.255804 1.23192 0.287949 1.19188 0.325204 1.15596C0.362469 1.12003 0.402046 1.09095 0.435718 1.07464C0.469359 1.05835 0.494268 1.05622 0.505297 1.06843C0.534489 1.10088 0.563555 1.13324 0.593116 1.16513C0.622687 1.19706 0.652604 1.22835 0.682941 1.2594C0.713268 1.29044 0.743988 1.32107 0.775073 1.35153C0.806053 1.38185 0.837293 1.41204 0.868871 1.442C0.900625 1.47217 0.932113 1.50144 0.964143 1.53116C0.983348 1.54895 1.00277 1.56698 1.02196 1.58454C1.02909 1.59111 1.03616 1.5974 1.04315 1.60379C1.04887 1.609 1.05457 1.61429 1.06046 1.61971C1.12274 1.67641 1.18592 1.73334 1.24883 1.78947C1.31201 1.84591 1.37531 1.90208 1.4388 1.95807C1.50233 2.01409 1.56604 2.06982 1.62984 2.12551C1.69362 2.18117 1.7575 2.23666 1.82167 2.29208C1.88564 2.34726 1.94996 2.40259 2.01449 2.45741C2.0644 2.49981 2.1142 2.54155 2.16433 2.5831C2.18972 2.5938 2.21452 2.60473 2.23883 2.61567C2.30958 2.64754 2.38648 2.67341 2.46238 2.69875C2.35972 2.62123 2.26771 2.56849 2.18007 2.51833C2.16832 2.5116 2.15662 2.50495 2.14501 2.49826C2.02652 2.42999 1.91505 2.36102 1.79842 2.23496C1.46674 1.87642 1.27643 1.66652 1.17002 1.52354C1.06363 1.3806 1.03716 1.29993 1.04104 1.19607C1.04653 1.0493 0.95349 0.869656 0.886588 0.799532C0.862283 0.774061 0.906421 0.689746 0.985115 0.611278C1.06384 0.532797 1.14741 0.489787 1.17172 0.515262C1.24236 0.589304 1.34588 0.780852 1.33936 0.955532C1.33645 1.03334 1.35348 1.10244 1.45825 1.24321C1.56303 1.384 1.75166 1.59189 2.08398 1.95112C2.19641 2.07265 2.30347 2.13922 2.4207 2.20677C2.4322 2.2134 2.44388 2.21997 2.45559 2.22667C2.45565 2.22673 2.4557 2.22678 2.45576 2.22684C2.56373 2.28862 2.68131 2.35585 2.81707 2.46933C3.12998 2.73087 3.56613 3.06745 3.68593 3.13108C3.70944 3.14357 3.73303 3.15478 3.75786 3.16665C3.85319 3.21221 3.96824 3.26725 4.17983 3.43898C4.22611 3.47654 4.27774 3.52311 4.33248 3.57552C4.45118 3.61762 4.56478 3.66014 4.65376 3.70691C4.73055 3.74728 4.81808 3.7678 4.90713 3.78344C4.93276 3.78794 4.95898 3.79205 4.98513 3.7962C5.04818 3.80618 5.11124 3.8162 5.16736 3.83129C5.21209 3.84332 5.26146 3.85339 5.31364 3.86403C5.50374 3.90277 5.73154 3.94921 5.91141 4.12671C6.10208 4.31486 6.24787 4.49339 6.37176 4.64924C6.28753 4.52804 6.23039 4.42659 6.18408 4.3408C6.17534 4.32462 6.16702 4.30906 6.15901 4.29408C6.10246 4.18827 6.06135 4.11134 5.99734 4.04884C5.69162 3.75031 5.55417 3.66113 5.35659 3.60298C5.30457 3.58768 5.24298 3.57499 5.17666 3.5613C5.04409 3.53394 4.89249 3.50262 4.75982 3.43874C4.63625 3.37925 4.48659 3.32416 4.32808 3.26574C4.32804 3.2657 4.32799 3.26566 4.32795 3.26561C4.29698 3.2542 4.26565 3.24264 4.23411 3.23091C4.04185 3.15941 3.84242 3.08142 3.66914 2.98464C3.65061 2.97429 3.62766 2.96264 3.60129 2.94928C3.44909 2.8722 3.18189 2.73688 2.9784 2.44882C2.93371 2.38555 2.89729 2.30977 2.85581 2.22323C2.84317 2.19687 2.83014 2.16941 2.81617 2.14111C2.75585 2.01894 2.67785 1.87521 2.55001 1.70783C2.4445 1.56968 2.30385 1.41339 2.15788 1.25101C2.08598 1.17103 2.01285 1.08951 1.94187 1.00808C1.72748 0.762091 1.54155 0.526058 1.35606 0.290392C1.35602 0.290349 1.35597 0.290307 1.35593 0.290264C1.33402 0.262423 1.38071 0.176753 1.46013 0.0990797C1.53952 0.0214561 1.6217 -0.018969 1.64362 0.00883722C1.82923 0.244642 2.01447 0.480068 2.22815 0.725235C2.29805 0.805432 2.37062 0.886301 2.44224 0.965971C2.58891 1.12914 2.73155 1.28758 2.83804 1.42701C2.96805 1.59725 3.04746 1.74363 3.1086 1.86748C3.12333 1.89731 3.13689 1.92564 3.14978 1.95252C3.19082 2.0381 3.22483 2.10934 3.26722 2.16935C3.46426 2.44827 3.72123 2.5786 3.87388 2.65608C3.90096 2.66982 3.9247 2.68196 3.9443 2.69291C4.11419 2.78779 4.31049 2.86465 4.50258 2.93609C4.53374 2.94768 4.56478 2.95919 4.59562 2.97055C4.59571 2.97055 4.5958 2.97054 4.59589 2.97054C4.75437 3.02894 4.90668 3.08507 5.03254 3.14567C5.1603 3.20719 5.29738 3.23517 5.42558 3.26137C5.49437 3.27544 5.56052 3.28909 5.6214 3.307C5.83101 3.36868 5.97464 3.46424 6.28134 3.76372ZM0.306268 1.52153C0.33047 1.61707 0.37173 1.67337 0.410439 1.70732C0.38769 1.66836 0.365413 1.62908 0.343409 1.58948C0.330883 1.56695 0.318506 1.5443 0.306268 1.52153ZM4.0554 3.86729C4.04106 3.86222 4.02661 3.85712 4.0121 3.85203C4.0414 3.87687 4.07055 3.90187 4.09967 3.92683C4.13542 3.95747 4.17102 3.98824 4.20658 4.01903C4.15476 3.96534 4.10392 3.91396 4.0554 3.86729ZM5.62714 4.41183C5.45751 4.24445 5.24856 4.20155 5.06008 4.16293C5.0058 4.15181 4.95322 4.14096 4.90378 4.12767C4.88327 4.12215 4.86199 4.11744 4.8401 4.11313C4.91195 4.1939 4.97741 4.26873 5.03093 4.33006C5.19065 4.51305 5.26392 4.63482 5.32832 4.74182C5.34695 4.77278 5.36489 4.8025 5.38391 4.83212C5.41358 4.84268 5.44395 4.8541 5.47338 4.86689C5.51469 4.8847 5.55792 4.90537 5.59791 4.92619C5.63808 4.94706 5.67773 4.96946 5.71546 4.99265C5.7535 5.01604 5.79005 5.04036 5.82564 5.06536C5.85915 5.08886 5.89179 5.11304 5.92337 5.13644C5.92518 5.13778 5.92698 5.13912 5.92879 5.14046C5.9622 5.16516 5.99464 5.18925 6.02637 5.20946C6.05873 5.22997 6.08769 5.24496 6.11775 5.25391C6.15525 5.26513 6.19286 5.2775 6.22929 5.29049C6.26577 5.30349 6.30133 5.31719 6.33611 5.33153C6.37097 5.34589 6.40491 5.36069 6.4384 5.37607C6.44923 5.38104 6.46051 5.38629 6.47114 5.39132C6.47605 5.39364 6.48098 5.39592 6.48585 5.39825C6.43903 5.34947 6.39094 5.29832 6.34199 5.24468C6.27129 5.16719 6.20148 5.07878 6.12443 4.98131C5.99299 4.81503 5.84048 4.62237 5.62714 4.41183ZM7.23577 6.09737C7.21425 6.07733 7.1816 6.04912 7.13949 6.01274C7.12953 6.00414 7.11893 5.99516 7.10794 5.98564C7.10811 5.98595 7.10836 5.9862 7.10853 5.98651C7.1267 6.01919 7.14385 6.04898 7.16333 6.08017C7.1981 6.13572 7.23307 6.1885 7.26975 6.24045C7.30659 6.29258 7.34469 6.34321 7.38413 6.39259C7.42364 6.44204 7.46468 6.49022 7.50674 6.53658C7.54926 6.58336 7.59244 6.6282 7.63789 6.67161C7.65237 6.68544 7.66708 6.69913 7.68196 6.71263C7.65744 6.67378 7.63045 6.63497 7.60191 6.59399C7.57913 6.56127 7.55538 6.52712 7.53114 6.49046C7.52187 6.47643 7.51141 6.45869 7.49921 6.43799C7.45087 6.35593 7.3751 6.22711 7.23577 6.09737ZM8.11484 6.98865C8.12704 6.99707 8.13899 7.00562 8.15053 7.01435C8.18338 7.0392 8.21378 7.06503 8.24312 7.09083C8.2637 7.10896 8.28372 7.12722 8.30353 7.14513C8.31188 7.15269 8.32027 7.16021 8.32856 7.16767C8.34244 7.18017 8.35636 7.19244 8.3702 7.20459C8.28761 7.10485 8.20505 7.00915 8.11424 6.9142C8.11304 6.91295 8.11176 6.91177 8.11055 6.91051C8.11204 6.93714 8.11346 6.96318 8.11484 6.98865Z" fill="#FF691E"/>
<path d="M4.00701 6.45651C4.07426 6.38765 4.1574 6.3432 4.26247 6.28711C4.26251 6.28707 4.26255 6.28703 4.2626 6.28699C4.27761 6.27897 4.29314 6.27077 4.30906 6.26218C4.43727 6.19296 4.60016 6.09932 4.81343 5.92577C5.04908 5.73401 5.29822 5.64381 5.47808 5.61647C5.51163 5.61137 5.53944 5.59918 5.597 5.55585C5.63475 5.52743 5.68369 5.48691 5.75436 5.42848C5.79194 5.3974 5.83565 5.36118 5.88709 5.31907C6.05737 5.17965 6.29524 4.93217 6.51433 4.70404C6.64731 4.56557 6.77341 4.43422 6.87336 4.33862C7.01953 4.19882 7.17176 4.07511 7.33735 3.94071C7.48899 3.81763 7.65185 3.68558 7.83122 3.52374C7.96885 3.39956 8.15377 3.33011 8.34751 3.26536C8.37216 3.25712 8.39698 3.2489 8.42186 3.24071C8.59345 3.1842 8.76896 3.12652 8.92877 3.03418C9.21363 2.86957 9.36812 2.66539 9.53918 2.43931C9.60608 2.3509 9.67551 2.25909 9.75628 2.16502C9.88403 2.01624 10.0849 1.8196 10.2875 1.623C10.3047 1.60625 10.3219 1.58941 10.3392 1.57269C10.3393 1.5726 10.3393 1.57252 10.3394 1.57243C10.5249 1.39254 10.707 1.21598 10.8324 1.07833C11.0318 0.859594 11.0875 0.758031 11.1339 0.673266C11.1514 0.641403 11.1675 0.611846 11.1895 0.579409C11.2687 0.462588 11.4201 0.318118 11.5736 0.171648C11.5742 0.171075 11.5748 0.170503 11.5754 0.169931C11.6008 0.145622 11.6851 0.189746 11.7636 0.268458C11.8421 0.347176 11.8851 0.43075 11.8596 0.45506C11.7783 0.532645 11.699 0.608366 11.6309 0.67908C11.6948 0.750211 11.7273 0.820024 11.7043 0.841899C11.6469 0.896681 11.5261 1.11933 11.3403 1.47128C11.3711 1.46518 11.3985 1.46173 11.4234 1.4596C11.4526 1.4571 11.4763 1.45644 11.4965 1.45584C11.5388 1.45458 11.5669 1.45363 11.6025 1.43785C11.6734 1.38957 11.7694 1.29829 11.8703 1.20206C11.8957 1.17778 11.9799 1.22177 12.0584 1.30045C12.1368 1.37915 12.1798 1.46272 12.1544 1.48705C12.1539 1.48753 12.1534 1.48802 12.1529 1.48851C12.0531 1.58381 11.9541 1.67814 11.8798 1.72832C11.8609 1.74109 11.8436 1.7511 11.8301 1.75804C11.8193 1.76359 11.8055 1.77023 11.7952 1.7713C11.7938 1.77144 11.7911 1.77164 11.7875 1.77146C11.7874 1.77144 11.7874 1.77142 11.7873 1.77141C11.7853 1.77132 11.7751 1.77091 11.7583 1.76458C11.7549 1.7633 11.7474 1.76038 11.7363 1.75462C11.735 1.75466 11.7337 1.7547 11.7323 1.75474C11.7138 1.75533 11.6948 1.75593 11.6753 1.7576C11.5993 1.7641 11.49 1.78566 11.3074 1.87544C11.1394 1.95801 10.9085 2.15064 10.6439 2.41456C10.6676 2.40259 10.6912 2.39041 10.7146 2.37801C10.7733 2.34679 10.8311 2.31415 10.8883 2.28091C10.9102 2.26817 10.9318 2.25556 10.9536 2.24256C10.9887 2.22166 11.0238 2.20055 11.0588 2.17929C11.0824 2.16492 11.106 2.15044 11.1295 2.13601C11.1296 2.13597 11.1296 2.13593 11.1297 2.13589C11.1624 2.11586 11.1952 2.0958 11.2284 2.07571C11.2402 2.06883 11.2517 2.06196 11.2632 2.0551C11.3087 2.0278 11.3533 2.00087 11.4117 1.97684C11.4195 1.97467 11.4287 1.9729 11.4358 1.9719C11.4434 1.97076 11.4509 1.96985 11.4582 1.96922C11.4646 1.96867 11.471 1.96833 11.477 1.96792C11.4778 1.96786 11.4786 1.9678 11.4794 1.96774C11.4861 1.96728 11.4924 1.96675 11.4984 1.96619C11.5044 1.96563 11.5102 1.96508 11.5156 1.96425C11.5156 1.96422 11.5157 1.96419 11.5157 1.96416C11.5213 1.96324 11.5255 1.96252 11.531 1.96108C11.5379 1.95927 11.5435 1.95748 11.55 1.95489C11.5562 1.95239 11.5624 1.9495 11.5685 1.94636C11.5745 1.94322 11.5805 1.9398 11.5864 1.93621C11.5923 1.93261 11.5982 1.92885 11.6041 1.92493C11.6099 1.92102 11.6157 1.91692 11.6215 1.9128C11.6273 1.90868 11.6331 1.90451 11.639 1.90027C11.6525 1.89054 11.6794 1.89518 11.7143 1.91378C11.7493 1.93239 11.7892 1.96325 11.8258 1.99995C11.8624 2.03666 11.893 2.07655 11.9111 2.11119C11.9293 2.14583 11.9334 2.17231 11.9231 2.18526C11.9203 2.18878 11.9176 2.19237 11.9147 2.19591C11.913 2.19801 11.9113 2.20007 11.9096 2.20217C11.905 2.20782 11.9004 2.21359 11.8956 2.2192C11.8908 2.2248 11.8858 2.23031 11.8807 2.23578C11.8755 2.24127 11.8702 2.24672 11.8645 2.25197C11.8588 2.25721 11.8527 2.26231 11.8462 2.26714C11.8399 2.27188 11.8322 2.27681 11.8249 2.28073C11.8196 2.28364 11.8124 2.28666 11.8063 2.28903C11.7999 2.29151 11.7934 2.29368 11.787 2.29561C11.7805 2.29755 11.774 2.29921 11.7679 2.30082C11.7672 2.301 11.7666 2.30119 11.7659 2.30137C11.7605 2.3028 11.7552 2.30416 11.7504 2.30555C11.7449 2.30712 11.74 2.30878 11.7354 2.31052C11.7304 2.3124 11.7276 2.31388 11.7243 2.31576C11.6856 2.34535 11.6443 2.38851 11.6049 2.42963C11.6 2.4348 11.595 2.43991 11.5901 2.44498C11.5643 2.47209 11.5388 2.49932 11.5133 2.52655C11.4947 2.54633 11.4762 2.56616 11.4575 2.58592C11.43 2.61501 11.4023 2.64402 11.3745 2.67283C11.3572 2.6907 11.3401 2.70816 11.3226 2.7258C11.2771 2.77191 11.2307 2.81751 11.183 2.86186C11.1353 2.90613 11.0861 2.94943 11.0347 2.99068C10.9835 3.03176 10.9281 3.07215 10.8704 3.10697C10.8278 3.13243 10.778 3.15238 10.7304 3.16925C10.7047 3.17829 10.6794 3.18686 10.6542 3.19517C10.6541 3.19518 10.654 3.19519 10.6539 3.1952C10.6318 3.2025 10.61 3.20968 10.5887 3.21712C10.5428 3.23302 10.4992 3.24999 10.4576 3.26905C10.4161 3.28806 10.3768 3.30902 10.3394 3.33233C10.3023 3.35547 10.2666 3.38107 10.2331 3.4083C10.1995 3.43566 10.1683 3.46432 10.137 3.49587C10.0959 3.5375 10.0574 3.58111 10.0182 3.62629C9.97942 3.67122 9.94109 3.71726 9.90268 3.76346C9.88926 3.77962 9.87572 3.7957 9.86227 3.81192C9.86222 3.81198 9.86216 3.81204 9.8621 3.81209C9.83723 3.8421 9.81231 3.87219 9.78726 3.9022C9.74858 3.94853 9.70961 3.99478 9.66978 4.04051C9.62995 4.08621 9.58922 4.13155 9.54683 4.17567C9.50437 4.21972 9.45946 4.26367 9.41021 4.30368C9.36641 4.33951 9.32097 4.37432 9.27646 4.40829C9.26471 4.41726 9.25296 4.42623 9.24121 4.4352C9.18556 4.47787 9.13278 4.52029 9.08476 4.56639C9.03665 4.61235 8.99259 4.66229 8.95135 4.71591C8.91023 4.76935 8.87157 4.82646 8.83443 4.88585C8.79713 4.94551 8.76216 5.00625 8.72744 5.06918C8.69305 5.13169 8.65947 5.19546 8.62616 5.26069C8.60761 5.29692 8.5866 5.33419 8.56597 5.36863C8.54515 5.40341 8.5237 5.43719 8.50217 5.47019C8.49343 5.48359 8.48463 5.49682 8.47595 5.51001C8.46329 5.52924 8.45069 5.54826 8.4385 5.56718C8.41792 5.59911 8.39837 5.6308 8.38061 5.66282C8.36287 5.69482 8.34701 5.72725 8.33381 5.7607C8.3202 5.79536 8.311 5.82595 8.30249 5.86504C8.27402 5.95248 8.24716 5.99745 8.21743 6.04754C8.21158 6.0574 8.20568 6.06757 8.19956 6.07818C8.16313 6.13745 8.12384 6.19377 8.0831 6.24739C8.04191 6.30147 7.99937 6.35271 7.95441 6.40273C7.90989 6.45228 7.86312 6.50026 7.8149 6.5464C7.76676 6.59248 7.71701 6.63679 7.66542 6.6795C7.61388 6.7222 7.55951 6.76401 7.50572 6.80256C7.47465 6.82485 7.44046 6.84734 7.40813 6.86767C7.38482 6.88234 7.36155 6.89653 7.33873 6.91041C7.32941 6.91609 7.32015 6.92172 7.31099 6.92733C7.27943 6.94665 7.24904 6.96571 7.22083 6.98528C7.19262 7.00485 7.16646 7.02493 7.14273 7.04645C7.11895 7.068 7.09761 7.09099 7.07821 7.11597C7.05821 7.14195 7.04311 7.16504 7.02601 7.19676C7.01494 7.21749 7.00423 7.23794 6.99357 7.25835C6.97762 7.2889 6.96199 7.31944 6.94647 7.35043C6.93097 7.38138 6.91594 7.41221 6.90114 7.44351C6.89638 7.45357 6.89135 7.4642 6.88666 7.47437C6.87215 7.50579 6.85815 7.5372 6.84468 7.56909C6.83124 7.60092 6.81842 7.63296 6.80629 7.66551C6.79411 7.69818 6.78273 7.73091 6.7718 7.76496C6.75328 7.8229 6.72584 7.86863 6.69992 7.9068C6.67355 7.94528 6.64661 7.97894 6.62034 8.01165C6.61541 8.01777 6.61049 8.0239 6.60557 8.03002C6.5843 8.05633 6.56328 8.08211 6.54311 8.10804C6.51823 8.13997 6.49456 8.17207 6.4716 8.20508C6.44883 8.23778 6.42664 8.27162 6.4059 8.30604C6.38498 8.34081 6.36584 8.37492 6.34634 8.4128C6.32698 8.45019 6.30993 8.49078 6.29115 8.53517C6.27256 8.57919 6.25278 8.6251 6.23093 8.66979C6.20916 8.71448 6.18531 8.75814 6.15958 8.79944C6.13383 8.84085 6.10606 8.88047 6.07698 8.91785C6.04777 8.95544 6.01701 8.9911 5.98511 9.02527C5.95329 9.05937 5.91905 9.09322 5.88582 9.12373C5.83202 9.17313 5.77755 9.22139 5.72265 9.26941C5.66802 9.31713 5.61283 9.36461 5.55753 9.41176C5.50232 9.45882 5.44687 9.50576 5.39132 9.55243C5.33575 9.59913 5.28006 9.64569 5.22441 9.69214C5.2121 9.70241 5.19979 9.71269 5.18748 9.72296C5.14413 9.75913 5.10079 9.79528 5.0577 9.83136C5.05738 9.83159 5.05706 9.83182 5.05674 9.83204C5.00133 9.87854 4.94697 9.92423 4.89274 9.97106C4.87287 9.98828 4.8538 10.0049 4.83465 10.0219C4.81549 10.039 4.79685 10.056 4.77827 10.0733C4.75968 10.0907 4.74146 10.1082 4.72385 10.1258C4.70607 10.1436 4.68905 10.1613 4.67247 10.1797C4.65723 10.1965 4.64274 10.2139 4.62684 10.2328C4.62539 10.2345 4.62394 10.2362 4.62249 10.238C4.6051 10.2587 4.58449 10.2814 4.5636 10.3008C4.50804 10.3518 4.45501 10.4027 4.40221 10.4558C4.34937 10.5088 4.29778 10.5628 4.24624 10.6178C4.22611 10.6393 4.20603 10.661 4.18587 10.6827C4.1545 10.7163 4.12301 10.7501 4.09117 10.7837C4.0388 10.8391 3.9855 10.8937 3.93027 10.9471C3.87524 11.0003 3.81822 11.0522 3.75956 11.102C3.70096 11.1518 3.64006 11.2002 3.5782 11.2462C3.50925 11.2974 3.43972 11.3473 3.36949 11.3971C3.29935 11.4468 3.22869 11.4961 3.15802 11.5448C3.08712 11.5937 3.01608 11.6421 2.94474 11.6903C2.87336 11.7385 2.80174 11.7864 2.72983 11.8341C2.68679 11.8627 2.64363 11.8911 2.60039 11.9194C2.58813 11.9451 2.57651 11.9698 2.56526 11.9934C2.48206 12.1684 2.42182 12.2948 2.32149 12.4407C2.31315 12.4559 2.30847 12.4705 2.30273 12.4881C2.30163 12.4914 2.3004 12.4949 2.2992 12.4985C2.29158 12.5214 2.28205 12.5469 2.26274 12.5764C2.2242 12.635 2.1475 12.7074 1.98474 12.7372C1.94362 12.7447 1.85235 12.6844 1.78083 12.6024C1.73067 12.5449 1.70358 12.492 1.70604 12.4629C1.66778 12.4829 1.62917 12.5024 1.59071 12.5219C1.57534 12.5296 1.54682 12.5228 1.51101 12.5024C1.4752 12.482 1.43517 12.4499 1.39925 12.4127C1.36331 12.3754 1.33423 12.3358 1.31792 12.3021C1.30164 12.2685 1.29951 12.2436 1.31171 12.2326C1.34416 12.2034 1.37653 12.1743 1.40842 12.1447C1.44034 12.1152 1.47163 12.0853 1.50268 12.0549C1.53373 12.0246 1.56436 11.9939 1.59482 11.9628C1.62514 11.9318 1.65532 11.9006 1.68528 11.869C1.71545 11.8372 1.74473 11.8057 1.77445 11.7737C1.79224 11.7545 1.81026 11.7351 1.82782 11.7159C1.83439 11.7088 1.84069 11.7017 1.84707 11.6947C1.85229 11.689 1.85758 11.6833 1.86299 11.6774C1.91969 11.6151 1.97663 11.5519 2.03276 11.489C2.08919 11.4258 2.14537 11.3625 2.20136 11.299C2.25738 11.2355 2.31311 11.1718 2.3688 11.108C2.42446 11.0442 2.47995 10.9804 2.53537 10.9162C2.59055 10.8522 2.64587 10.7879 2.70069 10.7234C2.7431 10.6735 2.78484 10.6237 2.82638 10.5735C2.83709 10.5481 2.84801 10.5233 2.85896 10.499C2.89083 10.4283 2.9167 10.3514 2.94203 10.2755C2.86451 10.3781 2.81177 10.4701 2.76162 10.5578C2.75489 10.5695 2.74824 10.5812 2.74155 10.5928C2.67327 10.7113 2.60431 10.8228 2.47825 10.9394C2.11971 11.2711 1.9098 11.4614 1.76683 11.5678C1.62388 11.6742 1.54322 11.7007 1.43936 11.6968C1.29259 11.6913 1.11294 11.7844 1.04282 11.8513C1.01735 11.8756 0.933032 11.8314 0.854564 11.7527C0.776083 11.674 0.733073 11.5904 0.758548 11.5661C0.83259 11.4955 1.02414 11.392 1.19882 11.3985C1.27663 11.4014 1.34573 11.3844 1.4865 11.2796C1.62728 11.1748 1.83518 10.9862 2.19441 10.6539C2.31593 10.5414 2.38251 10.4344 2.45006 10.3172C2.45669 10.3057 2.46326 10.294 2.46996 10.2823C2.47001 10.2822 2.47007 10.2822 2.47013 10.2821C2.5319 10.1741 2.59914 10.0565 2.71261 9.92078C2.97416 9.60788 3.31074 9.17173 3.37437 9.05193C3.38686 9.02842 3.39807 9.00482 3.40994 8.97999C3.4555 8.88467 3.51054 8.76961 3.68226 8.55802C3.71982 8.51175 3.76639 8.46012 3.81881 8.40538C3.8609 8.28667 3.90343 8.17308 3.9502 8.08409C3.99057 8.0073 4.01109 7.91978 4.02672 7.83073C4.03123 7.80509 4.03534 7.77887 4.03948 7.75273C4.04947 7.68967 4.05948 7.62661 4.07457 7.5705C4.0866 7.52577 4.09668 7.4764 4.10731 7.42421C4.14606 7.23411 4.1925 7.00631 4.36999 6.82645C4.55815 6.63578 4.73668 6.48998 4.89253 6.3661C4.77132 6.45032 4.66988 6.50746 4.58408 6.55378C4.5679 6.56251 4.55235 6.57083 4.53737 6.57884C4.43156 6.63539 4.35463 6.67651 4.29213 6.74051C3.9936 7.04624 3.90441 7.18368 3.84627 7.38126C3.83096 7.43328 3.81828 7.49487 3.80459 7.5612C3.77723 7.69376 3.74591 7.84536 3.68203 7.97803C3.62253 8.1016 3.56745 8.25126 3.50903 8.40978C3.50899 8.40982 3.50894 8.40986 3.5089 8.4099C3.49749 8.44088 3.48592 8.47221 3.4742 8.50374C3.4027 8.696 3.32471 8.89543 3.22793 9.06872C3.21758 9.08725 3.20592 9.11019 3.19257 9.13656C3.11549 9.28876 2.98016 9.55596 2.6921 9.75946C2.62883 9.80415 2.55306 9.84056 2.46651 9.88205C2.44016 9.89468 2.4127 9.90771 2.3844 9.92169C2.26222 9.982 2.1185 10.06 1.95111 10.1878C1.81297 10.2934 1.65667 10.434 1.4943 10.58C1.41432 10.6519 1.3328 10.725 1.25136 10.796C1.00538 11.0104 0.769344 11.1963 0.533679 11.3818C0.533636 11.3818 0.533593 11.3819 0.53355 11.3819C0.505709 11.4038 0.420039 11.3571 0.342366 11.2777C0.264742 11.1983 0.224317 11.1162 0.252123 11.0942C0.487928 10.9086 0.723354 10.7234 0.968521 10.5097C1.04872 10.4398 1.12959 10.3672 1.20926 10.2956C1.37242 10.1489 1.53087 10.0063 1.6703 9.89982C1.84053 9.7698 1.98691 9.69039 2.11077 9.62925C2.1406 9.61452 2.16893 9.60096 2.19581 9.58807C2.28138 9.54704 2.35263 9.51303 2.41264 9.47063C2.69155 9.2736 2.82189 9.01663 2.89937 8.86397C2.91311 8.83689 2.92525 8.81315 2.93619 8.79355C3.03107 8.62367 3.10794 8.42736 3.17937 8.23527C3.19096 8.20411 3.20247 8.17308 3.21384 8.14223C3.21383 8.14214 3.21383 8.14205 3.21383 8.14196C3.27223 7.98348 3.32835 7.83118 3.38896 7.70531C3.45047 7.57756 3.47846 7.44047 3.50466 7.31227C3.51872 7.24348 3.53237 7.17734 3.55029 7.11645C3.61197 6.90684 3.70752 6.76322 4.00701 6.45651ZM1.76481 12.4316C1.86036 12.4074 1.91666 12.3661 1.95061 12.3274C1.91165 12.3502 1.87237 12.3724 1.83277 12.3944C1.81023 12.407 1.78759 12.4193 1.76481 12.4316ZM4.11057 8.68246C4.1055 8.69679 4.10041 8.71125 4.09531 8.72576C4.12015 8.69646 4.14516 8.6673 4.17011 8.63819C4.20075 8.60244 4.23153 8.56684 4.26231 8.53127C4.20863 8.58309 4.15724 8.63394 4.11057 8.68246ZM4.65512 7.11072C4.48773 7.28034 4.44483 7.48929 4.40621 7.67778C4.39509 7.73205 4.38425 7.78463 4.37095 7.83408C4.36544 7.85458 4.36072 7.87586 4.35641 7.89776C4.43718 7.82591 4.51202 7.76045 4.57334 7.70692C4.75633 7.5472 4.87811 7.47393 4.98511 7.40954C5.01607 7.39091 5.04579 7.37297 5.0754 7.35395C5.08597 7.32427 5.09738 7.29391 5.11018 7.26448C5.12798 7.22316 5.14865 7.17993 5.16948 7.13994C5.19035 7.09977 5.21274 7.06013 5.23594 7.0224C5.25932 6.98435 5.28364 6.9478 5.30864 6.91221C5.33215 6.8787 5.35633 6.84607 5.37972 6.81448C5.38107 6.81268 5.38241 6.81087 5.38375 6.80907C5.40845 6.77565 5.43254 6.74321 5.45274 6.71148C5.47325 6.67912 5.48825 6.65016 5.4972 6.6201C5.50842 6.5826 5.52079 6.545 5.53378 6.50857C5.54677 6.47208 5.56048 6.43652 5.57481 6.40174C5.58918 6.36688 5.60397 6.33295 5.61935 6.29945C5.62432 6.28862 5.62958 6.27735 5.63461 6.26671C5.63693 6.2618 5.63921 6.25687 5.64154 6.252C5.59276 6.29882 5.5416 6.34692 5.48796 6.39586C5.41047 6.46657 5.32207 6.53637 5.2246 6.61342C5.05832 6.74486 4.86565 6.89737 4.65512 7.11072ZM6.34066 5.50208C6.32062 5.5236 6.29241 5.55625 6.25603 5.59837C6.24743 5.60832 6.23844 5.61892 6.22893 5.62991C6.22924 5.62974 6.22949 5.62949 6.2298 5.62932C6.26247 5.61115 6.29227 5.594 6.32346 5.57452C6.37901 5.53975 6.43179 5.50479 6.48373 5.46811C6.53587 5.43127 6.58649 5.39317 6.63587 5.35372C6.68533 5.31422 6.73351 5.27318 6.77987 5.23111C6.82665 5.18859 6.87148 5.14541 6.9149 5.09996C6.92873 5.08549 6.94242 5.07078 6.95592 5.05589C6.91706 5.08041 6.87825 5.10741 6.83728 5.13594C6.80455 5.15873 6.7704 5.18248 6.73375 5.20671C6.71972 5.21599 6.70198 5.22644 6.68127 5.23864C6.59922 5.28698 6.4704 5.36276 6.34066 5.50208ZM7.23194 4.62302C7.24036 4.61082 7.24891 4.59886 7.25764 4.58732C7.28248 4.55447 7.30832 4.52407 7.33412 4.49474C7.35225 4.47415 7.37051 4.45413 7.38842 4.43433C7.39598 4.42597 7.4035 4.41758 7.41096 4.40929C7.42346 4.39541 7.43573 4.38149 7.44788 4.36765C7.34813 4.45025 7.25244 4.5328 7.15749 4.62361C7.15624 4.62482 7.15506 4.6261 7.1538 4.62731C7.18042 4.62582 7.20647 4.6244 7.23194 4.62302Z" fill="#FF691E"/>
<path d="M17.5285 15.0108C17.5974 15.078 17.6418 15.1612 17.6979 15.2663C17.698 15.2663 17.698 15.2663 17.6981 15.2664C17.7061 15.2814 17.7143 15.2969 17.7229 15.3128C17.7921 15.4411 17.8857 15.6039 18.0593 15.8172C18.251 16.0529 18.3412 16.302 18.3686 16.4819C18.3737 16.5154 18.3859 16.5432 18.4292 16.6008C18.4576 16.6385 18.4981 16.6875 18.5566 16.7581C18.5876 16.7957 18.6239 16.8394 18.666 16.8909C18.8054 17.0612 19.0529 17.299 19.281 17.5181C19.4195 17.6511 19.5508 17.7772 19.6464 17.8771C19.7862 18.0233 19.9099 18.1755 20.0443 18.3411C20.1674 18.4928 20.2995 18.6556 20.4613 18.835C20.5855 18.9726 20.6549 19.1575 20.7197 19.3513C20.7279 19.3759 20.7361 19.4008 20.7443 19.4256C20.8008 19.5972 20.8585 19.7727 20.9509 19.9326C21.1155 20.2174 21.3197 20.3719 21.5457 20.543C21.6342 20.6099 21.726 20.6793 21.82 20.7601C21.9688 20.8878 22.1654 21.0887 22.362 21.2913C22.3788 21.3085 22.3956 21.3257 22.4124 21.343C22.4124 21.343 22.4125 21.3431 22.4126 21.3432C22.5925 21.5287 22.7691 21.7108 22.9067 21.8362C23.1255 22.0356 23.227 22.0913 23.3118 22.1377C23.3436 22.1552 23.3732 22.1713 23.4056 22.1933C23.5225 22.2725 23.6669 22.4239 23.8134 22.5774C23.814 22.578 23.8145 22.5786 23.8151 22.5791C23.8394 22.6046 23.7953 22.6889 23.7166 22.7674C23.6379 22.8459 23.5543 22.8889 23.53 22.8634C23.4524 22.7821 23.3767 22.7028 23.306 22.6347C23.2348 22.6986 23.165 22.731 23.1431 22.7081C23.0884 22.6507 22.8657 22.5298 22.5138 22.3441C22.5199 22.3749 22.5233 22.4023 22.5254 22.4272C22.5279 22.4564 22.5286 22.48 22.5292 22.5003C22.5305 22.5426 22.5314 22.5707 22.5472 22.6063C22.5955 22.6772 22.6868 22.7732 22.783 22.874C22.8073 22.8995 22.7633 22.9837 22.6846 23.0622C22.6059 23.1406 22.5223 23.1836 22.498 23.1582C22.4975 23.1577 22.497 23.1572 22.4965 23.1567C22.4012 23.0568 22.3069 22.9579 22.2567 22.8836C22.244 22.8647 22.2339 22.8474 22.227 22.8339C22.2215 22.8231 22.2148 22.8093 22.2137 22.799C22.2136 22.7976 22.2134 22.7949 22.2136 22.7913C22.2136 22.7912 22.2136 22.7912 22.2136 22.7911C22.2137 22.7891 22.2141 22.7789 22.2205 22.7621C22.2218 22.7587 22.2247 22.7512 22.2304 22.7401C22.2304 22.7388 22.2303 22.7375 22.2303 22.7361C22.2297 22.7176 22.2291 22.6986 22.2274 22.6791C22.2209 22.603 22.1994 22.4938 22.1096 22.3112C22.027 22.1432 21.8344 21.9122 21.5705 21.6477C21.5825 21.6714 21.5946 21.695 21.607 21.7184C21.6383 21.7771 21.6709 21.8349 21.7041 21.8921C21.7169 21.914 21.7295 21.9355 21.7425 21.9574C21.7634 21.9925 21.7845 22.0276 21.8058 22.0626C21.8201 22.0862 21.8346 22.1097 21.849 22.1333C21.8491 22.1334 21.8491 22.1334 21.8492 22.1334C21.8692 22.1662 21.8892 22.199 21.9093 22.2322C21.9162 22.244 21.9231 22.2555 21.9299 22.267C21.9572 22.3125 21.9842 22.3571 22.0082 22.4155C22.0104 22.4233 22.0121 22.4324 22.0131 22.4396C22.0143 22.4472 22.0152 22.4546 22.0158 22.462C22.0164 22.4684 22.0167 22.4747 22.0171 22.4807C22.0172 22.4815 22.0172 22.4823 22.0173 22.4831C22.0178 22.4899 22.0183 22.4962 22.0189 22.5022C22.0194 22.5082 22.02 22.514 22.0208 22.5194C22.0208 22.5194 22.0209 22.5195 22.0209 22.5195C22.0218 22.5251 22.0225 22.5293 22.024 22.5348C22.0258 22.5416 22.0276 22.5473 22.0302 22.5537C22.0327 22.56 22.0355 22.5662 22.0387 22.5723C22.0418 22.5783 22.0452 22.5843 22.0488 22.5902C22.0524 22.5961 22.0562 22.602 22.0601 22.6079C22.064 22.6137 22.0681 22.6195 22.0722 22.6253C22.0764 22.6311 22.0805 22.6369 22.0848 22.6428C22.0945 22.6563 22.0899 22.6832 22.0713 22.7181C22.0527 22.7531 22.0218 22.793 21.9851 22.8296C21.9484 22.8662 21.9085 22.8968 21.8739 22.9149C21.8392 22.9331 21.8127 22.9372 21.7998 22.9269C21.7963 22.9241 21.7927 22.9213 21.7891 22.9185C21.787 22.9168 21.785 22.915 21.7829 22.9133C21.7772 22.9088 21.7715 22.9042 21.7659 22.8994C21.7602 22.8946 21.7547 22.8896 21.7493 22.8844C21.7438 22.8793 21.7383 22.874 21.7331 22.8683C21.7278 22.8626 21.7227 22.8565 21.7179 22.85C21.7132 22.8437 21.7082 22.836 21.7043 22.8287C21.7014 22.8233 21.6984 22.8162 21.696 22.8101C21.6935 22.8037 21.6914 22.7972 21.6894 22.7907C21.6875 22.7843 21.6858 22.7778 21.6842 22.7717C21.684 22.771 21.6839 22.7704 21.6837 22.7697C21.6822 22.7643 21.6809 22.759 21.6795 22.7542C21.6779 22.7487 21.6763 22.7438 21.6745 22.7392C21.6726 22.7341 21.6712 22.7314 21.6693 22.7281C21.6397 22.6894 21.5965 22.6481 21.5554 22.6087C21.5502 22.6037 21.5451 22.5988 21.5401 22.5939C21.513 22.5681 21.4857 22.5426 21.4585 22.5171C21.4387 22.4985 21.4189 22.48 21.3991 22.4613C21.37 22.4338 21.341 22.4061 21.3122 22.3783C21.2943 22.361 21.2769 22.3439 21.2592 22.3264C21.2131 22.2808 21.1675 22.2345 21.1232 22.1867C21.0789 22.1391 21.0356 22.0898 20.9944 22.0385C20.9533 21.9873 20.9129 21.9319 20.8781 21.8742C20.8526 21.8316 20.8327 21.7818 20.8158 21.7342C20.8068 21.7085 20.7982 21.6831 20.7899 21.658C20.7899 21.6579 20.7899 21.6578 20.7898 21.6577C20.7825 21.6356 20.7754 21.6138 20.7679 21.5924C20.752 21.5466 20.7351 21.503 20.716 21.4614C20.697 21.4199 20.676 21.3806 20.6527 21.3432C20.6296 21.306 20.604 21.2704 20.5767 21.2369C20.5494 21.2033 20.5207 21.1721 20.4892 21.1407C20.4475 21.0997 20.4039 21.0611 20.3588 21.022C20.3138 20.9832 20.2678 20.9449 20.2216 20.9065C20.2054 20.893 20.1893 20.8795 20.1731 20.8661C20.1731 20.866 20.173 20.8659 20.173 20.8659C20.1429 20.841 20.1129 20.8161 20.0828 20.791C20.0365 20.7524 19.9903 20.7134 19.9445 20.6736C19.8988 20.6337 19.8535 20.593 19.8094 20.5506C19.7653 20.5082 19.7214 20.4632 19.6814 20.414C19.6455 20.3702 19.6107 20.3248 19.5768 20.2802C19.5678 20.2685 19.5588 20.2567 19.5498 20.245C19.5072 20.1893 19.4648 20.1366 19.4187 20.0885C19.3727 20.0404 19.3228 19.9964 19.2691 19.9551C19.2157 19.914 19.1586 19.8754 19.0992 19.8382C19.0395 19.8009 18.9788 19.7659 18.9159 19.7312C18.8534 19.6968 18.7896 19.6633 18.7244 19.6299C18.6881 19.6114 18.6509 19.5904 18.6164 19.5698C18.5816 19.5489 18.5479 19.5275 18.5149 19.506C18.5015 19.4972 18.4882 19.4884 18.475 19.4797C18.4558 19.4671 18.4368 19.4545 18.4179 19.4423C18.3859 19.4217 18.3542 19.4022 18.3222 19.3844C18.2902 19.3667 18.2578 19.3508 18.2243 19.3376C18.1897 19.324 18.1591 19.3148 18.12 19.3063C18.0326 19.2778 17.9876 19.2509 17.9375 19.2212C17.9276 19.2154 17.9175 19.2095 17.9069 19.2033C17.8476 19.1669 17.7913 19.1276 17.7377 19.0869C17.6836 19.0457 17.6323 19.0032 17.5823 18.9582C17.5328 18.9137 17.4848 18.8669 17.4386 18.8187C17.3926 18.7705 17.3483 18.7208 17.3055 18.6692C17.2628 18.6177 17.221 18.5633 17.1825 18.5095C17.1602 18.4784 17.1377 18.4442 17.1174 18.4119C17.1027 18.3886 17.0885 18.3653 17.0746 18.3425C17.069 18.3332 17.0633 18.3239 17.0577 18.3148C17.0384 18.2832 17.0193 18.2528 16.9998 18.2246C16.9802 18.1964 16.9601 18.1702 16.9386 18.1465C16.917 18.1227 16.8941 18.1014 16.8691 18.082C16.8431 18.062 16.82 18.0469 16.7883 18.0298C16.7676 18.0187 16.7471 18.008 16.7267 17.9974C16.6961 17.9814 16.6656 17.9658 16.6346 17.9503C16.6037 17.9348 16.5728 17.9197 16.5415 17.9049C16.5315 17.9002 16.5208 17.8951 16.5107 17.8904C16.4793 17.8759 16.4478 17.8619 16.416 17.8485C16.3841 17.835 16.3521 17.8222 16.3195 17.8101C16.2869 17.7979 16.2541 17.7865 16.2201 17.7756C16.1621 17.7571 16.1164 17.7296 16.0782 17.7037C16.0398 17.6773 16.0061 17.6504 15.9734 17.6241C15.9673 17.6192 15.9611 17.6143 15.955 17.6094C15.9287 17.5881 15.9029 17.5671 15.877 17.5469C15.8451 17.522 15.813 17.4983 15.78 17.4754C15.7473 17.4526 15.7134 17.4304 15.679 17.4097C15.6442 17.3888 15.6101 17.3696 15.5722 17.3501C15.5349 17.3308 15.4943 17.3137 15.4499 17.2949C15.4059 17.2763 15.3599 17.2566 15.3153 17.2347C15.2706 17.2129 15.2269 17.1891 15.1856 17.1634C15.1442 17.1376 15.1046 17.1098 15.0672 17.0808C15.0296 17.0516 14.9939 17.0208 14.9598 16.9889C14.9257 16.9571 14.8918 16.9228 14.8613 16.8896C14.8119 16.8358 14.7637 16.7813 14.7156 16.7264C14.6679 16.6718 14.6204 16.6166 14.5733 16.5613C14.5262 16.5061 14.4793 16.4507 14.4326 16.3951C14.3859 16.3395 14.3394 16.2838 14.2929 16.2282C14.2826 16.2159 14.2724 16.2036 14.2621 16.1913C14.2259 16.1479 14.1898 16.1046 14.1537 16.0615C14.1535 16.0612 14.1532 16.0608 14.153 16.0605C14.1065 16.0051 14.0608 15.9508 14.014 15.8965C13.9968 15.8767 13.9802 15.8576 13.9631 15.8384C13.946 15.8193 13.9291 15.8006 13.9117 15.7821C13.8944 15.7635 13.8768 15.7452 13.8593 15.7276C13.8415 15.7099 13.8238 15.6928 13.8054 15.6763C13.7885 15.661 13.7712 15.6465 13.7523 15.6306C13.7505 15.6292 13.7488 15.6277 13.7471 15.6263C13.7264 15.6089 13.7037 15.5883 13.6843 15.5674C13.6332 15.5118 13.5823 15.4588 13.5293 15.406C13.4762 15.3532 13.4222 15.3016 13.3672 15.25C13.3457 15.2299 13.324 15.2098 13.3024 15.1897C13.2687 15.1583 13.2349 15.1268 13.2013 15.095C13.146 15.0426 13.0913 14.9893 13.0379 14.9341C12.9847 14.879 12.9328 14.822 12.883 14.7633C12.8333 14.7047 12.7849 14.6438 12.7389 14.582C12.6876 14.513 12.6377 14.4435 12.5879 14.3733C12.5382 14.3031 12.489 14.2325 12.4403 14.1618C12.3914 14.0909 12.3429 14.0199 12.2947 13.9485C12.2465 13.8771 12.1986 13.8055 12.1509 13.7336C12.1224 13.6906 12.094 13.6474 12.0656 13.6042C12.04 13.5919 12.0153 13.5803 11.9916 13.569C11.8167 13.4858 11.6903 13.4256 11.5443 13.3253C11.5291 13.3169 11.5146 13.3123 11.497 13.3065C11.4936 13.3054 11.4901 13.3042 11.4865 13.303C11.4636 13.2954 11.4381 13.2858 11.4087 13.2665C11.35 13.228 11.2777 13.1513 11.2478 12.9885C11.2403 12.9474 11.3006 12.8561 11.3826 12.7846C11.4402 12.7345 11.4931 12.7074 11.5222 12.7098C11.5022 12.6716 11.4827 12.633 11.4632 12.5945C11.4554 12.5791 11.4622 12.5506 11.4826 12.5148C11.503 12.479 11.5351 12.439 11.5724 12.403C11.6097 12.3671 11.6492 12.338 11.6829 12.3217C11.7166 12.3054 11.7415 12.3033 11.7525 12.3155C11.7817 12.3479 11.8107 12.3803 11.8403 12.4122C11.8699 12.4441 11.8998 12.4754 11.9301 12.5065C11.9605 12.5375 11.9912 12.5681 12.0223 12.5986C12.0532 12.6289 12.0845 12.6591 12.1161 12.6891C12.1478 12.7192 12.1793 12.7485 12.2113 12.7782C12.2305 12.796 12.25 12.814 12.2692 12.8316C12.2763 12.8382 12.2834 12.8445 12.2903 12.8509C12.2961 12.8561 12.3018 12.8614 12.3077 12.8668C12.3699 12.9235 12.4331 12.9804 12.496 13.0365C12.5592 13.093 12.6225 13.1492 12.686 13.2051C12.7495 13.2612 12.8132 13.3169 12.877 13.3726C12.9408 13.4282 13.0047 13.4837 13.0689 13.5391C13.1328 13.5943 13.1971 13.6497 13.2617 13.7045C13.3116 13.7469 13.3614 13.7886 13.4115 13.8302C13.4369 13.8409 13.4617 13.8518 13.486 13.8627C13.5568 13.8946 13.6337 13.9205 13.7096 13.9458C13.6069 13.8683 13.5149 13.8156 13.4273 13.7654C13.4155 13.7587 13.4038 13.752 13.3922 13.7453C13.2737 13.6771 13.1622 13.6081 13.0456 13.482C12.7139 13.1235 12.5236 12.9136 12.4172 12.7706C12.3108 12.6277 12.2844 12.547 12.2882 12.4431C12.2937 12.2964 12.2007 12.1167 12.1338 12.0466C12.1095 12.0211 12.1536 11.9368 12.2323 11.8583C12.311 11.7799 12.3946 11.7369 12.4189 11.7623C12.4896 11.8364 12.5931 12.0279 12.5866 12.2026C12.5836 12.2804 12.6007 12.3495 12.7054 12.4903C12.8102 12.6311 12.9989 12.839 13.3312 13.1982C13.4436 13.3197 13.5507 13.3863 13.6679 13.4538C13.6794 13.4605 13.6911 13.467 13.7028 13.4737C13.7028 13.4738 13.7029 13.4739 13.703 13.4739C13.8109 13.5357 13.9285 13.6029 14.0643 13.7164C14.3772 13.9779 14.8133 14.3145 14.9331 14.3782C14.9566 14.3906 14.9802 14.4018 15.0051 14.4137C15.1004 14.4593 15.2154 14.5143 15.427 14.686C15.4733 14.7236 15.5249 14.7702 15.5797 14.8226C15.6984 14.8647 15.812 14.9072 15.901 14.954C15.9777 14.9944 16.0653 15.0149 16.1543 15.0305C16.18 15.035 16.2062 15.0391 16.2323 15.0433C16.2954 15.0533 16.3584 15.0633 16.4145 15.0784C16.4593 15.0904 16.5086 15.1005 16.5608 15.1111C16.7509 15.1498 16.9787 15.1963 17.1586 15.3738C17.3493 15.5619 17.4951 15.7405 17.6189 15.8963C17.5347 15.7751 17.4776 15.6737 17.4313 15.5879C17.4225 15.5717 17.4142 15.5561 17.4062 15.5411C17.3497 15.4353 17.3085 15.3584 17.2445 15.2959C16.9388 14.9974 16.8014 14.9082 16.6038 14.8501C16.5518 14.8347 16.4902 14.8221 16.4238 14.8084C16.2913 14.781 16.1397 14.7497 16.007 14.6858C15.8834 14.6263 15.7338 14.5712 15.5753 14.5128C15.5752 14.5128 15.5752 14.5127 15.5751 14.5127C15.5442 14.5013 15.5128 14.4897 15.4813 14.478C15.289 14.4065 15.0896 14.3285 14.9163 14.2317C14.8978 14.2214 14.8749 14.2097 14.8485 14.1964C14.6963 14.1193 14.4291 13.9839 14.2256 13.6959C14.1809 13.6326 14.1445 13.5568 14.103 13.4703C14.0904 13.4439 14.0773 13.4165 14.0634 13.3882C14.003 13.266 13.925 13.1223 13.7972 12.9549C13.6917 12.8168 13.551 12.6605 13.4051 12.4981C13.3332 12.4181 13.26 12.3366 13.1891 12.2551C12.9747 12.0092 12.7887 11.7731 12.6033 11.5375C12.6032 11.5374 12.6032 11.5374 12.6031 11.5373C12.5812 11.5095 12.6279 11.4238 12.7073 11.3461C12.7867 11.2685 12.8689 11.2281 12.8908 11.2559C13.0764 11.4917 13.2617 11.7271 13.4753 11.9723C13.5452 12.0525 13.6178 12.1334 13.6894 12.213C13.8361 12.3762 13.9787 12.5347 14.0852 12.6741C14.2152 12.8443 14.2947 12.9907 14.3558 13.1146C14.3705 13.1444 14.3841 13.1727 14.397 13.1996C14.438 13.2852 14.472 13.3564 14.5144 13.4164C14.7114 13.6953 14.9684 13.8257 15.1211 13.9032C15.1482 13.9169 15.1719 13.929 15.1915 13.94C15.3614 14.0349 15.5577 14.1117 15.7498 14.1832C15.7809 14.1947 15.812 14.2063 15.8428 14.2176C15.8429 14.2176 15.843 14.2176 15.8431 14.2176C16.0016 14.276 16.1539 14.3321 16.2797 14.3927C16.4075 14.4543 16.5446 14.4822 16.6728 14.5084C16.7416 14.5225 16.8077 14.5362 16.8686 14.5541C17.0782 14.6158 17.2218 14.7113 17.5285 15.0108ZM11.5535 12.7686C11.5777 12.8641 11.6189 12.9204 11.6576 12.9544C11.6349 12.9154 11.6126 12.8762 11.5906 12.8366C11.5781 12.814 11.5657 12.7914 11.5535 12.7686ZM15.3026 15.1144C15.2883 15.1093 15.2738 15.1042 15.2593 15.0991C15.2886 15.1239 15.3177 15.1489 15.3469 15.1739C15.3826 15.2045 15.4182 15.2353 15.4538 15.2661C15.402 15.2124 15.3511 15.161 15.3026 15.1144ZM16.8743 15.6589C16.7047 15.4915 16.4958 15.4486 16.3073 15.41C16.253 15.3989 16.2004 15.388 16.151 15.3747C16.1305 15.3692 16.1092 15.3645 16.0873 15.3602C16.1591 15.441 16.2246 15.5158 16.2781 15.5771C16.4378 15.7601 16.5111 15.8819 16.5755 15.9889C16.5941 16.0199 16.6121 16.0496 16.6311 16.0792C16.6608 16.0898 16.6911 16.1012 16.7206 16.114C16.7619 16.1318 16.8051 16.1524 16.8451 16.1733C16.8853 16.1941 16.9249 16.2165 16.9627 16.2397C17.0007 16.2631 17.0372 16.2874 17.0728 16.3124C17.1063 16.3359 17.139 16.3601 17.1706 16.3835C17.1724 16.3849 17.1742 16.3862 17.176 16.3875C17.2094 16.4122 17.2418 16.4363 17.2736 16.4565C17.3059 16.477 17.3349 16.492 17.3649 16.501C17.4024 16.5122 17.44 16.5246 17.4765 16.5376C17.513 16.5506 17.5485 16.5643 17.5833 16.5786C17.6182 16.593 17.6521 16.6078 17.6856 16.6231C17.6964 16.6281 17.7077 16.6334 17.7183 16.6384C17.7232 16.6407 17.7282 16.643 17.733 16.6453C17.6862 16.5965 17.6381 16.5454 17.5892 16.4917C17.5185 16.4143 17.4487 16.3259 17.3716 16.2284C17.2402 16.0621 17.0877 15.8694 16.8743 15.6589ZM18.483 17.3444C18.4614 17.3244 18.4288 17.2962 18.3867 17.2598C18.3767 17.2512 18.3661 17.2422 18.3551 17.2327C18.3553 17.233 18.3556 17.2333 18.3557 17.2336C18.3739 17.2663 18.391 17.2961 18.4105 17.3272C18.4453 17.3828 18.4803 17.4356 18.5169 17.4875C18.5538 17.5397 18.5919 17.5903 18.6313 17.6397C18.6708 17.6891 18.7119 17.7373 18.7539 17.7836C18.7965 17.8304 18.8396 17.8753 18.8851 17.9187C18.8996 17.9325 18.9143 17.9462 18.9292 17.9597C18.9046 17.9208 18.8776 17.882 18.8491 17.8411C18.8263 17.8083 18.8026 17.7742 18.7783 17.7375C18.7691 17.7235 18.7586 17.7058 18.7464 17.6851C18.6981 17.603 18.6223 17.4742 18.483 17.3444ZM19.362 18.2357C19.3742 18.2441 19.3862 18.2527 19.3977 18.2614C19.4306 18.2863 19.461 18.3121 19.4903 18.3379C19.5109 18.356 19.5309 18.3743 19.5507 18.3922C19.5591 18.3998 19.5675 18.4073 19.5758 18.4147C19.5896 18.4272 19.6036 18.4395 19.6174 18.4517C19.5348 18.3519 19.4522 18.2562 19.3614 18.1613C19.3602 18.16 19.3589 18.1588 19.3577 18.1576C19.3592 18.1842 19.3607 18.2103 19.362 18.2357Z" fill="#FF691E"/>
<path d="M15.2541 17.7038C15.3214 17.635 15.4045 17.5905 15.5096 17.5344C15.5096 17.5344 15.5097 17.5343 15.5097 17.5343C15.5247 17.5263 15.5403 17.5181 15.5562 17.5095C15.6844 17.4403 15.8473 17.3466 16.0606 17.1731C16.2962 16.9813 16.5454 16.8911 16.7252 16.8638C16.7588 16.8587 16.7866 16.8465 16.8441 16.8032C16.8819 16.7747 16.9308 16.7342 17.0015 16.6758C17.0391 16.6447 17.0828 16.6085 17.1342 16.5664C17.3045 16.427 17.5424 16.1795 17.7615 15.9513C17.8944 15.8129 18.0205 15.6815 18.1205 15.5859C18.2667 15.4461 18.4189 15.3224 18.5845 15.188C18.7361 15.0649 18.899 14.9329 19.0784 14.7711C19.216 14.6469 19.4009 14.5774 19.5946 14.5127C19.6193 14.5044 19.6441 14.4962 19.669 14.488C19.8406 14.4315 20.0161 14.3738 20.1759 14.2815C20.4608 14.1169 20.6153 13.9127 20.7863 13.6866C20.8532 13.5982 20.9226 13.5064 21.0034 13.4123C21.1312 13.2636 21.332 13.0669 21.5346 12.8703C21.5519 12.8536 21.5691 12.8367 21.5863 12.82C21.5864 12.8199 21.5865 12.8198 21.5866 12.8197C21.7721 12.6399 21.9541 12.4633 22.0796 12.3256C22.2789 12.1069 22.3346 12.0053 22.3811 11.9206C22.3985 11.8887 22.4146 11.8592 22.4366 11.8267C22.5158 11.7099 22.6673 11.5654 22.8208 11.419C22.8213 11.4184 22.8219 11.4178 22.8225 11.4172C22.848 11.3929 22.9323 11.4371 23.0107 11.5158C23.0892 11.5945 23.1322 11.6781 23.1068 11.7024C23.0255 11.78 22.9461 11.8557 22.878 11.9264C22.942 11.9975 22.9744 12.0673 22.9515 12.0892C22.8941 12.144 22.7732 12.3666 22.5875 12.7186C22.6182 12.7125 22.6456 12.709 22.6705 12.7069C22.6997 12.7044 22.7234 12.7038 22.7437 12.7032C22.786 12.7019 22.814 12.7009 22.8497 12.6852C22.9206 12.6369 23.0165 12.5456 23.1174 12.4494C23.1429 12.4251 23.2271 12.4691 23.3055 12.5478C23.384 12.6265 23.427 12.71 23.4015 12.7344C23.401 12.7348 23.4005 12.7353 23.4001 12.7358C23.3002 12.8311 23.2012 12.9255 23.1269 12.9756C23.108 12.9884 23.0908 12.9984 23.0772 13.0054C23.0664 13.0109 23.0526 13.0175 23.0423 13.0186C23.0409 13.0188 23.0383 13.019 23.0347 13.0188C23.0346 13.0188 23.0345 13.0187 23.0344 13.0187C23.0324 13.0186 23.0222 13.0182 23.0054 13.0119C23.0021 13.0106 22.9946 13.0077 22.9835 13.0019C22.9821 13.002 22.9808 13.002 22.9795 13.0021C22.9609 13.0026 22.942 13.0032 22.9225 13.0049C22.8464 13.0114 22.7371 13.033 22.5545 13.1228C22.3865 13.2053 22.1556 13.398 21.891 13.6619C21.9147 13.6499 21.9383 13.6377 21.9617 13.6253C22.0205 13.5941 22.0782 13.5615 22.1354 13.5282C22.1573 13.5155 22.1789 13.5029 22.2007 13.4899C22.2359 13.469 22.271 13.4479 22.3059 13.4266C22.3295 13.4122 22.3531 13.3978 22.3767 13.3833C22.3767 13.3833 22.3767 13.3832 22.3768 13.3832C22.4095 13.3632 22.4423 13.3431 22.4755 13.323C22.4873 13.3161 22.4989 13.3093 22.5103 13.3024C22.5558 13.2751 22.6005 13.2482 22.6588 13.2242C22.6667 13.222 22.6758 13.2202 22.6829 13.2192C22.6905 13.2181 22.698 13.2172 22.7053 13.2165C22.7118 13.216 22.7181 13.2156 22.7241 13.2152C22.7249 13.2152 22.7257 13.2151 22.7265 13.2151C22.7332 13.2146 22.7395 13.2141 22.7455 13.2135C22.7516 13.2129 22.7573 13.2124 22.7627 13.2116C22.7628 13.2115 22.7628 13.2115 22.7628 13.2115C22.7684 13.2106 22.7727 13.2098 22.7781 13.2084C22.785 13.2066 22.7907 13.2048 22.7971 13.2022C22.8033 13.1997 22.8096 13.1968 22.8156 13.1937C22.8217 13.1905 22.8276 13.1871 22.8335 13.1835C22.8395 13.1799 22.8454 13.1762 22.8512 13.1722C22.857 13.1683 22.8628 13.1642 22.8686 13.1601C22.8744 13.156 22.8803 13.1518 22.8861 13.1476C22.8996 13.1379 22.9265 13.1425 22.9615 13.1611C22.9964 13.1797 23.0364 13.2106 23.073 13.2473C23.1096 13.284 23.1401 13.3239 23.1583 13.3585C23.1764 13.3931 23.1805 13.4196 23.1703 13.4326C23.1675 13.4361 23.1647 13.4397 23.1618 13.4432C23.1602 13.4453 23.1584 13.4474 23.1567 13.4495C23.1521 13.4551 23.1475 13.4609 23.1427 13.4665C23.1379 13.4721 23.1329 13.4776 23.1278 13.4831C23.1226 13.4886 23.1173 13.494 23.1116 13.4993C23.1059 13.5045 23.0999 13.5096 23.0934 13.5145C23.0871 13.5192 23.0794 13.5241 23.072 13.528C23.0667 13.531 23.0595 13.534 23.0534 13.5363C23.0471 13.5388 23.0406 13.541 23.0341 13.5429C23.0276 13.5449 23.0212 13.5465 23.015 13.5481C23.0144 13.5483 23.0137 13.5485 23.0131 13.5487C23.0076 13.5501 23.0024 13.5515 22.9975 13.5529C22.9921 13.5544 22.9871 13.5561 22.9825 13.5578C22.9775 13.5597 22.9748 13.5612 22.9715 13.5631C22.9327 13.5927 22.8915 13.6358 22.852 13.6769C22.8471 13.6821 22.8421 13.6872 22.8373 13.6923C22.8115 13.7194 22.7859 13.7466 22.7604 13.7739C22.7419 13.7936 22.7233 13.8135 22.7046 13.8332C22.6772 13.8623 22.6495 13.8913 22.6216 13.9201C22.6043 13.938 22.5872 13.9555 22.5698 13.9731C22.5242 14.0192 22.4778 14.0648 22.4301 14.1092C22.3824 14.1534 22.3332 14.1967 22.2818 14.238C22.2307 14.2791 22.1752 14.3195 22.1175 14.3543C22.075 14.3797 22.0252 14.3997 21.9775 14.4166C21.9519 14.4256 21.9265 14.4342 21.9013 14.4425C21.9012 14.4425 21.9011 14.4425 21.901 14.4425C21.879 14.4498 21.8571 14.457 21.8358 14.4644C21.79 14.4803 21.7463 14.4973 21.7047 14.5164C21.6632 14.5354 21.6239 14.5563 21.5865 14.5796C21.5494 14.6028 21.5137 14.6284 21.4803 14.6556C21.4467 14.683 21.4155 14.7116 21.3841 14.7432C21.343 14.7848 21.3045 14.8284 21.2653 14.8736C21.2266 14.9185 21.1882 14.9646 21.1498 15.0108C21.1364 15.0269 21.1228 15.043 21.1094 15.0592C21.1093 15.0593 21.1093 15.0594 21.1092 15.0594C21.0844 15.0894 21.0594 15.1195 21.0344 15.1495C20.9957 15.1958 20.9567 15.2421 20.9169 15.2878C20.8771 15.3335 20.8364 15.3789 20.794 15.423C20.7515 15.467 20.7066 15.511 20.6573 15.551C20.6135 15.5868 20.5681 15.6216 20.5236 15.6556C20.5118 15.6646 20.5001 15.6735 20.4883 15.6825C20.4327 15.7252 20.3799 15.7676 20.3319 15.8137C20.2838 15.8597 20.2397 15.9096 20.1985 15.9632C20.1574 16.0167 20.1187 16.0738 20.0816 16.1332C20.0443 16.1928 20.0093 16.2536 19.9746 16.3165C19.9402 16.379 19.9066 16.4428 19.8733 16.508C19.8547 16.5442 19.8337 16.5815 19.8131 16.6159C19.7923 16.6507 19.7708 16.6845 19.7493 16.7175C19.7406 16.7309 19.7318 16.7441 19.7231 16.7573C19.7104 16.7766 19.6978 16.7956 19.6856 16.8145C19.665 16.8464 19.6455 16.8781 19.6277 16.9101C19.61 16.9421 19.5941 16.9746 19.5809 17.008C19.5673 17.0427 19.5581 17.0733 19.5496 17.1124C19.5211 17.1998 19.4943 17.2448 19.4646 17.2949C19.4587 17.3047 19.4528 17.3149 19.4467 17.3255C19.4103 17.3848 19.371 17.4411 19.3302 17.4947C19.289 17.5488 19.2465 17.6 19.2015 17.65C19.157 17.6996 19.1103 17.7476 19.062 17.7937C19.0139 17.8398 18.9641 17.8841 18.9126 17.9268C18.861 17.9695 18.8066 18.0113 18.7529 18.0499C18.7218 18.0722 18.6876 18.0947 18.6553 18.115C18.6319 18.1297 18.6087 18.1438 18.5859 18.1577C18.5765 18.1634 18.5673 18.169 18.5581 18.1746C18.5266 18.194 18.4962 18.213 18.468 18.2326C18.4397 18.2522 18.4136 18.2722 18.3899 18.2938C18.3661 18.3153 18.3447 18.3383 18.3253 18.3633C18.3053 18.3893 18.2902 18.4124 18.2731 18.4441C18.2621 18.4648 18.2514 18.4853 18.2407 18.5057C18.2248 18.5362 18.2091 18.5668 18.1936 18.5977C18.1781 18.6287 18.1631 18.6595 18.1483 18.6908C18.1435 18.7009 18.1385 18.7115 18.1338 18.7217C18.1193 18.7531 18.1053 18.7845 18.0918 18.8164C18.0784 18.8482 18.0656 18.8803 18.0534 18.9128C18.0412 18.9455 18.0299 18.9782 18.0189 19.0123C18.0004 19.0702 17.973 19.1159 17.9471 19.1541C17.9207 19.1926 17.8937 19.2263 17.8675 19.259C17.8625 19.2651 17.8576 19.2712 17.8527 19.2773C17.8314 19.3036 17.8104 19.3294 17.7902 19.3553C17.7654 19.3873 17.7417 19.4194 17.7187 19.4524C17.696 19.4851 17.6738 19.5189 17.653 19.5534C17.6321 19.5881 17.613 19.6222 17.5935 19.6601C17.5741 19.6975 17.5571 19.7381 17.5383 19.7825C17.5197 19.8265 17.4999 19.8724 17.4781 19.9171C17.4563 19.9618 17.4324 20.0055 17.4067 20.0468C17.381 20.0882 17.3532 20.1278 17.3241 20.1652C17.2949 20.2028 17.2641 20.2384 17.2322 20.2726C17.2004 20.3067 17.1662 20.3405 17.133 20.371C17.0792 20.4204 17.0247 20.4687 16.9698 20.5167C16.9152 20.5644 16.86 20.6119 16.8047 20.6591C16.7494 20.7061 16.694 20.7531 16.6385 20.7997C16.5829 20.8464 16.5272 20.893 16.4715 20.9395C16.4592 20.9497 16.4469 20.96 16.4346 20.9703C16.3913 21.0064 16.3479 21.0426 16.3048 21.0787C16.3045 21.0789 16.3042 21.0791 16.3039 21.0794C16.2485 21.1259 16.1941 21.1715 16.1399 21.2184C16.12 21.2356 16.1009 21.2522 16.0818 21.2692C16.0626 21.2863 16.044 21.3033 16.0254 21.3206C16.0068 21.338 15.9886 21.3555 15.971 21.3731C15.9532 21.3909 15.9362 21.4086 15.9196 21.427C15.9044 21.4438 15.8899 21.4612 15.874 21.4801C15.8725 21.4818 15.8711 21.4836 15.8696 21.4853C15.8522 21.506 15.8316 21.5287 15.8107 21.5481C15.7552 21.5991 15.7021 21.6501 15.6493 21.7031C15.5965 21.7561 15.5449 21.8102 15.4934 21.8652C15.4732 21.8866 15.4532 21.9083 15.433 21.93C15.4016 21.9636 15.3701 21.9974 15.3383 22.031C15.2859 22.0864 15.2326 22.141 15.1774 22.1944C15.1224 22.2477 15.0653 22.2996 15.0067 22.3493C14.9481 22.3991 14.8872 22.4475 14.8253 22.4935C14.7564 22.5447 14.6868 22.5947 14.6166 22.6445C14.5465 22.6941 14.4758 22.7434 14.4052 22.7921C14.3343 22.841 14.2632 22.8894 14.1919 22.9376C14.1205 22.9858 14.0489 23.0337 13.977 23.0815C13.9339 23.11 13.8908 23.1384 13.8475 23.1668C13.8353 23.1924 13.8236 23.2171 13.8124 23.2408C13.7292 23.4157 13.669 23.5421 13.5686 23.688C13.5603 23.7033 13.5556 23.7178 13.5499 23.7354C13.5488 23.7387 13.5475 23.7422 13.5463 23.7458C13.5387 23.7687 13.5292 23.7942 13.5099 23.8237C13.4713 23.8824 13.3946 23.9547 13.2319 23.9845C13.1908 23.992 13.0995 23.9317 13.028 23.8497C12.9778 23.7922 12.9507 23.7393 12.9532 23.7102C12.9149 23.7302 12.8763 23.7497 12.8378 23.7692C12.8225 23.7769 12.7939 23.7701 12.7581 23.7498C12.7223 23.7294 12.6823 23.6972 12.6464 23.66C12.6104 23.6227 12.5814 23.5831 12.5651 23.5495C12.5488 23.5158 12.5466 23.4909 12.5588 23.4799C12.5913 23.4507 12.6237 23.4216 12.6555 23.3921C12.6875 23.3625 12.7188 23.3326 12.7498 23.3022C12.7809 23.2719 12.8115 23.2412 12.8419 23.2101C12.8723 23.1791 12.9025 23.1479 12.9324 23.1163C12.9626 23.0845 12.9919 23.0531 13.0216 23.021C13.0394 23.0018 13.0574 22.9824 13.075 22.9632C13.0815 22.9561 13.0878 22.949 13.0942 22.942C13.0994 22.9363 13.1047 22.9306 13.1101 22.9247C13.1668 22.8624 13.2238 22.7992 13.2799 22.7363C13.3363 22.6732 13.3925 22.6099 13.4485 22.5464C13.5045 22.4828 13.5602 22.4191 13.6159 22.3553C13.6716 22.2915 13.7271 22.2277 13.7825 22.1635C13.8377 22.0995 13.893 22.0352 13.9478 21.9707C13.9902 21.9208 14.032 21.871 14.0735 21.8208C14.0842 21.7954 14.0951 21.7706 14.1061 21.7463C14.138 21.6756 14.1638 21.5987 14.1892 21.5228C14.1116 21.6255 14.0589 21.7175 14.0087 21.8051C14.002 21.8168 13.9954 21.8285 13.9887 21.8402C13.9204 21.9587 13.8514 22.0701 13.7254 22.1867C13.3668 22.5184 13.1569 22.7087 13.014 22.8152C12.871 22.9215 12.7904 22.948 12.6865 22.9441C12.5397 22.9386 12.3601 23.0317 12.2899 23.0986C12.2645 23.1229 12.1802 23.0787 12.1017 23.0001C12.0232 22.9213 11.9802 22.8378 12.0057 22.8135C12.0797 22.7428 12.2713 22.6393 12.4459 22.6458C12.5238 22.6487 12.5929 22.6317 12.7336 22.5269C12.8744 22.4221 13.0823 22.2335 13.4415 21.9012C13.5631 21.7888 13.6296 21.6817 13.6972 21.5645C13.7038 21.553 13.7104 21.5413 13.7171 21.5296C13.7171 21.5295 13.7172 21.5295 13.7173 21.5294C13.779 21.4214 13.8463 21.3039 13.9597 21.1681C14.2213 20.8552 14.5579 20.419 14.6215 20.2992C14.634 20.2757 14.6452 20.2521 14.6571 20.2273C14.7026 20.132 14.7577 20.0169 14.9294 19.8053C14.967 19.7591 15.0135 19.7074 15.0659 19.6527C15.108 19.534 15.1506 19.4204 15.1973 19.3314C15.2377 19.2546 15.2582 19.1671 15.2739 19.078C15.2784 19.0524 15.2825 19.0262 15.2866 19C15.2966 18.937 15.3066 18.8739 15.3217 18.8178C15.3337 18.7731 15.3438 18.7237 15.3544 18.6715C15.3932 18.4814 15.4396 18.2536 15.6171 18.0738C15.8053 17.8831 15.9838 17.7373 16.1397 17.6134C16.0185 17.6976 15.917 17.7548 15.8312 17.8011C15.815 17.8098 15.7995 17.8181 15.7845 17.8262C15.6787 17.8827 15.6018 17.9238 15.5393 17.9878C15.2407 18.2936 15.1515 18.431 15.0934 18.6286C15.0781 18.6806 15.0654 18.7422 15.0517 18.8085C15.0244 18.9411 14.993 19.0927 14.9292 19.2253C14.8697 19.3489 14.8146 19.4986 14.7562 19.6571C14.7561 19.6571 14.7561 19.6572 14.756 19.6572C14.7446 19.6882 14.7331 19.7195 14.7213 19.7511C14.6498 19.9433 14.5718 20.1427 14.4751 20.316C14.4647 20.3346 14.4531 20.3575 14.4397 20.3839C14.3626 20.5361 14.2273 20.8033 13.9392 21.0068C13.876 21.0515 13.8002 21.0879 13.7136 21.1294C13.6873 21.142 13.6598 21.155 13.6315 21.169C13.5094 21.2293 13.3656 21.3073 13.1982 21.4352C13.0601 21.5407 12.9038 21.6813 12.7414 21.8273C12.6615 21.8992 12.5799 21.9723 12.4985 22.0433C12.2525 22.2577 12.0165 22.4436 11.7808 22.6291C11.7808 22.6292 11.7807 22.6292 11.7807 22.6292C11.7528 22.6512 11.6672 22.6045 11.5895 22.525C11.5119 22.4456 11.4714 22.3635 11.4993 22.3415C11.7351 22.1559 11.9705 21.9707 12.2157 21.757C12.2958 21.6871 12.3767 21.6145 12.4564 21.5429C12.6196 21.3963 12.778 21.2536 12.9174 21.1471C13.0877 21.0171 13.234 20.9377 13.3579 20.8766C13.3877 20.8618 13.4161 20.8483 13.4429 20.8354C13.5285 20.7944 13.5998 20.7603 13.6598 20.7179C13.9387 20.5209 14.069 20.2639 14.1465 20.1113C14.1602 20.0842 14.1724 20.0605 14.1833 20.0409C14.2782 19.871 14.3551 19.6747 14.4265 19.4826C14.4381 19.4514 14.4496 19.4204 14.461 19.3895C14.461 19.3895 14.461 19.3894 14.461 19.3893C14.5194 19.2308 14.5755 19.0785 14.6361 18.9526C14.6976 18.8249 14.7256 18.6878 14.7518 18.5596C14.7659 18.4908 14.7795 18.4247 14.7974 18.3638C14.8591 18.1542 14.9547 18.0105 15.2541 17.7038ZM13.0119 23.6789C13.1075 23.6547 13.1638 23.6134 13.1977 23.5747C13.1588 23.5975 13.1195 23.6198 13.0799 23.6418C13.0574 23.6543 13.0347 23.6667 13.0119 23.6789ZM15.3577 19.9298C15.3526 19.9441 15.3475 19.9586 15.3424 19.9731C15.3673 19.9438 15.3923 19.9146 15.4172 19.8855C15.4479 19.8498 15.4787 19.8141 15.5094 19.7786C15.4558 19.8304 15.4044 19.8812 15.3577 19.9298ZM15.9023 18.358C15.7349 18.5277 15.692 18.7366 15.6533 18.9251C15.6422 18.9794 15.6314 19.0319 15.6181 19.0814C15.6126 19.1019 15.6079 19.1232 15.6035 19.1451C15.6843 19.0732 15.7592 19.0078 15.8205 18.9542C16.0035 18.7945 16.1252 18.7212 16.2322 18.6569C16.2632 18.6382 16.2929 18.6203 16.3225 18.6013C16.3331 18.5716 16.3445 18.5412 16.3573 18.5118C16.3751 18.4705 16.3958 18.4272 16.4166 18.3873C16.4375 18.3471 16.4599 18.3074 16.4831 18.2697C16.5065 18.2317 16.5308 18.1951 16.5558 18.1595C16.5793 18.126 16.6035 18.0934 16.6269 18.0618C16.6282 18.06 16.6295 18.0582 16.6309 18.0564C16.6556 18.023 16.6797 17.9905 16.6999 17.9588C16.7204 17.9264 16.7354 17.8975 16.7443 17.8674C16.7555 17.8299 16.7679 17.7923 16.7809 17.7559C16.7939 17.7194 16.8076 17.6838 16.8219 17.6491C16.8363 17.6142 16.8511 17.5803 16.8665 17.5468C16.8715 17.5359 16.8767 17.5247 16.8817 17.514C16.8841 17.5091 16.8863 17.5042 16.8887 17.4993C16.8399 17.5461 16.7887 17.5942 16.7351 17.6432C16.6576 17.7139 16.5692 17.7837 16.4717 17.8607C16.3055 17.9922 16.1128 18.1447 15.9023 18.358ZM17.5878 16.7494C17.5677 16.7709 17.5395 16.8036 17.5032 16.8457C17.4946 16.8556 17.4856 16.8662 17.4761 16.8772C17.4764 16.8771 17.4766 16.8768 17.4769 16.8766C17.5096 16.8585 17.5394 16.8413 17.5706 16.8218C17.6261 16.7871 17.6789 16.7521 17.7309 16.7154C17.783 16.6786 17.8336 16.6405 17.883 16.601C17.9325 16.5615 17.9806 16.5205 18.027 16.4784C18.0738 16.4359 18.1186 16.3927 18.162 16.3473C18.1759 16.3328 18.1895 16.3181 18.203 16.3032C18.1642 16.3277 18.1254 16.3547 18.0844 16.3833C18.0517 16.406 18.0175 16.4298 17.9809 16.454C17.9669 16.4633 17.9491 16.4738 17.9284 16.486C17.8463 16.5343 17.7175 16.6101 17.5878 16.7494ZM18.4791 15.8703C18.4875 15.8581 18.496 15.8462 18.5048 15.8346C18.5296 15.8018 18.5554 15.7714 18.5812 15.7421C18.5994 15.7215 18.6176 15.7014 18.6356 15.6816C18.6431 15.6733 18.6506 15.6649 18.6581 15.6566C18.6706 15.6427 18.6829 15.6288 18.695 15.615C18.5953 15.6976 18.4996 15.7801 18.4046 15.8709C18.4034 15.8721 18.4022 15.8734 18.4009 15.8746C18.4276 15.8731 18.4536 15.8717 18.4791 15.8703Z" fill="#FF691E"/>
<path d="M6.28134 26.258C6.35021 26.3252 6.39466 26.4084 6.45074 26.5134C6.45078 26.5135 6.45083 26.5135 6.45087 26.5136C6.45888 26.5286 6.46708 26.5441 6.47567 26.56C6.54489 26.6883 6.63854 26.8511 6.81209 27.0644C7.00384 27.3001 7.09404 27.5492 7.12139 27.7291C7.12649 27.7626 7.13867 27.7904 7.18201 27.848C7.21043 27.8857 7.25094 27.9347 7.30938 28.0053C7.34046 28.0429 7.37667 28.0866 7.41879 28.1381C7.5582 28.3083 7.80568 28.5462 8.03382 28.7653C8.17228 28.8983 8.30363 29.0244 8.39923 29.1243C8.53904 29.2705 8.66274 29.4227 8.79714 29.5883C8.92022 29.74 9.05227 29.9028 9.21412 30.0822C9.3383 30.2198 9.40774 30.4047 9.47249 30.5985C9.48073 30.6231 9.48896 30.648 9.49715 30.6728C9.55365 30.8444 9.61133 31.0199 9.70368 31.1797C9.86829 31.4646 10.0725 31.6191 10.2985 31.7902C10.387 31.8571 10.4788 31.9265 10.5728 32.0073C10.7216 32.135 10.9183 32.3359 11.1149 32.5385C11.1316 32.5557 11.1484 32.5729 11.1652 32.5902C11.1653 32.5902 11.1653 32.5903 11.1654 32.5904C11.3453 32.7759 11.5219 32.958 11.6595 33.0834C11.8783 33.2827 11.9798 33.3385 12.0646 33.3849C12.0965 33.4024 12.126 33.4185 12.1584 33.4405C12.2753 33.5197 12.4197 33.6711 12.5662 33.8246C12.5668 33.8252 12.5674 33.8258 12.5679 33.8263C12.5922 33.8518 12.5481 33.9361 12.4694 34.0146C12.3907 34.0931 12.3071 34.1361 12.2828 34.1106C12.2052 34.0293 12.1295 33.95 12.0588 33.8819C11.9876 33.9458 11.9178 33.9782 11.896 33.9553C11.8412 33.8979 11.6185 33.777 11.2666 33.5913C11.2727 33.622 11.2761 33.6495 11.2783 33.6744C11.2808 33.7036 11.2814 33.7272 11.282 33.7475C11.2833 33.7898 11.2842 33.8179 11.3 33.8535C11.3483 33.9244 11.4396 34.0204 11.5358 34.1212C11.5601 34.1467 11.5161 34.2309 11.4374 34.3094C11.3587 34.3878 11.2751 34.4308 11.2508 34.4054C11.2503 34.4049 11.2498 34.4044 11.2493 34.4039C11.154 34.304 11.0597 34.2051 11.0095 34.1308C10.9968 34.1119 10.9868 34.0946 10.9798 34.0811C10.9743 34.0702 10.9676 34.0564 10.9666 34.0462C10.9664 34.0448 10.9662 34.0421 10.9664 34.0385C10.9664 34.0384 10.9664 34.0384 10.9664 34.0383C10.9665 34.0363 10.9669 34.0261 10.9733 34.0093C10.9746 34.0059 10.9775 33.9984 10.9832 33.9873C10.9832 33.986 10.9832 33.9847 10.9831 33.9833C10.9825 33.9647 10.9819 33.9458 10.9803 33.9263C10.9738 33.8502 10.9522 33.741 10.8624 33.5583C10.7798 33.3904 10.5872 33.1594 10.3233 32.8949C10.3353 32.9186 10.3474 32.9422 10.3598 32.9656C10.3911 33.0243 10.4237 33.0821 10.4569 33.1393C10.4697 33.1612 10.4823 33.1827 10.4953 33.2046C10.5162 33.2397 10.5373 33.2748 10.5586 33.3097C10.5729 33.3334 10.5874 33.3569 10.6018 33.3805C10.6019 33.3805 10.6019 33.3806 10.602 33.3806C10.622 33.4134 10.6421 33.4462 10.6621 33.4794C10.669 33.4912 10.6759 33.5027 10.6828 33.5142C10.7101 33.5597 10.737 33.6043 10.761 33.6627C10.7632 33.6705 10.765 33.6796 10.766 33.6868C10.7671 33.6943 10.768 33.7018 10.7686 33.7091C10.7692 33.7156 10.7695 33.7219 10.7699 33.7279C10.77 33.7287 10.77 33.7295 10.7701 33.7303C10.7706 33.737 10.7711 33.7434 10.7717 33.7494C10.7722 33.7554 10.7728 33.7612 10.7736 33.7666C10.7736 33.7666 10.7737 33.7667 10.7737 33.7667C10.7746 33.7723 10.7753 33.7765 10.7768 33.782C10.7786 33.7888 10.7804 33.7945 10.783 33.8009C10.7855 33.8072 10.7884 33.8134 10.7915 33.8195C10.7946 33.8255 10.798 33.8315 10.8016 33.8374C10.8052 33.8433 10.809 33.8492 10.8129 33.855C10.8168 33.8609 10.8209 33.8666 10.8251 33.8724C10.8292 33.8783 10.8333 33.8841 10.8376 33.89C10.8473 33.9035 10.8427 33.9304 10.8241 33.9653C10.8055 34.0002 10.7746 34.0402 10.7379 34.0768C10.7012 34.1134 10.6613 34.144 10.6267 34.1621C10.592 34.1802 10.5655 34.1844 10.5526 34.1741C10.5491 34.1713 10.5455 34.1685 10.5419 34.1657C10.5398 34.164 10.5378 34.1622 10.5357 34.1605C10.53 34.1559 10.5243 34.1514 10.5187 34.1466C10.5131 34.1418 10.5075 34.1368 10.5021 34.1316C10.4966 34.1265 10.4911 34.1211 10.4859 34.1155C10.4806 34.1098 10.4755 34.1037 10.4707 34.0972C10.466 34.0909 10.461 34.0832 10.4571 34.0759C10.4542 34.0705 10.4512 34.0634 10.4488 34.0573C10.4463 34.0509 10.4442 34.0444 10.4422 34.0379C10.4403 34.0315 10.4386 34.025 10.437 34.0188C10.4368 34.0182 10.4367 34.0176 10.4365 34.0169C10.4351 34.0115 10.4337 34.0062 10.4323 34.0013C10.4307 33.9959 10.4291 33.9909 10.4273 33.9864C10.4255 33.9813 10.424 33.9786 10.4221 33.9753C10.3925 33.9366 10.3493 33.8953 10.3082 33.8559C10.3031 33.8509 10.2979 33.846 10.2929 33.8411C10.2658 33.8153 10.2385 33.7898 10.2113 33.7643C10.1915 33.7457 10.1717 33.7271 10.1519 33.7085C10.1228 33.681 10.0938 33.6533 10.065 33.6255C10.0472 33.6081 10.0297 33.5911 10.012 33.5736C9.96594 33.528 9.92035 33.4817 9.876 33.4339C9.83172 33.3863 9.78842 33.337 9.74717 33.2857C9.70609 33.2345 9.66571 33.1791 9.63089 33.1214C9.60543 33.0788 9.58547 33.029 9.56861 32.9814C9.55956 32.9557 9.551 32.9303 9.54268 32.9052C9.54267 32.9051 9.54266 32.905 9.54265 32.9049C9.53535 32.8828 9.52818 32.861 9.52073 32.8396C9.50484 32.7938 9.48787 32.7502 9.4688 32.7086C9.44979 32.6671 9.42884 32.6278 9.40553 32.5903C9.38238 32.5532 9.35679 32.5176 9.32956 32.4841C9.3022 32.4505 9.27354 32.4193 9.24199 32.3879C9.20035 32.3469 9.15674 32.3083 9.11157 32.2692C9.06664 32.2304 9.02059 32.1921 8.97439 32.1537C8.95824 32.1402 8.94215 32.1267 8.92593 32.1132C8.92587 32.1132 8.92581 32.1131 8.92576 32.1131C8.89575 32.0882 8.86566 32.0633 8.83565 32.0382C8.78933 31.9996 8.74308 31.9606 8.69735 31.9208C8.65164 31.8809 8.60631 31.8402 8.56219 31.7978C8.51813 31.7553 8.47419 31.7104 8.43417 31.6612C8.39835 31.6174 8.36353 31.5719 8.32957 31.5274C8.3206 31.5157 8.31162 31.5039 8.30265 31.4922C8.25998 31.4365 8.21757 31.3838 8.17146 31.3357C8.1255 31.2876 8.07557 31.2436 8.02195 31.2023C7.9685 31.1612 7.91139 31.1225 7.852 31.0854C7.79235 31.0481 7.73161 31.0131 7.66867 30.9784C7.60616 30.944 7.5424 30.9104 7.47716 30.8771C7.44093 30.8586 7.40367 30.8376 7.36923 30.817C7.33445 30.7961 7.30066 30.7747 7.26766 30.7531C7.25427 30.7444 7.24103 30.7356 7.22784 30.7269C7.20861 30.7143 7.1896 30.7017 7.17068 30.6895C7.13874 30.6689 7.10706 30.6493 7.07504 30.6316C7.04304 30.6138 7.0106 30.598 6.97716 30.5848C6.9425 30.5712 6.9119 30.562 6.87282 30.5535C6.78537 30.525 6.74041 30.4981 6.69032 30.4684C6.68045 30.4626 6.67029 30.4567 6.65968 30.4505C6.6004 30.4141 6.54408 30.3748 6.49047 30.3341C6.43638 30.2929 6.38515 30.2504 6.33512 30.2054C6.28557 30.1609 6.2376 30.1141 6.19145 30.0659C6.14537 30.0177 6.10106 29.968 6.05835 29.9164C6.01565 29.8649 5.97385 29.8105 5.9353 29.7567C5.913 29.7256 5.89051 29.6914 5.87018 29.6591C5.85551 29.6358 5.84133 29.6125 5.82744 29.5897C5.82177 29.5804 5.81613 29.5711 5.81053 29.562C5.7912 29.5304 5.77214 29.5 5.75257 29.4718C5.73301 29.4436 5.71292 29.4174 5.6914 29.3937C5.66986 29.3699 5.64686 29.3486 5.62189 29.3292C5.59591 29.3092 5.57282 29.2941 5.54109 29.277C5.52036 29.2659 5.49991 29.2552 5.4795 29.2446C5.44895 29.2286 5.41841 29.213 5.38742 29.1974C5.35647 29.1819 5.32564 29.1669 5.29434 29.1521C5.28428 29.1474 5.27365 29.1423 5.26348 29.1376C5.23206 29.1231 5.20066 29.1091 5.16876 29.0957C5.13693 29.0822 5.10489 29.0694 5.07235 29.0573C5.03967 29.0451 5.00694 29.0337 4.97289 29.0228C4.91495 29.0043 4.86922 28.9768 4.83105 28.9509C4.79257 28.9245 4.75892 28.8976 4.72621 28.8713C4.72008 28.8664 4.71395 28.8615 4.70783 28.8565C4.68152 28.8353 4.65574 28.8143 4.62982 28.7941C4.59788 28.7692 4.56578 28.7455 4.53277 28.7226C4.50007 28.6998 4.46624 28.6776 4.43181 28.6569C4.39705 28.636 4.36294 28.6168 4.32506 28.5973C4.28766 28.578 4.24707 28.5609 4.20268 28.5421C4.15867 28.5235 4.11275 28.5038 4.06807 28.4819C4.02338 28.4601 3.97971 28.4363 3.93841 28.4106C3.897 28.3848 3.85738 28.357 3.82 28.328C3.78241 28.2987 3.74675 28.268 3.71258 28.2361C3.67848 28.2043 3.64463 28.17 3.61413 28.1368C3.56473 28.083 3.51647 28.0285 3.46845 27.9736C3.42072 27.919 3.37324 27.8638 3.32609 27.8085C3.27903 27.7533 3.23209 27.6978 3.18542 27.6423C3.13873 27.5867 3.09216 27.531 3.04571 27.4754C3.03544 27.4631 3.02517 27.4508 3.01489 27.4385C2.97873 27.3951 2.94257 27.3518 2.90649 27.3087C2.90626 27.3084 2.90604 27.308 2.90581 27.3077C2.85932 27.2523 2.81363 27.1979 2.7668 27.1437C2.74957 27.1238 2.733 27.1048 2.71593 27.0856C2.69883 27.0665 2.68188 27.0478 2.66455 27.0293C2.64719 27.0107 2.62966 26.9924 2.61207 26.9748C2.59426 26.957 2.5766 26.94 2.55818 26.9234C2.54134 26.9082 2.52397 26.8937 2.50506 26.8778C2.50334 26.8764 2.50161 26.8749 2.49988 26.8735C2.47919 26.8561 2.45648 26.8355 2.4371 26.8146C2.38602 26.759 2.33511 26.706 2.28209 26.6532C2.22905 26.6003 2.17501 26.5488 2.12002 26.4972C2.09855 26.4771 2.07684 26.457 2.0552 26.4368C2.02154 26.4055 1.98775 26.374 1.95412 26.3421C1.89878 26.2898 1.84413 26.2365 1.79072 26.1812C1.73752 26.1262 1.68562 26.0692 1.63583 26.0105C1.58608 25.9519 1.53769 25.891 1.49168 25.8292C1.44046 25.7602 1.3905 25.6907 1.34071 25.6205C1.29103 25.5503 1.24179 25.4797 1.1931 25.409C1.14419 25.3381 1.09574 25.2671 1.04755 25.1957C0.99933 25.1243 0.951419 25.0527 0.903717 24.9808C0.875173 24.9378 0.846772 24.8946 0.818415 24.8514C0.792795 24.8391 0.768091 24.8275 0.744415 24.8162C0.56947 24.733 0.443058 24.6728 0.297151 24.5725C0.281909 24.5641 0.267399 24.5594 0.249796 24.5537C0.246437 24.5526 0.242943 24.5514 0.239328 24.5502C0.216435 24.5426 0.190926 24.533 0.161502 24.5137C0.102805 24.4752 0.0304804 24.3985 0.000654757 24.2357C-0.00687879 24.1946 0.0534351 24.1033 0.135443 24.0318C0.192973 23.9816 0.245903 23.9546 0.274975 23.957C0.25498 23.9188 0.235486 23.8801 0.216001 23.8417C0.208238 23.8263 0.215045 23.7978 0.235418 23.762C0.255804 23.7262 0.287949 23.6861 0.325204 23.6502C0.362469 23.6143 0.402046 23.5852 0.435718 23.5689C0.469359 23.5526 0.494268 23.5505 0.505297 23.5627C0.534489 23.5951 0.563555 23.6275 0.593116 23.6594C0.622687 23.6913 0.652604 23.7226 0.682941 23.7537C0.713268 23.7847 0.743988 23.8153 0.775073 23.8458C0.806053 23.8761 0.837293 23.9063 0.868871 23.9363C0.900625 23.9664 0.932113 23.9957 0.964143 24.0254C0.983348 24.0432 1.00277 24.0612 1.02196 24.0788C1.02909 24.0854 1.03616 24.0917 1.04315 24.098C1.04887 24.1033 1.05457 24.1086 1.06046 24.114C1.12274 24.1707 1.18592 24.2276 1.24883 24.2837C1.31201 24.3402 1.37531 24.3963 1.4388 24.4523C1.50233 24.5084 1.56604 24.5641 1.62984 24.6198C1.69362 24.6754 1.7575 24.7309 1.82167 24.7863C1.88564 24.8415 1.94996 24.8969 2.01449 24.9517C2.0644 24.9941 2.1142 25.0358 2.16433 25.0774C2.18972 25.0881 2.21452 25.099 2.23883 25.1099C2.30958 25.1418 2.38648 25.1677 2.46238 25.193C2.35972 25.1155 2.26771 25.0627 2.18007 25.0126C2.16832 25.0059 2.15662 24.9992 2.14501 24.9925C2.02652 24.9242 1.91505 24.8553 1.79842 24.7292C1.46674 24.3707 1.27643 24.1608 1.17002 24.0178C1.06363 23.8749 1.03716 23.7942 1.04104 23.6903C1.04653 23.5436 0.95349 23.3639 0.886588 23.2938C0.862283 23.2683 0.906421 23.184 0.985115 23.1055C1.06384 23.0271 1.14741 22.984 1.17172 23.0095C1.24236 23.0836 1.34588 23.2751 1.33936 23.4498C1.33645 23.5276 1.35348 23.5967 1.45825 23.7375C1.56303 23.8783 1.75166 24.0862 2.08398 24.4454C2.19641 24.5669 2.30347 24.6335 2.4207 24.701C2.4322 24.7077 2.44388 24.7142 2.45559 24.7209C2.45565 24.721 2.4557 24.721 2.45576 24.7211C2.56373 24.7829 2.68131 24.8501 2.81707 24.9636C3.12998 25.2251 3.56613 25.5617 3.68593 25.6253C3.70944 25.6378 3.73303 25.649 3.75786 25.6609C3.85319 25.7065 3.96824 25.7615 4.17983 25.9332C4.22611 25.9708 4.27774 26.0174 4.33248 26.0698C4.45118 26.1119 4.56478 26.1544 4.65376 26.2012C4.73055 26.2415 4.81808 26.2621 4.90713 26.2777C4.93276 26.2822 4.95898 26.2863 4.98513 26.2905C5.04818 26.3004 5.11124 26.3105 5.16736 26.3255C5.21209 26.3376 5.26146 26.3477 5.31364 26.3583C5.50374 26.397 5.73154 26.4435 5.91141 26.621C6.10208 26.8091 6.24787 26.9877 6.37176 27.1435C6.28753 27.0223 6.23039 26.9209 6.18408 26.8351C6.17534 26.8189 6.16702 26.8033 6.15901 26.7883C6.10246 26.6825 6.06135 26.6056 5.99734 26.5431C5.69162 26.2446 5.55417 26.1554 5.35659 26.0972C5.30457 26.0819 5.24298 26.0693 5.17666 26.0556C5.04409 26.0282 4.89249 25.9969 4.75982 25.933C4.63625 25.8735 4.48659 25.8184 4.32808 25.76C4.32804 25.76 4.32799 25.7599 4.32795 25.7599C4.29698 25.7485 4.26565 25.7369 4.23411 25.7252C4.04185 25.6537 3.84242 25.5757 3.66914 25.4789C3.65061 25.4686 3.62766 25.4569 3.60129 25.4435C3.44909 25.3665 3.18189 25.2311 2.9784 24.9431C2.93371 24.8798 2.89729 24.804 2.85581 24.7175C2.84317 24.6911 2.83014 24.6637 2.81617 24.6354C2.75585 24.5132 2.67785 24.3695 2.55001 24.2021C2.4445 24.0639 2.30385 23.9076 2.15788 23.7453C2.08598 23.6653 2.01285 23.5838 1.94187 23.5023C1.72748 23.2564 1.54155 23.0203 1.35606 22.7847C1.35602 22.7846 1.35597 22.7846 1.35593 22.7845C1.33402 22.7567 1.38071 22.671 1.46013 22.5933C1.53952 22.5157 1.6217 22.4753 1.64362 22.5031C1.82923 22.7389 2.01447 22.9743 2.22815 23.2195C2.29805 23.2997 2.37062 23.3806 2.44224 23.4602C2.58891 23.6234 2.73155 23.7818 2.83804 23.9213C2.96805 24.0915 3.04746 24.2379 3.1086 24.3617C3.12333 24.3916 3.13689 24.4199 3.14978 24.4468C3.19082 24.5324 3.22483 24.6036 3.26722 24.6636C3.46426 24.9425 3.72123 25.0729 3.87388 25.1503C3.90096 25.1641 3.9247 25.1762 3.9443 25.1872C4.11419 25.282 4.31049 25.3589 4.50258 25.4303C4.53374 25.4419 4.56478 25.4534 4.59562 25.4648C4.59571 25.4648 4.5958 25.4648 4.59589 25.4648C4.75437 25.5232 4.90668 25.5793 5.03254 25.6399C5.1603 25.7015 5.29738 25.7294 5.42558 25.7556C5.49437 25.7697 5.56052 25.7833 5.6214 25.8013C5.83101 25.8629 5.97464 25.9585 6.28134 26.258ZM0.306268 24.0158C0.33047 24.1113 0.37173 24.1676 0.410439 24.2016C0.38769 24.1626 0.365413 24.1233 0.343409 24.0837C0.330883 24.0612 0.318506 24.0386 0.306268 24.0158ZM4.0554 26.3615C4.04106 26.3565 4.02661 26.3514 4.0121 26.3463C4.0414 26.3711 4.07055 26.3961 4.09967 26.4211C4.13542 26.4517 4.17102 26.4825 4.20658 26.5133C4.15476 26.4596 4.10392 26.4082 4.0554 26.3615ZM5.62714 26.9061C5.45751 26.7387 5.24856 26.6958 5.06008 26.6572C5.0058 26.6461 4.95322 26.6352 4.90378 26.6219C4.88327 26.6164 4.86199 26.6117 4.8401 26.6074C4.91195 26.6882 4.97741 26.763 5.03093 26.8243C5.19065 27.0073 5.26392 27.1291 5.32832 27.2361C5.34695 27.267 5.36489 27.2968 5.38391 27.3264C5.41358 27.3369 5.44395 27.3484 5.47338 27.3612C5.51469 27.379 5.55792 27.3996 5.59791 27.4205C5.63808 27.4413 5.67773 27.4637 5.71546 27.4869C5.7535 27.5103 5.79005 27.5346 5.82564 27.5596C5.85915 27.5831 5.89179 27.6073 5.92337 27.6307C5.92518 27.632 5.92698 27.6334 5.92879 27.6347C5.9622 27.6594 5.99464 27.6835 6.02637 27.7037C6.05873 27.7242 6.08769 27.7392 6.11775 27.7482C6.15525 27.7594 6.19286 27.7718 6.22929 27.7848C6.26577 27.7977 6.30133 27.8115 6.33611 27.8258C6.37097 27.8402 6.40491 27.855 6.4384 27.8703C6.44923 27.8753 6.46051 27.8806 6.47114 27.8856C6.47605 27.8879 6.48098 27.8902 6.48585 27.8925C6.43903 27.8437 6.39094 27.7926 6.34199 27.7389C6.27129 27.6615 6.20148 27.573 6.12443 27.4756C5.99299 27.3093 5.84048 27.1166 5.62714 26.9061ZM7.23577 28.5916C7.21425 28.5716 7.1816 28.5434 7.13949 28.507C7.12953 28.4984 7.11893 28.4894 7.10794 28.4799C7.10811 28.4802 7.10836 28.4805 7.10853 28.4808C7.1267 28.5134 7.14385 28.5432 7.16333 28.5744C7.1981 28.63 7.23307 28.6828 7.26975 28.7347C7.30659 28.7868 7.34469 28.8375 7.38413 28.8869C7.42364 28.9363 7.46468 28.9845 7.50674 29.0308C7.54926 29.0776 7.59244 29.1225 7.63789 29.1659C7.65237 29.1797 7.66708 29.1934 7.68196 29.2069C7.65744 29.168 7.63045 29.1292 7.60191 29.0883C7.57913 29.0555 7.55538 29.0214 7.53114 28.9847C7.52187 28.9707 7.51141 28.953 7.49921 28.9322C7.45087 28.8502 7.3751 28.7214 7.23577 28.5916ZM8.11484 29.4829C8.12704 29.4913 8.13899 29.4999 8.15053 29.5086C8.18338 29.5335 8.21378 29.5593 8.24312 29.5851C8.2637 29.6032 8.28372 29.6215 8.30353 29.6394C8.31188 29.647 8.32027 29.6545 8.32856 29.6619C8.34244 29.6744 8.35636 29.6867 8.3702 29.6989C8.28761 29.5991 8.20505 29.5034 8.11424 29.4085C8.11304 29.4072 8.11176 29.406 8.11055 29.4048C8.11204 29.4314 8.11346 29.4574 8.11484 29.4829Z" fill="#FF691E"/>
<path d="M4.00701 28.9508C4.07426 28.8819 4.1574 28.8375 4.26247 28.7814C4.26251 28.7813 4.26255 28.7813 4.2626 28.7812C4.27761 28.7732 4.29314 28.765 4.30906 28.7564C4.43727 28.6872 4.60016 28.5936 4.81343 28.42C5.04908 28.2283 5.29822 28.1381 5.47808 28.1107C5.51163 28.1056 5.53944 28.0934 5.597 28.0501C5.63475 28.0217 5.68369 27.9812 5.75436 27.9227C5.79194 27.8917 5.83565 27.8554 5.88709 27.8133C6.05737 27.6739 6.29524 27.4264 6.51433 27.1983C6.64731 27.0598 6.77341 26.9285 6.87336 26.8329C7.01953 26.6931 7.17176 26.5694 7.33735 26.435C7.48899 26.3119 7.65185 26.1798 7.83122 26.018C7.96885 25.8938 8.15377 25.8244 8.34751 25.7596C8.37216 25.7514 8.39698 25.7432 8.42186 25.735C8.59345 25.6785 8.76896 25.6208 8.92877 25.5284C9.21363 25.3638 9.36812 25.1596 9.53918 24.9336C9.60608 24.8452 9.67551 24.7534 9.75628 24.6593C9.88403 24.5105 10.0849 24.3139 10.2875 24.1173C10.3047 24.1005 10.3219 24.0837 10.3392 24.067C10.3393 24.0669 10.3393 24.0668 10.3394 24.0667C10.5249 23.8868 10.707 23.7102 10.8324 23.5726C11.0318 23.3539 11.0875 23.2523 11.1339 23.1675C11.1514 23.1357 11.1675 23.1061 11.1895 23.0737C11.2687 22.9569 11.4201 22.8124 11.5736 22.6659C11.5742 22.6653 11.5748 22.6648 11.5754 22.6642C11.6008 22.6399 11.6851 22.684 11.7636 22.7627C11.8421 22.8414 11.8851 22.925 11.8596 22.9493C11.7783 23.0269 11.699 23.1026 11.6309 23.1733C11.6948 23.2445 11.7273 23.3143 11.7043 23.3362C11.6469 23.3909 11.5261 23.6136 11.3403 23.9655C11.3711 23.9594 11.3985 23.956 11.4234 23.9539C11.4526 23.9514 11.4763 23.9507 11.4965 23.9501C11.5388 23.9488 11.5669 23.9479 11.6025 23.9321C11.6734 23.8838 11.7694 23.7925 11.8703 23.6963C11.8957 23.672 11.9799 23.716 12.0584 23.7947C12.1368 23.8734 12.1798 23.957 12.1544 23.9813C12.1539 23.9818 12.1534 23.9823 12.1529 23.9828C12.0531 24.0781 11.9541 24.1724 11.8798 24.2226C11.8609 24.2354 11.8436 24.2454 11.8301 24.2523C11.8193 24.2579 11.8055 24.2645 11.7952 24.2656C11.7938 24.2657 11.7911 24.2659 11.7875 24.2657C11.7874 24.2657 11.7874 24.2657 11.7873 24.2657C11.7853 24.2656 11.7751 24.2652 11.7583 24.2588C11.7549 24.2576 11.7474 24.2546 11.7363 24.2489C11.735 24.2489 11.7337 24.249 11.7323 24.249C11.7138 24.2496 11.6948 24.2502 11.6753 24.2519C11.5993 24.2584 11.49 24.2799 11.3074 24.3697C11.1394 24.4523 10.9085 24.6449 10.6439 24.9088C10.6676 24.8969 10.6912 24.8847 10.7146 24.8723C10.7733 24.8411 10.8311 24.8084 10.8883 24.7752C10.9102 24.7624 10.9318 24.7498 10.9536 24.7368C10.9887 24.7159 11.0238 24.6948 11.0588 24.6735C11.0824 24.6592 11.106 24.6447 11.1295 24.6303C11.1296 24.6302 11.1296 24.6302 11.1297 24.6301C11.1624 24.6101 11.1952 24.5901 11.2284 24.57C11.2402 24.5631 11.2517 24.5562 11.2632 24.5494C11.3087 24.5221 11.3533 24.4951 11.4117 24.4711C11.4195 24.4689 11.4287 24.4672 11.4358 24.4662C11.4434 24.465 11.4509 24.4641 11.4582 24.4635C11.4646 24.4629 11.471 24.4626 11.477 24.4622C11.4778 24.4621 11.4786 24.4621 11.4794 24.462C11.4861 24.4615 11.4924 24.461 11.4984 24.4604C11.5044 24.4599 11.5102 24.4593 11.5156 24.4585C11.5156 24.4585 11.5157 24.4585 11.5157 24.4584C11.5213 24.4575 11.5255 24.4568 11.531 24.4553C11.5379 24.4535 11.5435 24.4517 11.55 24.4491C11.5562 24.4467 11.5624 24.4438 11.5685 24.4406C11.5745 24.4375 11.5805 24.4341 11.5864 24.4305C11.5923 24.4269 11.5982 24.4231 11.6041 24.4192C11.6099 24.4153 11.6157 24.4112 11.6215 24.4071C11.6273 24.4029 11.6331 24.3988 11.639 24.3945C11.6525 24.3848 11.6794 24.3894 11.7143 24.408C11.7493 24.4267 11.7892 24.4575 11.8258 24.4942C11.8624 24.5309 11.893 24.5708 11.9111 24.6055C11.9293 24.6401 11.9334 24.6666 11.9231 24.6795C11.9203 24.683 11.9176 24.6866 11.9147 24.6902C11.913 24.6923 11.9113 24.6943 11.9096 24.6964C11.905 24.7021 11.9004 24.7078 11.8956 24.7135C11.8908 24.7191 11.8858 24.7246 11.8807 24.73C11.8755 24.7355 11.8702 24.741 11.8645 24.7462C11.8588 24.7515 11.8527 24.7566 11.8462 24.7614C11.8399 24.7661 11.8322 24.7711 11.8249 24.775C11.8196 24.7779 11.8124 24.7809 11.8063 24.7833C11.7999 24.7858 11.7934 24.7879 11.787 24.7899C11.7805 24.7918 11.774 24.7935 11.7679 24.7951C11.7672 24.7953 11.7666 24.7955 11.7659 24.7956C11.7605 24.7971 11.7552 24.7984 11.7504 24.7998C11.7449 24.8014 11.74 24.803 11.7354 24.8048C11.7304 24.8067 11.7276 24.8081 11.7243 24.81C11.6856 24.8396 11.6443 24.8828 11.6049 24.9239C11.6 24.9291 11.595 24.9342 11.5901 24.9392C11.5643 24.9664 11.5388 24.9936 11.5133 25.0208C11.4947 25.0406 11.4762 25.0604 11.4575 25.0802C11.43 25.1093 11.4023 25.1383 11.3745 25.1671C11.3572 25.185 11.3401 25.2024 11.3226 25.2201C11.2771 25.2662 11.2307 25.3118 11.183 25.3561C11.1353 25.4004 11.0861 25.4437 11.0347 25.4849C10.9835 25.526 10.9281 25.5664 10.8704 25.6012C10.8278 25.6267 10.778 25.6466 10.7304 25.6635C10.7047 25.6726 10.6794 25.6811 10.6542 25.6894C10.6541 25.6894 10.654 25.6895 10.6539 25.6895C10.6318 25.6968 10.61 25.7039 10.5887 25.7114C10.5428 25.7273 10.4992 25.7442 10.4576 25.7633C10.4161 25.7823 10.3768 25.8033 10.3394 25.8266C10.3023 25.8497 10.2666 25.8753 10.2331 25.9026C10.1995 25.9299 10.1683 25.9586 10.137 25.9901C10.0959 26.0318 10.0574 26.0754 10.0182 26.1205C9.97942 26.1655 9.94109 26.2115 9.90268 26.2577C9.88926 26.2739 9.87572 26.29 9.86227 26.3062C9.86222 26.3062 9.86216 26.3063 9.8621 26.3064C9.83723 26.3364 9.81231 26.3665 9.78726 26.3965C9.74858 26.4428 9.70961 26.489 9.66978 26.5348C9.62995 26.5805 9.58922 26.6258 9.54683 26.6699C9.50437 26.714 9.45946 26.7579 9.41021 26.7979C9.36641 26.8338 9.32097 26.8686 9.27646 26.9025C9.26471 26.9115 9.25296 26.9205 9.24121 26.9295C9.18556 26.9721 9.13278 27.0146 9.08476 27.0607C9.03665 27.1066 8.99259 27.1566 8.95135 27.2102C8.91023 27.2636 8.87157 27.3207 8.83443 27.3801C8.79713 27.4398 8.76216 27.5005 8.72744 27.5634C8.69305 27.626 8.65947 27.6897 8.62616 27.755C8.60761 27.7912 8.5866 27.8284 8.56597 27.8629C8.54515 27.8977 8.5237 27.9315 8.50217 27.9645C8.49343 27.9779 8.48463 27.9911 8.47595 28.0043C8.46329 28.0235 8.45069 28.0425 8.4385 28.0614C8.41792 28.0934 8.39837 28.1251 8.38061 28.1571C8.36287 28.1891 8.34701 28.2215 8.33381 28.255C8.3202 28.2896 8.311 28.3202 8.30249 28.3593C8.27402 28.4467 8.24716 28.4917 8.21743 28.5418C8.21158 28.5517 8.20568 28.5618 8.19956 28.5724C8.16313 28.6317 8.12384 28.688 8.0831 28.7416C8.04191 28.7957 7.99937 28.847 7.95441 28.897C7.90989 28.9465 7.86312 28.9945 7.8149 29.0407C7.76676 29.0867 7.71701 29.1311 7.66542 29.1738C7.61388 29.2165 7.55951 29.2583 7.50572 29.2968C7.47465 29.3191 7.44046 29.3416 7.40813 29.3619C7.38482 29.3766 7.36155 29.3908 7.33873 29.4047C7.32941 29.4104 7.32015 29.416 7.31099 29.4216C7.27943 29.4409 7.24904 29.46 7.22083 29.4795C7.19262 29.4991 7.16646 29.5192 7.14273 29.5407C7.11895 29.5623 7.09761 29.5853 7.07821 29.6102C7.05821 29.6362 7.04311 29.6593 7.02601 29.691C7.01494 29.7118 7.00423 29.7322 6.99357 29.7526C6.97762 29.7832 6.96199 29.8137 6.94647 29.8447C6.93097 29.8756 6.91594 29.9065 6.90114 29.9378C6.89638 29.9478 6.89135 29.9585 6.88666 29.9686C6.87215 30.0001 6.85815 30.0315 6.84468 30.0634C6.83124 30.0952 6.81842 30.1272 6.80629 30.1598C6.79411 30.1924 6.78273 30.2252 6.7718 30.2592C6.75328 30.3172 6.72584 30.3629 6.69992 30.4011C6.67355 30.4395 6.64661 30.4732 6.62034 30.5059C6.61541 30.512 6.61049 30.5182 6.60557 30.5243C6.5843 30.5506 6.56328 30.5764 6.54311 30.6023C6.51823 30.6342 6.49456 30.6663 6.4716 30.6993C6.44883 30.732 6.42664 30.7659 6.4059 30.8003C6.38498 30.8351 6.36584 30.8692 6.34634 30.9071C6.32698 30.9445 6.30993 30.985 6.29115 31.0294C6.27256 31.0734 6.25278 31.1194 6.23093 31.1641C6.20916 31.2087 6.18531 31.2524 6.15958 31.2937C6.13383 31.3351 6.10606 31.3747 6.07698 31.4121C6.04777 31.4497 6.01701 31.4854 5.98511 31.5195C5.95329 31.5536 5.91905 31.5875 5.88582 31.618C5.83202 31.6674 5.77755 31.7156 5.72265 31.7637C5.66802 31.8114 5.61283 31.8589 5.55753 31.906C5.50232 31.9531 5.44687 32 5.39132 32.0467C5.33575 32.0934 5.28006 32.14 5.22441 32.1864C5.2121 32.1967 5.19979 32.2069 5.18748 32.2172C5.14413 32.2534 5.10079 32.2895 5.0577 32.3256C5.05738 32.3259 5.05706 32.3261 5.05674 32.3263C5.00133 32.3728 4.94697 32.4185 4.89274 32.4653C4.87287 32.4825 4.8538 32.4991 4.83465 32.5162C4.81549 32.5333 4.79685 32.5502 4.77827 32.5676C4.75968 32.5849 4.74146 32.6025 4.72385 32.62C4.70607 32.6379 4.68905 32.6555 4.67247 32.6739C4.65723 32.6908 4.64274 32.7082 4.62684 32.7271C4.62539 32.7288 4.62394 32.7305 4.62249 32.7322C4.6051 32.7529 4.58449 32.7756 4.5636 32.795C4.50804 32.8461 4.45501 32.897 4.40221 32.95C4.34937 33.0031 4.29778 33.0571 4.24624 33.1121C4.22611 33.1336 4.20603 33.1553 4.18587 33.1769C4.1545 33.2106 4.12301 33.2444 4.09117 33.278C4.0388 33.3333 3.9855 33.388 3.93027 33.4414C3.87524 33.4946 3.81822 33.5465 3.75956 33.5963C3.70096 33.646 3.64006 33.6944 3.5782 33.7404C3.50925 33.7917 3.43972 33.8416 3.36949 33.8914C3.29935 33.9411 3.22869 33.9903 3.15802 34.039C3.08712 34.0879 3.01608 34.1364 2.94474 34.1846C2.87336 34.2328 2.80174 34.2807 2.72983 34.3284C2.68679 34.3569 2.64363 34.3853 2.60039 34.4137C2.58813 34.4393 2.57651 34.464 2.56526 34.4877C2.48206 34.6626 2.42182 34.7891 2.32149 34.935C2.31315 34.9502 2.30847 34.9647 2.30273 34.9823C2.30163 34.9857 2.3004 34.9892 2.2992 34.9928C2.29158 35.0157 2.28205 35.0412 2.26274 35.0706C2.2242 35.1293 2.1475 35.2016 1.98474 35.2315C1.94362 35.239 1.85235 35.1787 1.78083 35.0967C1.73067 35.0391 1.70358 34.9862 1.70604 34.9571C1.66778 34.9771 1.62917 34.9966 1.59071 35.0161C1.57534 35.0239 1.54682 35.0171 1.51101 34.9967C1.4752 34.9763 1.43517 34.9442 1.39925 34.9069C1.36331 34.8696 1.33423 34.8301 1.31792 34.7964C1.30164 34.7628 1.29951 34.7378 1.31171 34.7268C1.34416 34.6976 1.37653 34.6686 1.40842 34.639C1.44034 34.6094 1.47163 34.5795 1.50268 34.5492C1.53373 34.5188 1.56436 34.4881 1.59482 34.457C1.62514 34.4261 1.65532 34.3948 1.68528 34.3632C1.71545 34.3315 1.74473 34.3 1.77445 34.268C1.79224 34.2488 1.81026 34.2294 1.82782 34.2102C1.83439 34.203 1.84069 34.196 1.84707 34.189C1.85229 34.1832 1.85758 34.1775 1.86299 34.1717C1.91969 34.1094 1.97663 34.0462 2.03276 33.9833C2.08919 33.9201 2.14537 33.8568 2.20136 33.7933C2.25738 33.7298 2.31311 33.6661 2.3688 33.6023C2.42446 33.5385 2.47995 33.4746 2.53537 33.4104C2.59055 33.3465 2.64587 33.2822 2.70069 33.2176C2.7431 33.1677 2.78484 33.1179 2.82638 33.0678C2.83709 33.0424 2.84801 33.0176 2.85896 32.9933C2.89083 32.9225 2.9167 32.8456 2.94203 32.7697C2.86451 32.8724 2.81177 32.9644 2.76162 33.052C2.75489 33.0638 2.74824 33.0755 2.74155 33.0871C2.67327 33.2056 2.60431 33.3171 2.47825 33.4337C2.11971 33.7654 1.9098 33.9557 1.76683 34.0621C1.62388 34.1685 1.54322 34.195 1.43936 34.1911C1.29259 34.1856 1.11294 34.2786 1.04282 34.3455C1.01735 34.3698 0.933032 34.3257 0.854564 34.247C0.776083 34.1683 0.733073 34.0847 0.758548 34.0604C0.83259 33.9898 1.02414 33.8862 1.19882 33.8928C1.27663 33.8957 1.34573 33.8786 1.4865 33.7739C1.62728 33.6691 1.83518 33.4805 2.19441 33.1481C2.31593 33.0357 2.38251 32.9286 2.45006 32.8114C2.45669 32.7999 2.46326 32.7882 2.46996 32.7765C2.47001 32.7765 2.47007 32.7764 2.47013 32.7764C2.5319 32.6684 2.59914 32.5508 2.71261 32.415C2.97416 32.1021 3.31074 31.666 3.37437 31.5462C3.38686 31.5227 3.39807 31.4991 3.40994 31.4743C3.4555 31.3789 3.51054 31.2639 3.68226 31.0523C3.71982 31.006 3.76639 30.9544 3.81881 30.8996C3.8609 30.7809 3.90343 30.6673 3.9502 30.5784C3.99057 30.5016 4.01109 30.414 4.02672 30.325C4.03123 30.2994 4.03534 30.2731 4.03948 30.247C4.04947 30.1839 4.05948 30.1209 4.07457 30.0648C4.0866 30.02 4.09668 29.9707 4.10731 29.9185C4.14606 29.7284 4.1925 29.5006 4.36999 29.3207C4.55815 29.13 4.73668 28.9842 4.89253 28.8604C4.77132 28.9446 4.66988 29.0017 4.58408 29.048C4.5679 29.0568 4.55235 29.0651 4.53737 29.0731C4.43156 29.1297 4.35463 29.1708 4.29213 29.2348C3.9936 29.5405 3.90441 29.6779 3.84627 29.8755C3.83096 29.9275 3.81828 29.9891 3.80459 30.0555C3.77723 30.188 3.74591 30.3396 3.68203 30.4723C3.62253 30.5959 3.56745 30.7455 3.50903 30.904C3.50899 30.9041 3.50894 30.9041 3.5089 30.9042C3.49749 30.9351 3.48592 30.9665 3.4742 30.998C3.4027 31.1903 3.32471 31.3897 3.22793 31.563C3.21758 31.5815 3.20592 31.6045 3.19257 31.6308C3.11549 31.783 2.98016 32.0502 2.6921 32.2537C2.62883 32.2984 2.55306 32.3348 2.46651 32.3763C2.44016 32.3889 2.4127 32.402 2.3844 32.4159C2.26222 32.4763 2.1185 32.5543 1.95111 32.6821C1.81297 32.7876 1.65667 32.9283 1.4943 33.0742C1.41432 33.1461 1.3328 33.2193 1.25136 33.2902C1.00538 33.5046 0.769344 33.6906 0.533679 33.8761C0.533636 33.8761 0.533593 33.8761 0.53355 33.8762C0.505709 33.8981 0.420039 33.8514 0.342366 33.772C0.264742 33.6926 0.224317 33.6104 0.252123 33.5885C0.487928 33.4029 0.723354 33.2176 0.968521 33.004C1.04872 32.9341 1.12959 32.8615 1.20926 32.7899C1.37242 32.6432 1.53087 32.5006 1.6703 32.3941C1.84053 32.2641 1.98691 32.1847 2.11077 32.1235C2.1406 32.1088 2.16893 32.0952 2.19581 32.0823C2.28138 32.0413 2.35263 32.0073 2.41264 31.9649C2.69155 31.7679 2.82189 31.5109 2.89937 31.3582C2.91311 31.3312 2.92525 31.3074 2.93619 31.2878C3.03107 31.1179 3.10794 30.9216 3.17937 30.7295C3.19096 30.6984 3.20247 30.6673 3.21384 30.6365C3.21383 30.6364 3.21383 30.6363 3.21383 30.6362C3.27223 30.4777 3.32835 30.3254 3.38896 30.1996C3.45047 30.0718 3.47846 29.9347 3.50466 29.8065C3.51872 29.7377 3.53237 29.6716 3.55029 29.6107C3.61197 29.4011 3.70752 29.2575 4.00701 28.9508ZM1.76481 34.9258C1.86036 34.9016 1.91666 34.8604 1.95061 34.8217C1.91165 34.8444 1.87237 34.8667 1.83277 34.8887C1.81023 34.9012 1.78759 34.9136 1.76481 34.9258ZM4.11057 31.1767C4.1055 31.1911 4.10041 31.2055 4.09531 31.22C4.12015 31.1907 4.14516 31.1616 4.17011 31.1325C4.20075 31.0967 4.23153 31.0611 4.26231 31.0255C4.20863 31.0774 4.15724 31.1282 4.11057 31.1767ZM4.65512 29.605C4.48773 29.7746 4.44483 29.9836 4.40621 30.172C4.39509 30.2263 4.38425 30.2789 4.37095 30.3283C4.36544 30.3488 4.36072 30.3701 4.35641 30.392C4.43718 30.3202 4.51202 30.2547 4.57334 30.2012C4.75633 30.0415 4.87811 29.9682 4.98511 29.9038C5.01607 29.8852 5.04579 29.8672 5.0754 29.8482C5.08597 29.8185 5.09738 29.7882 5.11018 29.7587C5.12798 29.7174 5.14865 29.6742 5.16948 29.6342C5.19035 29.594 5.21274 29.5544 5.23594 29.5167C5.25932 29.4786 5.28364 29.4421 5.30864 29.4065C5.33215 29.373 5.35633 29.3403 5.37972 29.3087C5.38107 29.3069 5.38241 29.3051 5.38375 29.3033C5.40845 29.2699 5.43254 29.2375 5.45274 29.2057C5.47325 29.1734 5.48825 29.1444 5.4972 29.1144C5.50842 29.0769 5.52079 29.0393 5.53378 29.0028C5.54677 28.9663 5.56048 28.9308 5.57481 28.896C5.58918 28.8611 5.60397 28.8272 5.61935 28.7937C5.62432 28.7829 5.62958 28.7716 5.63461 28.761C5.63693 28.7561 5.63921 28.7511 5.64154 28.7463C5.59276 28.7931 5.5416 28.8412 5.48796 28.8901C5.41047 28.9608 5.32207 29.0306 5.2246 29.1077C5.05832 29.2391 4.86565 29.3916 4.65512 29.605ZM6.34066 27.9963C6.32062 28.0179 6.29241 28.0505 6.25603 28.0926C6.24743 28.1026 6.23844 28.1132 6.22893 28.1242C6.22924 28.124 6.22949 28.1238 6.2298 28.1236C6.26247 28.1054 6.29227 28.0883 6.32346 28.0688C6.37901 28.034 6.43179 27.9991 6.48373 27.9624C6.53587 27.9255 6.58649 27.8874 6.63587 27.848C6.68533 27.8085 6.73351 27.7674 6.77987 27.7254C6.82665 27.6829 6.87148 27.6397 6.9149 27.5942C6.92873 27.5798 6.94242 27.565 6.95592 27.5502C6.91706 27.5747 6.87825 27.6017 6.83728 27.6302C6.80455 27.653 6.7704 27.6767 6.73375 27.701C6.71972 27.7102 6.70198 27.7207 6.68127 27.7329C6.59922 27.7812 6.4704 27.857 6.34066 27.9963ZM7.23194 27.1173C7.24036 27.1051 7.24891 27.0931 7.25764 27.0816C7.28248 27.0487 7.30832 27.0183 7.33412 26.989C7.35225 26.9684 7.37051 26.9484 7.38842 26.9286C7.39598 26.9202 7.4035 26.9118 7.41096 26.9036C7.42346 26.8897 7.43573 26.8758 7.44788 26.8619C7.34813 26.9445 7.25244 27.0271 7.15749 27.1179C7.15624 27.1191 7.15506 27.1204 7.1538 27.1216C7.18042 27.1201 7.20647 27.1187 7.23194 27.1173Z" fill="#FF691E"/>
</svg>
