<svg width="219" height="216" viewBox="0 0 219 216" fill="none" xmlns="http://www.w3.org/2000/svg">
<path d="M87.1111 174.214L121.866 156.836C122.428 156.555 123.009 156.314 123.605 156.116C127.821 154.709 132.461 155.504 135.97 158.233L137.998 159.81L140.601 162.153C144.469 165.634 149.131 168.114 154.179 169.376L156.381 169.926C158.825 170.538 161.364 170.68 163.862 170.347L167.364 169.88C170.833 169.418 173.934 167.484 175.875 164.572C177.207 162.575 177.917 160.228 177.917 157.827L177.917 156.174C177.917 154.641 177.717 153.114 177.322 151.633L176.186 147.374C175.087 143.25 173.169 139.388 170.549 136.019L169.974 135.28C169.043 134.083 167.994 132.983 166.843 131.997L165.578 130.912C163.641 129.251 161.33 128.084 158.844 127.511L154.47 126.501C152.645 126.08 151.102 124.866 150.264 123.19L150.14 122.94C149.438 121.537 149.352 119.905 149.903 118.437C150.874 115.847 153.579 114.344 156.291 114.886L162.999 116.228C163.883 116.404 164.782 116.493 165.683 116.493L172.198 116.493C173.74 116.493 175.276 116.304 176.773 115.93L179.401 115.273C182.789 114.426 185.675 112.212 187.371 109.159C188.412 107.285 188.959 105.176 188.959 103.031L188.959 100.984C188.959 98.901 188.428 96.8519 187.416 95.0306C185.698 91.9379 182.727 89.7382 179.268 88.9969L175.07 88.0975C173.575 87.7771 172.05 87.6155 170.521 87.6155L162.012 87.6155C160.729 87.6155 159.45 87.7612 158.199 88.0498L151.049 89.6998C149.799 89.9883 148.488 89.6125 147.581 88.7053C146.883 88.0075 146.491 87.0611 146.491 86.0743L146.491 84.3417C146.491 83.6955 146.571 83.0518 146.727 82.4249L148.416 75.6692C148.83 74.0158 149.475 72.4294 150.334 70.9573L150.77 70.2101C153.417 65.673 153.721 60.1402 151.587 55.3404L150.963 54.1947C148.206 49.1416 142.91 45.9976 137.154 45.9976C134.369 45.9976 131.634 46.7369 129.229 48.1402L124.055 51.1582C123.171 51.6739 122.423 52.3935 121.874 53.257L120.479 55.4477C118.703 58.2396 114.666 58.3477 112.742 55.6548C112.593 55.4455 112.426 55.249 112.244 55.0672L111.721 54.5441C108.504 51.3272 103.893 49.9308 99.4316 50.8231L96.7415 51.3611C94.8547 51.7384 93.1451 52.7279 91.8781 54.176L89.4688 56.9294C88.5172 58.017 88.3406 59.581 89.0257 60.8534L90.1342 62.9121C91.339 65.1496 89.027 67.6437 86.7047 66.6116C86.3639 66.4601 85.9951 66.3819 85.6222 66.3819L79.951 66.3819C76.8746 66.3819 73.9243 67.6039 71.7489 69.7792C69.5736 71.9546 68.3516 74.9049 68.3516 77.9813L68.3516 80.9947C68.3516 85.2806 69.8102 89.4388 72.4876 92.7855L77.8715 99.5154C80.5059 102.808 81.9411 106.9 81.9411 111.117C81.9411 117.151 79.0093 122.81 74.0794 126.289L59.3492 136.687C55.2906 139.552 52.3792 143.763 51.1324 148.572C48.7609 157.719 52.7915 167.324 60.9804 172.039L63.5538 173.521C70.7928 177.689 79.6397 177.949 87.1111 174.214Z" fill="black" stroke="black" stroke-width="3.39738"/>
<g clip-path="url(#clip0_4961_25439)">
<path d="M113.346 98.8503C109.152 99.0825 107.735 96.6242 105.358 93.1642C102.981 89.7041 101.593 85.6637 99.4297 82.0679C96.1618 76.6259 90.6007 72.0809 84.2464 71.9762C77.8921 71.8715 71.4779 77.6688 72.5501 83.9325C73.5707 89.8967 79.9303 93.0565 84.1506 97.3792C91.4555 104.861 92.1775 117.855 85.755 126.149C81.3805 131.792 74.6343 134.938 68.7772 139.023C62.92 143.107 57.4295 149.261 57.9584 156.366C58.4853 163.454 65.221 168.912 72.251 169.908C79.2811 170.904 86.3685 168.324 92.5764 164.852C98.7842 161.379 104.465 156.981 110.842 153.832C117.219 150.683 124.654 148.834 131.442 150.895C137.588 152.76 142.341 157.503 147.595 161.189C152.849 164.875 159.778 167.602 165.599 164.859C172.672 161.529 174.199 151.37 170.499 144.498C166.803 137.631 159.547 133.504 152.374 130.433C148.612 128.822 144.342 126.971 143.008 123.103C141.591 118.993 144.469 114.343 148.384 112.438C152.3 110.533 156.896 110.762 161.186 111.435C165.477 112.108 169.776 113.192 174.11 112.85C178.445 112.508 182.98 110.384 184.742 106.397C187.191 100.869 183.014 94.1685 177.392 91.9946C171.77 89.8208 165.412 91.0448 159.68 92.9456C154.156 94.7748 147.48 97.0256 143.061 93.2529C138.674 89.506 139.822 82.3794 142.418 77.2024C145.014 72.0255 148.762 66.9447 148.45 61.1676C148.214 56.7437 145.314 52.5736 141.25 50.8168C137.187 49.06 132.16 49.7987 128.757 52.6486C124.24 56.4374 123.095 62.9355 123.338 68.8183C123.577 74.6975 124.879 80.6027 124.009 86.4273C123.134 92.2565 119.181 98.0959 113.346 98.8503Z" fill="#FF691E"/>
<path d="M96.6523 66.5599C99.7464 69.004 104.243 68.4684 106.695 65.3637C109.148 62.2589 108.628 57.7607 105.534 55.3166C102.439 52.8725 97.943 53.408 95.4905 56.5127C93.038 59.6175 93.5582 64.1157 96.6523 66.5599Z" fill="#FF691E"/>
</g>
<path d="M118.786 111.827C118.963 112 119.077 112.213 119.221 112.483C119.221 112.483 119.221 112.483 119.221 112.484C119.242 112.522 119.263 112.562 119.285 112.603C119.463 112.932 119.703 113.35 120.149 113.898C120.641 114.503 120.873 115.143 120.943 115.604C120.956 115.69 120.987 115.762 121.099 115.91C121.172 116.007 121.276 116.132 121.426 116.314C121.506 116.41 121.598 116.522 121.707 116.654C122.065 117.092 122.7 117.702 123.286 118.265C123.641 118.606 123.979 118.93 124.224 119.187C124.583 119.562 124.901 119.953 125.246 120.378C125.562 120.767 125.901 121.186 126.316 121.646C126.635 122 126.813 122.474 126.98 122.972C127.001 123.035 127.022 123.099 127.043 123.163C127.188 123.603 127.336 124.054 127.573 124.464C127.996 125.196 128.52 125.592 129.101 126.031C129.328 126.203 129.563 126.382 129.805 126.589C130.187 126.917 130.692 127.433 131.197 127.953C131.24 127.997 131.283 128.041 131.326 128.086C131.326 128.086 131.326 128.086 131.326 128.086C131.788 128.562 132.242 129.03 132.595 129.352C133.157 129.864 133.417 130.007 133.635 130.126C133.717 130.171 133.793 130.212 133.876 130.269C134.176 130.472 134.547 130.861 134.923 131.255C134.924 131.257 134.926 131.258 134.927 131.259C134.99 131.325 134.876 131.541 134.674 131.743C134.472 131.944 134.258 132.055 134.195 131.989C133.996 131.781 133.802 131.577 133.62 131.402C133.437 131.566 133.258 131.649 133.202 131.591C133.061 131.443 132.49 131.133 131.586 130.656C131.602 130.735 131.611 130.805 131.616 130.869C131.622 130.944 131.624 131.005 131.626 131.057C131.629 131.166 131.631 131.238 131.672 131.329C131.796 131.511 132.03 131.758 132.277 132.017C132.34 132.082 132.227 132.298 132.025 132.5C131.823 132.701 131.608 132.811 131.546 132.746C131.544 132.745 131.543 132.744 131.542 132.742C131.297 132.486 131.055 132.232 130.926 132.041C130.893 131.993 130.868 131.948 130.85 131.914C130.836 131.886 130.818 131.85 130.816 131.824C130.815 131.82 130.815 131.813 130.815 131.804C130.815 131.804 130.815 131.804 130.815 131.804C130.816 131.799 130.817 131.772 130.833 131.729C130.836 131.721 130.844 131.701 130.859 131.673C130.858 131.669 130.858 131.666 130.858 131.663C130.857 131.615 130.855 131.566 130.851 131.516C130.834 131.321 130.779 131.04 130.548 130.571C130.336 130.14 129.842 129.547 129.164 128.868C129.195 128.929 129.226 128.989 129.258 129.049C129.338 129.2 129.422 129.349 129.507 129.495C129.54 129.552 129.572 129.607 129.606 129.663C129.659 129.753 129.714 129.843 129.768 129.933C129.805 129.994 129.842 130.054 129.879 130.115C129.879 130.115 129.88 130.115 129.88 130.115C129.931 130.199 129.983 130.283 130.034 130.369C130.052 130.399 130.069 130.429 130.087 130.458C130.157 130.575 130.226 130.689 130.288 130.839C130.294 130.859 130.298 130.883 130.301 130.901C130.304 130.921 130.306 130.94 130.308 130.959C130.309 130.975 130.31 130.991 130.311 131.007C130.311 131.009 130.311 131.011 130.311 131.013C130.313 131.03 130.314 131.046 130.315 131.062C130.317 131.077 130.318 131.092 130.32 131.106C130.32 131.106 130.32 131.106 130.321 131.106C130.323 131.121 130.325 131.132 130.328 131.146C130.333 131.163 130.338 131.178 130.344 131.194C130.351 131.21 130.358 131.226 130.366 131.242C130.374 131.257 130.383 131.273 130.392 131.288C130.402 131.303 130.411 131.318 130.421 131.333C130.431 131.348 130.442 131.363 130.452 131.378C130.463 131.393 130.474 131.408 130.485 131.423C130.51 131.458 130.498 131.527 130.45 131.616C130.402 131.706 130.323 131.809 130.229 131.903C130.134 131.997 130.032 132.075 129.943 132.122C129.854 132.168 129.786 132.179 129.753 132.152C129.744 132.145 129.735 132.138 129.726 132.131C129.72 132.126 129.715 132.122 129.709 132.118C129.695 132.106 129.68 132.094 129.666 132.082C129.651 132.069 129.637 132.057 129.623 132.043C129.609 132.03 129.595 132.016 129.582 132.002C129.568 131.987 129.555 131.972 129.543 131.955C129.53 131.939 129.518 131.919 129.508 131.9C129.5 131.886 129.493 131.868 129.486 131.852C129.48 131.836 129.474 131.819 129.47 131.803C129.465 131.786 129.46 131.77 129.456 131.754C129.456 131.752 129.455 131.75 129.455 131.749C129.451 131.735 129.448 131.721 129.444 131.709C129.44 131.695 129.436 131.682 129.431 131.67C129.426 131.657 129.423 131.65 129.418 131.642C129.342 131.543 129.231 131.437 129.125 131.335C129.112 131.323 129.099 131.31 129.086 131.297C129.016 131.231 128.946 131.166 128.877 131.1C128.826 131.052 128.775 131.005 128.724 130.957C128.649 130.886 128.575 130.815 128.501 130.744C128.455 130.699 128.41 130.655 128.365 130.611C128.247 130.494 128.13 130.375 128.016 130.252C127.902 130.13 127.791 130.003 127.685 129.871C127.579 129.74 127.476 129.598 127.386 129.449C127.321 129.34 127.27 129.212 127.226 129.09C127.203 129.024 127.181 128.959 127.16 128.894C127.16 128.894 127.16 128.894 127.16 128.894C127.141 128.837 127.123 128.781 127.103 128.726C127.063 128.608 127.019 128.496 126.97 128.39C126.921 128.283 126.868 128.182 126.808 128.086C126.748 127.991 126.683 127.899 126.613 127.813C126.542 127.727 126.469 127.647 126.388 127.566C126.281 127.461 126.169 127.362 126.053 127.261C125.938 127.162 125.819 127.063 125.701 126.965C125.659 126.93 125.618 126.896 125.576 126.861C125.576 126.861 125.576 126.861 125.576 126.861C125.499 126.797 125.422 126.733 125.345 126.668C125.226 126.569 125.107 126.469 124.989 126.367C124.872 126.265 124.756 126.16 124.642 126.051C124.529 125.942 124.416 125.827 124.314 125.7C124.222 125.588 124.132 125.471 124.045 125.357C124.022 125.327 123.999 125.297 123.976 125.266C123.866 125.124 123.758 124.988 123.639 124.865C123.521 124.741 123.393 124.628 123.255 124.522C123.118 124.417 122.971 124.317 122.819 124.222C122.666 124.126 122.51 124.036 122.348 123.947C122.188 123.859 122.024 123.773 121.857 123.687C121.763 123.64 121.668 123.586 121.579 123.533C121.49 123.479 121.403 123.424 121.319 123.369C121.284 123.346 121.25 123.324 121.216 123.302C121.167 123.269 121.118 123.237 121.07 123.205C120.988 123.153 120.906 123.102 120.824 123.057C120.742 123.011 120.659 122.971 120.573 122.937C120.484 122.902 120.405 122.878 120.305 122.856C120.08 122.783 119.965 122.714 119.836 122.638C119.811 122.623 119.785 122.608 119.758 122.592C119.605 122.498 119.461 122.398 119.323 122.293C119.184 122.187 119.053 122.078 118.924 121.962C118.797 121.848 118.674 121.728 118.555 121.604C118.437 121.481 118.323 121.353 118.214 121.22C118.104 121.088 117.997 120.949 117.898 120.81C117.84 120.731 117.783 120.643 117.73 120.56C117.693 120.5 117.656 120.44 117.621 120.382C117.606 120.358 117.592 120.334 117.577 120.31C117.528 120.229 117.479 120.151 117.429 120.079C117.378 120.007 117.327 119.939 117.271 119.878C117.216 119.817 117.157 119.763 117.093 119.713C117.026 119.661 116.967 119.623 116.886 119.579C116.832 119.55 116.78 119.523 116.727 119.495C116.649 119.455 116.571 119.414 116.491 119.375C116.412 119.335 116.332 119.296 116.252 119.258C116.226 119.246 116.199 119.233 116.173 119.221C116.092 119.184 116.011 119.148 115.93 119.113C115.848 119.079 115.766 119.046 115.682 119.015C115.598 118.983 115.514 118.954 115.427 118.926C115.278 118.879 115.16 118.808 115.062 118.742C114.964 118.674 114.877 118.605 114.793 118.537C114.778 118.525 114.762 118.512 114.746 118.499C114.679 118.445 114.612 118.391 114.546 118.339C114.464 118.275 114.381 118.214 114.297 118.155C114.213 118.097 114.126 118.04 114.037 117.987C113.948 117.933 113.861 117.884 113.763 117.834C113.667 117.784 113.563 117.74 113.449 117.692C113.336 117.644 113.218 117.593 113.103 117.537C112.989 117.481 112.877 117.42 112.771 117.354C112.664 117.288 112.563 117.217 112.467 117.142C112.37 117.067 112.278 116.988 112.191 116.906C112.103 116.824 112.016 116.737 111.938 116.651C111.811 116.513 111.687 116.373 111.564 116.232C111.441 116.092 111.319 115.95 111.198 115.808C111.078 115.667 110.957 115.524 110.837 115.382C110.717 115.239 110.598 115.096 110.479 114.953C110.452 114.921 110.426 114.89 110.399 114.858C110.307 114.747 110.214 114.636 110.121 114.525C110.12 114.524 110.12 114.523 110.119 114.523C110 114.38 109.883 114.241 109.762 114.101C109.718 114.05 109.676 114.001 109.632 113.952C109.588 113.903 109.544 113.855 109.5 113.808C109.455 113.76 109.41 113.713 109.365 113.668C109.319 113.622 109.274 113.578 109.227 113.536C109.183 113.497 109.139 113.46 109.09 113.419C109.086 113.415 109.081 113.411 109.077 113.408C109.024 113.363 108.966 113.31 108.916 113.256C108.785 113.114 108.654 112.978 108.518 112.842C108.382 112.706 108.243 112.574 108.102 112.442C108.047 112.39 107.991 112.338 107.935 112.287C107.849 112.206 107.762 112.125 107.676 112.043C107.534 111.909 107.393 111.772 107.256 111.63C107.12 111.489 106.986 111.343 106.859 111.192C106.731 111.041 106.607 110.885 106.488 110.726C106.357 110.549 106.229 110.371 106.101 110.19C105.973 110.01 105.847 109.829 105.722 109.647C105.596 109.465 105.472 109.283 105.348 109.1C105.224 108.917 105.101 108.733 104.979 108.548C104.906 108.438 104.833 108.327 104.76 108.216C104.694 108.184 104.631 108.154 104.57 108.125C104.121 107.912 103.796 107.757 103.421 107.5C103.382 107.478 103.345 107.466 103.3 107.451C103.291 107.449 103.282 107.445 103.273 107.442C103.214 107.423 103.149 107.398 103.073 107.349C102.922 107.25 102.737 107.053 102.66 106.635C102.641 106.529 102.796 106.295 103.006 106.111C103.154 105.983 103.29 105.913 103.364 105.919C103.313 105.821 103.263 105.722 103.213 105.623C103.193 105.584 103.211 105.511 103.263 105.419C103.315 105.327 103.398 105.224 103.493 105.132C103.589 105.039 103.691 104.965 103.777 104.923C103.864 104.881 103.928 104.876 103.956 104.907C104.031 104.99 104.105 105.073 104.181 105.155C104.257 105.237 104.334 105.318 104.412 105.397C104.49 105.477 104.569 105.556 104.648 105.634C104.728 105.712 104.808 105.789 104.889 105.866C104.971 105.944 105.052 106.019 105.134 106.095C105.183 106.141 105.233 106.187 105.282 106.232C105.301 106.249 105.319 106.265 105.337 106.282C105.351 106.295 105.366 106.308 105.381 106.322C105.541 106.468 105.703 106.614 105.865 106.758C106.027 106.903 106.19 107.047 106.353 107.191C106.516 107.335 106.679 107.478 106.843 107.621C107.007 107.764 107.171 107.906 107.336 108.049C107.5 108.19 107.665 108.332 107.831 108.473C107.959 108.582 108.087 108.689 108.216 108.796C108.281 108.823 108.344 108.851 108.407 108.88C108.588 108.961 108.786 109.028 108.981 109.093C108.717 108.894 108.481 108.758 108.256 108.63C108.226 108.612 108.196 108.595 108.166 108.578C107.862 108.403 107.575 108.226 107.276 107.902C106.424 106.982 105.936 106.443 105.663 106.075C105.389 105.708 105.321 105.501 105.331 105.235C105.345 104.858 105.107 104.397 104.935 104.217C104.872 104.151 104.986 103.935 105.188 103.733C105.39 103.532 105.604 103.421 105.667 103.487C105.848 103.677 106.114 104.169 106.097 104.617C106.09 104.817 106.134 104.994 106.403 105.356C106.672 105.717 107.156 106.251 108.009 107.173C108.298 107.485 108.573 107.656 108.874 107.83C108.903 107.847 108.933 107.864 108.963 107.881C108.963 107.881 108.964 107.881 108.964 107.881C109.241 108.04 109.543 108.212 109.891 108.504C110.695 109.175 111.815 110.04 112.122 110.203C112.183 110.235 112.243 110.264 112.307 110.294C112.552 110.411 112.847 110.553 113.39 110.993C113.509 111.09 113.642 111.209 113.782 111.344C114.087 111.452 114.379 111.561 114.607 111.681C114.804 111.785 115.029 111.838 115.258 111.878C115.324 111.889 115.391 111.9 115.458 111.911C115.62 111.936 115.782 111.962 115.926 112.001C116.041 112.032 116.168 112.058 116.302 112.085C116.79 112.184 117.375 112.304 117.836 112.759C118.326 113.242 118.7 113.701 119.018 114.101C118.802 113.79 118.655 113.529 118.536 113.309C118.514 113.267 118.493 113.227 118.472 113.189C118.327 112.917 118.221 112.72 118.057 112.559C117.272 111.793 116.919 111.564 116.412 111.415C116.278 111.375 116.12 111.343 115.95 111.308C115.609 111.237 115.22 111.157 114.88 110.993C114.562 110.84 114.178 110.699 113.771 110.549C113.771 110.549 113.771 110.548 113.771 110.548C113.691 110.519 113.611 110.489 113.53 110.459C113.036 110.276 112.524 110.075 112.079 109.827C112.032 109.8 111.973 109.77 111.905 109.736C111.514 109.538 110.828 109.191 110.306 108.451C110.191 108.289 110.097 108.094 109.991 107.872C109.958 107.804 109.925 107.734 109.889 107.661C109.734 107.347 109.534 106.978 109.206 106.549C108.935 106.194 108.574 105.793 108.199 105.376C108.014 105.17 107.827 104.961 107.644 104.752C107.094 104.12 106.616 103.514 106.14 102.909C106.14 102.909 106.14 102.909 106.14 102.909C106.084 102.837 106.204 102.618 106.407 102.418C106.611 102.219 106.822 102.115 106.879 102.186C107.355 102.792 107.831 103.396 108.379 104.026C108.559 104.232 108.745 104.439 108.929 104.644C109.306 105.063 109.672 105.47 109.945 105.828C110.279 106.265 110.483 106.641 110.64 106.959C110.678 107.035 110.713 107.108 110.746 107.177C110.851 107.397 110.938 107.58 111.047 107.734C111.553 108.45 112.213 108.784 112.605 108.983C112.674 109.019 112.735 109.05 112.786 109.078C113.222 109.322 113.726 109.519 114.219 109.702C114.299 109.732 114.379 109.762 114.458 109.791C114.458 109.791 114.458 109.791 114.459 109.791C114.866 109.941 115.257 110.085 115.58 110.24C115.908 110.398 116.26 110.47 116.589 110.537C116.766 110.574 116.935 110.609 117.092 110.655C117.63 110.813 117.999 111.058 118.786 111.827ZM103.445 106.07C103.507 106.316 103.613 106.46 103.712 106.547C103.654 106.447 103.597 106.346 103.54 106.245C103.508 106.187 103.476 106.129 103.445 106.07ZM113.071 112.093C113.034 112.08 112.997 112.067 112.96 112.054C113.035 112.118 113.11 112.182 113.185 112.246C113.276 112.325 113.368 112.404 113.459 112.483C113.326 112.345 113.196 112.213 113.071 112.093ZM117.106 113.491C116.671 113.062 116.134 112.951 115.651 112.852C115.511 112.824 115.376 112.796 115.249 112.762C115.197 112.748 115.142 112.735 115.086 112.724C115.27 112.932 115.438 113.124 115.576 113.281C115.986 113.751 116.174 114.064 116.339 114.339C116.387 114.418 116.433 114.494 116.482 114.57C116.558 114.598 116.636 114.627 116.712 114.66C116.818 114.705 116.929 114.759 117.031 114.812C117.135 114.866 117.236 114.923 117.333 114.983C117.431 115.043 117.525 115.105 117.616 115.169C117.702 115.23 117.786 115.292 117.867 115.352C117.872 115.355 117.876 115.359 117.881 115.362C117.967 115.426 118.05 115.487 118.132 115.539C118.215 115.592 118.289 115.63 118.366 115.653C118.462 115.682 118.559 115.714 118.653 115.747C118.746 115.781 118.837 115.816 118.927 115.853C119.016 115.89 119.103 115.928 119.189 115.967C119.217 115.98 119.246 115.993 119.274 116.006C119.286 116.012 119.299 116.018 119.311 116.024C119.191 115.899 119.068 115.767 118.942 115.63C118.76 115.431 118.581 115.204 118.383 114.954C118.046 114.527 117.654 114.032 117.106 113.491ZM121.237 117.819C121.181 117.768 121.098 117.695 120.99 117.602C120.964 117.58 120.937 117.557 120.909 117.532C120.909 117.533 120.91 117.534 120.91 117.534C120.957 117.618 121.001 117.695 121.051 117.775C121.14 117.918 121.23 118.053 121.324 118.186C121.419 118.32 121.516 118.45 121.618 118.577C121.719 118.704 121.824 118.828 121.932 118.947C122.042 119.067 122.153 119.182 122.269 119.293C122.306 119.329 122.344 119.364 122.382 119.399C122.319 119.299 122.25 119.199 122.177 119.094C122.118 119.01 122.057 118.922 121.995 118.828C121.971 118.792 121.944 118.747 121.913 118.694C121.789 118.483 121.594 118.152 121.237 117.819ZM123.494 120.107C123.525 120.129 123.556 120.151 123.585 120.173C123.67 120.237 123.748 120.304 123.823 120.37C123.876 120.416 123.927 120.463 123.978 120.509C124 120.529 124.021 120.548 124.043 120.567C124.078 120.599 124.114 120.631 124.149 120.662C123.937 120.406 123.725 120.16 123.492 119.916C123.489 119.913 123.486 119.91 123.483 119.907C123.487 119.975 123.49 120.042 123.494 120.107Z" fill="black"/>
<path d="M112.947 118.741C113.12 118.565 113.333 118.45 113.603 118.306C113.603 118.306 113.603 118.306 113.603 118.306C113.642 118.286 113.682 118.265 113.723 118.242C114.052 118.065 114.47 117.824 115.018 117.379C115.623 116.886 116.262 116.655 116.724 116.585C116.81 116.571 116.882 116.54 117.03 116.429C117.126 116.356 117.252 116.252 117.434 116.102C117.53 116.022 117.642 115.929 117.774 115.821C118.212 115.463 118.822 114.828 119.385 114.242C119.726 113.886 120.05 113.549 120.307 113.304C120.682 112.945 121.073 112.627 121.498 112.282C121.887 111.966 122.306 111.627 122.766 111.211C123.119 110.892 123.594 110.714 124.092 110.548C124.155 110.527 124.219 110.506 124.283 110.485C124.723 110.34 125.174 110.191 125.584 109.954C126.315 109.532 126.712 109.007 127.151 108.427C127.323 108.2 127.501 107.964 127.709 107.723C128.037 107.341 128.553 106.836 129.073 106.331C129.117 106.288 129.161 106.245 129.205 106.202C129.206 106.202 129.206 106.201 129.206 106.201C129.682 105.739 130.15 105.286 130.472 104.933C130.984 104.371 131.127 104.11 131.246 103.893C131.291 103.811 131.332 103.735 131.389 103.652C131.592 103.352 131.981 102.981 132.375 102.605C132.376 102.603 132.378 102.602 132.379 102.6C132.445 102.538 132.661 102.651 132.863 102.853C133.064 103.055 133.175 103.27 133.109 103.332C132.9 103.532 132.697 103.726 132.522 103.908C132.686 104.09 132.769 104.269 132.71 104.326C132.563 104.466 132.253 105.038 131.776 105.942C131.855 105.926 131.925 105.917 131.989 105.912C132.064 105.905 132.125 105.903 132.177 105.902C132.286 105.899 132.358 105.896 132.449 105.856C132.631 105.732 132.878 105.497 133.137 105.25C133.202 105.188 133.418 105.301 133.62 105.503C133.821 105.705 133.931 105.92 133.866 105.982C133.865 105.983 133.864 105.985 133.862 105.986C133.606 106.23 133.352 106.473 133.161 106.602C133.112 106.634 133.068 106.66 133.033 106.678C133.006 106.692 132.97 106.709 132.944 106.712C132.94 106.712 132.933 106.713 132.924 106.712C132.924 106.712 132.924 106.712 132.924 106.712C132.918 106.712 132.892 106.711 132.849 106.695C132.84 106.691 132.821 106.684 132.793 106.669C132.789 106.669 132.786 106.669 132.782 106.669C132.735 106.671 132.686 106.672 132.636 106.677C132.441 106.693 132.16 106.749 131.691 106.979C131.26 107.191 130.667 107.686 129.988 108.363C130.049 108.333 130.109 108.301 130.169 108.27C130.32 108.189 130.468 108.106 130.615 108.02C130.671 107.988 130.727 107.955 130.783 107.922C130.873 107.868 130.963 107.814 131.053 107.759C131.114 107.723 131.174 107.685 131.235 107.648C131.235 107.648 131.235 107.648 131.235 107.648C131.319 107.597 131.403 107.545 131.489 107.493C131.519 107.476 131.548 107.458 131.578 107.441C131.695 107.37 131.809 107.301 131.959 107.24C131.979 107.234 132.003 107.229 132.021 107.227C132.04 107.224 132.06 107.222 132.078 107.22C132.095 107.219 132.111 107.218 132.127 107.217C132.129 107.217 132.131 107.216 132.133 107.216C132.15 107.215 132.166 107.214 132.182 107.212C132.197 107.211 132.212 107.209 132.226 107.207C132.226 107.207 132.226 107.207 132.226 107.207C132.241 107.205 132.251 107.203 132.265 107.199C132.283 107.194 132.298 107.19 132.314 107.183C132.33 107.177 132.346 107.169 132.362 107.161C132.377 107.153 132.393 107.144 132.408 107.135C132.423 107.126 132.438 107.116 132.453 107.106C132.468 107.096 132.483 107.086 132.498 107.075C132.513 107.065 132.528 107.054 132.543 107.043C132.577 107.018 132.646 107.03 132.736 107.078C132.826 107.125 132.928 107.205 133.022 107.299C133.116 107.393 133.195 107.496 133.241 107.585C133.288 107.673 133.299 107.741 133.272 107.775C133.265 107.784 133.258 107.793 133.251 107.802C133.246 107.807 133.242 107.813 133.237 107.818C133.226 107.833 133.214 107.847 133.202 107.862C133.189 107.876 133.176 107.89 133.163 107.904C133.15 107.919 133.136 107.933 133.122 107.946C133.107 107.959 133.092 107.973 133.075 107.985C133.059 107.997 133.039 108.01 133.02 108.02C133.006 108.027 132.988 108.035 132.972 108.041C132.956 108.048 132.939 108.053 132.923 108.058C132.906 108.063 132.889 108.067 132.874 108.071C132.872 108.072 132.87 108.072 132.869 108.073C132.855 108.077 132.841 108.08 132.829 108.084C132.815 108.088 132.802 108.092 132.79 108.096C132.777 108.101 132.77 108.105 132.762 108.11C132.662 108.186 132.556 108.297 132.455 108.402C132.443 108.415 132.43 108.429 132.417 108.442C132.351 108.511 132.285 108.581 132.22 108.651C132.172 108.702 132.125 108.753 132.077 108.803C132.006 108.878 131.935 108.953 131.864 109.027C131.819 109.072 131.775 109.117 131.73 109.163C131.613 109.281 131.494 109.398 131.372 109.512C131.249 109.626 131.123 109.737 130.991 109.843C130.86 109.948 130.717 110.052 130.569 110.141C130.46 110.207 130.332 110.258 130.21 110.301C130.144 110.324 130.079 110.346 130.014 110.368C130.014 110.368 130.014 110.368 130.013 110.368C129.957 110.387 129.901 110.405 129.846 110.424C129.728 110.465 129.616 110.508 129.509 110.557C129.403 110.606 129.302 110.66 129.206 110.72C129.111 110.779 129.019 110.845 128.933 110.915C128.847 110.985 128.767 111.059 128.686 111.14C128.581 111.247 128.482 111.359 128.381 111.475C128.282 111.59 128.183 111.708 128.085 111.827C128.05 111.868 128.015 111.91 127.981 111.951C127.981 111.951 127.981 111.952 127.98 111.952C127.917 112.029 127.853 112.106 127.788 112.183C127.689 112.302 127.589 112.421 127.487 112.538C127.384 112.656 127.28 112.772 127.171 112.885C127.062 112.998 126.947 113.111 126.82 113.214C126.708 113.306 126.591 113.395 126.477 113.482C126.447 113.506 126.416 113.529 126.386 113.552C126.243 113.661 126.108 113.77 125.985 113.888C125.861 114.006 125.748 114.135 125.642 114.272C125.536 114.41 125.437 114.556 125.342 114.709C125.246 114.862 125.156 115.018 125.067 115.179C124.979 115.34 124.893 115.504 124.807 115.671C124.759 115.764 124.706 115.86 124.653 115.948C124.599 116.038 124.544 116.124 124.489 116.209C124.466 116.243 124.444 116.277 124.421 116.311C124.389 116.361 124.357 116.409 124.325 116.458C124.272 116.54 124.222 116.621 124.177 116.704C124.131 116.786 124.09 116.869 124.056 116.955C124.022 117.044 123.998 117.122 123.976 117.223C123.903 117.447 123.834 117.563 123.758 117.691C123.743 117.717 123.728 117.743 123.712 117.77C123.618 117.922 123.517 118.067 123.413 118.204C123.307 118.343 123.198 118.475 123.082 118.603C122.968 118.731 122.848 118.854 122.724 118.972C122.601 119.091 122.473 119.204 122.34 119.314C122.208 119.424 122.068 119.531 121.93 119.63C121.851 119.687 121.763 119.745 121.68 119.797C121.62 119.835 121.56 119.871 121.502 119.907C121.478 119.921 121.454 119.936 121.43 119.95C121.349 120 121.271 120.049 121.199 120.099C121.126 120.149 121.059 120.201 120.998 120.256C120.937 120.311 120.882 120.37 120.833 120.435C120.781 120.501 120.743 120.561 120.699 120.642C120.67 120.695 120.643 120.748 120.615 120.8C120.574 120.879 120.534 120.957 120.494 121.037C120.455 121.116 120.416 121.195 120.378 121.276C120.366 121.301 120.353 121.329 120.341 121.355C120.304 121.435 120.268 121.516 120.233 121.598C120.199 121.68 120.166 121.762 120.134 121.846C120.103 121.929 120.074 122.014 120.046 122.101C119.998 122.25 119.928 122.367 119.861 122.465C119.794 122.564 119.725 122.65 119.657 122.734C119.644 122.75 119.632 122.766 119.619 122.782C119.565 122.849 119.511 122.915 119.459 122.982C119.395 123.064 119.334 123.146 119.275 123.231C119.217 123.315 119.16 123.402 119.106 123.49C119.053 123.579 119.004 123.667 118.954 123.764C118.904 123.86 118.86 123.965 118.812 124.079C118.764 124.192 118.713 124.309 118.657 124.424C118.601 124.539 118.54 124.651 118.474 124.757C118.408 124.863 118.337 124.965 118.262 125.061C118.187 125.158 118.108 125.249 118.026 125.337C117.944 125.424 117.856 125.511 117.771 125.59C117.633 125.716 117.493 125.84 117.352 125.964C117.212 126.086 117.07 126.208 116.928 126.329C116.786 126.45 116.644 126.571 116.501 126.69C116.359 126.81 116.216 126.93 116.073 127.049C116.041 127.075 116.01 127.102 115.978 127.128C115.867 127.221 115.755 127.314 115.645 127.407C115.644 127.407 115.643 127.408 115.642 127.408C115.5 127.528 115.361 127.645 115.221 127.765C115.17 127.809 115.121 127.852 115.072 127.896C115.023 127.94 114.975 127.983 114.927 128.028C114.88 128.072 114.833 128.117 114.788 128.162C114.742 128.208 114.698 128.254 114.656 128.301C114.617 128.344 114.579 128.389 114.539 128.437C114.535 128.442 114.531 128.446 114.527 128.451C114.483 128.504 114.43 128.562 114.376 128.612C114.234 128.743 114.097 128.874 113.962 129.01C113.826 129.146 113.694 129.285 113.561 129.426C113.51 129.481 113.458 129.537 113.406 129.592C113.326 129.679 113.245 129.765 113.163 129.852C113.029 129.994 112.892 130.134 112.75 130.271C112.609 130.408 112.462 130.541 112.312 130.669C112.161 130.797 112.005 130.921 111.846 131.039C111.669 131.171 111.491 131.299 111.31 131.427C111.13 131.554 110.949 131.681 110.767 131.806C110.585 131.931 110.403 132.056 110.22 132.179C110.036 132.303 109.853 132.426 109.668 132.549C109.557 132.622 109.447 132.695 109.336 132.768C109.304 132.834 109.274 132.897 109.245 132.958C109.032 133.407 108.877 133.732 108.619 134.106C108.598 134.145 108.586 134.183 108.571 134.228C108.568 134.236 108.565 134.245 108.562 134.255C108.543 134.313 108.518 134.379 108.469 134.454C108.37 134.605 108.173 134.791 107.755 134.867C107.649 134.887 107.415 134.732 107.231 134.521C107.103 134.374 107.033 134.238 107.039 134.163C106.941 134.214 106.842 134.265 106.743 134.315C106.704 134.334 106.63 134.317 106.539 134.265C106.447 134.212 106.344 134.13 106.252 134.034C106.159 133.938 106.085 133.837 106.043 133.75C106.001 133.664 105.995 133.6 106.027 133.572C106.11 133.497 106.193 133.422 106.275 133.346C106.357 133.27 106.437 133.194 106.517 133.116C106.597 133.038 106.676 132.959 106.754 132.879C106.832 132.8 106.909 132.719 106.986 132.638C107.063 132.557 107.139 132.476 107.215 132.394C107.261 132.344 107.307 132.294 107.352 132.245C107.369 132.227 107.385 132.209 107.401 132.191C107.415 132.176 107.428 132.161 107.442 132.146C107.588 131.986 107.734 131.824 107.878 131.663C108.023 131.5 108.167 131.338 108.311 131.175C108.455 131.012 108.598 130.848 108.741 130.684C108.884 130.521 109.026 130.357 109.169 130.192C109.31 130.028 109.452 129.863 109.593 129.697C109.702 129.569 109.809 129.441 109.916 129.312C109.943 129.247 109.971 129.183 109.999 129.121C110.081 128.939 110.148 128.742 110.213 128.547C110.014 128.81 109.878 129.047 109.75 129.272C109.732 129.302 109.715 129.332 109.698 129.362C109.523 129.666 109.346 129.952 109.022 130.252C108.101 131.103 107.562 131.592 107.195 131.865C106.828 132.138 106.621 132.206 106.355 132.196C105.978 132.182 105.516 132.421 105.336 132.593C105.271 132.655 105.055 132.542 104.853 132.34C104.652 132.138 104.541 131.923 104.607 131.861C104.797 131.679 105.288 131.413 105.737 131.43C105.937 131.438 106.114 131.394 106.476 131.125C106.837 130.856 107.371 130.372 108.293 129.518C108.605 129.23 108.776 128.955 108.95 128.654C108.967 128.624 108.983 128.594 109.001 128.564C109.001 128.564 109.001 128.564 109.001 128.564C109.16 128.287 109.332 127.985 109.624 127.636C110.295 126.833 111.159 125.713 111.323 125.405C111.355 125.345 111.384 125.284 111.414 125.221C111.531 124.976 111.672 124.68 112.113 124.137C112.21 124.018 112.329 123.886 112.464 123.745C112.572 123.44 112.681 123.149 112.801 122.92C112.905 122.723 112.958 122.498 112.998 122.27C113.009 122.204 113.02 122.137 113.031 122.07C113.056 121.908 113.082 121.746 113.121 121.602C113.152 121.487 113.177 121.36 113.205 121.226C113.304 120.738 113.423 120.153 113.879 119.691C114.362 119.202 114.821 118.827 115.221 118.509C114.91 118.726 114.649 118.872 114.429 118.991C114.387 119.014 114.347 119.035 114.309 119.055C114.037 119.201 113.84 119.306 113.679 119.471C112.913 120.256 112.684 120.608 112.534 121.116C112.495 121.249 112.463 121.407 112.427 121.578C112.357 121.918 112.277 122.307 112.113 122.648C111.96 122.965 111.819 123.35 111.669 123.757C111.668 123.757 111.668 123.757 111.668 123.757C111.639 123.836 111.609 123.917 111.579 123.998C111.396 124.491 111.195 125.003 110.947 125.448C110.92 125.496 110.89 125.555 110.856 125.623C110.658 126.013 110.311 126.699 109.571 127.222C109.409 127.337 109.214 127.43 108.992 127.537C108.924 127.569 108.854 127.603 108.781 127.638C108.467 127.793 108.098 127.994 107.669 128.322C107.314 128.593 106.913 128.954 106.496 129.329C106.29 129.513 106.081 129.701 105.872 129.883C105.24 130.434 104.634 130.911 104.029 131.387C104.029 131.387 104.029 131.388 104.029 131.388C103.957 131.444 103.737 131.324 103.538 131.12C103.339 130.916 103.235 130.705 103.306 130.649C103.912 130.172 104.516 129.697 105.146 129.148C105.352 128.969 105.559 128.782 105.764 128.599C106.183 128.222 106.59 127.856 106.948 127.582C107.385 127.248 107.76 127.045 108.078 126.888C108.155 126.85 108.228 126.815 108.297 126.782C108.517 126.677 108.699 126.589 108.854 126.48C109.57 125.974 109.904 125.315 110.103 124.923C110.139 124.853 110.17 124.792 110.198 124.742C110.441 124.306 110.639 123.802 110.822 123.308C110.852 123.228 110.881 123.149 110.911 123.07C110.911 123.069 110.911 123.069 110.911 123.069C111.061 122.662 111.205 122.271 111.36 121.948C111.518 121.62 111.59 121.268 111.657 120.939C111.693 120.762 111.729 120.592 111.775 120.436C111.933 119.898 112.178 119.529 112.947 118.741ZM107.19 134.083C107.435 134.021 107.58 133.915 107.667 133.815C107.567 133.874 107.466 133.931 107.365 133.987C107.307 134.02 107.249 134.051 107.19 134.083ZM113.213 124.457C113.2 124.493 113.187 124.531 113.174 124.568C113.238 124.493 113.302 124.418 113.366 124.343C113.445 124.251 113.524 124.16 113.603 124.068C113.465 124.202 113.333 124.332 113.213 124.457ZM114.611 120.421C114.181 120.857 114.071 121.393 113.972 121.877C113.944 122.016 113.916 122.151 113.882 122.278C113.867 122.331 113.855 122.386 113.844 122.442C114.052 122.257 114.244 122.089 114.401 121.952C114.871 121.542 115.184 121.354 115.458 121.188C115.538 121.141 115.614 121.094 115.69 121.046C115.717 120.969 115.747 120.891 115.78 120.816C115.825 120.71 115.878 120.599 115.932 120.496C115.985 120.393 116.043 120.291 116.103 120.194C116.163 120.097 116.225 120.003 116.289 119.911C116.35 119.825 116.412 119.742 116.472 119.661C116.475 119.656 116.479 119.651 116.482 119.647C116.545 119.561 116.607 119.478 116.659 119.396C116.712 119.313 116.75 119.239 116.773 119.161C116.802 119.065 116.834 118.969 116.867 118.875C116.901 118.781 116.936 118.69 116.973 118.601C117.009 118.511 117.047 118.424 117.087 118.338C117.1 118.31 117.113 118.281 117.126 118.254C117.132 118.241 117.138 118.229 117.144 118.216C117.019 118.337 116.887 118.46 116.75 118.586C116.551 118.767 116.324 118.946 116.073 119.144C115.646 119.482 115.152 119.873 114.611 120.421ZM118.939 116.291C118.887 116.346 118.815 116.43 118.722 116.538C118.7 116.564 118.676 116.591 118.652 116.619C118.653 116.619 118.654 116.618 118.654 116.618C118.738 116.571 118.815 116.527 118.895 116.477C119.037 116.388 119.173 116.298 119.306 116.204C119.44 116.109 119.57 116.011 119.697 115.91C119.824 115.809 119.948 115.703 120.067 115.595C120.187 115.486 120.302 115.375 120.413 115.258C120.449 115.221 120.484 115.183 120.519 115.145C120.419 115.208 120.319 115.278 120.214 115.351C120.13 115.409 120.042 115.47 119.948 115.532C119.912 115.556 119.867 115.583 119.813 115.614C119.603 115.739 119.272 115.933 118.939 116.291ZM121.227 114.034C121.249 114.002 121.271 113.972 121.293 113.942C121.357 113.858 121.423 113.78 121.49 113.704C121.536 113.652 121.583 113.6 121.629 113.549C121.649 113.528 121.668 113.506 121.687 113.485C121.719 113.449 121.751 113.414 121.782 113.378C121.526 113.59 121.28 113.802 121.036 114.035C121.033 114.038 121.03 114.042 121.027 114.045C121.095 114.041 121.162 114.037 121.227 114.034Z" fill="black"/>
<defs>
<clipPath id="clip0_4961_25439">
<rect width="161.376" height="147.786" fill="white" transform="translate(91.6067) rotate(38.3059)"/>
</clipPath>
</defs>
</svg>
