<svg width="24" height="23" viewBox="0 0 24 23" fill="none" xmlns="http://www.w3.org/2000/svg">
<path d="M6.48499e-05 22.9998H1.27783V21.722H6.48499e-05V22.9998Z" fill="#0F100F"/>
<path d="M6.48499e-05 21.7222H1.27783V20.4444H6.48499e-05V21.7222Z" fill="#0F100F"/>
<path d="M6.48499e-05 20.4446H1.27783V19.1668H6.48499e-05V20.4446Z" fill="#0F100F"/>
<path d="M6.48499e-05 19.1665H1.27783V17.8887H6.48499e-05V19.1665Z" fill="#0F100F"/>
<path d="M6.48499e-05 17.8889H1.27783V16.6111H6.48499e-05V17.8889Z" fill="#0F100F"/>
<path d="M6.48499e-05 16.6113H1.27783V15.3336H6.48499e-05V16.6113Z" fill="#0F100F"/>
<path d="M6.48499e-05 15.3333H1.27783V14.0555H6.48499e-05V15.3333Z" fill="#0F100F"/>
<path d="M6.48499e-05 14.0557H1.27783V12.7779H6.48499e-05V14.0557Z" fill="#0F100F"/>
<path d="M6.48499e-05 12.7781H1.27783V11.5003H6.48499e-05V12.7781Z" fill="#0F100F"/>
<path d="M6.48499e-05 11.5H1.27783V10.2222H6.48499e-05V11.5Z" fill="#0F100F"/>
<path d="M6.48499e-05 10.2224H1.27783V8.94464H6.48499e-05V10.2224Z" fill="#0F100F"/>
<path d="M6.48499e-05 8.9447H1.27783V7.66693H6.48499e-05V8.9447Z" fill="#0F100F"/>
<path d="M6.48499e-05 7.66663H1.27783V6.38886H6.48499e-05V7.66663Z" fill="#0F100F"/>
<path d="M6.48499e-05 6.38904H1.27783V5.11127H6.48499e-05V6.38904Z" fill="#0F100F"/>
<path d="M6.48499e-05 5.11096H1.27783V3.83319H6.48499e-05V5.11096Z" fill="#0F100F"/>
<path d="M1.2779 2.55579H2.55566V1.27802H1.2779V2.55579Z" fill="#0F100F"/>
<path d="M6.48499e-05 3.83337H1.27783V2.55561H6.48499e-05V3.83337Z" fill="#0F100F"/>
<path d="M3.62012 -5.72205e-05L3.62012 1.27771L4.89788 1.27771L4.89788 -5.71646e-05L3.62012 -5.72205e-05Z" fill="#0F100F"/>
<path d="M4.89795 -5.72205e-05L4.89795 1.27771L6.17572 1.27771L6.17572 -5.71646e-05L4.89795 -5.72205e-05Z" fill="#0F100F"/>
<path d="M6.17578 -5.72205e-05L6.17578 1.27771L7.45355 1.27771L7.45355 -5.71646e-05L6.17578 -5.72205e-05Z" fill="#0F100F"/>
<path d="M7.45361 -5.72205e-05L7.45361 1.27771L8.73138 1.27771L8.73138 -5.71646e-05L7.45361 -5.72205e-05Z" fill="#0F100F"/>
<path d="M8.73145 -5.72205e-05L8.73145 1.27771L10.0092 1.27771L10.0092 -5.71646e-05L8.73145 -5.72205e-05Z" fill="#0F100F"/>
<path d="M10.0093 -5.72205e-05L10.0093 1.27771L11.287 1.27771L11.287 -5.71646e-05L10.0093 -5.72205e-05Z" fill="#0F100F"/>
<path d="M11.2871 -5.72205e-05L11.2871 1.27771L12.5649 1.27771L12.5649 -5.71646e-05L11.2871 -5.72205e-05Z" fill="#0F100F"/>
<path d="M12.5649 -5.72205e-05L12.5649 1.27771L13.8427 1.27771L13.8427 -5.71646e-05L12.5649 -5.72205e-05Z" fill="#0F100F"/>
<path d="M13.8423 -5.72205e-05L13.8423 1.27771L15.1201 1.27771L15.1201 -5.71646e-05L13.8423 -5.72205e-05Z" fill="#0F100F"/>
<path d="M15.1201 -5.72205e-05L15.1201 1.27771L16.3979 1.27771L16.3979 -5.71646e-05L15.1201 -5.72205e-05Z" fill="#0F100F"/>
<path d="M16.3979 -5.72205e-05L16.3979 1.27771L17.6757 1.27771L17.6757 -5.71646e-05L16.3979 -5.72205e-05Z" fill="#0F100F"/>
<path d="M17.6758 -5.72205e-05L17.6758 1.27771L18.9535 1.27771L18.9535 -5.71646e-05L17.6758 -5.72205e-05Z" fill="#0F100F"/>
<path d="M18.9536 -5.72205e-05L18.9536 1.27771L20.2314 1.27771L20.2314 -5.71646e-05L18.9536 -5.72205e-05Z" fill="#0F100F"/>
<path d="M2.55573 1.27771H3.8335V-5.72205e-05H2.55573V1.27771Z" fill="#0F100F"/>
<path d="M4.89801 7.66663H6.17578V6.38886H4.89801V7.66663Z" fill="#0F100F"/>
<path d="M6.17585 7.66663H7.45361V6.38886H6.17585V7.66663Z" fill="#0F100F"/>
<path d="M7.45368 7.66663H8.73145V6.38886H7.45368V7.66663Z" fill="#0F100F"/>
<path d="M8.73151 7.66663H10.0093V6.38886H8.73151V7.66663Z" fill="#0F100F"/>
<path d="M10.0093 7.66663H11.2871V6.38886H10.0093V7.66663Z" fill="#0F100F"/>
<path d="M11.2872 7.66663H12.5649V6.38886H11.2872V7.66663Z" fill="#0F100F"/>
<path d="M12.5645 7.66663H13.8423V6.38886H12.5645V7.66663Z" fill="#0F100F"/>
<path d="M4.89801 12.3518H6.17578V11.074H4.89801V12.3518Z" fill="#0F100F"/>
<path d="M6.17585 12.3518H7.45361V11.074H6.17585V12.3518Z" fill="#0F100F"/>
<path d="M7.45368 12.3518H8.73145V11.074H7.45368V12.3518Z" fill="#0F100F"/>
<path d="M8.73151 12.3518H10.0093V11.074H8.73151V12.3518Z" fill="#0F100F"/>
<path d="M10.0093 12.3518H11.2871V11.074H10.0093V12.3518Z" fill="#0F100F"/>
<path d="M11.2872 12.3518H12.5649V11.074H11.2872V12.3518Z" fill="#0F100F"/>
<path d="M12.5645 12.3518H13.8423V11.074H12.5645V12.3518Z" fill="#0F100F"/>
<path d="M13.8424 12.3518H15.1201V11.074H13.8424V12.3518Z" fill="#0F100F"/>
<path d="M15.1202 12.3518H16.3979V11.074H15.1202V12.3518Z" fill="#0F100F"/>
<path d="M16.398 12.3518H17.6758V11.074H16.398V12.3518Z" fill="#0F100F"/>
<path d="M17.6758 12.3518H18.9536V11.074H17.6758V12.3518Z" fill="#0F100F"/>
<path d="M23.2128 15.3333H21.9351V14.0555H23.2128V15.3333Z" fill="#0F100F"/>
<path d="M21.935 16.6113H20.6572V15.3336H21.935V16.6113Z" fill="#0F100F"/>
<path d="M20.6572 17.8889H19.3794V16.6111H20.6572V17.8889Z" fill="#0F100F"/>
<path d="M23.2128 14.0557H21.9351V12.7779H23.2128V14.0557Z" fill="#0F100F"/>
<path d="M23.2128 12.7781H21.9351V11.5003H23.2128V12.7781Z" fill="#0F100F"/>
<path d="M23.2128 11.5H21.9351V10.2222H23.2128V11.5Z" fill="#0F100F"/>
<path d="M23.2128 10.2224H21.9351V8.94464H23.2128V10.2224Z" fill="#0F100F"/>
<path d="M23.2128 8.9447H21.9351V7.66693H23.2128V8.9447Z" fill="#0F100F"/>
<path d="M23.2128 7.66663H21.9351V6.38886H23.2128V7.66663Z" fill="#0F100F"/>
<path d="M23.2128 6.38904H21.9351V5.11127H23.2128V6.38904Z" fill="#0F100F"/>
<path d="M23.2128 5.11096H21.9351V3.83319H23.2128V5.11096Z" fill="#0F100F"/>
<path d="M21.935 2.55579H20.6572V1.27802H21.935V2.55579Z" fill="#0F100F"/>
<path d="M23.2128 3.83337H21.9351V2.55561H23.2128V3.83337Z" fill="#0F100F"/>
<path d="M6.60156 17.8891L6.60156 16.6113L7.87933 16.6113L7.87933 17.8891L6.60156 17.8891Z" fill="#0F100F"/>
<path d="M5.32422 19.1667L5.32422 17.8889L6.60199 17.8889L6.60199 19.1667L5.32422 19.1667Z" fill="#0F100F"/>
<path d="M4.04639 20.4443L4.04639 19.1665L5.32415 19.1665L5.32415 20.4443L4.04639 20.4443Z" fill="#0F100F"/>
<path d="M2.76855 21.7223L2.76855 20.4446L4.04632 20.4446L4.04632 21.7223L2.76855 21.7223Z" fill="#0F100F"/>
<path d="M1.06494 22.9999L1.06494 21.7222L2.76863 21.7222L2.76863 22.9999L1.06494 22.9999Z" fill="#0F100F"/>
<path d="M7.87939 17.8891L7.87939 16.6113L9.15716 16.6113L9.15716 17.8891L7.87939 17.8891Z" fill="#0F100F"/>
<path d="M9.15723 17.8891L9.15723 16.6113L10.435 16.6113L10.435 17.8891L9.15723 17.8891Z" fill="#0F100F"/>
<path d="M10.4351 17.8891L10.4351 16.6113L11.7128 16.6113L11.7128 17.8891L10.4351 17.8891Z" fill="#0F100F"/>
<path d="M11.7129 17.8891L11.7129 16.6113L12.9907 16.6113L12.9907 17.8891L11.7129 17.8891Z" fill="#0F100F"/>
<path d="M12.9907 17.8891L12.9907 16.6113L14.2685 16.6113L14.2685 17.8891L12.9907 17.8891Z" fill="#0F100F"/>
<path d="M14.2686 17.8891L14.2686 16.6113L15.5463 16.6113L15.5463 17.8891L14.2686 17.8891Z" fill="#0F100F"/>
<path d="M15.5464 17.8891L15.5464 16.6113L16.8242 16.6113L16.8242 17.8891L15.5464 17.8891Z" fill="#0F100F"/>
<path d="M16.8237 17.8891L16.8237 16.6113L18.1015 16.6113L18.1015 17.8891L16.8237 17.8891Z" fill="#0F100F"/>
<path d="M18.1016 17.8891L18.1016 16.6113L19.3793 16.6113L19.3793 17.8891L18.1016 17.8891Z" fill="#0F100F"/>
<path d="M20.6572 1.27771H19.3794V-5.72205e-05H20.6572V1.27771Z" fill="#0F100F"/>
</svg>
