<svg width="25" height="27" viewBox="0 0 25 27" fill="none" xmlns="http://www.w3.org/2000/svg">
<path d="M1.31579 5.26367L0 5.26367L1.1503e-07 3.94788L1.31579 3.94788L1.31579 5.26367Z" fill="#FF691E"/>
<path d="M1.31579 6.5791L0 6.5791L1.1503e-07 5.26331L1.31579 5.26331L1.31579 6.5791Z" fill="#FF691E"/>
<path d="M1.31579 7.89551L0 7.89551L1.1503e-07 6.57972L1.31579 6.57972L1.31579 7.89551Z" fill="#FF691E"/>
<path d="M1.31579 9.21094L0 9.21094L1.1503e-07 7.89515L1.31579 7.89515L1.31579 9.21094Z" fill="#FF691E"/>
<path d="M1.31579 13.1582L0 13.1582L1.1503e-07 11.8424L1.31579 11.8424L1.31579 13.1582Z" fill="#FF691E"/>
<path d="M1.31579 10.5264L0 10.5264L1.1503e-07 9.21058L1.31579 9.21058L1.31579 10.5264Z" fill="#FF691E"/>
<path d="M1.31579 14.4746L0 14.4746L1.1503e-07 13.1588L1.31579 13.1588L1.31579 14.4746Z" fill="#FF691E"/>
<path d="M1.31579 11.8428L0 11.8428L1.1503e-07 10.527L1.31579 10.527L1.31579 11.8428Z" fill="#FF691E"/>
<path d="M1.31579 15.79L0 15.79L1.1503e-07 14.4742L1.31579 14.4742L1.31579 15.79Z" fill="#FF691E"/>
<path d="M2.6322 17.1055L1.31641 17.1055L1.31641 15.7897L2.6322 15.7897L2.6322 17.1055Z" fill="#FF691E"/>
<path d="M2.6322 18.4209L1.31641 18.4209L1.31641 17.1051L2.6322 17.1051L2.6322 18.4209Z" fill="#FF691E"/>
<path d="M3.94665 19.7373L2.63086 19.7373L2.63086 18.4215L3.94665 18.4215L3.94665 19.7373Z" fill="#FF691E"/>
<path d="M5.26306 21.0527L3.94727 21.0527L3.94727 19.7369L5.26306 19.7369L5.26306 21.0527Z" fill="#FF691E"/>
<path d="M6.57946 22.3691L5.26367 22.3691L5.26367 21.0534L6.57946 21.0534L6.57946 22.3691Z" fill="#FF691E"/>
<path d="M7.89391 23.6846L6.57812 23.6846L6.57813 22.3688L7.89391 22.3688L7.89391 23.6846Z" fill="#FF691E"/>
<path d="M9.21032 25L7.89453 25L7.89453 23.6842L9.21032 23.6842L9.21032 25Z" fill="#FF691E"/>
<path d="M10.5267 25L9.21094 25L9.21094 23.6842L10.5267 23.6842L10.5267 25Z" fill="#FF691E"/>
<path d="M11.8412 26.3164L10.5254 26.3164L10.5254 25.0006L11.8412 25.0006L11.8412 26.3164Z" fill="#FF691E"/>
<path d="M13.1576 26.3164L11.8418 26.3164L11.8418 25.0006L13.1576 25.0006L13.1576 26.3164Z" fill="#FF691E"/>
<path d="M2.6322 5.26367L1.31641 5.26367L1.31641 3.94788L2.6322 3.94788L2.6322 5.26367Z" fill="#FF691E"/>
<path d="M3.94665 5.26367L2.63086 5.26367L2.63086 3.94788L3.94665 3.94788L3.94665 5.26367Z" fill="#FF691E"/>
<path d="M5.26306 5.26367L3.94727 5.26367L3.94727 3.94788L5.26306 3.94788L5.26306 5.26367Z" fill="#FF691E"/>
<path d="M6.57946 5.26367L5.26367 5.26367L5.26367 3.94788L6.57946 3.94788L6.57946 5.26367Z" fill="#FF691E"/>
<path d="M7.89391 3.94727L6.57812 3.94727L6.57813 2.63148L7.89391 2.63148L7.89391 3.94727Z" fill="#FF691E"/>
<path d="M9.21032 14.4746L7.89453 14.4746L7.89453 13.1588L9.21032 13.1588L9.21032 14.4746Z" fill="#FF691E"/>
<path d="M10.5267 15.79L9.21094 15.79L9.21094 14.4742L10.5267 14.4742L10.5267 15.79Z" fill="#FF691E"/>
<path d="M11.8412 17.1055L10.5254 17.1055L10.5254 15.7897L11.8412 15.7897L11.8412 17.1055Z" fill="#FF691E"/>
<path d="M13.1576 15.79L11.8418 15.79L11.8418 14.4742L13.1576 14.4742L13.1576 15.79Z" fill="#FF691E"/>
<path d="M14.474 14.4746L13.1582 14.4746L13.1582 13.1588L14.474 13.1588L14.474 14.4746Z" fill="#FF691E"/>
<path d="M15.7904 13.1582L14.4746 13.1582L14.4746 11.8424L15.7904 11.8424L15.7904 13.1582Z" fill="#FF691E"/>
<path d="M17.1049 11.8428L15.7891 11.8428L15.7891 10.527L17.1049 10.527L17.1049 11.8428Z" fill="#FF691E"/>
<path d="M9.21032 3.94727L7.89453 3.94727L7.89453 2.63148L9.21032 2.63148L9.21032 3.94727Z" fill="#FF691E"/>
<path d="M10.5267 2.63184L9.21094 2.63184L9.21094 1.31605L10.5267 1.31605L10.5267 2.63184Z" fill="#FF691E"/>
<path d="M11.8412 2.63184L10.5254 2.63184L10.5254 1.31605L11.8412 1.31605L11.8412 2.63184Z" fill="#FF691E"/>
<path d="M13.1576 1.31641L11.8418 1.31641L11.8418 0.000616431L13.1576 0.000616546L13.1576 1.31641Z" fill="#FF691E"/>
<path d="M23.6842 5.26367L25 5.26367L25 3.94788L23.6842 3.94788L23.6842 5.26367Z" fill="#FF691E"/>
<path d="M23.6842 6.5791L25 6.5791L25 5.26331L23.6842 5.26331L23.6842 6.5791Z" fill="#FF691E"/>
<path d="M23.6842 7.89551L25 7.89551L25 6.57972L23.6842 6.57972L23.6842 7.89551Z" fill="#FF691E"/>
<path d="M23.6842 9.21094L25 9.21094L25 7.89515L23.6842 7.89515L23.6842 9.21094Z" fill="#FF691E"/>
<path d="M23.6842 13.1582L25 13.1582L25 11.8424L23.6842 11.8424L23.6842 13.1582Z" fill="#FF691E"/>
<path d="M23.6842 10.5264L25 10.5264L25 9.21058L23.6842 9.21058L23.6842 10.5264Z" fill="#FF691E"/>
<path d="M23.6842 14.4746L25 14.4746L25 13.1588L23.6842 13.1588L23.6842 14.4746Z" fill="#FF691E"/>
<path d="M23.6842 11.8428L25 11.8428L25 10.527L23.6842 10.527L23.6842 11.8428Z" fill="#FF691E"/>
<path d="M23.6842 15.79L25 15.79L25 14.4742L23.6842 14.4742L23.6842 15.79Z" fill="#FF691E"/>
<path d="M22.3678 17.1055L23.6836 17.1055L23.6836 15.7897L22.3678 15.7897L22.3678 17.1055Z" fill="#FF691E"/>
<path d="M22.3678 18.4209L23.6836 18.4209L23.6836 17.1051L22.3678 17.1051L22.3678 18.4209Z" fill="#FF691E"/>
<path d="M21.0534 19.7373L22.3691 19.7373L22.3691 18.4215L21.0534 18.4215L21.0534 19.7373Z" fill="#FF691E"/>
<path d="M19.7369 21.0527L21.0527 21.0527L21.0527 19.7369L19.7369 19.7369L19.7369 21.0527Z" fill="#FF691E"/>
<path d="M18.4205 22.3691L19.7363 22.3691L19.7363 21.0534L18.4205 21.0534L18.4205 22.3691Z" fill="#FF691E"/>
<path d="M17.1061 23.6846L18.4219 23.6846L18.4219 22.3688L17.1061 22.3688L17.1061 23.6846Z" fill="#FF691E"/>
<path d="M15.7897 25L17.1055 25L17.1055 23.6842L15.7897 23.6842L15.7897 25Z" fill="#FF691E"/>
<path d="M14.4733 25L15.7891 25L15.7891 23.6842L14.4733 23.6842L14.4733 25Z" fill="#FF691E"/>
<path d="M13.1588 26.3164L14.4746 26.3164L14.4746 25.0006L13.1588 25.0006L13.1588 26.3164Z" fill="#FF691E"/>
<path d="M11.8424 26.3164L13.1582 26.3164L13.1582 25.0006L11.8424 25.0006L11.8424 26.3164Z" fill="#FF691E"/>
<path d="M22.3678 5.26367L23.6836 5.26367L23.6836 3.94788L22.3678 3.94788L22.3678 5.26367Z" fill="#FF691E"/>
<path d="M21.0534 5.26367L22.3691 5.26367L22.3691 3.94788L21.0534 3.94788L21.0534 5.26367Z" fill="#FF691E"/>
<path d="M19.7369 5.26367L21.0527 5.26367L21.0527 3.94788L19.7369 3.94788L19.7369 5.26367Z" fill="#FF691E"/>
<path d="M18.4205 5.26367L19.7363 5.26367L19.7363 3.94788L18.4205 3.94788L18.4205 5.26367Z" fill="#FF691E"/>
<path d="M17.1061 3.94727L18.4219 3.94727L18.4219 2.63148L17.1061 2.63148L17.1061 3.94727Z" fill="#FF691E"/>
<path d="M15.7897 3.94727L17.1055 3.94727L17.1055 2.63148L15.7897 2.63148L15.7897 3.94727Z" fill="#FF691E"/>
<path d="M14.4733 2.63184L15.7891 2.63184L15.7891 1.31605L14.4733 1.31605L14.4733 2.63184Z" fill="#FF691E"/>
<path d="M13.1588 2.63184L14.4746 2.63184L14.4746 1.31605L13.1588 1.31605L13.1588 2.63184Z" fill="#FF691E"/>
<path d="M11.8424 1.31641L13.1582 1.31641L13.1582 0.000616431L11.8424 0.000616546L11.8424 1.31641Z" fill="#FF691E"/>
</svg>
