<svg width="218" height="218" viewBox="0 0 218 218" fill="none" xmlns="http://www.w3.org/2000/svg">
<path d="M68.633 40.1218C93.0671 25.838 121.983 26.0669 145.385 38.1859C145.386 38.2334 145.388 38.2817 145.395 38.3306L146.114 43.574C146.244 44.521 147.35 44.9719 148.105 44.3859L151.532 41.7264C155.605 44.321 159.465 47.3024 163.051 50.6563L161.257 55.3894C160.918 56.2831 161.674 57.2088 162.618 57.0554L167.841 56.2053C168.006 56.1785 168.154 56.1201 168.284 56.0416C171.66 59.8625 174.717 64.0646 177.388 68.633C181.077 74.9441 183.797 81.5547 185.595 88.2915C185.31 88.3402 185.037 88.4878 184.834 88.7453L181.557 92.8997C180.965 93.6502 181.407 94.7605 182.353 94.898L187.179 95.5993C187.981 100.384 188.335 105.201 188.256 109.99L183.551 112.002C182.673 112.378 182.531 113.565 183.296 114.138L187.531 117.312C187.611 117.371 187.695 117.417 187.781 117.455C185.105 141.588 171.449 164.192 148.877 177.388C144.833 179.752 140.665 181.716 136.421 183.297C136.407 183.286 136.395 183.273 136.38 183.262L132.135 180.103C131.368 179.532 130.271 180.005 130.16 180.954L129.63 185.484C124.938 186.764 120.184 187.594 115.424 187.992C115.429 187.809 115.396 187.621 115.311 187.437L113.095 182.632C112.694 181.764 111.505 181.655 110.953 182.436L107.9 186.758C107.555 187.246 107.621 187.853 107.951 188.26C80.9363 187.962 54.7486 173.897 40.1218 148.877C17.9631 110.972 30.7281 62.2804 68.633 40.1218Z" fill="#E5FBF2"/>
</svg>
