<svg width="41" height="41" viewBox="0 0 41 41" fill="none" xmlns="http://www.w3.org/2000/svg">
<g clip-path="url(#clip0_3227_45386)">
<path d="M0 0H19.1952H21.7598H41V18.4511V22.5537V41H21.9877H19.126H0V22.5544V18.4806V0Z" fill="#1E1E1E"/>
<path d="M21.7598 0H41V18.4511C40.9277 18.2523 40.884 17.9275 40.8597 17.7131C40.5438 14.8956 39.4447 12.0563 37.9595 9.6623C35.1655 5.21085 30.7818 1.98995 25.6988 0.653932C24.957 0.462093 24.18 0.31321 23.4218 0.197905C22.9157 0.120939 22.2398 0.112331 21.7598 0Z" fill="white"/>
<path d="M0 22.5547C0.149226 23.1013 0.156238 23.6457 0.257899 24.1909C1.39488 30.2886 5.11152 35.3403 10.4769 38.4029C12.5043 39.5464 14.7127 40.3336 17.0062 40.7309C17.6462 40.8425 18.581 40.8883 19.126 41.0003H0V22.5547Z" fill="white"/>
<path d="M0 0H19.1952C18.356 0.115459 15.0759 0.384967 14.6579 0.928679C14.5412 1.08046 14.4469 1.26502 14.3483 1.43014C14.1435 1.34294 13.863 1.23647 13.6862 1.11207C12.6871 1.4569 11.2088 2.08177 10.3199 2.64113C10.2242 2.89873 10.1812 3.10164 10.1201 3.36882C9.85316 3.33288 9.58702 3.29112 9.3219 3.24359C4.27603 6.38819 0.981808 11.8221 0.156764 17.5632C0.120276 17.8171 0.0877382 18.2574 0 18.4806V0Z" fill="white"/>
<path d="M21.9878 40.9991C22.5215 40.8715 23.5895 40.8137 24.2355 40.6963C26.7232 40.2536 29.1047 39.3445 31.2546 38.0167C35.6699 35.2997 38.9065 31.0266 40.3259 26.0405C40.544 25.2759 40.7202 24.4139 40.8286 23.6255C40.878 23.2628 40.9176 22.9107 41.0001 22.5527V40.9991H21.9878Z" fill="white"/>
<path d="M33.2821 18.3338C34.3969 18.2521 35.8014 18.4117 36.9354 18.4172C37.6282 18.4206 37.943 18.8917 37.9179 19.5478C37.8826 20.4631 37.9204 21.4508 37.859 22.3702C37.8296 22.8677 37.5959 23.0737 37.1466 23.1873C36.9369 23.2039 36.0485 23.1768 35.8102 23.1676C34.9486 23.1345 33.9187 23.1602 33.0746 23.0747C32.909 22.954 32.6984 22.8172 32.6367 22.6104C32.5301 22.2529 32.5435 19.0851 32.7241 18.7594C32.8428 18.5453 33.0519 18.4021 33.2821 18.3338Z" fill="white"/>
<path d="M24.2364 32.0614C25.2325 31.9197 25.3371 33.0081 25.4805 33.7133L25.8182 35.3686C25.8858 35.7137 25.9538 36.1631 26.0512 36.4916C25.9451 36.789 25.8591 37.0957 25.5332 37.2179C25.1522 37.3603 24.7312 37.4171 24.3312 37.4919C23.6825 37.6079 23.0354 37.7329 22.3903 37.8667C21.9693 37.9517 21.5124 37.7991 21.3868 37.3491C21.0816 36.2555 20.9116 35.0993 20.669 33.995C20.4011 32.7761 20.9568 32.7059 21.9876 32.5261C22.6792 32.3818 23.581 32.28 24.2364 32.0614Z" fill="white"/>
<path d="M32.4546 24.1709C33.1181 24.1182 34.0468 24.7909 34.664 25.0678C35.1662 25.2931 35.7086 25.6117 36.1992 25.8719C36.3546 25.9542 36.6061 26.1372 36.702 26.2846C36.7776 26.4186 36.7616 26.8931 36.6893 27.0304C36.1762 28.0025 35.6945 29.0664 35.1136 29.9942C35.0632 30.0748 34.8246 30.1818 34.745 30.2199C34.439 30.3024 34.2471 30.2186 33.9724 30.0749C32.9786 29.5548 31.9782 29.0472 30.9823 28.5314C30.6062 28.3365 30.5401 28.1766 30.4331 27.7916C30.4386 27.7627 30.445 27.734 30.4523 27.7055C30.6075 27.0827 31.72 25.0942 32.1083 24.4448C32.1692 24.3429 32.3496 24.2329 32.4546 24.1709Z" fill="white"/>
<path d="M29.3078 29.0876C29.4889 29.0806 29.7007 29.0739 29.8622 29.1711C30.2218 29.3875 32.0836 31.892 32.3682 32.3717C32.4509 32.5112 32.4973 32.6537 32.5379 32.81C32.5165 32.8959 32.4484 33.1101 32.4133 33.169C32.1385 33.63 29.7641 35.3464 29.4007 35.4826C29.2051 35.5056 28.9922 35.4683 28.8178 35.3757C28.5913 35.2553 26.6724 32.7158 26.4235 32.3423C26.3273 32.198 26.2264 32.0355 26.1781 31.8683C26.133 31.7119 26.2003 31.5117 26.2786 31.3748C26.3559 31.2396 26.4624 31.1255 26.5785 31.0227C26.9025 30.7359 27.2914 30.5019 27.6391 30.2431C28.1246 29.8816 28.7158 29.244 29.3078 29.0876Z" fill="white"/>
<path d="M34.8776 11.2734C35.2031 11.3632 35.5048 11.4956 35.6364 11.831C35.9908 12.7342 36.8356 14.0544 37.0464 14.9642C36.9799 15.2471 36.8745 15.4986 36.6019 15.6398C35.7244 16.0933 34.8032 16.4672 33.9086 16.8861C33.5667 17.0463 33.2683 17.1815 32.8969 17.2577C32.0938 17.1761 32.0704 16.5933 31.7462 15.9422C31.4177 15.2826 31.1117 14.5718 30.8297 13.8962C30.6469 13.4516 30.9205 13.0026 31.3403 12.8274C32.4804 12.3515 33.7093 11.6424 34.8776 11.2734Z" fill="white"/>
<path d="M15.386 31.8072C15.9897 31.7456 16.9113 32.1456 17.5112 32.2798C17.9466 32.3773 18.4096 32.4819 18.833 32.6243C19.2142 32.7525 19.4718 33.1062 19.4134 33.5171C19.3018 34.1877 19.1161 34.865 18.9523 35.5263C18.8056 36.1189 18.6717 36.7351 18.4715 37.3109C18.3899 37.5431 18.1544 37.6417 17.9357 37.73C17.8319 37.7496 17.7235 37.7551 17.6192 37.7372C17.1505 37.6358 16.7005 37.529 16.2362 37.3825C15.5287 37.159 14.4157 37.1437 14.0017 36.4527C13.8344 36.1731 13.9772 35.7772 14.0541 35.495C14.3189 34.5233 14.5346 33.5395 14.7928 32.5663C14.9099 32.1257 14.9837 32.0285 15.386 31.8072Z" fill="white"/>
<path d="M29.6405 5.85619C29.7432 5.84946 30.0502 5.85019 30.1376 5.91347C31.0107 6.55057 31.8456 7.28646 32.6776 7.98063C33.0178 8.26446 33.1622 8.64742 32.8828 9.03161C32.1161 10.0859 31.2257 11.1099 30.3423 12.0696C30.2752 12.1426 30.075 12.2004 29.9809 12.2285C29.663 12.2364 29.4324 12.0948 29.1922 11.8954C28.407 11.2436 27.5964 10.6053 26.8473 9.91369C26.7421 9.81661 26.6495 9.54331 26.5991 9.40388C26.7197 9.12281 26.8182 8.95092 27.0169 8.71314C27.7579 7.82673 28.4789 6.91223 29.261 6.06282C29.3668 5.94793 29.4942 5.89628 29.6405 5.85619Z" fill="white"/>
<path d="M10.6981 28.502C11.3935 28.5259 13.2805 30.4039 13.8364 30.9298C13.8894 30.9799 13.9533 31.2778 13.9726 31.3665C13.9243 31.5662 13.8864 31.7077 13.7642 31.8781C13.4972 32.249 13.2006 32.5914 12.8997 32.9396C12.37 33.5525 11.8928 34.249 11.2885 34.7897C11.1913 34.8767 11.042 34.9058 10.9183 34.932C10.8134 34.932 10.6876 34.9134 10.5918 34.87C10.2317 34.7073 8.41005 33.153 8.08485 32.8156C7.93244 32.6575 7.78276 32.4734 7.71109 32.2626C7.6473 32.0751 7.71065 31.903 7.79454 31.733C7.98983 31.3371 9.94566 29.015 10.3191 28.6924C10.4318 28.595 10.5582 28.5483 10.6981 28.502Z" fill="white"/>
<path d="M22.7837 3.12822C23.1924 3.07058 25.713 3.80419 26.2619 3.96663C26.61 4.0696 26.7396 4.59315 26.6501 4.94881C26.3474 6.15191 26.1137 7.45795 25.6606 8.61293C25.5796 8.81953 25.2614 8.96964 25.0581 9.01628C24.5648 8.97342 22.3663 8.3167 21.7147 8.18759C21.4409 8.13332 21.2522 7.67175 21.1553 7.41728C21.2701 7.14576 21.375 6.65343 21.4508 6.34721L21.8845 4.58184C22.0604 3.8486 22.0246 3.45144 22.7837 3.12822Z" fill="white"/>
<path d="M7.74263 23.4838C8.0064 23.4014 8.49451 23.7263 8.58371 23.9408C9.00436 24.9518 9.60198 26.0644 9.94968 27.0905C9.86256 27.4278 9.82247 27.6666 9.48742 27.8431C8.6387 28.2905 7.74128 28.6517 6.87134 29.0578C6.60928 29.1801 6.27978 29.3318 6.00507 29.4047C5.71476 29.4367 5.45648 29.4052 5.28408 29.1445C5.17835 28.9847 5.08737 28.8402 5.01009 28.6637C4.70536 27.9678 4.38717 27.2781 4.07694 26.5847C3.9253 26.246 3.74978 25.7637 3.88925 25.395C3.94736 25.2412 4.29074 25.0231 4.43177 24.9423C4.78161 24.7573 5.16759 24.6245 5.52768 24.4592C6.26339 24.1208 6.99161 23.7882 7.74263 23.4838Z" fill="white"/>
<path d="M3.71105 17.6025C4.47072 17.5799 7.21154 17.56 7.74548 17.8028C7.9382 17.8904 8.04266 17.9977 8.11408 18.198C8.16435 18.3436 8.19481 18.4954 8.20459 18.6491C8.23548 19.1335 8.1866 21.6392 8.02085 21.9684C7.90879 22.1911 7.71677 22.3049 7.48771 22.3798C6.80314 22.4075 3.83965 22.4345 3.3845 22.2062C3.22289 22.1251 3.04892 21.9253 2.99834 21.7508C2.85794 21.2663 2.95594 18.3286 3.19525 17.9447C3.31205 17.7573 3.50144 17.6513 3.71105 17.6025Z" fill="white"/>
<path d="M18.5276 2.99738C18.7153 2.97183 19.2064 3.33421 19.2497 3.5036C19.5126 4.53609 19.6995 5.61601 19.9403 6.65551C20.1598 7.63086 20.0283 8.09644 18.9646 8.27029C18.0822 8.41451 17.1232 8.68919 16.2443 8.77246C15.2741 8.72503 15.4003 7.79119 15.2215 7.10284C15.0073 6.27808 14.909 5.32621 14.6631 4.51951C14.8139 3.97408 14.9727 3.77428 15.5421 3.63432C16.4889 3.40159 17.5667 3.31677 18.4912 3.00964L18.5276 2.99738Z" fill="white"/>
<path d="M6.03365 10.692C6.10042 10.6851 6.41465 10.6619 6.46088 10.6816C7.59184 11.1603 8.70789 11.8053 9.79875 12.3625C10.7933 12.8239 9.96042 13.9155 9.62112 14.5955C9.34317 15.1525 8.86309 16.3158 8.33583 16.6122C8.22617 16.6358 8.1168 16.6517 8.00518 16.6336C7.60038 16.5682 4.48917 14.9833 4.29602 14.7139C4.16703 14.5339 4.0948 14.3696 4.13082 14.148C4.19658 13.7434 5.42247 11.3985 5.72172 10.9797C5.8059 10.8619 5.91803 10.7771 6.03365 10.692Z" fill="white"/>
<path d="M11.3841 5.49075C11.5726 5.47399 11.7405 5.46545 11.9085 5.56613C12.2504 5.77106 14.1211 8.26406 14.3724 8.70885C14.4433 8.83421 14.4756 8.98309 14.5089 9.12212C14.4807 9.2477 14.4541 9.3816 14.4075 9.50162C14.2839 9.81966 11.7551 11.63 11.3539 11.797C11.2818 11.8158 11.206 11.8154 11.1341 11.7957C11.0216 11.7649 10.8236 11.6857 10.7476 11.5933C9.94878 10.6277 9.17124 9.59474 8.44709 8.57436C8.01957 7.97201 8.57009 7.49549 9.05184 7.17404C9.78886 6.68222 10.6048 5.87487 11.3841 5.49075Z" fill="white"/>
<path d="M20.0351 19.3585C20.4071 19.2538 20.8067 19.3573 21.0812 19.6293C21.3558 19.9014 21.4627 20.3 21.3614 20.673C21.26 21.046 20.9659 21.3356 20.5915 21.4313C20.0221 21.5767 19.4417 21.2372 19.2894 20.6697C19.1371 20.1022 19.4695 19.5177 20.0351 19.3585Z" fill="white"/>
<path d="M34.1084 31.2812C34.4564 31.6225 35.3497 32.3314 35.7444 32.6492C35.547 32.9354 35.3181 33.1643 35.1183 33.4572C34.6419 33.1164 33.9348 32.4872 33.48 32.1018C33.6743 31.9086 34.0177 31.5299 34.1084 31.2812Z" fill="white"/>
<path d="M39.48 16.0001L39.5268 16.0375C39.5697 16.3779 39.6515 16.6778 39.7718 16.9975C39.4116 17.1173 38.1293 17.3284 37.7193 17.3931C37.6266 17.332 37.5721 16.7393 37.4336 16.4535C38.0039 16.3084 39.0463 16.1818 39.48 16.0001Z" fill="white"/>
<path d="M28.8102 2.78516C29.0197 2.92061 29.4249 3.1239 29.6533 3.24817C29.4493 3.76246 28.9873 4.57664 28.7164 5.07326C28.5101 4.99246 28.0148 4.70687 27.7974 4.58918C27.9484 4.43016 28.5768 3.14799 28.8102 2.78516Z" fill="white"/>
<path d="M6.12424 30.5198C6.36464 30.738 6.56845 31.0607 6.72027 31.3442C6.19058 31.7379 5.66561 32.138 5.14551 32.5443C5.01517 32.4281 4.68663 31.9157 4.54443 31.7293C5.06769 31.3278 5.60873 30.929 6.12424 30.5198Z" fill="white"/>
<path d="M1.68561 15.0957C2.28705 15.2188 2.96628 15.439 3.60217 15.5833C3.53604 15.9168 3.46423 16.215 3.38043 16.5448C2.73274 16.4056 2.0879 16.2536 1.44629 16.0887C1.50774 15.677 1.60315 15.4786 1.68561 15.0957Z" fill="white"/>
<path d="M12.7588 2.54141C12.8116 2.53395 12.829 2.54614 12.8317 2.55198C13.0244 2.97183 13.2507 3.55805 13.4506 3.97251C13.5653 4.21018 13.5767 4.18271 13.6308 4.32606C13.5144 4.40988 12.9391 4.65657 12.7751 4.73024L12.7306 4.72203C12.6567 4.66896 11.986 3.12707 11.897 2.91601C12.1621 2.78207 12.4834 2.65546 12.7588 2.54141Z" fill="white"/>
<path d="M19.42 37.9473C19.7561 37.9716 20.0501 37.9793 20.3875 37.9832C20.3982 38.6466 20.3934 39.3103 20.3732 39.9733C20.0402 39.9787 19.7072 39.9722 19.3747 39.954C19.3728 39.2849 19.3879 38.6157 19.42 37.9473Z" fill="white"/>
<path d="M20.5004 9.81262C20.6709 10.1842 20.975 10.693 21.1901 11.0515C21.0315 11.0491 20.8425 11.0412 20.6866 11.0488C20.6702 11.4568 20.6885 13.4168 20.61 13.6675C20.4221 13.6785 20.4177 13.7163 20.2769 13.6407C20.2167 13.5175 20.2659 13.297 20.2841 13.1486C20.2804 12.8211 20.3264 11.1827 20.2285 11.0356C20.0992 10.9888 19.9488 11.0141 19.8086 11.0256C20.0383 10.6238 20.2762 10.2167 20.5004 9.81262Z" fill="#4A4946"/>
<path d="M20.2838 13.1487L20.2972 13.1628C20.3548 13.2226 20.3602 13.2264 20.4311 13.2675C20.497 13.4074 20.5103 13.4341 20.5351 13.5869L20.6097 13.6676C20.4218 13.6786 20.4174 13.7164 20.2766 13.6408C20.2164 13.5176 20.2656 13.2971 20.2838 13.1487Z" fill="#79786E"/>
<path d="M19.9241 30.7556L20.3319 30.7865C20.3785 31.1114 20.2826 31.9152 20.4315 32.0675C20.5599 32.0207 20.5647 31.9929 20.6722 32.0309C20.7297 32.3119 20.2351 32.9251 20.0962 33.237C19.9209 32.8982 19.7556 32.6054 19.5638 32.2771C19.4971 32.182 19.4416 32.1161 19.4526 32.0183C19.5591 31.9619 19.6683 31.9896 19.7942 32.002C19.8672 32.0111 19.8411 32.0112 19.9185 31.9601C19.9048 31.5936 19.9215 31.1295 19.9241 30.7556Z" fill="#454641"/>
<path d="M20.4317 32.0681C20.5601 32.0212 20.5648 31.9935 20.6724 32.0315C20.7299 32.3125 20.2353 32.9257 20.0963 33.2376C19.9211 32.8988 19.7557 32.606 19.564 32.2777L19.7357 32.2191C20.0068 32.5454 20.2277 32.3604 20.4317 32.0681Z" fill="#454641"/>
<path d="M20.3319 30.7871C20.3785 31.1119 20.2826 31.9158 20.4315 32.0681C20.2275 32.3604 20.0066 32.5453 19.7356 32.2191L19.5638 32.2776C19.4971 32.1826 19.4416 32.1167 19.4526 32.0188C19.5591 31.9625 19.6683 31.9902 19.7942 32.0026C19.8672 32.0117 19.8411 32.0117 19.9185 31.9607C20.2544 31.7174 20.3993 31.8109 20.3112 31.2875C20.2929 31.1788 20.3206 30.9039 20.3319 30.7871Z" fill="#595A58"/>
<path d="M15.8182 30.2874C15.8068 30.1674 15.7542 29.9322 15.7821 29.8541C15.9492 29.8806 15.9293 29.8434 16.0634 29.8533C16.1876 29.9396 16.5135 30.1892 16.5842 30.3173C16.6492 30.3024 16.6722 30.2859 16.7293 30.2545C16.7757 30.3651 16.7499 30.352 16.8336 30.4004C16.9609 30.4088 17.3568 30.5879 17.518 30.6503C17.5563 30.8493 17.3511 30.9179 17.5128 31.1876L17.4876 31.1909L17.4414 31.1292L17.3713 31.1706L17.3358 31.1561C17.2829 31.1351 17.2689 31.1352 17.2131 31.1294C17.1398 31.0663 16.5376 30.8803 16.3411 30.719C16.2445 30.718 16.2411 30.7153 16.1519 30.674C16.0296 30.6164 15.5507 30.3113 15.5063 30.1947C15.6253 30.2055 15.7071 30.2447 15.8182 30.2874Z" fill="#DEDED6"/>
<path d="M16.8335 30.4004C16.9609 30.4088 17.3568 30.5879 17.518 30.6503C17.5563 30.8493 17.351 30.9179 17.5128 31.1876L17.4875 31.1909L17.4413 31.1292L17.3712 31.1706L17.3357 31.1561C17.2829 31.1351 17.2688 31.1352 17.213 31.1294C17.2344 30.8683 17.2109 30.985 17.3788 30.7533C17.3337 30.6333 17.3631 30.6769 17.2575 30.5908C17.114 30.626 17.2066 30.7224 17.0769 30.7932C16.991 30.6097 16.9344 30.5729 16.8447 30.4198L16.8335 30.4004Z" fill="white"/>
<path d="M16.1519 30.6746C16.0296 30.6171 15.5507 30.3119 15.5063 30.1953C15.6253 30.2061 15.7071 30.2453 15.8182 30.288C15.983 30.4497 15.9965 30.5307 16.2448 30.4807C16.2366 30.5743 16.21 30.595 16.1519 30.6746Z" fill="white"/>
<path d="M15.9038 12.579L15.9276 12.5784C16.1029 13.3145 16.0181 13.9926 16.108 14.7059C16.3285 16.4554 16.4155 18.1816 16.681 19.9283C16.6722 19.921 16.663 19.9141 16.6546 19.9063C16.3714 19.644 15.941 13.3963 15.9038 12.579Z" fill="#AAAA9C"/>
<path d="M16.5977 13.502C16.7534 13.6263 16.8642 15.5744 16.9175 15.9255C17.1043 17.1564 17.1709 18.5013 17.576 19.6836L17.5027 19.6482C17.2119 19.3387 16.6102 14.1873 16.5977 13.502Z" fill="#AAAA9C"/>
<path d="M21.2681 31.0711C21.4138 31.0054 21.3716 31.0002 21.5141 31.0197C21.7475 31.2409 21.5626 31.7001 21.1905 31.6158C21.1271 31.6546 21.1025 31.6483 21.0288 31.6486C20.8387 31.5387 20.8072 31.2854 20.8569 31.0853C20.9602 31.0447 20.8844 31.1761 21.0266 31.2087C21.0817 31.1339 21.1042 31.1048 21.1713 31.0408L21.2681 31.0711Z" fill="#DEDED6"/>
<path d="M21.1905 31.616C21.1271 31.6548 21.1025 31.6485 21.0288 31.6488C20.8387 31.5389 20.8072 31.2856 20.8569 31.0854C20.9602 31.0448 20.8844 31.1763 21.0266 31.2089C21.0817 31.1341 21.1042 31.105 21.1713 31.041L21.2681 31.0713C21.2362 31.2515 21.199 31.4335 21.1905 31.616Z" fill="white"/>
<path d="M18.364 30.8908C18.642 30.8843 18.7582 31.1024 18.8032 31.3523C18.5689 31.4619 18.482 31.3411 18.3563 31.4289C18.1601 31.384 18.0703 31.4812 17.9087 31.2666C17.9101 31.1111 17.9024 31.1641 17.9868 31.0237C18.2236 31.0639 18.2102 31.0629 18.364 30.8908Z" fill="#DEDED6"/>
<path d="M30.4225 23.4824L30.5274 23.5307C30.5403 23.5754 30.5565 23.6523 30.5817 23.6851C30.6924 23.7809 30.8206 23.8602 30.9434 23.9407C30.8726 24.069 30.7732 24.3408 30.6166 24.292C30.5848 24.0843 30.7255 24.1843 30.7079 23.9931C30.5509 23.9284 30.5559 24.0618 30.317 24.0419C30.2022 23.9929 30.1935 23.9727 30.127 23.865C30.1008 23.6766 30.2519 23.5254 30.4225 23.4824Z" fill="white"/>
<path d="M30.4225 23.4824L30.5273 23.5307C30.5403 23.5754 30.5564 23.6523 30.5817 23.6851L30.494 23.8579C30.413 23.9147 30.4018 23.9178 30.3029 23.9244L30.2695 23.8658C30.3034 23.6542 30.3982 23.6518 30.4225 23.4824Z" fill="#DEDED6"/>
<path d="M9.34291 21.8837L9.26062 21.8539C9.16826 21.6722 9.24081 21.4116 9.49405 21.4396C9.71878 21.5804 9.74346 21.7511 9.82721 21.9989C9.86116 21.8861 9.90361 21.6761 10.02 21.6389C10.0724 21.8264 9.95402 21.9957 9.8633 22.1587C9.7146 22.0094 9.64885 21.9687 9.6281 21.771L9.59295 21.9232C9.49307 21.9651 9.47238 21.9295 9.34291 21.8837Z" fill="white"/>
<path d="M9.34277 21.8829C9.35826 21.743 9.34953 21.6413 9.47392 21.5603C9.58234 21.6327 9.56173 21.6396 9.62796 21.7702L9.59281 21.9224C9.49292 21.9643 9.47224 21.9288 9.34277 21.8829Z" fill="#DEDED6"/>
<path d="M23.8434 29.8164C24.1069 29.9453 24.1377 29.9548 24.4362 30.0143C24.3453 30.1683 24.2545 30.3397 24.1669 30.4972C24.136 30.5636 24.1161 30.5803 24.0684 30.6333L23.9989 30.6323C23.857 30.4819 23.7796 30.0208 23.8434 29.8164Z" fill="#454641"/>
<path d="M29.3827 14.3164C29.5372 14.3437 29.5845 14.3454 29.7203 14.4267C29.7066 14.5324 29.5238 14.5358 29.5084 14.5705C29.3968 14.8212 29.5257 14.7318 29.3376 14.9332C29.198 14.9611 29.1766 14.9669 29.0361 14.9275C28.9459 14.8413 28.9678 14.8864 28.957 14.7571C29.064 14.4873 29.1291 14.4704 29.3827 14.3164Z" fill="white"/>
<path d="M22.4543 31.3026C22.5902 31.1509 22.6821 30.6822 22.8664 30.5781C23.0771 30.6284 23.1705 31.095 22.9478 31.2456C22.8264 31.2439 22.8715 31.2581 22.7729 31.1979L22.7311 31.1552C22.6471 31.304 22.6281 31.33 22.4587 31.3954C22.435 31.3391 22.4417 31.369 22.4543 31.3026Z" fill="white"/>
<path d="M22.7311 31.1551C22.7196 31.021 22.7326 30.9925 22.7719 30.8696C22.8678 30.7793 22.8231 30.7952 22.9372 30.7973C23.0807 30.969 22.9006 31.0983 22.7729 31.1979L22.7311 31.1551Z" fill="#DEDED6"/>
<path d="M14.6003 29.1699C14.7733 29.2347 14.9389 29.3836 14.851 29.58L14.7982 29.5968C14.7521 29.5138 14.7064 29.4306 14.6612 29.3472L14.5988 29.337C14.5089 29.4302 14.5358 29.4032 14.5261 29.5626C14.451 29.6551 14.444 29.6345 14.316 29.6727L14.2905 29.6805C14.2178 29.7942 14.354 29.738 14.3593 29.8941L14.3013 29.9128C14.2079 29.8653 14.2365 29.8787 14.1756 29.7705C14.1652 29.5355 14.4106 29.3899 14.6003 29.1699Z" fill="white"/>
<path d="M18.8029 31.3535C19.0146 31.2998 19.0052 31.2768 19.1355 31.0645L19.1752 31.0948C19.1705 31.239 19.191 31.5175 19.1303 31.6149C18.9879 31.6194 18.9805 31.5284 18.9223 31.5168C18.6698 31.4664 18.6016 31.5655 18.356 31.4301C18.4816 31.3423 18.5686 31.4631 18.8029 31.3535Z" fill="#454641"/>
<path d="M21.5555 9.45418C21.8139 9.4415 21.8863 9.54389 22.0884 9.70673C21.8454 9.85375 21.6486 9.95872 21.4765 10.1848L21.4368 10.2405L21.3955 10.2216C21.3987 9.96599 21.6079 9.89035 21.8356 9.66798L21.811 9.63094C21.6792 9.5838 21.6378 9.57388 21.5555 9.45418Z" fill="white"/>
<path d="M17.9867 31.0239C17.9648 30.9147 17.9681 30.9008 17.8961 30.8221C17.7309 30.8323 17.7778 30.9599 17.6101 31.0017L17.5742 30.95C17.5894 30.8209 17.6443 30.8104 17.7595 30.6992C18.0118 30.819 18.0964 30.8373 18.3639 30.891C18.2102 31.0632 18.2235 31.0641 17.9867 31.0239Z" fill="white"/>
<path d="M12.45 12.6268L12.5569 12.6672C12.6695 12.854 12.9216 13.2753 12.9041 13.4832C12.7645 13.388 12.4313 12.8251 12.45 12.6268Z" fill="white"/>
<path d="M22.3047 19.7503C22.5608 19.7524 23.063 19.7104 23.2075 19.9138C22.8388 19.9105 22.5829 19.9671 22.3047 19.7503Z" fill="#DEDED6"/>
<path d="M22.4589 31.3969L22.4226 31.3982C22.3166 31.3228 22.352 31.3628 22.2944 31.2358C22.3066 31.0805 22.3956 30.8559 22.4878 30.7305C22.5335 30.8426 22.4415 31.0806 22.4011 31.2027L22.4544 31.3042C22.4419 31.3705 22.4351 31.3406 22.4589 31.3969Z" fill="#595A58"/>
<path d="M17.5163 16.6328C17.6009 16.7432 17.6063 17.0822 17.6882 17.3022L17.701 17.3358L17.6706 17.3866L17.6073 17.3959C17.5761 17.266 17.4818 16.7463 17.5163 16.6328Z" fill="#DEDED6"/>
<path d="M17.4747 16.0488L17.5234 16.092C17.5771 16.2065 17.5628 16.3162 17.5618 16.4456L17.5109 16.4065C17.4556 16.3009 17.4717 16.1703 17.4747 16.0488Z" fill="#DEDED6"/>
</g>
<defs>
<clipPath id="clip0_3227_45386">
<rect width="41" height="41" fill="white"/>
</clipPath>
</defs>
</svg>
