<svg width="23" height="18" viewBox="0 0 23 18" fill="none" xmlns="http://www.w3.org/2000/svg">
<path d="M-0.0001297 14.5836H1.32568V15.9094H-0.0001297V14.5836Z" fill="#0F100F"/>
<path d="M2.65173 15.9095H3.97754V17.2354H2.65173V15.9095Z" fill="#0F100F"/>
<path d="M2.65173 0H3.97754V1.32581H2.65173V0Z" fill="#0F100F"/>
<path d="M5.30309 15.9095H6.62891V17.2354H5.30309V15.9095Z" fill="#0F100F"/>
<path d="M5.30309 0H6.62891V1.32581H5.30309V0Z" fill="#0F100F"/>
<path d="M7.95495 15.9095H9.28076V17.2354H7.95495V15.9095Z" fill="#0F100F"/>
<path d="M7.95495 0H9.28076V1.32581H7.95495V0Z" fill="#0F100F"/>
<path d="M10.6063 15.9095H11.9321V17.2354H10.6063V15.9095Z" fill="#0F100F"/>
<path d="M10.6063 0H11.9321V1.32581H10.6063V0Z" fill="#0F100F"/>
<path d="M13.2582 15.9095H14.584V17.2354H13.2582V15.9095Z" fill="#0F100F"/>
<path d="M13.2582 0H14.584V1.32581H13.2582V0Z" fill="#0F100F"/>
<path d="M15.9095 15.9095H17.2354V17.2354H15.9095V15.9095Z" fill="#0F100F"/>
<path d="M15.9095 0H17.2354V1.32581H15.9095V0Z" fill="#0F100F"/>
<path d="M19.8871 15.9095H21.2129V17.2354H19.8871V15.9095Z" fill="#0F100F"/>
<path d="M19.8871 0H21.2129V1.32581H19.8871V0Z" fill="#0F100F"/>
<path d="M1.32604 15.9095H2.65186V17.2354H1.32604V15.9095Z" fill="#0F100F"/>
<path d="M1.32604 0H2.65186V1.32581H1.32604V0Z" fill="#0F100F"/>
<path d="M3.97741 15.9095H5.30322V17.2354H3.97741V15.9095Z" fill="#0F100F"/>
<path d="M3.97741 0H5.30322V1.32581H3.97741V0Z" fill="#0F100F"/>
<path d="M6.62926 15.9095H7.95508V17.2354H6.62926V15.9095Z" fill="#0F100F"/>
<path d="M6.62926 0H7.95508V1.32581H6.62926V0Z" fill="#0F100F"/>
<path d="M9.28063 15.9095H10.6064V17.2354H9.28063V15.9095Z" fill="#0F100F"/>
<path d="M9.28063 0H10.6064V1.32581H9.28063V0Z" fill="#0F100F"/>
<path d="M11.9325 15.9095H13.2583V17.2354H11.9325V15.9095Z" fill="#0F100F"/>
<path d="M11.9325 0H13.2583V1.32581H11.9325V0Z" fill="#0F100F"/>
<path d="M5.79531e-08 13.2579L0 11.9321L1.32581 11.9321L1.32581 13.2579L5.79531e-08 13.2579Z" fill="#0F100F"/>
<path d="M21.2129 13.2579L21.2129 11.9321L22.5387 11.9321L22.5387 13.2579L21.2129 13.2579Z" fill="#0F100F"/>
<path d="M5.79531e-08 10.6066L0 9.28076L1.32581 9.28076L1.32581 10.6066L5.79531e-08 10.6066Z" fill="#0F100F"/>
<path d="M21.2129 10.6066L21.2129 9.28076L22.5387 9.28076L22.5387 10.6066L21.2129 10.6066Z" fill="#0F100F"/>
<path d="M5.79531e-08 7.9546L0 6.62878L1.32581 6.62878L1.32581 7.9546L5.79531e-08 7.9546Z" fill="#0F100F"/>
<path d="M21.2129 7.9546L21.2129 6.62878L22.5387 6.62878L22.5387 7.9546L21.2129 7.9546Z" fill="#0F100F"/>
<path d="M5.79531e-08 5.30323L0 3.97742L1.32581 3.97742L1.32581 5.30323L5.79531e-08 5.30323Z" fill="#0F100F"/>
<path d="M21.2129 5.30323L21.2129 3.97742L22.5387 3.97742L22.5387 5.30323L21.2129 5.30323Z" fill="#0F100F"/>
<path d="M5.79531e-08 2.65174L0 1.32593L1.32581 1.32593L1.32581 2.65174L5.79531e-08 2.65174Z" fill="#0F100F"/>
<path d="M21.2129 2.65174L21.2129 1.32593L22.5387 1.32593L22.5387 2.65174L21.2129 2.65174Z" fill="#0F100F"/>
<path d="M5.79531e-08 14.584L0 13.2582L1.32581 13.2582L1.32581 14.584L5.79531e-08 14.584Z" fill="#0F100F"/>
<path d="M1.32568 14.584L1.32568 13.2582L2.6515 13.2582L2.6515 14.584L1.32568 14.584Z" fill="#0F100F"/>
<path d="M2.65186 13.2579L2.65186 11.9321L3.97767 11.9321L3.97767 13.2579L2.65186 13.2579Z" fill="#0F100F"/>
<path d="M3.97754 11.932L3.97754 10.6062L5.30335 10.6062L5.30335 11.932L3.97754 11.932Z" fill="#0F100F"/>
<path d="M5.30322 10.6066L5.30322 9.28076L6.62904 9.28076L6.62904 10.6066L5.30322 10.6066Z" fill="#0F100F"/>
<path d="M6.62891 11.932L6.62891 10.6062L7.95472 10.6062L7.95472 11.932L6.62891 11.932Z" fill="#0F100F"/>
<path d="M7.95508 13.2579L7.95508 11.9321L9.28089 11.9321L9.28089 13.2579L7.95508 13.2579Z" fill="#0F100F"/>
<path d="M9.28076 14.584L9.28076 13.2582L10.6066 13.2582L10.6066 14.584L9.28076 14.584Z" fill="#0F100F"/>
<path d="M10.6064 13.2579L10.6064 11.9321L11.9323 11.9321L11.9323 13.2579L10.6064 13.2579Z" fill="#0F100F"/>
<path d="M11.9321 11.932L11.9321 10.6062L13.2579 10.6062L13.2579 11.932L11.9321 11.932Z" fill="#0F100F"/>
<path d="M13.2583 10.6066L13.2583 9.28076L14.5841 9.28076L14.5841 10.6066L13.2583 10.6066Z" fill="#0F100F"/>
<path d="M14.584 9.28004L14.584 7.95422L15.9098 7.95422L15.9098 9.28004L14.584 9.28004Z" fill="#0F100F"/>
<path d="M15.9097 7.9546L15.9097 6.62878L17.2355 6.62878L17.2355 7.9546L15.9097 7.9546Z" fill="#0F100F"/>
<path d="M17.2354 9.28004L17.2354 7.95422L18.5612 7.95422L18.5612 9.28004L17.2354 9.28004Z" fill="#0F100F"/>
<path d="M18.5615 10.6066L18.5615 9.28076L19.8873 9.28076L19.8873 10.6066L18.5615 10.6066Z" fill="#0F100F"/>
<path d="M19.8872 11.932L19.8872 10.6062L21.213 10.6062L21.213 11.932L19.8872 11.932Z" fill="#0F100F"/>
<path d="M21.2129 14.584L21.2129 13.2582L22.5387 13.2582L22.5387 14.584L21.2129 14.584Z" fill="#0F100F"/>
<path d="M5.79531e-08 11.932L0 10.6062L1.32581 10.6062L1.32581 11.932L5.79531e-08 11.932Z" fill="#0F100F"/>
<path d="M21.2129 11.932L21.2129 10.6062L22.5387 10.6062L22.5387 11.932L21.2129 11.932Z" fill="#0F100F"/>
<path d="M5.79531e-08 9.28004L0 7.95422L1.32581 7.95422L1.32581 9.28004L5.79531e-08 9.28004Z" fill="#0F100F"/>
<path d="M21.2129 9.28004L21.2129 7.95422L22.5387 7.95422L22.5387 9.28004L21.2129 9.28004Z" fill="#0F100F"/>
<path d="M5.79531e-08 6.62867L0 5.30286L1.32581 5.30286L1.32581 6.62867L5.79531e-08 6.62867Z" fill="#0F100F"/>
<path d="M21.2129 6.62867L21.2129 5.30286L22.5387 5.30286L22.5387 6.62867L21.2129 6.62867Z" fill="#0F100F"/>
<path d="M5.79531e-08 3.97718L0 2.65137L1.32581 2.65137L1.32581 3.97718L5.79531e-08 3.97718Z" fill="#0F100F"/>
<path d="M21.2129 3.97718L21.2129 2.65137L22.5387 2.65137L22.5387 3.97718L21.2129 3.97718Z" fill="#0F100F"/>
<path d="M14.5839 15.9095H15.9097V17.2354H14.5839V15.9095Z" fill="#0F100F"/>
<path d="M14.5839 0H15.9097V1.32581H14.5839V0Z" fill="#0F100F"/>
<path d="M18.5614 15.9095H19.8872V17.2354H18.5614V15.9095Z" fill="#0F100F"/>
<path d="M18.5614 0H19.8872V1.32581H18.5614V0Z" fill="#0F100F"/>
<path d="M17.2357 15.9095H18.5615V17.2354H17.2357V15.9095Z" fill="#0F100F"/>
<path d="M17.2357 0H18.5615V1.32581H17.2357V0Z" fill="#0F100F"/>
<path d="M21.2132 14.5836H22.5391V15.9094H21.2132V14.5836Z" fill="#0F100F"/>
<path d="M6.62926 5.74451H7.95508V7.07032H6.62926V5.74451Z" fill="#0F100F"/>
<path d="M7.95495 4.41907H9.28076V5.74488H7.95495V4.41907Z" fill="#0F100F"/>
<path d="M5.30309 4.41907H6.62891V5.74488H5.30309V4.41907Z" fill="#0F100F"/>
<path d="M6.62926 3.09363H7.95508V4.41944H6.62926V3.09363Z" fill="#0F100F"/>
</svg>
