<svg width="14" height="23" viewBox="0 0 14 23" fill="none" xmlns="http://www.w3.org/2000/svg">
<path d="M3.56817 2.37927H4.75781V3.56892H3.56817V2.37927Z" fill="#0F100F"/>
<path d="M3.56817 1.18958H4.75781V2.37922H3.56817V1.18958Z" fill="#0F100F"/>
<path d="M4.75762 0H5.94727V1.18965H4.75762V0Z" fill="#0F100F"/>
<path d="M5.94707 0H7.13672V1.18965H5.94707V0Z" fill="#0F100F"/>
<path d="M7.1375 1.18958H8.32715V2.37922H7.1375V1.18958Z" fill="#0F100F"/>
<path d="M7.1375 2.37927H8.32715V3.56892H7.1375V2.37927Z" fill="#0F100F"/>
<path d="M4.75762 3.56885H5.94727V4.75849H4.75762V3.56885Z" fill="#0F100F"/>
<path d="M5.94707 3.56885H7.13672V4.75849H5.94707V3.56885Z" fill="#0F100F"/>
<path d="M4.75762 5.15527H5.94727V6.34492H4.75762V5.15527Z" fill="#0F100F"/>
<path d="M3.56817 5.15527H4.75781V6.34492H3.56817V5.15527Z" fill="#0F100F"/>
<path d="M3.56817 6.34473H4.75781V7.53437H3.56817V6.34473Z" fill="#0F100F"/>
<path d="M3.56817 7.5343H4.75781V8.72395H3.56817V7.5343Z" fill="#0F100F"/>
<path d="M3.56817 9.91406H4.75781V11.1037H3.56817V9.91406Z" fill="#0F100F"/>
<path d="M3.56817 11.1035H4.75781V12.2932H3.56817V11.1035Z" fill="#0F100F"/>
<path d="M3.56817 12.2932H4.75781V13.4829H3.56817V12.2932Z" fill="#0F100F"/>
<path d="M3.56817 13.4829H4.75781V14.6726H3.56817V13.4829Z" fill="#0F100F"/>
<path d="M4.75762 14.6724H5.94727V15.862H4.75762V14.6724Z" fill="#0F100F"/>
<path d="M4.75762 15.8619H5.94727V17.0516H4.75762V15.8619Z" fill="#0F100F"/>
<path d="M3.56817 17.0515H4.75781V18.2412H3.56817V17.0515Z" fill="#0F100F"/>
<path d="M2.37871 18.2412H3.56836V19.4309H2.37871V18.2412Z" fill="#0F100F"/>
<path d="M1.18926 19.4308H2.37891V20.6204H1.18926V19.4308Z" fill="#0F100F"/>
<path d="M-0.000193357 20.6207H1.18945V21.8104H-0.000193357V20.6207Z" fill="#0F100F"/>
<path d="M1.18926 21.8104H2.37891V23.0001H1.18926V21.8104Z" fill="#0F100F"/>
<path d="M2.37871 21.8104H3.56836V23.0001H2.37871V21.8104Z" fill="#0F100F"/>
<path d="M3.56817 20.6207H4.75781V21.8104H3.56817V20.6207Z" fill="#0F100F"/>
<path d="M4.75762 19.4308H5.94727V20.6204H4.75762V19.4308Z" fill="#0F100F"/>
<path d="M5.94805 18.2412H7.1377V19.4309H5.94805V18.2412Z" fill="#0F100F"/>
<path d="M5.94805 15.8619H7.1377V17.0516H5.94805V15.8619Z" fill="#0F100F"/>
<path d="M5.94805 17.0515H7.1377V18.2412H5.94805V17.0515Z" fill="#0F100F"/>
<path d="M7.1375 18.2412H8.32715V19.4309H7.1375V18.2412Z" fill="#0F100F"/>
<path d="M7.1375 19.4308H8.32715V20.6204H7.1375V19.4308Z" fill="#0F100F"/>
<path d="M8.32793 20.6207H9.51758V21.8104H8.32793V20.6207Z" fill="#0F100F"/>
<path d="M8.32793 21.8104H9.51758V23.0001H8.32793V21.8104Z" fill="#0F100F"/>
<path d="M9.51738 21.8104H10.707V23.0001H9.51738V21.8104Z" fill="#0F100F"/>
<path d="M10.7068 20.6207H11.8965V21.8104H10.7068V20.6207Z" fill="#0F100F"/>
<path d="M10.7068 19.4308H11.8965V20.6204H10.7068V19.4308Z" fill="#0F100F"/>
<path d="M7.1375 13.4829H8.32715V14.6726H7.1375V13.4829Z" fill="#0F100F"/>
<path d="M8.32793 14.6724H9.51758V15.862H8.32793V14.6724Z" fill="#0F100F"/>
<path d="M8.32793 15.8619H9.51758V17.0516H8.32793V15.8619Z" fill="#0F100F"/>
<path d="M9.51738 17.0515H10.707V18.2412H9.51738V17.0515Z" fill="#0F100F"/>
<path d="M9.51738 18.2412H10.707V19.4309H9.51738V18.2412Z" fill="#0F100F"/>
<path d="M3.56817 8.72437H4.75781V9.91401H3.56817V8.72437Z" fill="#0F100F"/>
<path d="M2.37871 6.34473H3.56836V7.53437H2.37871V6.34473Z" fill="#0F100F"/>
<path d="M1.18926 7.5343H2.37891V8.72395H1.18926V7.5343Z" fill="#0F100F"/>
<path d="M1.18926 8.72437H2.37891V9.91401H1.18926V8.72437Z" fill="#0F100F"/>
<path d="M1.18926 9.91406H2.37891V11.1037H1.18926V9.91406Z" fill="#0F100F"/>
<path d="M1.18926 11.1035H2.37891V12.2932H1.18926V11.1035Z" fill="#0F100F"/>
<path d="M1.18926 12.2932H2.37891V13.4829H1.18926V12.2932Z" fill="#0F100F"/>
<path d="M5.94805 5.15527H7.1377V6.34492H5.94805V5.15527Z" fill="#0F100F"/>
<path d="M7.1375 6.34473H8.32715V7.53437H7.1375V6.34473Z" fill="#0F100F"/>
<path d="M7.1375 7.5343H8.32715V8.72395H7.1375V7.5343Z" fill="#0F100F"/>
<path d="M7.1375 8.72437H8.32715V9.91401H7.1375V8.72437Z" fill="#0F100F"/>
<path d="M8.32793 7.5343H9.51758V8.72395H8.32793V7.5343Z" fill="#0F100F"/>
<path d="M9.51738 8.72437H10.707V9.91401H9.51738V8.72437Z" fill="#0F100F"/>
<path d="M10.7068 9.91406H11.8965V11.1037H10.7068V9.91406Z" fill="#0F100F"/>
<path d="M11.8963 11.1035H13.0859V12.2932H11.8963V11.1035Z" fill="#0F100F"/>
<path d="M7.1375 9.91406H8.32715V11.1037H7.1375V9.91406Z" fill="#0F100F"/>
<path d="M7.1375 11.1035H8.32715V12.2932H7.1375V11.1035Z" fill="#0F100F"/>
<path d="M7.1375 12.2932H8.32715V13.4829H7.1375V12.2932Z" fill="#0F100F"/>
</svg>
