<svg width="13" height="13" viewBox="0 0 13 13" fill="none" xmlns="http://www.w3.org/2000/svg">
<path d="M1.5587 12.1053C1.23934 12.4336 0.703353 12.4031 0.423221 12.0408C0.200275 11.7525 0.215842 11.3458 0.46018 11.0754L4.39189 6.72336C4.75055 6.32636 4.7332 5.7174 4.35252 5.34147L0.218597 1.25909C-0.0861291 0.958159 -0.0703435 0.461554 0.252878 0.180587C0.546116 -0.0743148 0.987032 -0.0571857 1.25961 0.219697L5.49345 4.5204C5.8773 4.91032 6.50326 4.91934 6.89819 4.54064L11.4132 0.211271C11.6816 -0.0461569 12.1146 -0.0116887 12.3389 0.284973C12.521 0.525717 12.5037 0.862471 12.298 1.08335L7.9873 5.71192C7.62394 6.10207 7.63056 6.70867 8.00233 7.09079L11.8554 11.0511C12.1275 11.3308 12.1452 11.7704 11.8965 12.071C11.6067 12.4213 11.0771 12.4426 10.7601 12.1168L6.87056 8.11899C6.47793 7.71544 5.82969 7.71544 5.43706 8.11899L1.5587 12.1053Z" fill="#00B569"/>
</svg>
